%TF.GenerationSoftware,KiCad,Pcbnew,10.0.3-10.0.3~ubuntu24.04.1*%
%TF.CreationDate,2026-06-25T08:15:25+00:00*%
%TF.ProjectId,streamline_rs485,73747265-616d-46c6-996e-655f72733438,A*%
%TF.SameCoordinates,Original*%
%TF.FileFunction,OtherDrawing,Comment*%
%FSLAX46Y46*%
G04 Gerber Fmt 4.6, Leading zero omitted, Abs format (unit mm)*
G04 Created by KiCad (PCBNEW 10.0.3-10.0.3~ubuntu24.04.1) date 2026-06-25 08:15:25*
%MOMM*%
%LPD*%
G01*
G04 APERTURE LIST*
%ADD10C,0.150000*%
%ADD11C,0.100000*%
G04 APERTURE END LIST*
D10*
X123190476Y-67954819D02*
X123190476Y-66954819D01*
X123190476Y-66954819D02*
X123523809Y-67669104D01*
X123523809Y-67669104D02*
X123857142Y-66954819D01*
X123857142Y-66954819D02*
X123857142Y-67954819D01*
X124238095Y-66954819D02*
X124857142Y-66954819D01*
X124857142Y-66954819D02*
X124523809Y-67335771D01*
X124523809Y-67335771D02*
X124666666Y-67335771D01*
X124666666Y-67335771D02*
X124761904Y-67383390D01*
X124761904Y-67383390D02*
X124809523Y-67431009D01*
X124809523Y-67431009D02*
X124857142Y-67526247D01*
X124857142Y-67526247D02*
X124857142Y-67764342D01*
X124857142Y-67764342D02*
X124809523Y-67859580D01*
X124809523Y-67859580D02*
X124761904Y-67907200D01*
X124761904Y-67907200D02*
X124666666Y-67954819D01*
X124666666Y-67954819D02*
X124380952Y-67954819D01*
X124380952Y-67954819D02*
X124285714Y-67907200D01*
X124285714Y-67907200D02*
X124238095Y-67859580D01*
X147476190Y-63804819D02*
X148142856Y-63804819D01*
X148142856Y-63804819D02*
X147714285Y-64804819D01*
X148714285Y-63804819D02*
X148809523Y-63804819D01*
X148809523Y-63804819D02*
X148904761Y-63852438D01*
X148904761Y-63852438D02*
X148952380Y-63900057D01*
X148952380Y-63900057D02*
X148999999Y-63995295D01*
X148999999Y-63995295D02*
X149047618Y-64185771D01*
X149047618Y-64185771D02*
X149047618Y-64423866D01*
X149047618Y-64423866D02*
X148999999Y-64614342D01*
X148999999Y-64614342D02*
X148952380Y-64709580D01*
X148952380Y-64709580D02*
X148904761Y-64757200D01*
X148904761Y-64757200D02*
X148809523Y-64804819D01*
X148809523Y-64804819D02*
X148714285Y-64804819D01*
X148714285Y-64804819D02*
X148619047Y-64757200D01*
X148619047Y-64757200D02*
X148571428Y-64709580D01*
X148571428Y-64709580D02*
X148523809Y-64614342D01*
X148523809Y-64614342D02*
X148476190Y-64423866D01*
X148476190Y-64423866D02*
X148476190Y-64185771D01*
X148476190Y-64185771D02*
X148523809Y-63995295D01*
X148523809Y-63995295D02*
X148571428Y-63900057D01*
X148571428Y-63900057D02*
X148619047Y-63852438D01*
X148619047Y-63852438D02*
X148714285Y-63804819D01*
X150238095Y-64804819D02*
X150238095Y-64138152D01*
X150238095Y-64233390D02*
X150285714Y-64185771D01*
X150285714Y-64185771D02*
X150380952Y-64138152D01*
X150380952Y-64138152D02*
X150523809Y-64138152D01*
X150523809Y-64138152D02*
X150619047Y-64185771D01*
X150619047Y-64185771D02*
X150666666Y-64281009D01*
X150666666Y-64281009D02*
X150666666Y-64804819D01*
X150666666Y-64281009D02*
X150714285Y-64185771D01*
X150714285Y-64185771D02*
X150809523Y-64138152D01*
X150809523Y-64138152D02*
X150952380Y-64138152D01*
X150952380Y-64138152D02*
X151047619Y-64185771D01*
X151047619Y-64185771D02*
X151095238Y-64281009D01*
X151095238Y-64281009D02*
X151095238Y-64804819D01*
X151571428Y-64804819D02*
X151571428Y-64138152D01*
X151571428Y-64233390D02*
X151619047Y-64185771D01*
X151619047Y-64185771D02*
X151714285Y-64138152D01*
X151714285Y-64138152D02*
X151857142Y-64138152D01*
X151857142Y-64138152D02*
X151952380Y-64185771D01*
X151952380Y-64185771D02*
X151999999Y-64281009D01*
X151999999Y-64281009D02*
X151999999Y-64804819D01*
X151999999Y-64281009D02*
X152047618Y-64185771D01*
X152047618Y-64185771D02*
X152142856Y-64138152D01*
X152142856Y-64138152D02*
X152285713Y-64138152D01*
X152285713Y-64138152D02*
X152380952Y-64185771D01*
X152380952Y-64185771D02*
X152428571Y-64281009D01*
X152428571Y-64281009D02*
X152428571Y-64804819D01*
X116829762Y-122304819D02*
X117020238Y-122304819D01*
X117020238Y-122304819D02*
X117115476Y-122257200D01*
X117115476Y-122257200D02*
X117163095Y-122209580D01*
X117163095Y-122209580D02*
X117258333Y-122066723D01*
X117258333Y-122066723D02*
X117305952Y-121876247D01*
X117305952Y-121876247D02*
X117305952Y-121495295D01*
X117305952Y-121495295D02*
X117258333Y-121400057D01*
X117258333Y-121400057D02*
X117210714Y-121352438D01*
X117210714Y-121352438D02*
X117115476Y-121304819D01*
X117115476Y-121304819D02*
X116925000Y-121304819D01*
X116925000Y-121304819D02*
X116829762Y-121352438D01*
X116829762Y-121352438D02*
X116782143Y-121400057D01*
X116782143Y-121400057D02*
X116734524Y-121495295D01*
X116734524Y-121495295D02*
X116734524Y-121733390D01*
X116734524Y-121733390D02*
X116782143Y-121828628D01*
X116782143Y-121828628D02*
X116829762Y-121876247D01*
X116829762Y-121876247D02*
X116925000Y-121923866D01*
X116925000Y-121923866D02*
X117115476Y-121923866D01*
X117115476Y-121923866D02*
X117210714Y-121876247D01*
X117210714Y-121876247D02*
X117258333Y-121828628D01*
X117258333Y-121828628D02*
X117305952Y-121733390D01*
X117782143Y-122257200D02*
X117782143Y-122304819D01*
X117782143Y-122304819D02*
X117734524Y-122400057D01*
X117734524Y-122400057D02*
X117686905Y-122447676D01*
X118353571Y-121733390D02*
X118258333Y-121685771D01*
X118258333Y-121685771D02*
X118210714Y-121638152D01*
X118210714Y-121638152D02*
X118163095Y-121542914D01*
X118163095Y-121542914D02*
X118163095Y-121495295D01*
X118163095Y-121495295D02*
X118210714Y-121400057D01*
X118210714Y-121400057D02*
X118258333Y-121352438D01*
X118258333Y-121352438D02*
X118353571Y-121304819D01*
X118353571Y-121304819D02*
X118544047Y-121304819D01*
X118544047Y-121304819D02*
X118639285Y-121352438D01*
X118639285Y-121352438D02*
X118686904Y-121400057D01*
X118686904Y-121400057D02*
X118734523Y-121495295D01*
X118734523Y-121495295D02*
X118734523Y-121542914D01*
X118734523Y-121542914D02*
X118686904Y-121638152D01*
X118686904Y-121638152D02*
X118639285Y-121685771D01*
X118639285Y-121685771D02*
X118544047Y-121733390D01*
X118544047Y-121733390D02*
X118353571Y-121733390D01*
X118353571Y-121733390D02*
X118258333Y-121781009D01*
X118258333Y-121781009D02*
X118210714Y-121828628D01*
X118210714Y-121828628D02*
X118163095Y-121923866D01*
X118163095Y-121923866D02*
X118163095Y-122114342D01*
X118163095Y-122114342D02*
X118210714Y-122209580D01*
X118210714Y-122209580D02*
X118258333Y-122257200D01*
X118258333Y-122257200D02*
X118353571Y-122304819D01*
X118353571Y-122304819D02*
X118544047Y-122304819D01*
X118544047Y-122304819D02*
X118639285Y-122257200D01*
X118639285Y-122257200D02*
X118686904Y-122209580D01*
X118686904Y-122209580D02*
X118734523Y-122114342D01*
X118734523Y-122114342D02*
X118734523Y-121923866D01*
X118734523Y-121923866D02*
X118686904Y-121828628D01*
X118686904Y-121828628D02*
X118639285Y-121781009D01*
X118639285Y-121781009D02*
X118544047Y-121733390D01*
X119639285Y-121304819D02*
X119163095Y-121304819D01*
X119163095Y-121304819D02*
X119115476Y-121781009D01*
X119115476Y-121781009D02*
X119163095Y-121733390D01*
X119163095Y-121733390D02*
X119258333Y-121685771D01*
X119258333Y-121685771D02*
X119496428Y-121685771D01*
X119496428Y-121685771D02*
X119591666Y-121733390D01*
X119591666Y-121733390D02*
X119639285Y-121781009D01*
X119639285Y-121781009D02*
X119686904Y-121876247D01*
X119686904Y-121876247D02*
X119686904Y-122114342D01*
X119686904Y-122114342D02*
X119639285Y-122209580D01*
X119639285Y-122209580D02*
X119591666Y-122257200D01*
X119591666Y-122257200D02*
X119496428Y-122304819D01*
X119496428Y-122304819D02*
X119258333Y-122304819D01*
X119258333Y-122304819D02*
X119163095Y-122257200D01*
X119163095Y-122257200D02*
X119115476Y-122209580D01*
X120877381Y-122304819D02*
X120877381Y-121638152D01*
X120877381Y-121733390D02*
X120925000Y-121685771D01*
X120925000Y-121685771D02*
X121020238Y-121638152D01*
X121020238Y-121638152D02*
X121163095Y-121638152D01*
X121163095Y-121638152D02*
X121258333Y-121685771D01*
X121258333Y-121685771D02*
X121305952Y-121781009D01*
X121305952Y-121781009D02*
X121305952Y-122304819D01*
X121305952Y-121781009D02*
X121353571Y-121685771D01*
X121353571Y-121685771D02*
X121448809Y-121638152D01*
X121448809Y-121638152D02*
X121591666Y-121638152D01*
X121591666Y-121638152D02*
X121686905Y-121685771D01*
X121686905Y-121685771D02*
X121734524Y-121781009D01*
X121734524Y-121781009D02*
X121734524Y-122304819D01*
X122210714Y-122304819D02*
X122210714Y-121638152D01*
X122210714Y-121733390D02*
X122258333Y-121685771D01*
X122258333Y-121685771D02*
X122353571Y-121638152D01*
X122353571Y-121638152D02*
X122496428Y-121638152D01*
X122496428Y-121638152D02*
X122591666Y-121685771D01*
X122591666Y-121685771D02*
X122639285Y-121781009D01*
X122639285Y-121781009D02*
X122639285Y-122304819D01*
X122639285Y-121781009D02*
X122686904Y-121685771D01*
X122686904Y-121685771D02*
X122782142Y-121638152D01*
X122782142Y-121638152D02*
X122924999Y-121638152D01*
X122924999Y-121638152D02*
X123020238Y-121685771D01*
X123020238Y-121685771D02*
X123067857Y-121781009D01*
X123067857Y-121781009D02*
X123067857Y-122304819D01*
X114452380Y-66304819D02*
X115071427Y-66304819D01*
X115071427Y-66304819D02*
X114738094Y-66685771D01*
X114738094Y-66685771D02*
X114880951Y-66685771D01*
X114880951Y-66685771D02*
X114976189Y-66733390D01*
X114976189Y-66733390D02*
X115023808Y-66781009D01*
X115023808Y-66781009D02*
X115071427Y-66876247D01*
X115071427Y-66876247D02*
X115071427Y-67114342D01*
X115071427Y-67114342D02*
X115023808Y-67209580D01*
X115023808Y-67209580D02*
X114976189Y-67257200D01*
X114976189Y-67257200D02*
X114880951Y-67304819D01*
X114880951Y-67304819D02*
X114595237Y-67304819D01*
X114595237Y-67304819D02*
X114499999Y-67257200D01*
X114499999Y-67257200D02*
X114452380Y-67209580D01*
X116261904Y-67304819D02*
X116261904Y-66638152D01*
X116261904Y-66733390D02*
X116309523Y-66685771D01*
X116309523Y-66685771D02*
X116404761Y-66638152D01*
X116404761Y-66638152D02*
X116547618Y-66638152D01*
X116547618Y-66638152D02*
X116642856Y-66685771D01*
X116642856Y-66685771D02*
X116690475Y-66781009D01*
X116690475Y-66781009D02*
X116690475Y-67304819D01*
X116690475Y-66781009D02*
X116738094Y-66685771D01*
X116738094Y-66685771D02*
X116833332Y-66638152D01*
X116833332Y-66638152D02*
X116976189Y-66638152D01*
X116976189Y-66638152D02*
X117071428Y-66685771D01*
X117071428Y-66685771D02*
X117119047Y-66781009D01*
X117119047Y-66781009D02*
X117119047Y-67304819D01*
X117595237Y-67304819D02*
X117595237Y-66638152D01*
X117595237Y-66733390D02*
X117642856Y-66685771D01*
X117642856Y-66685771D02*
X117738094Y-66638152D01*
X117738094Y-66638152D02*
X117880951Y-66638152D01*
X117880951Y-66638152D02*
X117976189Y-66685771D01*
X117976189Y-66685771D02*
X118023808Y-66781009D01*
X118023808Y-66781009D02*
X118023808Y-67304819D01*
X118023808Y-66781009D02*
X118071427Y-66685771D01*
X118071427Y-66685771D02*
X118166665Y-66638152D01*
X118166665Y-66638152D02*
X118309522Y-66638152D01*
X118309522Y-66638152D02*
X118404761Y-66685771D01*
X118404761Y-66685771D02*
X118452380Y-66781009D01*
X118452380Y-66781009D02*
X118452380Y-67304819D01*
X106304819Y-98367856D02*
X106304819Y-98844046D01*
X106304819Y-98844046D02*
X106781009Y-98891665D01*
X106781009Y-98891665D02*
X106733390Y-98844046D01*
X106733390Y-98844046D02*
X106685771Y-98748808D01*
X106685771Y-98748808D02*
X106685771Y-98510713D01*
X106685771Y-98510713D02*
X106733390Y-98415475D01*
X106733390Y-98415475D02*
X106781009Y-98367856D01*
X106781009Y-98367856D02*
X106876247Y-98320237D01*
X106876247Y-98320237D02*
X107114342Y-98320237D01*
X107114342Y-98320237D02*
X107209580Y-98367856D01*
X107209580Y-98367856D02*
X107257200Y-98415475D01*
X107257200Y-98415475D02*
X107304819Y-98510713D01*
X107304819Y-98510713D02*
X107304819Y-98748808D01*
X107304819Y-98748808D02*
X107257200Y-98844046D01*
X107257200Y-98844046D02*
X107209580Y-98891665D01*
X107304819Y-97367856D02*
X107304819Y-97939284D01*
X107304819Y-97653570D02*
X106304819Y-97653570D01*
X106304819Y-97653570D02*
X106447676Y-97748808D01*
X106447676Y-97748808D02*
X106542914Y-97844046D01*
X106542914Y-97844046D02*
X106590533Y-97939284D01*
X107257200Y-96891665D02*
X107304819Y-96891665D01*
X107304819Y-96891665D02*
X107400057Y-96939284D01*
X107400057Y-96939284D02*
X107447676Y-96986903D01*
X106638152Y-96034523D02*
X107304819Y-96034523D01*
X106257200Y-96272618D02*
X106971485Y-96510713D01*
X106971485Y-96510713D02*
X106971485Y-95891666D01*
X106304819Y-95034523D02*
X106304819Y-95510713D01*
X106304819Y-95510713D02*
X106781009Y-95558332D01*
X106781009Y-95558332D02*
X106733390Y-95510713D01*
X106733390Y-95510713D02*
X106685771Y-95415475D01*
X106685771Y-95415475D02*
X106685771Y-95177380D01*
X106685771Y-95177380D02*
X106733390Y-95082142D01*
X106733390Y-95082142D02*
X106781009Y-95034523D01*
X106781009Y-95034523D02*
X106876247Y-94986904D01*
X106876247Y-94986904D02*
X107114342Y-94986904D01*
X107114342Y-94986904D02*
X107209580Y-95034523D01*
X107209580Y-95034523D02*
X107257200Y-95082142D01*
X107257200Y-95082142D02*
X107304819Y-95177380D01*
X107304819Y-95177380D02*
X107304819Y-95415475D01*
X107304819Y-95415475D02*
X107257200Y-95510713D01*
X107257200Y-95510713D02*
X107209580Y-95558332D01*
X107304819Y-93796427D02*
X106638152Y-93796427D01*
X106733390Y-93796427D02*
X106685771Y-93748808D01*
X106685771Y-93748808D02*
X106638152Y-93653570D01*
X106638152Y-93653570D02*
X106638152Y-93510713D01*
X106638152Y-93510713D02*
X106685771Y-93415475D01*
X106685771Y-93415475D02*
X106781009Y-93367856D01*
X106781009Y-93367856D02*
X107304819Y-93367856D01*
X106781009Y-93367856D02*
X106685771Y-93320237D01*
X106685771Y-93320237D02*
X106638152Y-93224999D01*
X106638152Y-93224999D02*
X106638152Y-93082142D01*
X106638152Y-93082142D02*
X106685771Y-92986903D01*
X106685771Y-92986903D02*
X106781009Y-92939284D01*
X106781009Y-92939284D02*
X107304819Y-92939284D01*
X107304819Y-92463094D02*
X106638152Y-92463094D01*
X106733390Y-92463094D02*
X106685771Y-92415475D01*
X106685771Y-92415475D02*
X106638152Y-92320237D01*
X106638152Y-92320237D02*
X106638152Y-92177380D01*
X106638152Y-92177380D02*
X106685771Y-92082142D01*
X106685771Y-92082142D02*
X106781009Y-92034523D01*
X106781009Y-92034523D02*
X107304819Y-92034523D01*
X106781009Y-92034523D02*
X106685771Y-91986904D01*
X106685771Y-91986904D02*
X106638152Y-91891666D01*
X106638152Y-91891666D02*
X106638152Y-91748809D01*
X106638152Y-91748809D02*
X106685771Y-91653570D01*
X106685771Y-91653570D02*
X106781009Y-91605951D01*
X106781009Y-91605951D02*
X107304819Y-91605951D01*
X177575000Y-121733390D02*
X177479762Y-121685771D01*
X177479762Y-121685771D02*
X177432143Y-121638152D01*
X177432143Y-121638152D02*
X177384524Y-121542914D01*
X177384524Y-121542914D02*
X177384524Y-121495295D01*
X177384524Y-121495295D02*
X177432143Y-121400057D01*
X177432143Y-121400057D02*
X177479762Y-121352438D01*
X177479762Y-121352438D02*
X177575000Y-121304819D01*
X177575000Y-121304819D02*
X177765476Y-121304819D01*
X177765476Y-121304819D02*
X177860714Y-121352438D01*
X177860714Y-121352438D02*
X177908333Y-121400057D01*
X177908333Y-121400057D02*
X177955952Y-121495295D01*
X177955952Y-121495295D02*
X177955952Y-121542914D01*
X177955952Y-121542914D02*
X177908333Y-121638152D01*
X177908333Y-121638152D02*
X177860714Y-121685771D01*
X177860714Y-121685771D02*
X177765476Y-121733390D01*
X177765476Y-121733390D02*
X177575000Y-121733390D01*
X177575000Y-121733390D02*
X177479762Y-121781009D01*
X177479762Y-121781009D02*
X177432143Y-121828628D01*
X177432143Y-121828628D02*
X177384524Y-121923866D01*
X177384524Y-121923866D02*
X177384524Y-122114342D01*
X177384524Y-122114342D02*
X177432143Y-122209580D01*
X177432143Y-122209580D02*
X177479762Y-122257200D01*
X177479762Y-122257200D02*
X177575000Y-122304819D01*
X177575000Y-122304819D02*
X177765476Y-122304819D01*
X177765476Y-122304819D02*
X177860714Y-122257200D01*
X177860714Y-122257200D02*
X177908333Y-122209580D01*
X177908333Y-122209580D02*
X177955952Y-122114342D01*
X177955952Y-122114342D02*
X177955952Y-121923866D01*
X177955952Y-121923866D02*
X177908333Y-121828628D01*
X177908333Y-121828628D02*
X177860714Y-121781009D01*
X177860714Y-121781009D02*
X177765476Y-121733390D01*
X178432143Y-122257200D02*
X178432143Y-122304819D01*
X178432143Y-122304819D02*
X178384524Y-122400057D01*
X178384524Y-122400057D02*
X178336905Y-122447676D01*
X179003571Y-121733390D02*
X178908333Y-121685771D01*
X178908333Y-121685771D02*
X178860714Y-121638152D01*
X178860714Y-121638152D02*
X178813095Y-121542914D01*
X178813095Y-121542914D02*
X178813095Y-121495295D01*
X178813095Y-121495295D02*
X178860714Y-121400057D01*
X178860714Y-121400057D02*
X178908333Y-121352438D01*
X178908333Y-121352438D02*
X179003571Y-121304819D01*
X179003571Y-121304819D02*
X179194047Y-121304819D01*
X179194047Y-121304819D02*
X179289285Y-121352438D01*
X179289285Y-121352438D02*
X179336904Y-121400057D01*
X179336904Y-121400057D02*
X179384523Y-121495295D01*
X179384523Y-121495295D02*
X179384523Y-121542914D01*
X179384523Y-121542914D02*
X179336904Y-121638152D01*
X179336904Y-121638152D02*
X179289285Y-121685771D01*
X179289285Y-121685771D02*
X179194047Y-121733390D01*
X179194047Y-121733390D02*
X179003571Y-121733390D01*
X179003571Y-121733390D02*
X178908333Y-121781009D01*
X178908333Y-121781009D02*
X178860714Y-121828628D01*
X178860714Y-121828628D02*
X178813095Y-121923866D01*
X178813095Y-121923866D02*
X178813095Y-122114342D01*
X178813095Y-122114342D02*
X178860714Y-122209580D01*
X178860714Y-122209580D02*
X178908333Y-122257200D01*
X178908333Y-122257200D02*
X179003571Y-122304819D01*
X179003571Y-122304819D02*
X179194047Y-122304819D01*
X179194047Y-122304819D02*
X179289285Y-122257200D01*
X179289285Y-122257200D02*
X179336904Y-122209580D01*
X179336904Y-122209580D02*
X179384523Y-122114342D01*
X179384523Y-122114342D02*
X179384523Y-121923866D01*
X179384523Y-121923866D02*
X179336904Y-121828628D01*
X179336904Y-121828628D02*
X179289285Y-121781009D01*
X179289285Y-121781009D02*
X179194047Y-121733390D01*
X180289285Y-121304819D02*
X179813095Y-121304819D01*
X179813095Y-121304819D02*
X179765476Y-121781009D01*
X179765476Y-121781009D02*
X179813095Y-121733390D01*
X179813095Y-121733390D02*
X179908333Y-121685771D01*
X179908333Y-121685771D02*
X180146428Y-121685771D01*
X180146428Y-121685771D02*
X180241666Y-121733390D01*
X180241666Y-121733390D02*
X180289285Y-121781009D01*
X180289285Y-121781009D02*
X180336904Y-121876247D01*
X180336904Y-121876247D02*
X180336904Y-122114342D01*
X180336904Y-122114342D02*
X180289285Y-122209580D01*
X180289285Y-122209580D02*
X180241666Y-122257200D01*
X180241666Y-122257200D02*
X180146428Y-122304819D01*
X180146428Y-122304819D02*
X179908333Y-122304819D01*
X179908333Y-122304819D02*
X179813095Y-122257200D01*
X179813095Y-122257200D02*
X179765476Y-122209580D01*
X181527381Y-122304819D02*
X181527381Y-121638152D01*
X181527381Y-121733390D02*
X181575000Y-121685771D01*
X181575000Y-121685771D02*
X181670238Y-121638152D01*
X181670238Y-121638152D02*
X181813095Y-121638152D01*
X181813095Y-121638152D02*
X181908333Y-121685771D01*
X181908333Y-121685771D02*
X181955952Y-121781009D01*
X181955952Y-121781009D02*
X181955952Y-122304819D01*
X181955952Y-121781009D02*
X182003571Y-121685771D01*
X182003571Y-121685771D02*
X182098809Y-121638152D01*
X182098809Y-121638152D02*
X182241666Y-121638152D01*
X182241666Y-121638152D02*
X182336905Y-121685771D01*
X182336905Y-121685771D02*
X182384524Y-121781009D01*
X182384524Y-121781009D02*
X182384524Y-122304819D01*
X182860714Y-122304819D02*
X182860714Y-121638152D01*
X182860714Y-121733390D02*
X182908333Y-121685771D01*
X182908333Y-121685771D02*
X183003571Y-121638152D01*
X183003571Y-121638152D02*
X183146428Y-121638152D01*
X183146428Y-121638152D02*
X183241666Y-121685771D01*
X183241666Y-121685771D02*
X183289285Y-121781009D01*
X183289285Y-121781009D02*
X183289285Y-122304819D01*
X183289285Y-121781009D02*
X183336904Y-121685771D01*
X183336904Y-121685771D02*
X183432142Y-121638152D01*
X183432142Y-121638152D02*
X183574999Y-121638152D01*
X183574999Y-121638152D02*
X183670238Y-121685771D01*
X183670238Y-121685771D02*
X183717857Y-121781009D01*
X183717857Y-121781009D02*
X183717857Y-122304819D01*
X109138152Y-92999999D02*
X109804819Y-92999999D01*
X108757200Y-93238094D02*
X109471485Y-93476189D01*
X109471485Y-93476189D02*
X109471485Y-92857142D01*
X108804819Y-92571427D02*
X108804819Y-91952380D01*
X108804819Y-91952380D02*
X109185771Y-92285713D01*
X109185771Y-92285713D02*
X109185771Y-92142856D01*
X109185771Y-92142856D02*
X109233390Y-92047618D01*
X109233390Y-92047618D02*
X109281009Y-91999999D01*
X109281009Y-91999999D02*
X109376247Y-91952380D01*
X109376247Y-91952380D02*
X109614342Y-91952380D01*
X109614342Y-91952380D02*
X109709580Y-91999999D01*
X109709580Y-91999999D02*
X109757200Y-92047618D01*
X109757200Y-92047618D02*
X109804819Y-92142856D01*
X109804819Y-92142856D02*
X109804819Y-92428570D01*
X109804819Y-92428570D02*
X109757200Y-92523808D01*
X109757200Y-92523808D02*
X109709580Y-92571427D01*
X109804819Y-90761903D02*
X109138152Y-90761903D01*
X109233390Y-90761903D02*
X109185771Y-90714284D01*
X109185771Y-90714284D02*
X109138152Y-90619046D01*
X109138152Y-90619046D02*
X109138152Y-90476189D01*
X109138152Y-90476189D02*
X109185771Y-90380951D01*
X109185771Y-90380951D02*
X109281009Y-90333332D01*
X109281009Y-90333332D02*
X109804819Y-90333332D01*
X109281009Y-90333332D02*
X109185771Y-90285713D01*
X109185771Y-90285713D02*
X109138152Y-90190475D01*
X109138152Y-90190475D02*
X109138152Y-90047618D01*
X109138152Y-90047618D02*
X109185771Y-89952379D01*
X109185771Y-89952379D02*
X109281009Y-89904760D01*
X109281009Y-89904760D02*
X109804819Y-89904760D01*
X109804819Y-89428570D02*
X109138152Y-89428570D01*
X109233390Y-89428570D02*
X109185771Y-89380951D01*
X109185771Y-89380951D02*
X109138152Y-89285713D01*
X109138152Y-89285713D02*
X109138152Y-89142856D01*
X109138152Y-89142856D02*
X109185771Y-89047618D01*
X109185771Y-89047618D02*
X109281009Y-88999999D01*
X109281009Y-88999999D02*
X109804819Y-88999999D01*
X109281009Y-88999999D02*
X109185771Y-88952380D01*
X109185771Y-88952380D02*
X109138152Y-88857142D01*
X109138152Y-88857142D02*
X109138152Y-88714285D01*
X109138152Y-88714285D02*
X109185771Y-88619046D01*
X109185771Y-88619046D02*
X109281009Y-88571427D01*
X109281009Y-88571427D02*
X109804819Y-88571427D01*
X111804819Y-73047618D02*
X111804819Y-72428571D01*
X111804819Y-72428571D02*
X112185771Y-72761904D01*
X112185771Y-72761904D02*
X112185771Y-72619047D01*
X112185771Y-72619047D02*
X112233390Y-72523809D01*
X112233390Y-72523809D02*
X112281009Y-72476190D01*
X112281009Y-72476190D02*
X112376247Y-72428571D01*
X112376247Y-72428571D02*
X112614342Y-72428571D01*
X112614342Y-72428571D02*
X112709580Y-72476190D01*
X112709580Y-72476190D02*
X112757200Y-72523809D01*
X112757200Y-72523809D02*
X112804819Y-72619047D01*
X112804819Y-72619047D02*
X112804819Y-72904761D01*
X112804819Y-72904761D02*
X112757200Y-72999999D01*
X112757200Y-72999999D02*
X112709580Y-73047618D01*
X112804819Y-71238094D02*
X112138152Y-71238094D01*
X112233390Y-71238094D02*
X112185771Y-71190475D01*
X112185771Y-71190475D02*
X112138152Y-71095237D01*
X112138152Y-71095237D02*
X112138152Y-70952380D01*
X112138152Y-70952380D02*
X112185771Y-70857142D01*
X112185771Y-70857142D02*
X112281009Y-70809523D01*
X112281009Y-70809523D02*
X112804819Y-70809523D01*
X112281009Y-70809523D02*
X112185771Y-70761904D01*
X112185771Y-70761904D02*
X112138152Y-70666666D01*
X112138152Y-70666666D02*
X112138152Y-70523809D01*
X112138152Y-70523809D02*
X112185771Y-70428570D01*
X112185771Y-70428570D02*
X112281009Y-70380951D01*
X112281009Y-70380951D02*
X112804819Y-70380951D01*
X112804819Y-69904761D02*
X112138152Y-69904761D01*
X112233390Y-69904761D02*
X112185771Y-69857142D01*
X112185771Y-69857142D02*
X112138152Y-69761904D01*
X112138152Y-69761904D02*
X112138152Y-69619047D01*
X112138152Y-69619047D02*
X112185771Y-69523809D01*
X112185771Y-69523809D02*
X112281009Y-69476190D01*
X112281009Y-69476190D02*
X112804819Y-69476190D01*
X112281009Y-69476190D02*
X112185771Y-69428571D01*
X112185771Y-69428571D02*
X112138152Y-69333333D01*
X112138152Y-69333333D02*
X112138152Y-69190476D01*
X112138152Y-69190476D02*
X112185771Y-69095237D01*
X112185771Y-69095237D02*
X112281009Y-69047618D01*
X112281009Y-69047618D02*
X112804819Y-69047618D01*
%TO.C,J1*%
D11*
X113500000Y-91000000D02*
X114600000Y-91000000D01*
X115000000Y-91000000D02*
X116100000Y-91000000D01*
X116500000Y-91000000D02*
X117600000Y-91000000D01*
X118000000Y-91000000D02*
X119100000Y-91000000D01*
X119500000Y-91000000D02*
X120600000Y-91000000D01*
X121000000Y-91000000D02*
X122100000Y-91000000D01*
X122500000Y-91000000D02*
X123600000Y-91000000D01*
X124000000Y-91000000D02*
X125100000Y-91000000D01*
X125500000Y-91000000D02*
X126600000Y-91000000D01*
X127000000Y-91000000D02*
X128100000Y-91000000D01*
X128500000Y-91000000D02*
X129600000Y-91000000D01*
X130000000Y-91000000D02*
X131100000Y-91000000D01*
X131500000Y-91000000D02*
X132600000Y-91000000D01*
X133000000Y-91000000D02*
X134100000Y-91000000D01*
X134500000Y-91000000D02*
X135600000Y-91000000D01*
X136000000Y-91000000D02*
X137100000Y-91000000D01*
X137500000Y-91000000D02*
X138600000Y-91000000D01*
X139000000Y-91000000D02*
X140100000Y-91000000D01*
X140500000Y-91000000D02*
X141600000Y-91000000D01*
X142000000Y-91000000D02*
X143100000Y-91000000D01*
X143500000Y-91000000D02*
X144600000Y-91000000D01*
X145000000Y-91000000D02*
X146100000Y-91000000D01*
X146500000Y-91000000D02*
X147600000Y-91000000D01*
X148000000Y-91000000D02*
X149100000Y-91000000D01*
X149500000Y-91000000D02*
X150600000Y-91000000D01*
X151000000Y-91000000D02*
X152100000Y-91000000D01*
X152500000Y-91000000D02*
X153600000Y-91000000D01*
X154000000Y-91000000D02*
X155100000Y-91000000D01*
X155500000Y-91000000D02*
X156600000Y-91000000D01*
X157000000Y-91000000D02*
X158100000Y-91000000D01*
X158500000Y-91000000D02*
X159600000Y-91000000D01*
X160000000Y-91000000D02*
X161100000Y-91000000D01*
X161500000Y-91000000D02*
X162600000Y-91000000D01*
X163000000Y-91000000D02*
X164100000Y-91000000D01*
X164500000Y-91000000D02*
X165600000Y-91000000D01*
X166000000Y-91000000D02*
X167100000Y-91000000D01*
X167500000Y-91000000D02*
X168600000Y-91000000D01*
X169000000Y-91000000D02*
X170100000Y-91000000D01*
X170500000Y-91000000D02*
X171600000Y-91000000D01*
X172000000Y-91000000D02*
X173100000Y-91000000D01*
X173500000Y-91000000D02*
X174600000Y-91000000D01*
X175000000Y-91000000D02*
X176100000Y-91000000D01*
X176500000Y-91000000D02*
X177600000Y-91000000D01*
X178000000Y-91000000D02*
X179100000Y-91000000D01*
X179500000Y-91000000D02*
X180600000Y-91000000D01*
X181000000Y-91000000D02*
X182100000Y-91000000D01*
X182500000Y-91000000D02*
X183600000Y-91000000D01*
X184000000Y-91000000D02*
X185100000Y-91000000D01*
X185500000Y-91000000D02*
X186600000Y-91000000D01*
X187000000Y-91000000D02*
X187000000Y-91000000D01*
X150000000Y-68500000D02*
X150000000Y-69600000D01*
X150000000Y-70000000D02*
X150000000Y-71100000D01*
X150000000Y-71500000D02*
X150000000Y-72600000D01*
X150000000Y-73000000D02*
X150000000Y-74100000D01*
X150000000Y-74500000D02*
X150000000Y-75600000D01*
X150000000Y-76000000D02*
X150000000Y-77100000D01*
X150000000Y-77500000D02*
X150000000Y-78600000D01*
X150000000Y-79000000D02*
X150000000Y-80100000D01*
X150000000Y-80500000D02*
X150000000Y-81600000D01*
X150000000Y-82000000D02*
X150000000Y-83100000D01*
X150000000Y-83500000D02*
X150000000Y-84600000D01*
X150000000Y-85000000D02*
X150000000Y-86100000D01*
X150000000Y-86500000D02*
X150000000Y-87600000D01*
X150000000Y-88000000D02*
X150000000Y-89100000D01*
X150000000Y-89500000D02*
X150000000Y-90600000D01*
X150000000Y-91000000D02*
X150000000Y-92100000D01*
X150000000Y-92500000D02*
X150000000Y-93600000D01*
X150000000Y-94000000D02*
X150000000Y-95100000D01*
X150000000Y-95500000D02*
X150000000Y-96600000D01*
X150000000Y-97000000D02*
X150000000Y-98100000D01*
X150000000Y-98500000D02*
X150000000Y-99600000D01*
X150000000Y-100000000D02*
X150000000Y-101100000D01*
X150000000Y-101500000D02*
X150000000Y-102600000D01*
X150000000Y-103000000D02*
X150000000Y-104100000D01*
X150000000Y-104500000D02*
X150000000Y-105600000D01*
X150000000Y-106000000D02*
X150000000Y-107100000D01*
X150000000Y-107500000D02*
X150000000Y-108600000D01*
X150000000Y-109000000D02*
X150000000Y-110100000D01*
X150000000Y-110500000D02*
X150000000Y-111600000D01*
X150000000Y-112000000D02*
X150000000Y-113100000D01*
X150000000Y-113500000D02*
X150000000Y-114600000D01*
X150000000Y-115000000D02*
X150000000Y-116100000D01*
X150000000Y-116500000D02*
X150000000Y-117600000D01*
X150000000Y-118000000D02*
X150000000Y-119100000D01*
X150000000Y-119500000D02*
X150000000Y-120600000D01*
X150000000Y-121000000D02*
X150000000Y-122100000D01*
X150000000Y-122500000D02*
X150000000Y-123600000D01*
X150000000Y-124000000D02*
X150000000Y-125000000D01*
D10*
X123190476Y-67954819D02*
X123190476Y-66954819D01*
X123190476Y-66954819D02*
X123523809Y-67669104D01*
X123523809Y-67669104D02*
X123857142Y-66954819D01*
X123857142Y-66954819D02*
X123857142Y-67954819D01*
X124238095Y-66954819D02*
X124857142Y-66954819D01*
X124857142Y-66954819D02*
X124523809Y-67335771D01*
X124523809Y-67335771D02*
X124666666Y-67335771D01*
X124666666Y-67335771D02*
X124761904Y-67383390D01*
X124761904Y-67383390D02*
X124809523Y-67431009D01*
X124809523Y-67431009D02*
X124857142Y-67526247D01*
X124857142Y-67526247D02*
X124857142Y-67764342D01*
X124857142Y-67764342D02*
X124809523Y-67859580D01*
X124809523Y-67859580D02*
X124761904Y-67907200D01*
X124761904Y-67907200D02*
X124666666Y-67954819D01*
X124666666Y-67954819D02*
X124380952Y-67954819D01*
X124380952Y-67954819D02*
X124285714Y-67907200D01*
X124285714Y-67907200D02*
X124238095Y-67859580D01*
D11*
X118334482Y-72128353D02*
X122327381Y-67691799D01*
X118334482Y-72128353D02*
X118652190Y-70898735D01*
X118334482Y-72128353D02*
X119523956Y-71683324D01*
D10*
X147476190Y-63804819D02*
X148142856Y-63804819D01*
X148142856Y-63804819D02*
X147714285Y-64804819D01*
X148714285Y-63804819D02*
X148809523Y-63804819D01*
X148809523Y-63804819D02*
X148904761Y-63852438D01*
X148904761Y-63852438D02*
X148952380Y-63900057D01*
X148952380Y-63900057D02*
X148999999Y-63995295D01*
X148999999Y-63995295D02*
X149047618Y-64185771D01*
X149047618Y-64185771D02*
X149047618Y-64423866D01*
X149047618Y-64423866D02*
X148999999Y-64614342D01*
X148999999Y-64614342D02*
X148952380Y-64709580D01*
X148952380Y-64709580D02*
X148904761Y-64757200D01*
X148904761Y-64757200D02*
X148809523Y-64804819D01*
X148809523Y-64804819D02*
X148714285Y-64804819D01*
X148714285Y-64804819D02*
X148619047Y-64757200D01*
X148619047Y-64757200D02*
X148571428Y-64709580D01*
X148571428Y-64709580D02*
X148523809Y-64614342D01*
X148523809Y-64614342D02*
X148476190Y-64423866D01*
X148476190Y-64423866D02*
X148476190Y-64185771D01*
X148476190Y-64185771D02*
X148523809Y-63995295D01*
X148523809Y-63995295D02*
X148571428Y-63900057D01*
X148571428Y-63900057D02*
X148619047Y-63852438D01*
X148619047Y-63852438D02*
X148714285Y-63804819D01*
X150238095Y-64804819D02*
X150238095Y-64138152D01*
X150238095Y-64233390D02*
X150285714Y-64185771D01*
X150285714Y-64185771D02*
X150380952Y-64138152D01*
X150380952Y-64138152D02*
X150523809Y-64138152D01*
X150523809Y-64138152D02*
X150619047Y-64185771D01*
X150619047Y-64185771D02*
X150666666Y-64281009D01*
X150666666Y-64281009D02*
X150666666Y-64804819D01*
X150666666Y-64281009D02*
X150714285Y-64185771D01*
X150714285Y-64185771D02*
X150809523Y-64138152D01*
X150809523Y-64138152D02*
X150952380Y-64138152D01*
X150952380Y-64138152D02*
X151047619Y-64185771D01*
X151047619Y-64185771D02*
X151095238Y-64281009D01*
X151095238Y-64281009D02*
X151095238Y-64804819D01*
X151571428Y-64804819D02*
X151571428Y-64138152D01*
X151571428Y-64233390D02*
X151619047Y-64185771D01*
X151619047Y-64185771D02*
X151714285Y-64138152D01*
X151714285Y-64138152D02*
X151857142Y-64138152D01*
X151857142Y-64138152D02*
X151952380Y-64185771D01*
X151952380Y-64185771D02*
X151999999Y-64281009D01*
X151999999Y-64281009D02*
X151999999Y-64804819D01*
X151999999Y-64281009D02*
X152047618Y-64185771D01*
X152047618Y-64185771D02*
X152142856Y-64138152D01*
X152142856Y-64138152D02*
X152285713Y-64138152D01*
X152285713Y-64138152D02*
X152380952Y-64185771D01*
X152380952Y-64185771D02*
X152428571Y-64281009D01*
X152428571Y-64281009D02*
X152428571Y-64804819D01*
D11*
X114999998Y-70000000D02*
X114999998Y-64913580D01*
X185000000Y-64913580D02*
X185000000Y-69500000D01*
X114999998Y-65500000D02*
X185000000Y-65500000D01*
X114999998Y-65500000D02*
X116126502Y-64913579D01*
X114999998Y-65500000D02*
X116126502Y-66086421D01*
X185000000Y-65500000D02*
X183873496Y-66086421D01*
X185000000Y-65500000D02*
X183873496Y-64913579D01*
D10*
X116829762Y-122304819D02*
X117020238Y-122304819D01*
X117020238Y-122304819D02*
X117115476Y-122257200D01*
X117115476Y-122257200D02*
X117163095Y-122209580D01*
X117163095Y-122209580D02*
X117258333Y-122066723D01*
X117258333Y-122066723D02*
X117305952Y-121876247D01*
X117305952Y-121876247D02*
X117305952Y-121495295D01*
X117305952Y-121495295D02*
X117258333Y-121400057D01*
X117258333Y-121400057D02*
X117210714Y-121352438D01*
X117210714Y-121352438D02*
X117115476Y-121304819D01*
X117115476Y-121304819D02*
X116925000Y-121304819D01*
X116925000Y-121304819D02*
X116829762Y-121352438D01*
X116829762Y-121352438D02*
X116782143Y-121400057D01*
X116782143Y-121400057D02*
X116734524Y-121495295D01*
X116734524Y-121495295D02*
X116734524Y-121733390D01*
X116734524Y-121733390D02*
X116782143Y-121828628D01*
X116782143Y-121828628D02*
X116829762Y-121876247D01*
X116829762Y-121876247D02*
X116925000Y-121923866D01*
X116925000Y-121923866D02*
X117115476Y-121923866D01*
X117115476Y-121923866D02*
X117210714Y-121876247D01*
X117210714Y-121876247D02*
X117258333Y-121828628D01*
X117258333Y-121828628D02*
X117305952Y-121733390D01*
X117782143Y-122257200D02*
X117782143Y-122304819D01*
X117782143Y-122304819D02*
X117734524Y-122400057D01*
X117734524Y-122400057D02*
X117686905Y-122447676D01*
X118353571Y-121733390D02*
X118258333Y-121685771D01*
X118258333Y-121685771D02*
X118210714Y-121638152D01*
X118210714Y-121638152D02*
X118163095Y-121542914D01*
X118163095Y-121542914D02*
X118163095Y-121495295D01*
X118163095Y-121495295D02*
X118210714Y-121400057D01*
X118210714Y-121400057D02*
X118258333Y-121352438D01*
X118258333Y-121352438D02*
X118353571Y-121304819D01*
X118353571Y-121304819D02*
X118544047Y-121304819D01*
X118544047Y-121304819D02*
X118639285Y-121352438D01*
X118639285Y-121352438D02*
X118686904Y-121400057D01*
X118686904Y-121400057D02*
X118734523Y-121495295D01*
X118734523Y-121495295D02*
X118734523Y-121542914D01*
X118734523Y-121542914D02*
X118686904Y-121638152D01*
X118686904Y-121638152D02*
X118639285Y-121685771D01*
X118639285Y-121685771D02*
X118544047Y-121733390D01*
X118544047Y-121733390D02*
X118353571Y-121733390D01*
X118353571Y-121733390D02*
X118258333Y-121781009D01*
X118258333Y-121781009D02*
X118210714Y-121828628D01*
X118210714Y-121828628D02*
X118163095Y-121923866D01*
X118163095Y-121923866D02*
X118163095Y-122114342D01*
X118163095Y-122114342D02*
X118210714Y-122209580D01*
X118210714Y-122209580D02*
X118258333Y-122257200D01*
X118258333Y-122257200D02*
X118353571Y-122304819D01*
X118353571Y-122304819D02*
X118544047Y-122304819D01*
X118544047Y-122304819D02*
X118639285Y-122257200D01*
X118639285Y-122257200D02*
X118686904Y-122209580D01*
X118686904Y-122209580D02*
X118734523Y-122114342D01*
X118734523Y-122114342D02*
X118734523Y-121923866D01*
X118734523Y-121923866D02*
X118686904Y-121828628D01*
X118686904Y-121828628D02*
X118639285Y-121781009D01*
X118639285Y-121781009D02*
X118544047Y-121733390D01*
X119639285Y-121304819D02*
X119163095Y-121304819D01*
X119163095Y-121304819D02*
X119115476Y-121781009D01*
X119115476Y-121781009D02*
X119163095Y-121733390D01*
X119163095Y-121733390D02*
X119258333Y-121685771D01*
X119258333Y-121685771D02*
X119496428Y-121685771D01*
X119496428Y-121685771D02*
X119591666Y-121733390D01*
X119591666Y-121733390D02*
X119639285Y-121781009D01*
X119639285Y-121781009D02*
X119686904Y-121876247D01*
X119686904Y-121876247D02*
X119686904Y-122114342D01*
X119686904Y-122114342D02*
X119639285Y-122209580D01*
X119639285Y-122209580D02*
X119591666Y-122257200D01*
X119591666Y-122257200D02*
X119496428Y-122304819D01*
X119496428Y-122304819D02*
X119258333Y-122304819D01*
X119258333Y-122304819D02*
X119163095Y-122257200D01*
X119163095Y-122257200D02*
X119115476Y-122209580D01*
X120877381Y-122304819D02*
X120877381Y-121638152D01*
X120877381Y-121733390D02*
X120925000Y-121685771D01*
X120925000Y-121685771D02*
X121020238Y-121638152D01*
X121020238Y-121638152D02*
X121163095Y-121638152D01*
X121163095Y-121638152D02*
X121258333Y-121685771D01*
X121258333Y-121685771D02*
X121305952Y-121781009D01*
X121305952Y-121781009D02*
X121305952Y-122304819D01*
X121305952Y-121781009D02*
X121353571Y-121685771D01*
X121353571Y-121685771D02*
X121448809Y-121638152D01*
X121448809Y-121638152D02*
X121591666Y-121638152D01*
X121591666Y-121638152D02*
X121686905Y-121685771D01*
X121686905Y-121685771D02*
X121734524Y-121781009D01*
X121734524Y-121781009D02*
X121734524Y-122304819D01*
X122210714Y-122304819D02*
X122210714Y-121638152D01*
X122210714Y-121733390D02*
X122258333Y-121685771D01*
X122258333Y-121685771D02*
X122353571Y-121638152D01*
X122353571Y-121638152D02*
X122496428Y-121638152D01*
X122496428Y-121638152D02*
X122591666Y-121685771D01*
X122591666Y-121685771D02*
X122639285Y-121781009D01*
X122639285Y-121781009D02*
X122639285Y-122304819D01*
X122639285Y-121781009D02*
X122686904Y-121685771D01*
X122686904Y-121685771D02*
X122782142Y-121638152D01*
X122782142Y-121638152D02*
X122924999Y-121638152D01*
X122924999Y-121638152D02*
X123020238Y-121685771D01*
X123020238Y-121685771D02*
X123067857Y-121781009D01*
X123067857Y-121781009D02*
X123067857Y-122304819D01*
D11*
X115000000Y-112500000D02*
X115000000Y-123586420D01*
X124850000Y-123586420D02*
X124850000Y-113000000D01*
X115000000Y-123000000D02*
X124850000Y-123000000D01*
X115000000Y-123000000D02*
X116126504Y-122413579D01*
X115000000Y-123000000D02*
X116126504Y-123586421D01*
X124850000Y-123000000D02*
X123723496Y-123586421D01*
X124850000Y-123000000D02*
X123723496Y-122413579D01*
D10*
X114452380Y-66304819D02*
X115071427Y-66304819D01*
X115071427Y-66304819D02*
X114738094Y-66685771D01*
X114738094Y-66685771D02*
X114880951Y-66685771D01*
X114880951Y-66685771D02*
X114976189Y-66733390D01*
X114976189Y-66733390D02*
X115023808Y-66781009D01*
X115023808Y-66781009D02*
X115071427Y-66876247D01*
X115071427Y-66876247D02*
X115071427Y-67114342D01*
X115071427Y-67114342D02*
X115023808Y-67209580D01*
X115023808Y-67209580D02*
X114976189Y-67257200D01*
X114976189Y-67257200D02*
X114880951Y-67304819D01*
X114880951Y-67304819D02*
X114595237Y-67304819D01*
X114595237Y-67304819D02*
X114499999Y-67257200D01*
X114499999Y-67257200D02*
X114452380Y-67209580D01*
X116261904Y-67304819D02*
X116261904Y-66638152D01*
X116261904Y-66733390D02*
X116309523Y-66685771D01*
X116309523Y-66685771D02*
X116404761Y-66638152D01*
X116404761Y-66638152D02*
X116547618Y-66638152D01*
X116547618Y-66638152D02*
X116642856Y-66685771D01*
X116642856Y-66685771D02*
X116690475Y-66781009D01*
X116690475Y-66781009D02*
X116690475Y-67304819D01*
X116690475Y-66781009D02*
X116738094Y-66685771D01*
X116738094Y-66685771D02*
X116833332Y-66638152D01*
X116833332Y-66638152D02*
X116976189Y-66638152D01*
X116976189Y-66638152D02*
X117071428Y-66685771D01*
X117071428Y-66685771D02*
X117119047Y-66781009D01*
X117119047Y-66781009D02*
X117119047Y-67304819D01*
X117595237Y-67304819D02*
X117595237Y-66638152D01*
X117595237Y-66733390D02*
X117642856Y-66685771D01*
X117642856Y-66685771D02*
X117738094Y-66638152D01*
X117738094Y-66638152D02*
X117880951Y-66638152D01*
X117880951Y-66638152D02*
X117976189Y-66685771D01*
X117976189Y-66685771D02*
X118023808Y-66781009D01*
X118023808Y-66781009D02*
X118023808Y-67304819D01*
X118023808Y-66781009D02*
X118071427Y-66685771D01*
X118071427Y-66685771D02*
X118166665Y-66638152D01*
X118166665Y-66638152D02*
X118309522Y-66638152D01*
X118309522Y-66638152D02*
X118404761Y-66685771D01*
X118404761Y-66685771D02*
X118452380Y-66781009D01*
X118452380Y-66781009D02*
X118452380Y-67304819D01*
D11*
X118000000Y-72000000D02*
X118000000Y-67413580D01*
X114999998Y-67413580D02*
X114999998Y-72000000D01*
X118000000Y-68000000D02*
X114999998Y-68000000D01*
X118000000Y-68000000D02*
X116873496Y-68586421D01*
X118000000Y-68000000D02*
X116873496Y-67413579D01*
X114999998Y-68000000D02*
X116126502Y-67413579D01*
X114999998Y-68000000D02*
X116126502Y-68586421D01*
D10*
X106304819Y-98367856D02*
X106304819Y-98844046D01*
X106304819Y-98844046D02*
X106781009Y-98891665D01*
X106781009Y-98891665D02*
X106733390Y-98844046D01*
X106733390Y-98844046D02*
X106685771Y-98748808D01*
X106685771Y-98748808D02*
X106685771Y-98510713D01*
X106685771Y-98510713D02*
X106733390Y-98415475D01*
X106733390Y-98415475D02*
X106781009Y-98367856D01*
X106781009Y-98367856D02*
X106876247Y-98320237D01*
X106876247Y-98320237D02*
X107114342Y-98320237D01*
X107114342Y-98320237D02*
X107209580Y-98367856D01*
X107209580Y-98367856D02*
X107257200Y-98415475D01*
X107257200Y-98415475D02*
X107304819Y-98510713D01*
X107304819Y-98510713D02*
X107304819Y-98748808D01*
X107304819Y-98748808D02*
X107257200Y-98844046D01*
X107257200Y-98844046D02*
X107209580Y-98891665D01*
X107304819Y-97367856D02*
X107304819Y-97939284D01*
X107304819Y-97653570D02*
X106304819Y-97653570D01*
X106304819Y-97653570D02*
X106447676Y-97748808D01*
X106447676Y-97748808D02*
X106542914Y-97844046D01*
X106542914Y-97844046D02*
X106590533Y-97939284D01*
X107257200Y-96891665D02*
X107304819Y-96891665D01*
X107304819Y-96891665D02*
X107400057Y-96939284D01*
X107400057Y-96939284D02*
X107447676Y-96986903D01*
X106638152Y-96034523D02*
X107304819Y-96034523D01*
X106257200Y-96272618D02*
X106971485Y-96510713D01*
X106971485Y-96510713D02*
X106971485Y-95891666D01*
X106304819Y-95034523D02*
X106304819Y-95510713D01*
X106304819Y-95510713D02*
X106781009Y-95558332D01*
X106781009Y-95558332D02*
X106733390Y-95510713D01*
X106733390Y-95510713D02*
X106685771Y-95415475D01*
X106685771Y-95415475D02*
X106685771Y-95177380D01*
X106685771Y-95177380D02*
X106733390Y-95082142D01*
X106733390Y-95082142D02*
X106781009Y-95034523D01*
X106781009Y-95034523D02*
X106876247Y-94986904D01*
X106876247Y-94986904D02*
X107114342Y-94986904D01*
X107114342Y-94986904D02*
X107209580Y-95034523D01*
X107209580Y-95034523D02*
X107257200Y-95082142D01*
X107257200Y-95082142D02*
X107304819Y-95177380D01*
X107304819Y-95177380D02*
X107304819Y-95415475D01*
X107304819Y-95415475D02*
X107257200Y-95510713D01*
X107257200Y-95510713D02*
X107209580Y-95558332D01*
X107304819Y-93796427D02*
X106638152Y-93796427D01*
X106733390Y-93796427D02*
X106685771Y-93748808D01*
X106685771Y-93748808D02*
X106638152Y-93653570D01*
X106638152Y-93653570D02*
X106638152Y-93510713D01*
X106638152Y-93510713D02*
X106685771Y-93415475D01*
X106685771Y-93415475D02*
X106781009Y-93367856D01*
X106781009Y-93367856D02*
X107304819Y-93367856D01*
X106781009Y-93367856D02*
X106685771Y-93320237D01*
X106685771Y-93320237D02*
X106638152Y-93224999D01*
X106638152Y-93224999D02*
X106638152Y-93082142D01*
X106638152Y-93082142D02*
X106685771Y-92986903D01*
X106685771Y-92986903D02*
X106781009Y-92939284D01*
X106781009Y-92939284D02*
X107304819Y-92939284D01*
X107304819Y-92463094D02*
X106638152Y-92463094D01*
X106733390Y-92463094D02*
X106685771Y-92415475D01*
X106685771Y-92415475D02*
X106638152Y-92320237D01*
X106638152Y-92320237D02*
X106638152Y-92177380D01*
X106638152Y-92177380D02*
X106685771Y-92082142D01*
X106685771Y-92082142D02*
X106781009Y-92034523D01*
X106781009Y-92034523D02*
X107304819Y-92034523D01*
X106781009Y-92034523D02*
X106685771Y-91986904D01*
X106685771Y-91986904D02*
X106638152Y-91891666D01*
X106638152Y-91891666D02*
X106638152Y-91748809D01*
X106638152Y-91748809D02*
X106685771Y-91653570D01*
X106685771Y-91653570D02*
X106781009Y-91605951D01*
X106781009Y-91605951D02*
X107304819Y-91605951D01*
D11*
X124850000Y-120950000D02*
X107413580Y-120950000D01*
X107413580Y-69500000D02*
X115000000Y-69500000D01*
X108000000Y-120950000D02*
X108000000Y-69500000D01*
X108000000Y-120950000D02*
X107413579Y-119823496D01*
X108000000Y-120950000D02*
X108586421Y-119823496D01*
X108000000Y-69500000D02*
X108586421Y-70626504D01*
X108000000Y-69500000D02*
X107413579Y-70626504D01*
D10*
X177575000Y-121733390D02*
X177479762Y-121685771D01*
X177479762Y-121685771D02*
X177432143Y-121638152D01*
X177432143Y-121638152D02*
X177384524Y-121542914D01*
X177384524Y-121542914D02*
X177384524Y-121495295D01*
X177384524Y-121495295D02*
X177432143Y-121400057D01*
X177432143Y-121400057D02*
X177479762Y-121352438D01*
X177479762Y-121352438D02*
X177575000Y-121304819D01*
X177575000Y-121304819D02*
X177765476Y-121304819D01*
X177765476Y-121304819D02*
X177860714Y-121352438D01*
X177860714Y-121352438D02*
X177908333Y-121400057D01*
X177908333Y-121400057D02*
X177955952Y-121495295D01*
X177955952Y-121495295D02*
X177955952Y-121542914D01*
X177955952Y-121542914D02*
X177908333Y-121638152D01*
X177908333Y-121638152D02*
X177860714Y-121685771D01*
X177860714Y-121685771D02*
X177765476Y-121733390D01*
X177765476Y-121733390D02*
X177575000Y-121733390D01*
X177575000Y-121733390D02*
X177479762Y-121781009D01*
X177479762Y-121781009D02*
X177432143Y-121828628D01*
X177432143Y-121828628D02*
X177384524Y-121923866D01*
X177384524Y-121923866D02*
X177384524Y-122114342D01*
X177384524Y-122114342D02*
X177432143Y-122209580D01*
X177432143Y-122209580D02*
X177479762Y-122257200D01*
X177479762Y-122257200D02*
X177575000Y-122304819D01*
X177575000Y-122304819D02*
X177765476Y-122304819D01*
X177765476Y-122304819D02*
X177860714Y-122257200D01*
X177860714Y-122257200D02*
X177908333Y-122209580D01*
X177908333Y-122209580D02*
X177955952Y-122114342D01*
X177955952Y-122114342D02*
X177955952Y-121923866D01*
X177955952Y-121923866D02*
X177908333Y-121828628D01*
X177908333Y-121828628D02*
X177860714Y-121781009D01*
X177860714Y-121781009D02*
X177765476Y-121733390D01*
X178432143Y-122257200D02*
X178432143Y-122304819D01*
X178432143Y-122304819D02*
X178384524Y-122400057D01*
X178384524Y-122400057D02*
X178336905Y-122447676D01*
X179003571Y-121733390D02*
X178908333Y-121685771D01*
X178908333Y-121685771D02*
X178860714Y-121638152D01*
X178860714Y-121638152D02*
X178813095Y-121542914D01*
X178813095Y-121542914D02*
X178813095Y-121495295D01*
X178813095Y-121495295D02*
X178860714Y-121400057D01*
X178860714Y-121400057D02*
X178908333Y-121352438D01*
X178908333Y-121352438D02*
X179003571Y-121304819D01*
X179003571Y-121304819D02*
X179194047Y-121304819D01*
X179194047Y-121304819D02*
X179289285Y-121352438D01*
X179289285Y-121352438D02*
X179336904Y-121400057D01*
X179336904Y-121400057D02*
X179384523Y-121495295D01*
X179384523Y-121495295D02*
X179384523Y-121542914D01*
X179384523Y-121542914D02*
X179336904Y-121638152D01*
X179336904Y-121638152D02*
X179289285Y-121685771D01*
X179289285Y-121685771D02*
X179194047Y-121733390D01*
X179194047Y-121733390D02*
X179003571Y-121733390D01*
X179003571Y-121733390D02*
X178908333Y-121781009D01*
X178908333Y-121781009D02*
X178860714Y-121828628D01*
X178860714Y-121828628D02*
X178813095Y-121923866D01*
X178813095Y-121923866D02*
X178813095Y-122114342D01*
X178813095Y-122114342D02*
X178860714Y-122209580D01*
X178860714Y-122209580D02*
X178908333Y-122257200D01*
X178908333Y-122257200D02*
X179003571Y-122304819D01*
X179003571Y-122304819D02*
X179194047Y-122304819D01*
X179194047Y-122304819D02*
X179289285Y-122257200D01*
X179289285Y-122257200D02*
X179336904Y-122209580D01*
X179336904Y-122209580D02*
X179384523Y-122114342D01*
X179384523Y-122114342D02*
X179384523Y-121923866D01*
X179384523Y-121923866D02*
X179336904Y-121828628D01*
X179336904Y-121828628D02*
X179289285Y-121781009D01*
X179289285Y-121781009D02*
X179194047Y-121733390D01*
X180289285Y-121304819D02*
X179813095Y-121304819D01*
X179813095Y-121304819D02*
X179765476Y-121781009D01*
X179765476Y-121781009D02*
X179813095Y-121733390D01*
X179813095Y-121733390D02*
X179908333Y-121685771D01*
X179908333Y-121685771D02*
X180146428Y-121685771D01*
X180146428Y-121685771D02*
X180241666Y-121733390D01*
X180241666Y-121733390D02*
X180289285Y-121781009D01*
X180289285Y-121781009D02*
X180336904Y-121876247D01*
X180336904Y-121876247D02*
X180336904Y-122114342D01*
X180336904Y-122114342D02*
X180289285Y-122209580D01*
X180289285Y-122209580D02*
X180241666Y-122257200D01*
X180241666Y-122257200D02*
X180146428Y-122304819D01*
X180146428Y-122304819D02*
X179908333Y-122304819D01*
X179908333Y-122304819D02*
X179813095Y-122257200D01*
X179813095Y-122257200D02*
X179765476Y-122209580D01*
X181527381Y-122304819D02*
X181527381Y-121638152D01*
X181527381Y-121733390D02*
X181575000Y-121685771D01*
X181575000Y-121685771D02*
X181670238Y-121638152D01*
X181670238Y-121638152D02*
X181813095Y-121638152D01*
X181813095Y-121638152D02*
X181908333Y-121685771D01*
X181908333Y-121685771D02*
X181955952Y-121781009D01*
X181955952Y-121781009D02*
X181955952Y-122304819D01*
X181955952Y-121781009D02*
X182003571Y-121685771D01*
X182003571Y-121685771D02*
X182098809Y-121638152D01*
X182098809Y-121638152D02*
X182241666Y-121638152D01*
X182241666Y-121638152D02*
X182336905Y-121685771D01*
X182336905Y-121685771D02*
X182384524Y-121781009D01*
X182384524Y-121781009D02*
X182384524Y-122304819D01*
X182860714Y-122304819D02*
X182860714Y-121638152D01*
X182860714Y-121733390D02*
X182908333Y-121685771D01*
X182908333Y-121685771D02*
X183003571Y-121638152D01*
X183003571Y-121638152D02*
X183146428Y-121638152D01*
X183146428Y-121638152D02*
X183241666Y-121685771D01*
X183241666Y-121685771D02*
X183289285Y-121781009D01*
X183289285Y-121781009D02*
X183289285Y-122304819D01*
X183289285Y-121781009D02*
X183336904Y-121685771D01*
X183336904Y-121685771D02*
X183432142Y-121638152D01*
X183432142Y-121638152D02*
X183574999Y-121638152D01*
X183574999Y-121638152D02*
X183670238Y-121685771D01*
X183670238Y-121685771D02*
X183717857Y-121781009D01*
X183717857Y-121781009D02*
X183717857Y-122304819D01*
D11*
X176150000Y-113000000D02*
X176150000Y-123586420D01*
X185000000Y-123586420D02*
X185000000Y-112500000D01*
X176150000Y-123000000D02*
X185000000Y-123000000D01*
X176150000Y-123000000D02*
X177276504Y-122413579D01*
X176150000Y-123000000D02*
X177276504Y-123586421D01*
X185000000Y-123000000D02*
X183873496Y-123586421D01*
X185000000Y-123000000D02*
X183873496Y-122413579D01*
D10*
X109138152Y-92999999D02*
X109804819Y-92999999D01*
X108757200Y-93238094D02*
X109471485Y-93476189D01*
X109471485Y-93476189D02*
X109471485Y-92857142D01*
X108804819Y-92571427D02*
X108804819Y-91952380D01*
X108804819Y-91952380D02*
X109185771Y-92285713D01*
X109185771Y-92285713D02*
X109185771Y-92142856D01*
X109185771Y-92142856D02*
X109233390Y-92047618D01*
X109233390Y-92047618D02*
X109281009Y-91999999D01*
X109281009Y-91999999D02*
X109376247Y-91952380D01*
X109376247Y-91952380D02*
X109614342Y-91952380D01*
X109614342Y-91952380D02*
X109709580Y-91999999D01*
X109709580Y-91999999D02*
X109757200Y-92047618D01*
X109757200Y-92047618D02*
X109804819Y-92142856D01*
X109804819Y-92142856D02*
X109804819Y-92428570D01*
X109804819Y-92428570D02*
X109757200Y-92523808D01*
X109757200Y-92523808D02*
X109709580Y-92571427D01*
X109804819Y-90761903D02*
X109138152Y-90761903D01*
X109233390Y-90761903D02*
X109185771Y-90714284D01*
X109185771Y-90714284D02*
X109138152Y-90619046D01*
X109138152Y-90619046D02*
X109138152Y-90476189D01*
X109138152Y-90476189D02*
X109185771Y-90380951D01*
X109185771Y-90380951D02*
X109281009Y-90333332D01*
X109281009Y-90333332D02*
X109804819Y-90333332D01*
X109281009Y-90333332D02*
X109185771Y-90285713D01*
X109185771Y-90285713D02*
X109138152Y-90190475D01*
X109138152Y-90190475D02*
X109138152Y-90047618D01*
X109138152Y-90047618D02*
X109185771Y-89952379D01*
X109185771Y-89952379D02*
X109281009Y-89904760D01*
X109281009Y-89904760D02*
X109804819Y-89904760D01*
X109804819Y-89428570D02*
X109138152Y-89428570D01*
X109233390Y-89428570D02*
X109185771Y-89380951D01*
X109185771Y-89380951D02*
X109138152Y-89285713D01*
X109138152Y-89285713D02*
X109138152Y-89142856D01*
X109138152Y-89142856D02*
X109185771Y-89047618D01*
X109185771Y-89047618D02*
X109281009Y-88999999D01*
X109281009Y-88999999D02*
X109804819Y-88999999D01*
X109281009Y-88999999D02*
X109185771Y-88952380D01*
X109185771Y-88952380D02*
X109138152Y-88857142D01*
X109138152Y-88857142D02*
X109138152Y-88714285D01*
X109138152Y-88714285D02*
X109185771Y-88619046D01*
X109185771Y-88619046D02*
X109281009Y-88571427D01*
X109281009Y-88571427D02*
X109804819Y-88571427D01*
D11*
X115000000Y-112500000D02*
X109913580Y-112500000D01*
X109913580Y-69500000D02*
X115000000Y-69500000D01*
X110500000Y-112500000D02*
X110500000Y-69500000D01*
X110500000Y-112500000D02*
X109913579Y-111373496D01*
X110500000Y-112500000D02*
X111086421Y-111373496D01*
X110500000Y-69500000D02*
X111086421Y-70626504D01*
X110500000Y-69500000D02*
X109913579Y-70626504D01*
D10*
X111804819Y-73047618D02*
X111804819Y-72428571D01*
X111804819Y-72428571D02*
X112185771Y-72761904D01*
X112185771Y-72761904D02*
X112185771Y-72619047D01*
X112185771Y-72619047D02*
X112233390Y-72523809D01*
X112233390Y-72523809D02*
X112281009Y-72476190D01*
X112281009Y-72476190D02*
X112376247Y-72428571D01*
X112376247Y-72428571D02*
X112614342Y-72428571D01*
X112614342Y-72428571D02*
X112709580Y-72476190D01*
X112709580Y-72476190D02*
X112757200Y-72523809D01*
X112757200Y-72523809D02*
X112804819Y-72619047D01*
X112804819Y-72619047D02*
X112804819Y-72904761D01*
X112804819Y-72904761D02*
X112757200Y-72999999D01*
X112757200Y-72999999D02*
X112709580Y-73047618D01*
X112804819Y-71238094D02*
X112138152Y-71238094D01*
X112233390Y-71238094D02*
X112185771Y-71190475D01*
X112185771Y-71190475D02*
X112138152Y-71095237D01*
X112138152Y-71095237D02*
X112138152Y-70952380D01*
X112138152Y-70952380D02*
X112185771Y-70857142D01*
X112185771Y-70857142D02*
X112281009Y-70809523D01*
X112281009Y-70809523D02*
X112804819Y-70809523D01*
X112281009Y-70809523D02*
X112185771Y-70761904D01*
X112185771Y-70761904D02*
X112138152Y-70666666D01*
X112138152Y-70666666D02*
X112138152Y-70523809D01*
X112138152Y-70523809D02*
X112185771Y-70428570D01*
X112185771Y-70428570D02*
X112281009Y-70380951D01*
X112281009Y-70380951D02*
X112804819Y-70380951D01*
X112804819Y-69904761D02*
X112138152Y-69904761D01*
X112233390Y-69904761D02*
X112185771Y-69857142D01*
X112185771Y-69857142D02*
X112138152Y-69761904D01*
X112138152Y-69761904D02*
X112138152Y-69619047D01*
X112138152Y-69619047D02*
X112185771Y-69523809D01*
X112185771Y-69523809D02*
X112281009Y-69476190D01*
X112281009Y-69476190D02*
X112804819Y-69476190D01*
X112281009Y-69476190D02*
X112185771Y-69428571D01*
X112185771Y-69428571D02*
X112138152Y-69333333D01*
X112138152Y-69333333D02*
X112138152Y-69190476D01*
X112138152Y-69190476D02*
X112185771Y-69095237D01*
X112185771Y-69095237D02*
X112281009Y-69047618D01*
X112281009Y-69047618D02*
X112804819Y-69047618D01*
D11*
X117500000Y-72500000D02*
X112913580Y-72500000D01*
X112913580Y-69500000D02*
X117500000Y-69500000D01*
X113500000Y-72500000D02*
X113500000Y-69500000D01*
X113500000Y-72500000D02*
X112913579Y-71373496D01*
X113500000Y-72500000D02*
X114086421Y-71373496D01*
X113500000Y-69500000D02*
X114086421Y-70626504D01*
X113500000Y-69500000D02*
X112913579Y-70626504D01*
%TD*%
M02*
