%TF.GenerationSoftware,KiCad,Pcbnew,10.0.3-10.0.3~ubuntu24.04.1*%
%TF.CreationDate,2026-06-25T08:15:25+00:00*%
%TF.ProjectId,streamline_rs485,73747265-616d-46c6-996e-655f72733438,A*%
%TF.SameCoordinates,Original*%
%TF.FileFunction,Copper,L1,Top*%
%TF.FilePolarity,Positive*%
%FSLAX46Y46*%
G04 Gerber Fmt 4.6, Leading zero omitted, Abs format (unit mm)*
G04 Created by KiCad (PCBNEW 10.0.3-10.0.3~ubuntu24.04.1) date 2026-06-25 08:15:25*
%MOMM*%
%LPD*%
G01*
G04 APERTURE LIST*
G04 Aperture macros list*
%AMRoundRect*
0 Rectangle with rounded corners*
0 $1 Rounding radius*
0 $2 $3 $4 $5 $6 $7 $8 $9 X,Y pos of 4 corners*
0 Add a 4 corners polygon primitive as box body*
4,1,4,$2,$3,$4,$5,$6,$7,$8,$9,$2,$3,0*
0 Add four circle primitives for the rounded corners*
1,1,$1+$1,$2,$3*
1,1,$1+$1,$4,$5*
1,1,$1+$1,$6,$7*
1,1,$1+$1,$8,$9*
0 Add four rect primitives between the rounded corners*
20,1,$1+$1,$2,$3,$4,$5,0*
20,1,$1+$1,$4,$5,$6,$7,0*
20,1,$1+$1,$6,$7,$8,$9,0*
20,1,$1+$1,$8,$9,$2,$3,0*%
%AMFreePoly0*
4,1,6,1.000000,0.000000,0.500000,-0.750000,-0.500000,-0.750000,-0.500000,0.750000,0.500000,0.750000,1.000000,0.000000,1.000000,0.000000,$1*%
%AMFreePoly1*
4,1,6,0.500000,-0.750000,-0.650000,-0.750000,-0.150000,0.000000,-0.650000,0.750000,0.500000,0.750000,0.500000,-0.750000,0.500000,-0.750000,$1*%
G04 Aperture macros list end*
%TA.AperFunction,ComponentPad*%
%ADD10RoundRect,0.249999X1.550001X-0.790001X1.550001X0.790001X-1.550001X0.790001X-1.550001X-0.790001X0*%
%TD*%
%TA.AperFunction,ComponentPad*%
%ADD11O,3.600000X2.080000*%
%TD*%
%TA.AperFunction,SMDPad,CuDef*%
%ADD12FreePoly0,0.000000*%
%TD*%
%TA.AperFunction,SMDPad,CuDef*%
%ADD13FreePoly1,0.000000*%
%TD*%
%TA.AperFunction,SMDPad,CuDef*%
%ADD14RoundRect,0.250000X0.250000X0.475000X-0.250000X0.475000X-0.250000X-0.475000X0.250000X-0.475000X0*%
%TD*%
%TA.AperFunction,ConnectorPad*%
%ADD15R,0.700000X4.300000*%
%TD*%
%TA.AperFunction,SMDPad,CuDef*%
%ADD16RoundRect,0.200000X-0.200000X-0.275000X0.200000X-0.275000X0.200000X0.275000X-0.200000X0.275000X0*%
%TD*%
%TA.AperFunction,SMDPad,CuDef*%
%ADD17RoundRect,0.200000X-0.275000X0.200000X-0.275000X-0.200000X0.275000X-0.200000X0.275000X0.200000X0*%
%TD*%
%TA.AperFunction,SMDPad,CuDef*%
%ADD18RoundRect,0.225000X-0.225000X-0.250000X0.225000X-0.250000X0.225000X0.250000X-0.225000X0.250000X0*%
%TD*%
%TA.AperFunction,SMDPad,CuDef*%
%ADD19RoundRect,0.150000X-0.825000X-0.150000X0.825000X-0.150000X0.825000X0.150000X-0.825000X0.150000X0*%
%TD*%
%TA.AperFunction,ViaPad*%
%ADD20C,0.600000*%
%TD*%
%TA.AperFunction,Conductor*%
%ADD21C,0.300000*%
%TD*%
%TA.AperFunction,Conductor*%
%ADD22C,0.600000*%
%TD*%
G04 APERTURE END LIST*
D10*
%TO.P,J2,1,Pin_1*%
%TO.N,Net-(J2-Pin_1)*%
X174800000Y-102900000D03*
D11*
%TO.P,J2,2,Pin_2*%
%TO.N,Net-(J2-Pin_2)*%
X174800000Y-97820000D03*
%TO.P,J2,3,Pin_3*%
%TO.N,GND*%
X174800000Y-92740000D03*
%TD*%
D12*
%TO.P,JP6,1,A*%
%TO.N,PA1*%
X134275000Y-101000000D03*
D13*
%TO.P,JP6,2,B*%
%TO.N,Net-(JP4-B)*%
X135725000Y-101000000D03*
%TD*%
D14*
%TO.P,C1,1*%
%TO.N,+3V3*%
X168750000Y-94900000D03*
%TO.P,C1,2*%
%TO.N,GND*%
X166850000Y-94900000D03*
%TD*%
D15*
%TO.P,J1,B1,GND*%
%TO.N,GND*%
X125500000Y-117500000D03*
%TO.P,J1,B2,BO0*%
%TO.N,unconnected-(J1-BO0-PadB2)*%
X126500000Y-117500000D03*
%TO.P,J1,B3,VA*%
%TO.N,unconnected-(J1-VA-PadB3)*%
X127500000Y-117500000D03*
%TO.P,J1,B4,PA3*%
%TO.N,PA3*%
X128500000Y-117500000D03*
%TO.P,J1,B5,PA4*%
%TO.N,unconnected-(J1-PA4-PadB5)*%
X129500000Y-117500000D03*
%TO.P,J1,B6,PA5*%
%TO.N,unconnected-(J1-PA5-PadB6)*%
X130500000Y-117500000D03*
%TO.P,J1,B7,PA6*%
%TO.N,unconnected-(J1-PA6-PadB7)*%
X131500000Y-117500000D03*
%TO.P,J1,B8,PA7*%
%TO.N,unconnected-(J1-PA7-PadB8)*%
X132500000Y-117500000D03*
%TO.P,J1,B9,PC4*%
%TO.N,unconnected-(J1-PC4-PadB9)*%
X133500000Y-117500000D03*
%TO.P,J1,B10,PC5*%
%TO.N,unconnected-(J1-PC5-PadB10)*%
X134500000Y-117500000D03*
%TO.P,J1,B11,PB0*%
%TO.N,unconnected-(J1-PB0-PadB11)*%
X135500000Y-117500000D03*
%TO.P,J1,B12,PB1*%
%TO.N,unconnected-(J1-PB1-PadB12)*%
X138500000Y-117500000D03*
%TO.P,J1,B13,PB2*%
%TO.N,unconnected-(J1-PB2-PadB13)*%
X139500000Y-117500000D03*
%TO.P,J1,B14,PE7*%
%TO.N,unconnected-(J1-PE7-PadB14)*%
X140500000Y-117500000D03*
%TO.P,J1,B15,PE8*%
%TO.N,unconnected-(J1-PE8-PadB15)*%
X141500000Y-117500000D03*
%TO.P,J1,B16,PE9*%
%TO.N,unconnected-(J1-PE9-PadB16)*%
X142500000Y-117500000D03*
%TO.P,J1,B17,PE10*%
%TO.N,unconnected-(J1-PE10-PadB17)*%
X143500000Y-117500000D03*
%TO.P,J1,B18,PE11*%
%TO.N,unconnected-(J1-PE11-PadB18)*%
X144500000Y-117500000D03*
%TO.P,J1,B19,U2*%
%TO.N,unconnected-(J1-U2-PadB19)*%
X145500000Y-117500000D03*
%TO.P,J1,B20,PE12*%
%TO.N,unconnected-(J1-PE12-PadB20)*%
X146500000Y-117500000D03*
%TO.P,J1,B21,PE13*%
%TO.N,unconnected-(J1-PE13-PadB21)*%
X147500000Y-117500000D03*
%TO.P,J1,B22,PE14*%
%TO.N,unconnected-(J1-PE14-PadB22)*%
X148500000Y-117500000D03*
%TO.P,J1,B23,PE15*%
%TO.N,unconnected-(J1-PE15-PadB23)*%
X149500000Y-117500000D03*
%TO.P,J1,B24,PB10*%
%TO.N,unconnected-(J1-PB10-PadB24)*%
X150500000Y-117500000D03*
%TO.P,J1,B25,PB11*%
%TO.N,unconnected-(J1-PB11-PadB25)*%
X151500000Y-117500000D03*
%TO.P,J1,B26,PB12*%
%TO.N,unconnected-(J1-PB12-PadB26)*%
X152500000Y-117500000D03*
%TO.P,J1,B27,U4*%
%TO.N,unconnected-(J1-U4-PadB27)*%
X153500000Y-117500000D03*
%TO.P,J1,B28,PB13*%
%TO.N,unconnected-(J1-PB13-PadB28)*%
X154500000Y-117500000D03*
%TO.P,J1,B29,PB14*%
%TO.N,PB14*%
X155500000Y-117500000D03*
%TO.P,J1,B30,PB15*%
%TO.N,PB15*%
X156500000Y-117500000D03*
%TO.P,J1,B31,PD8*%
%TO.N,PD8*%
X157500000Y-117500000D03*
%TO.P,J1,B32,PD9*%
%TO.N,PD9*%
X158500000Y-117500000D03*
%TO.P,J1,B33,PD10*%
%TO.N,unconnected-(J1-PD10-PadB33)*%
X159500000Y-117500000D03*
%TO.P,J1,B34,PD11*%
%TO.N,unconnected-(J1-PD11-PadB34)*%
X160500000Y-117500000D03*
%TO.P,J1,B35,PD12*%
%TO.N,PD12*%
X161500000Y-117500000D03*
%TO.P,J1,B36,PD13*%
%TO.N,unconnected-(J1-PD13-PadB36)*%
X162500000Y-117500000D03*
%TO.P,J1,B37,PD14*%
%TO.N,unconnected-(J1-PD14-PadB37)*%
X163500000Y-117500000D03*
%TO.P,J1,B38,U6*%
%TO.N,unconnected-(J1-U6-PadB38)*%
X164500000Y-117500000D03*
%TO.P,J1,B39,PD15*%
%TO.N,unconnected-(J1-PD15-PadB39)*%
X165500000Y-117500000D03*
%TO.P,J1,B40,PC6*%
%TO.N,unconnected-(J1-PC6-PadB40)*%
X166500000Y-117500000D03*
%TO.P,J1,B41,PC7*%
%TO.N,unconnected-(J1-PC7-PadB41)*%
X167500000Y-117500000D03*
%TO.P,J1,B42,PC8*%
%TO.N,unconnected-(J1-PC8-PadB42)*%
X168500000Y-117500000D03*
%TO.P,J1,B43,PC9*%
%TO.N,unconnected-(J1-PC9-PadB43)*%
X169500000Y-117500000D03*
%TO.P,J1,B44,PA8*%
%TO.N,unconnected-(J1-PA8-PadB44)*%
X170500000Y-117500000D03*
%TO.P,J1,B45,PA9*%
%TO.N,unconnected-(J1-PA9-PadB45)*%
X171500000Y-117500000D03*
%TO.P,J1,B46,PA10*%
%TO.N,unconnected-(J1-PA10-PadB46)*%
X172500000Y-117500000D03*
%TO.P,J1,B47,3V3*%
%TO.N,+3V3*%
X173500000Y-117500000D03*
%TO.P,J1,B48,5V*%
%TO.N,unconnected-(J1-5V-PadB48)*%
X174500000Y-117500000D03*
%TO.P,J1,B49,GND*%
%TO.N,GND*%
X175500000Y-117500000D03*
%TD*%
D12*
%TO.P,JP3,1,A*%
%TO.N,PA3*%
X144275000Y-101000000D03*
D13*
%TO.P,JP3,2,B*%
%TO.N,Net-(JP1-B)*%
X145725000Y-101000000D03*
%TD*%
D16*
%TO.P,R1,1*%
%TO.N,PB8*%
X144175000Y-87300000D03*
%TO.P,R1,2*%
%TO.N,Net-(JP1-B)*%
X145825000Y-87300000D03*
%TD*%
D12*
%TO.P,JP5,1,A*%
%TO.N,PD12*%
X134275000Y-96000000D03*
D13*
%TO.P,JP5,2,B*%
%TO.N,Net-(JP4-B)*%
X135725000Y-96000000D03*
%TD*%
D17*
%TO.P,R4,1*%
%TO.N,Net-(JP10-B)*%
X160800000Y-100350000D03*
%TO.P,R4,2*%
%TO.N,Net-(JP4-B)*%
X160800000Y-102000000D03*
%TD*%
D12*
%TO.P,JP8,1,A*%
%TO.N,PD8*%
X124275000Y-96000000D03*
D13*
%TO.P,JP8,2,B*%
%TO.N,Net-(JP7-B)*%
X125725000Y-96000000D03*
%TD*%
D16*
%TO.P,R3,1*%
%TO.N,PB9*%
X124175000Y-87300000D03*
%TO.P,R3,2*%
%TO.N,Net-(JP7-B)*%
X125825000Y-87300000D03*
%TD*%
%TO.P,R2,1*%
%TO.N,PB14*%
X134175000Y-87300000D03*
%TO.P,R2,2*%
%TO.N,Net-(JP4-B)*%
X135825000Y-87300000D03*
%TD*%
D18*
%TO.P,C2,1*%
%TO.N,GND*%
X167025000Y-97200000D03*
%TO.P,C2,2*%
%TO.N,+3V3*%
X168575000Y-97200000D03*
%TD*%
D12*
%TO.P,JP7,1,A*%
%TO.N,PB9*%
X124275000Y-91000000D03*
D13*
%TO.P,JP7,2,B*%
%TO.N,Net-(JP7-B)*%
X125725000Y-91000000D03*
%TD*%
D19*
%TO.P,U1,1,RO*%
%TO.N,Net-(JP1-B)*%
X163525000Y-99195000D03*
%TO.P,U1,2,~{RE}*%
%TO.N,Net-(JP10-B)*%
X163525000Y-100465000D03*
%TO.P,U1,3,DE*%
%TO.N,Net-(JP4-B)*%
X163525000Y-101735000D03*
%TO.P,U1,4,DI*%
%TO.N,Net-(JP7-B)*%
X163525000Y-103005000D03*
%TO.P,U1,5,GND*%
%TO.N,GND*%
X168475000Y-103005000D03*
%TO.P,U1,6,A*%
%TO.N,Net-(J2-Pin_1)*%
X168475000Y-101735000D03*
%TO.P,U1,7,B*%
%TO.N,Net-(J2-Pin_2)*%
X168475000Y-100465000D03*
%TO.P,U1,8,VCC*%
%TO.N,+3V3*%
X168475000Y-99195000D03*
%TD*%
D12*
%TO.P,JP9,1,A*%
%TO.N,PA2*%
X124275000Y-101000000D03*
D13*
%TO.P,JP9,2,B*%
%TO.N,Net-(JP7-B)*%
X125725000Y-101000000D03*
%TD*%
D12*
%TO.P,JP2,1,A*%
%TO.N,PD9*%
X144275000Y-96000000D03*
D13*
%TO.P,JP2,2,B*%
%TO.N,Net-(JP1-B)*%
X145725000Y-96000000D03*
%TD*%
D12*
%TO.P,JP4,1,A*%
%TO.N,PB14*%
X134275000Y-91000000D03*
D13*
%TO.P,JP4,2,B*%
%TO.N,Net-(JP4-B)*%
X135725000Y-91000000D03*
%TD*%
D12*
%TO.P,JP1,1,A*%
%TO.N,PB8*%
X144275000Y-91000000D03*
D13*
%TO.P,JP1,2,B*%
%TO.N,Net-(JP1-B)*%
X145725000Y-91000000D03*
%TD*%
D20*
%TO.N,PA2*%
X127600000Y-110500000D03*
%TO.N,PA1*%
X129700000Y-112900000D03*
%TO.N,+3V3*%
X173500000Y-113900000D03*
%TO.N,Net-(JP4-B)*%
X137000000Y-102000000D03*
X161800000Y-101750000D03*
%TO.N,Net-(JP7-B)*%
X161900000Y-103000000D03*
X125800000Y-102900000D03*
%TO.N,PA3*%
X142700000Y-101000000D03*
X128600000Y-101000000D03*
%TO.N,PB14*%
X155900000Y-90700000D03*
X132900000Y-90500000D03*
%TO.N,PD8*%
X157400000Y-96000000D03*
X123000000Y-96100000D03*
%TO.N,PD9*%
X142900000Y-95300000D03*
X158200000Y-95300000D03*
%TO.N,PB9*%
X124175000Y-89300000D03*
X148300000Y-113300000D03*
X148200000Y-89300000D03*
%TO.N,PB8*%
X142900000Y-92000000D03*
X149800000Y-92300000D03*
X150000000Y-113600000D03*
%TO.N,PD12*%
X133100000Y-95200000D03*
X159200000Y-94650000D03*
%TO.N,PB15*%
X156500000Y-100500000D03*
%TO.N,Net-(JP10-B)*%
X161900000Y-100350000D03*
%TD*%
%TO.N,Net-(J2-Pin_1)*%
D21*
X168475000Y-101735000D02*
X173635000Y-101735000D01*
X173635000Y-101735000D02*
X174800000Y-102900000D01*
%TO.N,Net-(J2-Pin_2)*%
X168475000Y-100465000D02*
X172155000Y-100465000D01*
X172155000Y-100465000D02*
X174800000Y-97820000D01*
%TO.N,Net-(JP1-B)*%
X163525000Y-89125000D02*
X161700000Y-87300000D01*
X161700000Y-87300000D02*
X145825000Y-87300000D01*
X145725000Y-91000000D02*
X145725000Y-96000000D01*
X145725000Y-96000000D02*
X145725000Y-101000000D01*
X145825000Y-90900000D02*
X145725000Y-91000000D01*
X145825000Y-87300000D02*
X145825000Y-90900000D01*
X163525000Y-99195000D02*
X163525000Y-89125000D01*
%TO.N,PA2*%
X124400000Y-110500000D02*
X124275000Y-110375000D01*
X124275000Y-110375000D02*
X124275000Y-101000000D01*
X127600000Y-110500000D02*
X124400000Y-110500000D01*
%TO.N,PA1*%
X129700000Y-112900000D02*
X130100000Y-112500000D01*
X130100000Y-101800000D02*
X133475000Y-101800000D01*
X130100000Y-112500000D02*
X130100000Y-101800000D01*
X133475000Y-101800000D02*
X134275000Y-101000000D01*
%TO.N,+3V3*%
D22*
X183300000Y-110300000D02*
X183300000Y-89500000D01*
X183100000Y-89300000D02*
X170500000Y-89300000D01*
X170500000Y-89300000D02*
X168750000Y-91050000D01*
D21*
X168575000Y-97200000D02*
X168575000Y-95075000D01*
X168575000Y-95075000D02*
X168750000Y-94900000D01*
D22*
X168750000Y-91050000D02*
X168750000Y-94900000D01*
X173500000Y-117500000D02*
X173500000Y-112000000D01*
D21*
X168575000Y-97200000D02*
X168575000Y-99095000D01*
D22*
X182900000Y-110700000D02*
X183300000Y-110300000D01*
X173500000Y-112000000D02*
X174800000Y-110700000D01*
X183300000Y-89500000D02*
X183100000Y-89300000D01*
D21*
X168575000Y-99095000D02*
X168475000Y-99195000D01*
D22*
X174800000Y-110700000D02*
X182900000Y-110700000D01*
%TO.N,Net-(JP4-B)*%
D21*
X135825000Y-87300000D02*
X135825000Y-90900000D01*
X161815000Y-101735000D02*
X163525000Y-101735000D01*
X136000000Y-101000000D02*
X135725000Y-101000000D01*
X161550000Y-102000000D02*
X160800000Y-102000000D01*
X137000000Y-102000000D02*
X136000000Y-101000000D01*
X161800000Y-101750000D02*
X161815000Y-101735000D01*
X135825000Y-90900000D02*
X135725000Y-91000000D01*
X135725000Y-96000000D02*
X135725000Y-101000000D01*
X161800000Y-101750000D02*
X161550000Y-102000000D01*
X135725000Y-91000000D02*
X135725000Y-96000000D01*
%TO.N,Net-(JP7-B)*%
X125800000Y-101075000D02*
X125725000Y-101000000D01*
X125725000Y-91000000D02*
X125725000Y-96000000D01*
X125825000Y-90900000D02*
X125725000Y-91000000D01*
X161900000Y-103000000D02*
X161905000Y-103005000D01*
X125725000Y-96000000D02*
X125725000Y-101000000D01*
X125800000Y-102900000D02*
X125800000Y-101075000D01*
X161905000Y-103005000D02*
X163525000Y-103005000D01*
X125825000Y-87300000D02*
X125825000Y-90900000D01*
%TO.N,PA3*%
X128500000Y-101100000D02*
X128600000Y-101000000D01*
X142700000Y-101000000D02*
X144275000Y-101000000D01*
X128500000Y-117500000D02*
X128500000Y-101100000D01*
%TO.N,PB14*%
X155500000Y-91100000D02*
X155900000Y-90700000D01*
X133775000Y-90500000D02*
X134275000Y-91000000D01*
X155500000Y-117500000D02*
X155500000Y-91100000D01*
X132900000Y-90500000D02*
X133775000Y-90500000D01*
X134175000Y-87300000D02*
X134175000Y-90900000D01*
X134175000Y-90900000D02*
X134275000Y-91000000D01*
%TO.N,PD8*%
X157500000Y-117500000D02*
X157500000Y-96100000D01*
X123000000Y-96100000D02*
X124175000Y-96100000D01*
X157500000Y-96100000D02*
X157400000Y-96000000D01*
X124175000Y-96100000D02*
X124275000Y-96000000D01*
%TO.N,PD9*%
X142900000Y-95300000D02*
X143575000Y-95300000D01*
X158500000Y-117500000D02*
X158500000Y-95600000D01*
X143575000Y-95300000D02*
X144275000Y-96000000D01*
X158500000Y-95600000D02*
X158200000Y-95300000D01*
%TO.N,PB9*%
X124175000Y-90900000D02*
X124275000Y-91000000D01*
X148300000Y-89400000D02*
X148200000Y-89300000D01*
X124175000Y-87300000D02*
X124175000Y-89300000D01*
X124175000Y-89300000D02*
X124175000Y-90900000D01*
X148300000Y-113300000D02*
X148300000Y-89400000D01*
%TO.N,PB8*%
X144175000Y-87300000D02*
X144175000Y-90900000D01*
X143275000Y-92000000D02*
X144275000Y-91000000D01*
X150000000Y-92500000D02*
X149800000Y-92300000D01*
X144175000Y-90900000D02*
X144275000Y-91000000D01*
X142900000Y-92000000D02*
X143275000Y-92000000D01*
X150000000Y-113600000D02*
X150000000Y-92500000D01*
%TO.N,PD12*%
X159200000Y-111700000D02*
X161500000Y-114000000D01*
X133100000Y-95200000D02*
X133475000Y-95200000D01*
X133475000Y-95200000D02*
X134275000Y-96000000D01*
X161500000Y-114000000D02*
X161500000Y-117500000D01*
X159200000Y-94650000D02*
X159200000Y-111700000D01*
%TO.N,PB15*%
X156500000Y-117500000D02*
X156500000Y-100500000D01*
%TO.N,Net-(JP10-B)*%
X160800000Y-100350000D02*
X161900000Y-100350000D01*
X161900000Y-100350000D02*
X163410000Y-100350000D01*
X163410000Y-100350000D02*
X163525000Y-100465000D01*
%TD*%
%TA.AperFunction,Conductor*%
%TO.N,GND*%
G36*
X184504848Y-69701268D02*
G01*
X184582779Y-69713611D01*
X184601364Y-69719650D01*
X184667224Y-69753207D01*
X184683041Y-69764700D01*
X184735299Y-69816958D01*
X184746793Y-69832778D01*
X184780347Y-69898632D01*
X184786389Y-69917228D01*
X184798730Y-69995137D01*
X184799500Y-70004915D01*
X184799500Y-111995083D01*
X184798730Y-112004860D01*
X184786390Y-112082769D01*
X184780348Y-112101367D01*
X184746793Y-112167222D01*
X184735299Y-112183041D01*
X184683041Y-112235299D01*
X184667222Y-112246793D01*
X184601367Y-112280348D01*
X184582769Y-112286390D01*
X184504860Y-112298730D01*
X184495083Y-112299500D01*
X176110118Y-112299500D01*
X176036427Y-112330023D01*
X176036424Y-112330025D01*
X175980025Y-112386424D01*
X175980023Y-112386427D01*
X175949500Y-112460118D01*
X175949500Y-115164147D01*
X175931194Y-115208341D01*
X175887000Y-115226647D01*
X175874808Y-115225446D01*
X175862511Y-115223000D01*
X175652400Y-115223000D01*
X175652400Y-119777000D01*
X175862505Y-119777000D01*
X175874804Y-119774553D01*
X175921721Y-119783884D01*
X175948299Y-119823656D01*
X175949500Y-119835852D01*
X175949500Y-120341062D01*
X175931194Y-120385256D01*
X175585256Y-120731194D01*
X175541062Y-120749500D01*
X138558938Y-120749500D01*
X138514744Y-120731194D01*
X138168806Y-120385256D01*
X138150500Y-120341062D01*
X138150500Y-119913000D01*
X138168806Y-119868806D01*
X138213000Y-119850500D01*
X138869748Y-119850500D01*
X138928231Y-119838867D01*
X138965276Y-119814114D01*
X139012192Y-119804781D01*
X139034724Y-119814114D01*
X139071766Y-119838865D01*
X139071769Y-119838867D01*
X139130252Y-119850500D01*
X139869748Y-119850500D01*
X139928231Y-119838867D01*
X139965276Y-119814114D01*
X140012192Y-119804781D01*
X140034724Y-119814114D01*
X140071766Y-119838865D01*
X140071769Y-119838867D01*
X140130252Y-119850500D01*
X140869748Y-119850500D01*
X140928231Y-119838867D01*
X140965276Y-119814114D01*
X141012192Y-119804781D01*
X141034724Y-119814114D01*
X141071766Y-119838865D01*
X141071769Y-119838867D01*
X141130252Y-119850500D01*
X141869748Y-119850500D01*
X141928231Y-119838867D01*
X141965276Y-119814114D01*
X142012192Y-119804781D01*
X142034724Y-119814114D01*
X142071766Y-119838865D01*
X142071769Y-119838867D01*
X142130252Y-119850500D01*
X142869748Y-119850500D01*
X142928231Y-119838867D01*
X142965276Y-119814114D01*
X143012192Y-119804781D01*
X143034724Y-119814114D01*
X143071766Y-119838865D01*
X143071769Y-119838867D01*
X143130252Y-119850500D01*
X143869748Y-119850500D01*
X143928231Y-119838867D01*
X143965276Y-119814114D01*
X144012192Y-119804781D01*
X144034724Y-119814114D01*
X144071766Y-119838865D01*
X144071769Y-119838867D01*
X144130252Y-119850500D01*
X144869748Y-119850500D01*
X144928231Y-119838867D01*
X144965276Y-119814114D01*
X145012192Y-119804781D01*
X145034724Y-119814114D01*
X145071766Y-119838865D01*
X145071769Y-119838867D01*
X145130252Y-119850500D01*
X145869748Y-119850500D01*
X145928231Y-119838867D01*
X145965276Y-119814114D01*
X146012192Y-119804781D01*
X146034724Y-119814114D01*
X146071766Y-119838865D01*
X146071769Y-119838867D01*
X146130252Y-119850500D01*
X146869748Y-119850500D01*
X146928231Y-119838867D01*
X146965276Y-119814114D01*
X147012192Y-119804781D01*
X147034724Y-119814114D01*
X147071766Y-119838865D01*
X147071769Y-119838867D01*
X147130252Y-119850500D01*
X147869748Y-119850500D01*
X147928231Y-119838867D01*
X147965276Y-119814114D01*
X148012192Y-119804781D01*
X148034724Y-119814114D01*
X148071766Y-119838865D01*
X148071769Y-119838867D01*
X148130252Y-119850500D01*
X148869748Y-119850500D01*
X148928231Y-119838867D01*
X148965276Y-119814114D01*
X149012192Y-119804781D01*
X149034724Y-119814114D01*
X149071766Y-119838865D01*
X149071769Y-119838867D01*
X149130252Y-119850500D01*
X149869748Y-119850500D01*
X149928231Y-119838867D01*
X149965276Y-119814114D01*
X150012192Y-119804781D01*
X150034724Y-119814114D01*
X150071766Y-119838865D01*
X150071769Y-119838867D01*
X150130252Y-119850500D01*
X150869748Y-119850500D01*
X150928231Y-119838867D01*
X150965276Y-119814114D01*
X151012192Y-119804781D01*
X151034724Y-119814114D01*
X151071766Y-119838865D01*
X151071769Y-119838867D01*
X151130252Y-119850500D01*
X151869748Y-119850500D01*
X151928231Y-119838867D01*
X151965276Y-119814114D01*
X152012192Y-119804781D01*
X152034724Y-119814114D01*
X152071766Y-119838865D01*
X152071769Y-119838867D01*
X152130252Y-119850500D01*
X152869748Y-119850500D01*
X152928231Y-119838867D01*
X152965276Y-119814114D01*
X153012192Y-119804781D01*
X153034724Y-119814114D01*
X153071766Y-119838865D01*
X153071769Y-119838867D01*
X153130252Y-119850500D01*
X153869748Y-119850500D01*
X153928231Y-119838867D01*
X153965276Y-119814114D01*
X154012192Y-119804781D01*
X154034724Y-119814114D01*
X154071766Y-119838865D01*
X154071769Y-119838867D01*
X154130252Y-119850500D01*
X154869748Y-119850500D01*
X154928231Y-119838867D01*
X154965276Y-119814114D01*
X155012192Y-119804781D01*
X155034724Y-119814114D01*
X155071766Y-119838865D01*
X155071769Y-119838867D01*
X155130252Y-119850500D01*
X155869748Y-119850500D01*
X155928231Y-119838867D01*
X155965276Y-119814114D01*
X156012192Y-119804781D01*
X156034724Y-119814114D01*
X156071766Y-119838865D01*
X156071769Y-119838867D01*
X156130252Y-119850500D01*
X156869748Y-119850500D01*
X156928231Y-119838867D01*
X156965276Y-119814114D01*
X157012192Y-119804781D01*
X157034724Y-119814114D01*
X157071766Y-119838865D01*
X157071769Y-119838867D01*
X157130252Y-119850500D01*
X157869748Y-119850500D01*
X157928231Y-119838867D01*
X157965276Y-119814114D01*
X158012192Y-119804781D01*
X158034724Y-119814114D01*
X158071766Y-119838865D01*
X158071769Y-119838867D01*
X158130252Y-119850500D01*
X158869748Y-119850500D01*
X158928231Y-119838867D01*
X158965276Y-119814114D01*
X159012192Y-119804781D01*
X159034724Y-119814114D01*
X159071766Y-119838865D01*
X159071769Y-119838867D01*
X159130252Y-119850500D01*
X159869748Y-119850500D01*
X159928231Y-119838867D01*
X159965276Y-119814114D01*
X160012192Y-119804781D01*
X160034724Y-119814114D01*
X160071766Y-119838865D01*
X160071769Y-119838867D01*
X160130252Y-119850500D01*
X160869748Y-119850500D01*
X160928231Y-119838867D01*
X160965276Y-119814114D01*
X161012192Y-119804781D01*
X161034724Y-119814114D01*
X161071766Y-119838865D01*
X161071769Y-119838867D01*
X161130252Y-119850500D01*
X161869748Y-119850500D01*
X161928231Y-119838867D01*
X161965276Y-119814114D01*
X162012192Y-119804781D01*
X162034724Y-119814114D01*
X162071766Y-119838865D01*
X162071769Y-119838867D01*
X162130252Y-119850500D01*
X162869748Y-119850500D01*
X162928231Y-119838867D01*
X162965276Y-119814114D01*
X163012192Y-119804781D01*
X163034724Y-119814114D01*
X163071766Y-119838865D01*
X163071769Y-119838867D01*
X163130252Y-119850500D01*
X163869748Y-119850500D01*
X163928231Y-119838867D01*
X163965276Y-119814114D01*
X164012192Y-119804781D01*
X164034724Y-119814114D01*
X164071766Y-119838865D01*
X164071769Y-119838867D01*
X164130252Y-119850500D01*
X164869748Y-119850500D01*
X164928231Y-119838867D01*
X164965276Y-119814114D01*
X165012192Y-119804781D01*
X165034724Y-119814114D01*
X165071766Y-119838865D01*
X165071769Y-119838867D01*
X165130252Y-119850500D01*
X165869748Y-119850500D01*
X165928231Y-119838867D01*
X165965276Y-119814114D01*
X166012192Y-119804781D01*
X166034724Y-119814114D01*
X166071766Y-119838865D01*
X166071769Y-119838867D01*
X166130252Y-119850500D01*
X166869748Y-119850500D01*
X166928231Y-119838867D01*
X166965276Y-119814114D01*
X167012192Y-119804781D01*
X167034724Y-119814114D01*
X167071766Y-119838865D01*
X167071769Y-119838867D01*
X167130252Y-119850500D01*
X167869748Y-119850500D01*
X167928231Y-119838867D01*
X167965276Y-119814114D01*
X168012192Y-119804781D01*
X168034724Y-119814114D01*
X168071766Y-119838865D01*
X168071769Y-119838867D01*
X168130252Y-119850500D01*
X168869748Y-119850500D01*
X168928231Y-119838867D01*
X168965276Y-119814114D01*
X169012192Y-119804781D01*
X169034724Y-119814114D01*
X169071766Y-119838865D01*
X169071769Y-119838867D01*
X169130252Y-119850500D01*
X169869748Y-119850500D01*
X169928231Y-119838867D01*
X169965276Y-119814114D01*
X170012192Y-119804781D01*
X170034724Y-119814114D01*
X170071766Y-119838865D01*
X170071769Y-119838867D01*
X170130252Y-119850500D01*
X170869748Y-119850500D01*
X170928231Y-119838867D01*
X170965276Y-119814114D01*
X171012192Y-119804781D01*
X171034724Y-119814114D01*
X171071766Y-119838865D01*
X171071769Y-119838867D01*
X171130252Y-119850500D01*
X171869748Y-119850500D01*
X171928231Y-119838867D01*
X171965276Y-119814114D01*
X172012192Y-119804781D01*
X172034724Y-119814114D01*
X172071766Y-119838865D01*
X172071769Y-119838867D01*
X172130252Y-119850500D01*
X172869748Y-119850500D01*
X172928231Y-119838867D01*
X172965276Y-119814114D01*
X173012192Y-119804781D01*
X173034724Y-119814114D01*
X173071766Y-119838865D01*
X173071769Y-119838867D01*
X173130252Y-119850500D01*
X173869748Y-119850500D01*
X173928231Y-119838867D01*
X173965276Y-119814114D01*
X174012192Y-119804781D01*
X174034724Y-119814114D01*
X174071766Y-119838865D01*
X174071769Y-119838867D01*
X174130252Y-119850500D01*
X174869748Y-119850500D01*
X174928231Y-119838867D01*
X174994552Y-119794552D01*
X174996486Y-119791658D01*
X175004026Y-119780374D01*
X175043799Y-119753797D01*
X175090715Y-119763129D01*
X175090717Y-119763129D01*
X175100447Y-119769631D01*
X175137493Y-119777000D01*
X175347600Y-119777000D01*
X175347600Y-115223000D01*
X175137493Y-115223000D01*
X175100446Y-115230369D01*
X175100443Y-115230370D01*
X175090714Y-115236871D01*
X175043798Y-115246202D01*
X175004026Y-115219626D01*
X174994552Y-115205447D01*
X174928232Y-115161133D01*
X174928230Y-115161132D01*
X174869748Y-115149500D01*
X174130252Y-115149500D01*
X174130248Y-115149500D01*
X174075192Y-115160451D01*
X174028276Y-115151118D01*
X174001701Y-115111344D01*
X174000500Y-115099152D01*
X174000500Y-112233202D01*
X174018806Y-112189008D01*
X174989008Y-111218806D01*
X175033202Y-111200500D01*
X182965891Y-111200500D01*
X182965892Y-111200500D01*
X183093186Y-111166392D01*
X183207314Y-111100500D01*
X183700499Y-110607315D01*
X183735817Y-110546144D01*
X183766392Y-110493186D01*
X183782222Y-110434108D01*
X183800500Y-110365893D01*
X183800500Y-110234108D01*
X183800500Y-89434108D01*
X183766392Y-89306814D01*
X183700500Y-89192686D01*
X183700498Y-89192684D01*
X183700495Y-89192680D01*
X183607314Y-89099500D01*
X183407319Y-88899504D01*
X183407315Y-88899501D01*
X183407314Y-88899500D01*
X183350250Y-88866554D01*
X183293185Y-88833607D01*
X183293182Y-88833606D01*
X183165898Y-88799501D01*
X183165893Y-88799500D01*
X183165892Y-88799500D01*
X170565893Y-88799500D01*
X170434108Y-88799500D01*
X170434107Y-88799500D01*
X170434101Y-88799501D01*
X170306817Y-88833606D01*
X170306814Y-88833607D01*
X170192684Y-88899501D01*
X170192680Y-88899504D01*
X168442686Y-90649500D01*
X168349504Y-90742680D01*
X168349501Y-90742684D01*
X168283607Y-90856814D01*
X168283606Y-90856817D01*
X168249501Y-90984101D01*
X168249500Y-90984109D01*
X168249500Y-94018418D01*
X168231194Y-94062612D01*
X168224114Y-94068705D01*
X168177850Y-94102849D01*
X168097207Y-94212116D01*
X168097207Y-94212117D01*
X168052354Y-94340298D01*
X168052353Y-94340303D01*
X168049500Y-94370737D01*
X168049500Y-95429262D01*
X168052353Y-95459696D01*
X168052354Y-95459701D01*
X168097207Y-95587882D01*
X168097207Y-95587883D01*
X168155150Y-95666393D01*
X168177850Y-95697150D01*
X168199113Y-95712843D01*
X168223802Y-95753814D01*
X168224500Y-95763130D01*
X168224500Y-96498095D01*
X168206194Y-96542289D01*
X168190375Y-96553783D01*
X168096779Y-96601472D01*
X168001471Y-96696780D01*
X167940282Y-96816869D01*
X167940279Y-96816879D01*
X167924501Y-96916498D01*
X167924500Y-96916514D01*
X167924500Y-97483485D01*
X167924501Y-97483501D01*
X167940279Y-97583120D01*
X167940282Y-97583130D01*
X167978109Y-97657368D01*
X168001472Y-97703220D01*
X168096780Y-97798528D01*
X168190374Y-97846216D01*
X168221441Y-97882590D01*
X168224500Y-97901904D01*
X168224500Y-98632000D01*
X168206194Y-98676194D01*
X168162000Y-98694500D01*
X167616740Y-98694500D01*
X167605121Y-98696192D01*
X167548609Y-98704426D01*
X167443515Y-98755803D01*
X167360803Y-98838515D01*
X167309426Y-98943609D01*
X167299500Y-99011740D01*
X167299500Y-99378259D01*
X167309426Y-99446390D01*
X167309426Y-99446391D01*
X167309427Y-99446393D01*
X167360802Y-99551483D01*
X167443517Y-99634198D01*
X167548607Y-99685573D01*
X167616740Y-99695500D01*
X167616741Y-99695500D01*
X169333259Y-99695500D01*
X169333260Y-99695500D01*
X169401393Y-99685573D01*
X169506483Y-99634198D01*
X169589198Y-99551483D01*
X169640573Y-99446393D01*
X169650500Y-99378260D01*
X169650500Y-99011740D01*
X169640573Y-98943607D01*
X169589198Y-98838517D01*
X169506483Y-98755802D01*
X169401393Y-98704427D01*
X169401391Y-98704426D01*
X169401390Y-98704426D01*
X169347267Y-98696540D01*
X169333260Y-98694500D01*
X169333259Y-98694500D01*
X168988000Y-98694500D01*
X168943806Y-98676194D01*
X168925500Y-98632000D01*
X168925500Y-97901904D01*
X168943806Y-97857710D01*
X168959623Y-97846217D01*
X169053220Y-97798528D01*
X169148528Y-97703220D01*
X169209719Y-97583126D01*
X169225500Y-97483488D01*
X169225500Y-96916512D01*
X169219420Y-96878127D01*
X169209720Y-96816879D01*
X169209719Y-96816877D01*
X169209719Y-96816874D01*
X169209717Y-96816871D01*
X169209717Y-96816869D01*
X169148528Y-96696780D01*
X169053220Y-96601472D01*
X169046406Y-96598000D01*
X168959624Y-96553782D01*
X168928559Y-96517408D01*
X168925500Y-96498095D01*
X168925500Y-95888000D01*
X168943806Y-95843806D01*
X168988000Y-95825500D01*
X169054262Y-95825500D01*
X169054266Y-95825500D01*
X169084699Y-95822646D01*
X169212882Y-95777793D01*
X169322150Y-95697150D01*
X169402793Y-95587882D01*
X169447646Y-95459699D01*
X169450500Y-95429266D01*
X169450500Y-94370734D01*
X169447646Y-94340301D01*
X169402793Y-94212118D01*
X169381750Y-94183606D01*
X169322149Y-94102849D01*
X169275886Y-94068705D01*
X169251198Y-94027733D01*
X169250500Y-94018418D01*
X169250500Y-92587600D01*
X172882591Y-92587600D01*
X174116601Y-92587600D01*
X174100000Y-92671056D01*
X174100000Y-92808944D01*
X174116601Y-92892400D01*
X172882591Y-92892400D01*
X172901736Y-93013278D01*
X172958497Y-93187971D01*
X172958498Y-93187974D01*
X173041895Y-93351646D01*
X173149861Y-93500249D01*
X173149868Y-93500257D01*
X173279742Y-93630131D01*
X173279750Y-93630138D01*
X173428353Y-93738104D01*
X173592025Y-93821501D01*
X173592028Y-93821502D01*
X173766723Y-93878263D01*
X173766732Y-93878265D01*
X173948141Y-93906998D01*
X173948157Y-93907000D01*
X174647600Y-93907000D01*
X174647600Y-93423399D01*
X174731056Y-93440000D01*
X174868944Y-93440000D01*
X174952400Y-93423399D01*
X174952400Y-93907000D01*
X175651843Y-93907000D01*
X175651858Y-93906998D01*
X175833267Y-93878265D01*
X175833276Y-93878263D01*
X176007971Y-93821502D01*
X176007974Y-93821501D01*
X176171646Y-93738104D01*
X176320249Y-93630138D01*
X176320257Y-93630131D01*
X176450131Y-93500257D01*
X176450138Y-93500249D01*
X176558104Y-93351646D01*
X176641501Y-93187974D01*
X176641502Y-93187971D01*
X176698263Y-93013278D01*
X176717409Y-92892400D01*
X175483399Y-92892400D01*
X175500000Y-92808944D01*
X175500000Y-92671056D01*
X175483399Y-92587600D01*
X176717408Y-92587600D01*
X176698263Y-92466721D01*
X176641502Y-92292028D01*
X176641501Y-92292025D01*
X176558104Y-92128353D01*
X176450138Y-91979750D01*
X176450131Y-91979742D01*
X176320257Y-91849868D01*
X176320249Y-91849861D01*
X176171646Y-91741895D01*
X176007974Y-91658498D01*
X176007971Y-91658497D01*
X175833276Y-91601736D01*
X175833267Y-91601734D01*
X175651858Y-91573001D01*
X175651843Y-91573000D01*
X174952400Y-91573000D01*
X174952400Y-92056600D01*
X174868944Y-92040000D01*
X174731056Y-92040000D01*
X174647600Y-92056600D01*
X174647600Y-91573000D01*
X173948157Y-91573000D01*
X173948141Y-91573001D01*
X173766732Y-91601734D01*
X173766723Y-91601736D01*
X173592028Y-91658497D01*
X173592025Y-91658498D01*
X173428353Y-91741895D01*
X173279750Y-91849861D01*
X173279742Y-91849868D01*
X173149868Y-91979742D01*
X173149861Y-91979750D01*
X173041895Y-92128353D01*
X172958498Y-92292025D01*
X172958497Y-92292028D01*
X172901736Y-92466721D01*
X172882591Y-92587600D01*
X169250500Y-92587600D01*
X169250500Y-91283202D01*
X169268806Y-91239008D01*
X170689008Y-89818806D01*
X170733202Y-89800500D01*
X182737000Y-89800500D01*
X182781194Y-89818806D01*
X182799500Y-89863000D01*
X182799500Y-110066798D01*
X182781194Y-110110992D01*
X182710992Y-110181194D01*
X182666798Y-110199500D01*
X174865893Y-110199500D01*
X174734108Y-110199500D01*
X174734107Y-110199500D01*
X174734101Y-110199501D01*
X174606817Y-110233606D01*
X174606814Y-110233607D01*
X174492684Y-110299501D01*
X174492680Y-110299504D01*
X173192686Y-111599500D01*
X173099504Y-111692680D01*
X173099501Y-111692684D01*
X173033607Y-111806814D01*
X173033606Y-111806817D01*
X172999501Y-111934101D01*
X172999500Y-111934109D01*
X172999500Y-115099152D01*
X172981194Y-115143346D01*
X172937000Y-115161652D01*
X172924808Y-115160451D01*
X172869751Y-115149500D01*
X172869748Y-115149500D01*
X172130252Y-115149500D01*
X172071769Y-115161132D01*
X172071767Y-115161133D01*
X172034723Y-115185886D01*
X171987807Y-115195218D01*
X171965277Y-115185886D01*
X171928232Y-115161133D01*
X171928230Y-115161132D01*
X171869748Y-115149500D01*
X171130252Y-115149500D01*
X171071769Y-115161132D01*
X171071767Y-115161133D01*
X171034723Y-115185886D01*
X170987807Y-115195218D01*
X170965277Y-115185886D01*
X170928232Y-115161133D01*
X170928230Y-115161132D01*
X170869748Y-115149500D01*
X170130252Y-115149500D01*
X170071769Y-115161132D01*
X170071767Y-115161133D01*
X170034723Y-115185886D01*
X169987807Y-115195218D01*
X169965277Y-115185886D01*
X169928232Y-115161133D01*
X169928230Y-115161132D01*
X169869748Y-115149500D01*
X169130252Y-115149500D01*
X169071769Y-115161132D01*
X169071767Y-115161133D01*
X169034723Y-115185886D01*
X168987807Y-115195218D01*
X168965277Y-115185886D01*
X168928232Y-115161133D01*
X168928230Y-115161132D01*
X168869748Y-115149500D01*
X168130252Y-115149500D01*
X168071769Y-115161132D01*
X168071767Y-115161133D01*
X168034723Y-115185886D01*
X167987807Y-115195218D01*
X167965277Y-115185886D01*
X167928232Y-115161133D01*
X167928230Y-115161132D01*
X167869748Y-115149500D01*
X167130252Y-115149500D01*
X167071769Y-115161132D01*
X167071767Y-115161133D01*
X167034723Y-115185886D01*
X166987807Y-115195218D01*
X166965277Y-115185886D01*
X166928232Y-115161133D01*
X166928230Y-115161132D01*
X166869748Y-115149500D01*
X166130252Y-115149500D01*
X166071769Y-115161132D01*
X166071767Y-115161133D01*
X166034723Y-115185886D01*
X165987807Y-115195218D01*
X165965277Y-115185886D01*
X165928232Y-115161133D01*
X165928230Y-115161132D01*
X165869748Y-115149500D01*
X165130252Y-115149500D01*
X165071769Y-115161132D01*
X165071767Y-115161133D01*
X165034723Y-115185886D01*
X164987807Y-115195218D01*
X164965277Y-115185886D01*
X164928232Y-115161133D01*
X164928230Y-115161132D01*
X164869748Y-115149500D01*
X164130252Y-115149500D01*
X164071769Y-115161132D01*
X164071767Y-115161133D01*
X164034723Y-115185886D01*
X163987807Y-115195218D01*
X163965277Y-115185886D01*
X163928232Y-115161133D01*
X163928230Y-115161132D01*
X163869748Y-115149500D01*
X163130252Y-115149500D01*
X163071769Y-115161132D01*
X163071767Y-115161133D01*
X163034723Y-115185886D01*
X162987807Y-115195218D01*
X162965277Y-115185886D01*
X162928232Y-115161133D01*
X162928230Y-115161132D01*
X162869748Y-115149500D01*
X162130252Y-115149500D01*
X162071769Y-115161132D01*
X162071767Y-115161133D01*
X162034723Y-115185886D01*
X161987807Y-115195218D01*
X161974140Y-115190818D01*
X161969502Y-115188710D01*
X161928231Y-115161133D01*
X161893722Y-115154268D01*
X161887140Y-115151277D01*
X161875368Y-115138680D01*
X161861032Y-115129100D01*
X161858444Y-115120568D01*
X161854480Y-115116326D01*
X161854749Y-115108386D01*
X161850500Y-115094378D01*
X161850500Y-113953857D01*
X161850498Y-113953849D01*
X161826615Y-113864715D01*
X161826614Y-113864714D01*
X161826614Y-113864712D01*
X161820346Y-113853856D01*
X161780470Y-113784788D01*
X159568806Y-111573124D01*
X159550500Y-111528930D01*
X159550500Y-102934109D01*
X161399500Y-102934109D01*
X161399500Y-103065890D01*
X161399501Y-103065898D01*
X161433606Y-103193182D01*
X161433607Y-103193185D01*
X161499501Y-103307315D01*
X161499504Y-103307319D01*
X161592680Y-103400495D01*
X161592684Y-103400498D01*
X161592686Y-103400500D01*
X161668373Y-103444198D01*
X161706814Y-103466392D01*
X161706817Y-103466393D01*
X161784712Y-103487264D01*
X161834108Y-103500500D01*
X161834109Y-103500500D01*
X161965891Y-103500500D01*
X161965892Y-103500500D01*
X162093186Y-103466392D01*
X162207314Y-103400500D01*
X162234008Y-103373806D01*
X162259895Y-103363083D01*
X162278201Y-103355500D01*
X162378931Y-103355500D01*
X162423125Y-103373806D01*
X162493517Y-103444198D01*
X162598607Y-103495573D01*
X162666740Y-103505500D01*
X162666741Y-103505500D01*
X164383259Y-103505500D01*
X164383260Y-103505500D01*
X164451393Y-103495573D01*
X164556483Y-103444198D01*
X164639198Y-103361483D01*
X164690573Y-103256393D01*
X164699321Y-103196355D01*
X167373001Y-103196355D01*
X167375687Y-103219521D01*
X167375688Y-103219522D01*
X167417516Y-103314252D01*
X167417517Y-103314254D01*
X167490744Y-103387481D01*
X167585483Y-103429312D01*
X167608644Y-103431999D01*
X168322600Y-103431999D01*
X168627400Y-103431999D01*
X169341355Y-103431999D01*
X169364521Y-103429312D01*
X169364522Y-103429311D01*
X169459252Y-103387483D01*
X169459254Y-103387483D01*
X169532481Y-103314255D01*
X169574312Y-103219516D01*
X169577000Y-103196355D01*
X169577000Y-103157400D01*
X168627400Y-103157400D01*
X168627400Y-103431999D01*
X168322600Y-103431999D01*
X168322600Y-103157400D01*
X167373001Y-103157400D01*
X167373001Y-103196355D01*
X164699321Y-103196355D01*
X164700500Y-103188260D01*
X164700500Y-102821740D01*
X164699320Y-102813644D01*
X167373000Y-102813644D01*
X167373000Y-102852600D01*
X168322600Y-102852600D01*
X168627400Y-102852600D01*
X169576999Y-102852600D01*
X169576999Y-102813644D01*
X169574312Y-102790478D01*
X169574311Y-102790477D01*
X169532483Y-102695747D01*
X169532483Y-102695746D01*
X169459255Y-102622518D01*
X169364516Y-102580687D01*
X169341356Y-102578000D01*
X168627400Y-102578000D01*
X168627400Y-102852600D01*
X168322600Y-102852600D01*
X168322600Y-102578000D01*
X167608644Y-102578000D01*
X167585478Y-102580687D01*
X167585477Y-102580688D01*
X167490747Y-102622516D01*
X167490746Y-102622517D01*
X167417518Y-102695744D01*
X167375687Y-102790483D01*
X167373000Y-102813644D01*
X164699320Y-102813644D01*
X164690573Y-102753607D01*
X164639198Y-102648517D01*
X164556483Y-102565802D01*
X164451393Y-102514427D01*
X164451391Y-102514426D01*
X164451390Y-102514426D01*
X164397267Y-102506540D01*
X164383260Y-102504500D01*
X162666740Y-102504500D01*
X162655121Y-102506192D01*
X162598609Y-102514426D01*
X162493515Y-102565803D01*
X162423125Y-102636194D01*
X162378931Y-102654500D01*
X162288202Y-102654500D01*
X162244008Y-102636194D01*
X162207314Y-102599500D01*
X162108910Y-102542686D01*
X162093185Y-102533607D01*
X162093182Y-102533606D01*
X161965898Y-102499501D01*
X161965893Y-102499500D01*
X161965892Y-102499500D01*
X161834108Y-102499500D01*
X161834107Y-102499500D01*
X161834101Y-102499501D01*
X161706817Y-102533606D01*
X161706814Y-102533607D01*
X161592684Y-102599501D01*
X161592680Y-102599504D01*
X161499504Y-102692680D01*
X161499501Y-102692684D01*
X161433607Y-102806814D01*
X161433606Y-102806817D01*
X161399501Y-102934101D01*
X161399500Y-102934109D01*
X159550500Y-102934109D01*
X159550500Y-101768483D01*
X160124500Y-101768483D01*
X160124500Y-102231514D01*
X160124501Y-102231519D01*
X160127507Y-102250498D01*
X160139354Y-102325304D01*
X160196950Y-102438342D01*
X160286658Y-102528050D01*
X160399696Y-102585646D01*
X160399699Y-102585646D01*
X160399701Y-102585647D01*
X160493467Y-102600498D01*
X160493469Y-102600498D01*
X160493481Y-102600500D01*
X161106518Y-102600499D01*
X161200304Y-102585646D01*
X161313342Y-102528050D01*
X161403050Y-102438342D01*
X161430420Y-102384626D01*
X161466795Y-102353559D01*
X161486108Y-102350500D01*
X161596143Y-102350500D01*
X161596144Y-102350500D01*
X161685288Y-102326614D01*
X161685596Y-102326435D01*
X161687560Y-102325303D01*
X161742140Y-102293790D01*
X161765212Y-102280470D01*
X161765217Y-102280465D01*
X161776877Y-102268806D01*
X161821071Y-102250500D01*
X161865891Y-102250500D01*
X161865892Y-102250500D01*
X161993186Y-102216392D01*
X162107314Y-102150500D01*
X162154008Y-102103805D01*
X162198201Y-102085500D01*
X162378931Y-102085500D01*
X162423125Y-102103806D01*
X162493517Y-102174198D01*
X162598607Y-102225573D01*
X162666740Y-102235500D01*
X162666741Y-102235500D01*
X164383259Y-102235500D01*
X164383260Y-102235500D01*
X164451393Y-102225573D01*
X164556483Y-102174198D01*
X164639198Y-102091483D01*
X164690573Y-101986393D01*
X164700500Y-101918260D01*
X164700500Y-101551740D01*
X167299500Y-101551740D01*
X167299500Y-101918259D01*
X167309426Y-101986390D01*
X167309426Y-101986391D01*
X167309427Y-101986393D01*
X167360802Y-102091483D01*
X167443517Y-102174198D01*
X167548607Y-102225573D01*
X167616740Y-102235500D01*
X167616741Y-102235500D01*
X169333259Y-102235500D01*
X169333260Y-102235500D01*
X169401393Y-102225573D01*
X169506483Y-102174198D01*
X169576875Y-102103806D01*
X169621069Y-102085500D01*
X172737000Y-102085500D01*
X172781194Y-102103806D01*
X172799500Y-102148000D01*
X172799500Y-103744271D01*
X172802354Y-103774699D01*
X172847207Y-103902883D01*
X172847207Y-103902884D01*
X172887528Y-103957516D01*
X172927850Y-104012150D01*
X173037117Y-104092793D01*
X173165300Y-104137646D01*
X173195733Y-104140500D01*
X176404266Y-104140499D01*
X176404271Y-104140499D01*
X176413399Y-104139642D01*
X176434700Y-104137646D01*
X176562883Y-104092793D01*
X176672150Y-104012150D01*
X176752793Y-103902883D01*
X176797646Y-103774700D01*
X176800500Y-103744267D01*
X176800499Y-102055734D01*
X176800499Y-102055728D01*
X176799471Y-102044774D01*
X176797646Y-102025300D01*
X176752793Y-101897117D01*
X176672150Y-101787850D01*
X176562883Y-101707207D01*
X176434702Y-101662354D01*
X176434697Y-101662353D01*
X176414700Y-101660478D01*
X176404267Y-101659500D01*
X176404263Y-101659500D01*
X174081070Y-101659500D01*
X174036876Y-101641194D01*
X173850217Y-101454534D01*
X173850213Y-101454531D01*
X173850212Y-101454530D01*
X173799397Y-101425192D01*
X173770287Y-101408385D01*
X173770284Y-101408384D01*
X173681150Y-101384501D01*
X173681145Y-101384500D01*
X173681144Y-101384500D01*
X173681143Y-101384500D01*
X169621069Y-101384500D01*
X169576875Y-101366194D01*
X169506484Y-101295803D01*
X169506483Y-101295802D01*
X169401393Y-101244427D01*
X169401391Y-101244426D01*
X169401390Y-101244426D01*
X169347267Y-101236540D01*
X169333260Y-101234500D01*
X167616740Y-101234500D01*
X167605121Y-101236192D01*
X167548609Y-101244426D01*
X167548607Y-101244427D01*
X167468465Y-101283606D01*
X167443515Y-101295803D01*
X167360803Y-101378515D01*
X167309426Y-101483609D01*
X167299500Y-101551740D01*
X164700500Y-101551740D01*
X164690573Y-101483607D01*
X164639198Y-101378517D01*
X164556483Y-101295802D01*
X164451393Y-101244427D01*
X164451391Y-101244426D01*
X164451390Y-101244426D01*
X164397267Y-101236540D01*
X164383260Y-101234500D01*
X162666740Y-101234500D01*
X162655121Y-101236192D01*
X162598609Y-101244426D01*
X162598607Y-101244427D01*
X162518465Y-101283606D01*
X162493515Y-101295803D01*
X162423125Y-101366194D01*
X162378931Y-101384500D01*
X162168202Y-101384500D01*
X162124008Y-101366194D01*
X162124007Y-101366193D01*
X162107318Y-101349503D01*
X162107315Y-101349501D01*
X162107314Y-101349500D01*
X162034246Y-101307314D01*
X161993185Y-101283607D01*
X161993182Y-101283606D01*
X161865898Y-101249501D01*
X161865893Y-101249500D01*
X161865892Y-101249500D01*
X161734108Y-101249500D01*
X161734107Y-101249500D01*
X161734101Y-101249501D01*
X161606817Y-101283606D01*
X161606814Y-101283607D01*
X161492684Y-101349501D01*
X161492680Y-101349504D01*
X161399504Y-101442680D01*
X161399497Y-101442689D01*
X161396513Y-101447858D01*
X161358561Y-101476975D01*
X161314015Y-101472292D01*
X161200308Y-101414355D01*
X161200298Y-101414352D01*
X161106532Y-101399501D01*
X161106520Y-101399500D01*
X161106519Y-101399500D01*
X161106516Y-101399500D01*
X160493485Y-101399500D01*
X160493480Y-101399501D01*
X160399695Y-101414354D01*
X160399694Y-101414354D01*
X160286657Y-101471950D01*
X160196950Y-101561657D01*
X160139354Y-101674694D01*
X160139352Y-101674701D01*
X160124501Y-101768467D01*
X160124500Y-101768483D01*
X159550500Y-101768483D01*
X159550500Y-100118483D01*
X160124500Y-100118483D01*
X160124500Y-100581514D01*
X160124501Y-100581519D01*
X160139354Y-100675304D01*
X160139354Y-100675305D01*
X160177667Y-100750498D01*
X160196950Y-100788342D01*
X160286658Y-100878050D01*
X160399696Y-100935646D01*
X160399699Y-100935646D01*
X160399701Y-100935647D01*
X160493467Y-100950498D01*
X160493469Y-100950498D01*
X160493481Y-100950500D01*
X161106518Y-100950499D01*
X161200304Y-100935646D01*
X161313342Y-100878050D01*
X161403050Y-100788342D01*
X161423614Y-100747982D01*
X161430420Y-100734626D01*
X161438066Y-100728095D01*
X161441914Y-100718806D01*
X161455562Y-100713152D01*
X161466795Y-100703559D01*
X161486108Y-100700500D01*
X161516798Y-100700500D01*
X161560992Y-100718806D01*
X161592686Y-100750500D01*
X161691092Y-100807315D01*
X161706814Y-100816392D01*
X161706817Y-100816393D01*
X161784712Y-100837264D01*
X161834108Y-100850500D01*
X161834109Y-100850500D01*
X161965891Y-100850500D01*
X161965892Y-100850500D01*
X162093186Y-100816392D01*
X162207314Y-100750500D01*
X162239008Y-100718805D01*
X162283201Y-100700500D01*
X162312643Y-100700500D01*
X162356837Y-100718806D01*
X162368790Y-100735546D01*
X162410802Y-100821483D01*
X162493517Y-100904198D01*
X162598607Y-100955573D01*
X162666740Y-100965500D01*
X162666741Y-100965500D01*
X164383259Y-100965500D01*
X164383260Y-100965500D01*
X164451393Y-100955573D01*
X164556483Y-100904198D01*
X164639198Y-100821483D01*
X164690573Y-100716393D01*
X164700500Y-100648260D01*
X164700500Y-100281740D01*
X167299500Y-100281740D01*
X167299500Y-100648259D01*
X167309426Y-100716390D01*
X167309426Y-100716391D01*
X167309427Y-100716393D01*
X167360802Y-100821483D01*
X167443517Y-100904198D01*
X167548607Y-100955573D01*
X167616740Y-100965500D01*
X167616741Y-100965500D01*
X169333259Y-100965500D01*
X169333260Y-100965500D01*
X169401393Y-100955573D01*
X169506483Y-100904198D01*
X169576875Y-100833806D01*
X169621069Y-100815500D01*
X172201143Y-100815500D01*
X172201144Y-100815500D01*
X172290288Y-100791614D01*
X172294038Y-100789448D01*
X172302112Y-100784788D01*
X172346448Y-100759189D01*
X172370212Y-100745470D01*
X174036876Y-99078806D01*
X174081070Y-99060500D01*
X175657627Y-99060500D01*
X175657629Y-99060500D01*
X175850484Y-99029955D01*
X176036187Y-98969617D01*
X176210164Y-98880971D01*
X176368132Y-98766201D01*
X176506201Y-98628132D01*
X176620971Y-98470164D01*
X176709617Y-98296187D01*
X176769955Y-98110484D01*
X176800500Y-97917629D01*
X176800500Y-97722371D01*
X176769955Y-97529516D01*
X176709617Y-97343813D01*
X176620971Y-97169836D01*
X176506201Y-97011868D01*
X176506196Y-97011863D01*
X176506194Y-97011860D01*
X176368139Y-96873805D01*
X176368135Y-96873802D01*
X176368132Y-96873799D01*
X176210164Y-96759029D01*
X176177981Y-96742631D01*
X176036188Y-96670383D01*
X176036181Y-96670381D01*
X175850491Y-96610047D01*
X175850488Y-96610046D01*
X175850484Y-96610045D01*
X175837377Y-96607969D01*
X175657642Y-96579501D01*
X175657630Y-96579500D01*
X175657629Y-96579500D01*
X173942371Y-96579500D01*
X173942369Y-96579500D01*
X173942357Y-96579501D01*
X173749521Y-96610044D01*
X173749518Y-96610044D01*
X173749516Y-96610045D01*
X173749514Y-96610045D01*
X173749508Y-96610047D01*
X173563818Y-96670381D01*
X173563811Y-96670383D01*
X173389835Y-96759029D01*
X173231860Y-96873805D01*
X173093805Y-97011860D01*
X172979029Y-97169835D01*
X172890383Y-97343811D01*
X172890381Y-97343818D01*
X172830047Y-97529508D01*
X172830044Y-97529521D01*
X172799501Y-97722357D01*
X172799500Y-97722373D01*
X172799500Y-97917626D01*
X172799501Y-97917642D01*
X172830044Y-98110478D01*
X172830047Y-98110491D01*
X172890381Y-98296181D01*
X172890383Y-98296188D01*
X172979029Y-98470164D01*
X173093799Y-98628132D01*
X173093802Y-98628135D01*
X173093805Y-98628139D01*
X173231860Y-98766194D01*
X173231865Y-98766198D01*
X173231868Y-98766201D01*
X173245787Y-98776314D01*
X173270781Y-98817099D01*
X173259615Y-98863613D01*
X173253245Y-98871071D01*
X172028124Y-100096194D01*
X171983930Y-100114500D01*
X169621069Y-100114500D01*
X169576875Y-100096194D01*
X169506484Y-100025803D01*
X169506483Y-100025802D01*
X169401393Y-99974427D01*
X169401391Y-99974426D01*
X169401390Y-99974426D01*
X169347267Y-99966540D01*
X169333260Y-99964500D01*
X167616740Y-99964500D01*
X167605121Y-99966192D01*
X167548609Y-99974426D01*
X167548607Y-99974427D01*
X167445784Y-100024694D01*
X167443515Y-100025803D01*
X167360803Y-100108515D01*
X167309426Y-100213609D01*
X167299500Y-100281740D01*
X164700500Y-100281740D01*
X164690573Y-100213607D01*
X164639198Y-100108517D01*
X164556483Y-100025802D01*
X164451393Y-99974427D01*
X164451391Y-99974426D01*
X164451390Y-99974426D01*
X164397267Y-99966540D01*
X164383260Y-99964500D01*
X162666740Y-99964500D01*
X162598614Y-99974426D01*
X162598607Y-99974427D01*
X162560308Y-99993150D01*
X162532859Y-99999500D01*
X162283202Y-99999500D01*
X162239008Y-99981194D01*
X162207314Y-99949500D01*
X162141768Y-99911657D01*
X162093185Y-99883607D01*
X162093182Y-99883606D01*
X161965898Y-99849501D01*
X161965893Y-99849500D01*
X161965892Y-99849500D01*
X161834108Y-99849500D01*
X161834107Y-99849500D01*
X161834101Y-99849501D01*
X161706817Y-99883606D01*
X161706814Y-99883607D01*
X161592684Y-99949501D01*
X161577686Y-99964500D01*
X161560991Y-99981194D01*
X161516799Y-99999500D01*
X161486108Y-99999500D01*
X161441914Y-99981194D01*
X161430420Y-99965374D01*
X161403050Y-99911658D01*
X161313342Y-99821950D01*
X161200305Y-99764354D01*
X161200298Y-99764352D01*
X161106532Y-99749501D01*
X161106520Y-99749500D01*
X161106519Y-99749500D01*
X161106516Y-99749500D01*
X160493485Y-99749500D01*
X160493480Y-99749501D01*
X160399695Y-99764354D01*
X160399694Y-99764354D01*
X160286657Y-99821950D01*
X160196950Y-99911657D01*
X160139354Y-100024694D01*
X160139352Y-100024701D01*
X160124501Y-100118467D01*
X160124500Y-100118483D01*
X159550500Y-100118483D01*
X159550500Y-95033202D01*
X159568806Y-94989008D01*
X159600500Y-94957314D01*
X159666392Y-94843186D01*
X159700500Y-94715892D01*
X159700500Y-94584108D01*
X159666392Y-94456814D01*
X159600500Y-94342686D01*
X159600498Y-94342684D01*
X159600495Y-94342680D01*
X159507319Y-94249504D01*
X159507315Y-94249501D01*
X159507314Y-94249500D01*
X159426608Y-94202904D01*
X159393185Y-94183607D01*
X159393182Y-94183606D01*
X159265898Y-94149501D01*
X159265893Y-94149500D01*
X159265892Y-94149500D01*
X159134108Y-94149500D01*
X159134107Y-94149500D01*
X159134101Y-94149501D01*
X159006817Y-94183606D01*
X159006814Y-94183607D01*
X158892684Y-94249501D01*
X158892680Y-94249504D01*
X158799504Y-94342680D01*
X158799501Y-94342684D01*
X158733607Y-94456814D01*
X158733606Y-94456817D01*
X158699501Y-94584101D01*
X158699500Y-94584109D01*
X158699500Y-94715890D01*
X158699501Y-94715898D01*
X158733606Y-94843182D01*
X158733607Y-94843185D01*
X158733608Y-94843186D01*
X158799500Y-94957314D01*
X158831194Y-94989008D01*
X158849500Y-95033201D01*
X158849500Y-95302930D01*
X158831194Y-95347124D01*
X158787000Y-95365430D01*
X158742806Y-95347124D01*
X158718806Y-95323124D01*
X158700500Y-95278930D01*
X158700500Y-95234109D01*
X158700498Y-95234101D01*
X158692505Y-95204272D01*
X158680867Y-95160836D01*
X158666393Y-95106817D01*
X158666392Y-95106814D01*
X158642165Y-95064852D01*
X158600500Y-94992686D01*
X158600498Y-94992684D01*
X158600495Y-94992680D01*
X158507319Y-94899504D01*
X158507315Y-94899501D01*
X158507314Y-94899500D01*
X158450250Y-94866554D01*
X158393185Y-94833607D01*
X158393182Y-94833606D01*
X158265898Y-94799501D01*
X158265893Y-94799500D01*
X158265892Y-94799500D01*
X158134108Y-94799500D01*
X158134107Y-94799500D01*
X158134101Y-94799501D01*
X158006817Y-94833606D01*
X158006814Y-94833607D01*
X157892684Y-94899501D01*
X157892680Y-94899504D01*
X157799504Y-94992680D01*
X157799501Y-94992684D01*
X157733607Y-95106814D01*
X157733606Y-95106817D01*
X157699501Y-95234101D01*
X157699500Y-95234109D01*
X157699500Y-95365890D01*
X157699501Y-95365898D01*
X157733067Y-95491169D01*
X157726824Y-95538595D01*
X157688873Y-95567715D01*
X157641447Y-95561472D01*
X157601824Y-95538595D01*
X157593185Y-95533607D01*
X157593182Y-95533606D01*
X157465898Y-95499501D01*
X157465893Y-95499500D01*
X157465892Y-95499500D01*
X157334108Y-95499500D01*
X157334107Y-95499500D01*
X157334101Y-95499501D01*
X157206817Y-95533606D01*
X157206814Y-95533607D01*
X157092684Y-95599501D01*
X157092680Y-95599504D01*
X156999504Y-95692680D01*
X156999501Y-95692684D01*
X156933607Y-95806814D01*
X156933606Y-95806817D01*
X156899501Y-95934101D01*
X156899500Y-95934109D01*
X156899500Y-96065890D01*
X156899501Y-96065898D01*
X156933606Y-96193182D01*
X156933607Y-96193185D01*
X156999501Y-96307315D01*
X156999504Y-96307319D01*
X157092685Y-96400499D01*
X157092686Y-96400500D01*
X157118250Y-96415259D01*
X157147370Y-96453209D01*
X157149500Y-96469386D01*
X157149500Y-115094378D01*
X157131194Y-115138572D01*
X157112860Y-115151277D01*
X157106277Y-115154268D01*
X157071769Y-115161133D01*
X157030497Y-115188710D01*
X157025860Y-115190818D01*
X157006653Y-115191469D01*
X156987807Y-115195218D01*
X156980867Y-115192343D01*
X156978052Y-115192439D01*
X156975627Y-115190173D01*
X156965277Y-115185886D01*
X156928231Y-115161133D01*
X156900805Y-115155677D01*
X156861032Y-115129100D01*
X156850500Y-115094378D01*
X156850500Y-100883202D01*
X156868806Y-100839008D01*
X156900500Y-100807314D01*
X156966392Y-100693186D01*
X157000500Y-100565892D01*
X157000500Y-100434108D01*
X156966392Y-100306814D01*
X156900500Y-100192686D01*
X156900498Y-100192684D01*
X156900495Y-100192680D01*
X156807319Y-100099504D01*
X156807315Y-100099501D01*
X156807314Y-100099500D01*
X156747299Y-100064850D01*
X156693185Y-100033607D01*
X156693182Y-100033606D01*
X156565898Y-99999501D01*
X156565893Y-99999500D01*
X156565892Y-99999500D01*
X156434108Y-99999500D01*
X156434107Y-99999500D01*
X156434101Y-99999501D01*
X156306817Y-100033606D01*
X156306814Y-100033607D01*
X156192684Y-100099501D01*
X156192680Y-100099504D01*
X156099504Y-100192680D01*
X156099501Y-100192684D01*
X156033607Y-100306814D01*
X156033606Y-100306817D01*
X155999501Y-100434101D01*
X155999500Y-100434109D01*
X155999500Y-100565890D01*
X155999501Y-100565898D01*
X156033606Y-100693182D01*
X156033607Y-100693185D01*
X156048400Y-100718806D01*
X156099500Y-100807314D01*
X156131194Y-100839008D01*
X156149500Y-100883201D01*
X156149500Y-115094378D01*
X156131194Y-115138572D01*
X156112860Y-115151277D01*
X156106277Y-115154268D01*
X156071769Y-115161133D01*
X156030497Y-115188710D01*
X156025860Y-115190818D01*
X156006653Y-115191469D01*
X155987807Y-115195218D01*
X155980867Y-115192343D01*
X155978052Y-115192439D01*
X155975627Y-115190173D01*
X155965277Y-115185886D01*
X155928231Y-115161133D01*
X155900805Y-115155677D01*
X155861032Y-115129100D01*
X155850500Y-115094378D01*
X155850500Y-91271066D01*
X155859385Y-91249619D01*
X155868806Y-91226876D01*
X155868809Y-91226873D01*
X155876880Y-91218803D01*
X155921071Y-91200500D01*
X155965891Y-91200500D01*
X155965892Y-91200500D01*
X156093186Y-91166392D01*
X156207314Y-91100500D01*
X156300500Y-91007314D01*
X156366392Y-90893186D01*
X156400500Y-90765892D01*
X156400500Y-90634108D01*
X156366392Y-90506814D01*
X156300500Y-90392686D01*
X156300498Y-90392684D01*
X156300495Y-90392680D01*
X156207319Y-90299504D01*
X156207315Y-90299501D01*
X156207314Y-90299500D01*
X156150250Y-90266554D01*
X156093185Y-90233607D01*
X156093182Y-90233606D01*
X155965898Y-90199501D01*
X155965893Y-90199500D01*
X155965892Y-90199500D01*
X155834108Y-90199500D01*
X155834107Y-90199500D01*
X155834101Y-90199501D01*
X155706817Y-90233606D01*
X155706814Y-90233607D01*
X155592684Y-90299501D01*
X155592680Y-90299504D01*
X155499504Y-90392680D01*
X155499501Y-90392684D01*
X155433607Y-90506814D01*
X155433606Y-90506817D01*
X155399501Y-90634101D01*
X155399500Y-90634109D01*
X155399500Y-90678930D01*
X155381194Y-90723124D01*
X155219530Y-90884787D01*
X155201965Y-90915212D01*
X155173385Y-90964712D01*
X155173384Y-90964715D01*
X155149501Y-91053849D01*
X155149500Y-91053857D01*
X155149500Y-115094378D01*
X155131194Y-115138572D01*
X155112860Y-115151277D01*
X155106277Y-115154268D01*
X155071769Y-115161133D01*
X155030497Y-115188710D01*
X155025860Y-115190818D01*
X155006653Y-115191469D01*
X154987807Y-115195218D01*
X154980867Y-115192343D01*
X154978052Y-115192439D01*
X154975627Y-115190173D01*
X154965277Y-115185886D01*
X154928232Y-115161133D01*
X154928230Y-115161132D01*
X154869748Y-115149500D01*
X154130252Y-115149500D01*
X154071769Y-115161132D01*
X154071767Y-115161133D01*
X154034723Y-115185886D01*
X153987807Y-115195218D01*
X153965277Y-115185886D01*
X153928232Y-115161133D01*
X153928230Y-115161132D01*
X153869748Y-115149500D01*
X153130252Y-115149500D01*
X153071769Y-115161132D01*
X153071767Y-115161133D01*
X153034723Y-115185886D01*
X152987807Y-115195218D01*
X152965277Y-115185886D01*
X152928232Y-115161133D01*
X152928230Y-115161132D01*
X152869748Y-115149500D01*
X152130252Y-115149500D01*
X152071769Y-115161132D01*
X152071767Y-115161133D01*
X152034723Y-115185886D01*
X151987807Y-115195218D01*
X151965277Y-115185886D01*
X151928232Y-115161133D01*
X151928230Y-115161132D01*
X151869748Y-115149500D01*
X151130252Y-115149500D01*
X151071769Y-115161132D01*
X151071767Y-115161133D01*
X151034723Y-115185886D01*
X150987807Y-115195218D01*
X150965277Y-115185886D01*
X150928232Y-115161133D01*
X150928230Y-115161132D01*
X150869748Y-115149500D01*
X150130252Y-115149500D01*
X150071769Y-115161132D01*
X150071767Y-115161133D01*
X150034723Y-115185886D01*
X149987807Y-115195218D01*
X149965277Y-115185886D01*
X149928232Y-115161133D01*
X149928230Y-115161132D01*
X149869748Y-115149500D01*
X149130252Y-115149500D01*
X149071769Y-115161132D01*
X149071767Y-115161133D01*
X149034723Y-115185886D01*
X148987807Y-115195218D01*
X148965277Y-115185886D01*
X148928232Y-115161133D01*
X148928230Y-115161132D01*
X148869748Y-115149500D01*
X148130252Y-115149500D01*
X148071769Y-115161132D01*
X148071767Y-115161133D01*
X148034723Y-115185886D01*
X147987807Y-115195218D01*
X147965277Y-115185886D01*
X147928232Y-115161133D01*
X147928230Y-115161132D01*
X147869748Y-115149500D01*
X147130252Y-115149500D01*
X147071769Y-115161132D01*
X147071767Y-115161133D01*
X147034723Y-115185886D01*
X146987807Y-115195218D01*
X146965277Y-115185886D01*
X146928232Y-115161133D01*
X146928230Y-115161132D01*
X146869748Y-115149500D01*
X146130252Y-115149500D01*
X146071769Y-115161132D01*
X146071767Y-115161133D01*
X146034723Y-115185886D01*
X145987807Y-115195218D01*
X145965277Y-115185886D01*
X145928232Y-115161133D01*
X145928230Y-115161132D01*
X145869748Y-115149500D01*
X145130252Y-115149500D01*
X145071769Y-115161132D01*
X145071767Y-115161133D01*
X145034723Y-115185886D01*
X144987807Y-115195218D01*
X144965277Y-115185886D01*
X144928232Y-115161133D01*
X144928230Y-115161132D01*
X144869748Y-115149500D01*
X144130252Y-115149500D01*
X144071769Y-115161132D01*
X144071767Y-115161133D01*
X144034723Y-115185886D01*
X143987807Y-115195218D01*
X143965277Y-115185886D01*
X143928232Y-115161133D01*
X143928230Y-115161132D01*
X143869748Y-115149500D01*
X143130252Y-115149500D01*
X143071769Y-115161132D01*
X143071767Y-115161133D01*
X143034723Y-115185886D01*
X142987807Y-115195218D01*
X142965277Y-115185886D01*
X142928232Y-115161133D01*
X142928230Y-115161132D01*
X142869748Y-115149500D01*
X142130252Y-115149500D01*
X142071769Y-115161132D01*
X142071767Y-115161133D01*
X142034723Y-115185886D01*
X141987807Y-115195218D01*
X141965277Y-115185886D01*
X141928232Y-115161133D01*
X141928230Y-115161132D01*
X141869748Y-115149500D01*
X141130252Y-115149500D01*
X141071769Y-115161132D01*
X141071767Y-115161133D01*
X141034723Y-115185886D01*
X140987807Y-115195218D01*
X140965277Y-115185886D01*
X140928232Y-115161133D01*
X140928230Y-115161132D01*
X140869748Y-115149500D01*
X140130252Y-115149500D01*
X140071769Y-115161132D01*
X140071767Y-115161133D01*
X140034723Y-115185886D01*
X139987807Y-115195218D01*
X139965277Y-115185886D01*
X139928232Y-115161133D01*
X139928230Y-115161132D01*
X139869748Y-115149500D01*
X139130252Y-115149500D01*
X139071769Y-115161132D01*
X139071767Y-115161133D01*
X139034723Y-115185886D01*
X138987807Y-115195218D01*
X138965277Y-115185886D01*
X138928232Y-115161133D01*
X138928230Y-115161132D01*
X138869748Y-115149500D01*
X138213000Y-115149500D01*
X138168806Y-115131194D01*
X138150500Y-115087000D01*
X138150500Y-113399348D01*
X138150500Y-113399344D01*
X138115543Y-113201091D01*
X138046690Y-113011920D01*
X137946035Y-112837579D01*
X137946032Y-112837575D01*
X137816634Y-112683365D01*
X137662424Y-112553967D01*
X137648874Y-112546144D01*
X137488080Y-112453310D01*
X137298909Y-112384457D01*
X137100656Y-112349500D01*
X136899344Y-112349500D01*
X136719614Y-112381191D01*
X136701091Y-112384457D01*
X136511919Y-112453310D01*
X136337575Y-112553967D01*
X136183365Y-112683365D01*
X136053967Y-112837575D01*
X135953310Y-113011919D01*
X135923733Y-113093182D01*
X135884457Y-113201091D01*
X135849500Y-113399344D01*
X135849500Y-113399348D01*
X135849500Y-115087000D01*
X135831194Y-115131194D01*
X135787000Y-115149500D01*
X135130252Y-115149500D01*
X135071769Y-115161132D01*
X135071767Y-115161133D01*
X135034723Y-115185886D01*
X134987807Y-115195218D01*
X134965277Y-115185886D01*
X134928232Y-115161133D01*
X134928230Y-115161132D01*
X134869748Y-115149500D01*
X134130252Y-115149500D01*
X134071769Y-115161132D01*
X134071767Y-115161133D01*
X134034723Y-115185886D01*
X133987807Y-115195218D01*
X133965277Y-115185886D01*
X133928232Y-115161133D01*
X133928230Y-115161132D01*
X133869748Y-115149500D01*
X133130252Y-115149500D01*
X133071769Y-115161132D01*
X133071767Y-115161133D01*
X133034723Y-115185886D01*
X132987807Y-115195218D01*
X132965277Y-115185886D01*
X132928232Y-115161133D01*
X132928230Y-115161132D01*
X132869748Y-115149500D01*
X132130252Y-115149500D01*
X132071769Y-115161132D01*
X132071767Y-115161133D01*
X132034723Y-115185886D01*
X131987807Y-115195218D01*
X131965277Y-115185886D01*
X131928232Y-115161133D01*
X131928230Y-115161132D01*
X131869748Y-115149500D01*
X131130252Y-115149500D01*
X131071769Y-115161132D01*
X131071767Y-115161133D01*
X131034723Y-115185886D01*
X130987807Y-115195218D01*
X130965277Y-115185886D01*
X130928232Y-115161133D01*
X130928230Y-115161132D01*
X130869748Y-115149500D01*
X130130252Y-115149500D01*
X130071769Y-115161132D01*
X130071767Y-115161133D01*
X130034723Y-115185886D01*
X129987807Y-115195218D01*
X129965277Y-115185886D01*
X129928232Y-115161133D01*
X129928230Y-115161132D01*
X129869748Y-115149500D01*
X129130252Y-115149500D01*
X129071769Y-115161132D01*
X129071767Y-115161133D01*
X129034723Y-115185886D01*
X128987807Y-115195218D01*
X128974140Y-115190818D01*
X128969502Y-115188710D01*
X128928231Y-115161133D01*
X128893722Y-115154268D01*
X128887140Y-115151277D01*
X128875368Y-115138680D01*
X128861032Y-115129100D01*
X128858444Y-115120568D01*
X128854480Y-115116326D01*
X128854749Y-115108386D01*
X128850500Y-115094378D01*
X128850500Y-112834109D01*
X129199500Y-112834109D01*
X129199500Y-112965890D01*
X129199501Y-112965898D01*
X129233606Y-113093182D01*
X129233607Y-113093185D01*
X129233608Y-113093186D01*
X129295907Y-113201091D01*
X129299501Y-113207315D01*
X129299504Y-113207319D01*
X129392680Y-113300495D01*
X129392684Y-113300498D01*
X129392686Y-113300500D01*
X129505945Y-113365890D01*
X129506814Y-113366392D01*
X129506817Y-113366393D01*
X129584712Y-113387264D01*
X129634108Y-113400500D01*
X129634109Y-113400500D01*
X129765891Y-113400500D01*
X129765892Y-113400500D01*
X129893186Y-113366392D01*
X130007314Y-113300500D01*
X130100500Y-113207314D01*
X130166392Y-113093186D01*
X130200500Y-112965892D01*
X130200500Y-112921069D01*
X130218806Y-112876875D01*
X130380464Y-112715217D01*
X130380469Y-112715212D01*
X130426614Y-112635288D01*
X130430836Y-112619531D01*
X130450500Y-112546144D01*
X130450500Y-102213000D01*
X130468806Y-102168806D01*
X130513000Y-102150500D01*
X133521143Y-102150500D01*
X133521144Y-102150500D01*
X133610288Y-102126614D01*
X133690212Y-102080470D01*
X133796876Y-101973806D01*
X133841070Y-101955500D01*
X134775011Y-101955500D01*
X134792480Y-101954756D01*
X134792483Y-101954755D01*
X134792487Y-101954755D01*
X134879595Y-101926890D01*
X134883960Y-101922754D01*
X134928627Y-101905647D01*
X134965914Y-101919261D01*
X134984532Y-101934109D01*
X134985837Y-101935149D01*
X135075000Y-101955500D01*
X136224998Y-101955500D01*
X136225000Y-101955500D01*
X136270728Y-101950348D01*
X136353127Y-101910666D01*
X136353127Y-101910665D01*
X136354923Y-101909801D01*
X136369007Y-101909009D01*
X136382041Y-101903611D01*
X136391961Y-101907720D01*
X136402683Y-101907118D01*
X136426235Y-101921917D01*
X136481194Y-101976876D01*
X136499500Y-102021070D01*
X136499500Y-102065890D01*
X136499501Y-102065898D01*
X136533606Y-102193182D01*
X136533607Y-102193185D01*
X136599501Y-102307315D01*
X136599504Y-102307319D01*
X136692680Y-102400495D01*
X136692684Y-102400498D01*
X136692686Y-102400500D01*
X136806814Y-102466392D01*
X136806817Y-102466393D01*
X136884712Y-102487264D01*
X136934108Y-102500500D01*
X136934109Y-102500500D01*
X137065891Y-102500500D01*
X137065892Y-102500500D01*
X137193186Y-102466392D01*
X137307314Y-102400500D01*
X137400500Y-102307314D01*
X137466392Y-102193186D01*
X137500500Y-102065892D01*
X137500500Y-101934108D01*
X137466392Y-101806814D01*
X137400500Y-101692686D01*
X137400498Y-101692684D01*
X137400495Y-101692680D01*
X137307319Y-101599504D01*
X137307315Y-101599501D01*
X137307314Y-101599500D01*
X137241768Y-101561657D01*
X137193185Y-101533607D01*
X137193182Y-101533606D01*
X137065898Y-101499501D01*
X137065893Y-101499500D01*
X137065892Y-101499500D01*
X137065891Y-101499500D01*
X137021070Y-101499500D01*
X136976876Y-101481194D01*
X136448806Y-100953124D01*
X136440930Y-100934109D01*
X142199500Y-100934109D01*
X142199500Y-101065890D01*
X142199501Y-101065898D01*
X142233606Y-101193182D01*
X142233607Y-101193185D01*
X142263192Y-101244427D01*
X142285813Y-101283608D01*
X142299501Y-101307315D01*
X142299504Y-101307319D01*
X142392680Y-101400495D01*
X142392684Y-101400498D01*
X142392686Y-101400500D01*
X142506814Y-101466392D01*
X142506817Y-101466393D01*
X142562056Y-101481194D01*
X142634108Y-101500500D01*
X142634109Y-101500500D01*
X142765891Y-101500500D01*
X142765892Y-101500500D01*
X142893186Y-101466392D01*
X143007314Y-101400500D01*
X143039008Y-101368805D01*
X143083201Y-101350500D01*
X143507000Y-101350500D01*
X143551194Y-101368806D01*
X143569500Y-101413000D01*
X143569500Y-101750000D01*
X143569935Y-101753857D01*
X143574651Y-101795728D01*
X143614333Y-101878127D01*
X143685834Y-101935147D01*
X143685837Y-101935149D01*
X143775000Y-101955500D01*
X144775011Y-101955500D01*
X144792480Y-101954756D01*
X144792483Y-101954755D01*
X144792487Y-101954755D01*
X144879595Y-101926890D01*
X144883960Y-101922754D01*
X144928627Y-101905647D01*
X144965914Y-101919261D01*
X144984532Y-101934109D01*
X144985837Y-101935149D01*
X145075000Y-101955500D01*
X146224998Y-101955500D01*
X146225000Y-101955500D01*
X146270728Y-101950348D01*
X146353127Y-101910666D01*
X146410149Y-101839163D01*
X146430500Y-101750000D01*
X146430500Y-100250000D01*
X146425348Y-100204272D01*
X146419769Y-100192686D01*
X146385666Y-100121872D01*
X146314165Y-100064852D01*
X146314163Y-100064851D01*
X146225000Y-100044500D01*
X146138000Y-100044500D01*
X146093806Y-100026194D01*
X146075500Y-99982000D01*
X146075500Y-97018000D01*
X146093806Y-96973806D01*
X146138000Y-96955500D01*
X146224998Y-96955500D01*
X146225000Y-96955500D01*
X146270728Y-96950348D01*
X146353127Y-96910666D01*
X146410149Y-96839163D01*
X146430500Y-96750000D01*
X146430500Y-95250000D01*
X146425348Y-95204272D01*
X146404431Y-95160837D01*
X146385666Y-95121872D01*
X146314165Y-95064852D01*
X146314163Y-95064851D01*
X146225000Y-95044500D01*
X146138000Y-95044500D01*
X146093806Y-95026194D01*
X146075500Y-94982000D01*
X146075500Y-92018000D01*
X146093806Y-91973806D01*
X146138000Y-91955500D01*
X146224998Y-91955500D01*
X146225000Y-91955500D01*
X146270728Y-91950348D01*
X146353127Y-91910666D01*
X146410149Y-91839163D01*
X146430500Y-91750000D01*
X146430500Y-90250000D01*
X146425348Y-90204272D01*
X146423051Y-90199501D01*
X146385666Y-90121872D01*
X146314165Y-90064852D01*
X146314163Y-90064851D01*
X146224092Y-90044292D01*
X146185079Y-90016610D01*
X146175500Y-89983359D01*
X146175500Y-89234109D01*
X147699500Y-89234109D01*
X147699500Y-89365890D01*
X147699501Y-89365898D01*
X147733606Y-89493182D01*
X147733607Y-89493185D01*
X147799501Y-89607315D01*
X147799504Y-89607319D01*
X147849500Y-89657314D01*
X147892686Y-89700500D01*
X147918250Y-89715259D01*
X147947370Y-89753209D01*
X147949500Y-89769386D01*
X147949500Y-112916797D01*
X147931194Y-112960991D01*
X147899504Y-112992680D01*
X147899501Y-112992684D01*
X147833607Y-113106814D01*
X147833606Y-113106817D01*
X147799501Y-113234101D01*
X147799500Y-113234109D01*
X147799500Y-113365890D01*
X147799501Y-113365898D01*
X147833606Y-113493182D01*
X147833607Y-113493185D01*
X147899501Y-113607315D01*
X147899504Y-113607319D01*
X147992680Y-113700495D01*
X147992684Y-113700498D01*
X147992686Y-113700500D01*
X148106814Y-113766392D01*
X148106817Y-113766393D01*
X148175451Y-113784783D01*
X148234108Y-113800500D01*
X148234109Y-113800500D01*
X148365891Y-113800500D01*
X148365892Y-113800500D01*
X148493186Y-113766392D01*
X148607314Y-113700500D01*
X148700500Y-113607314D01*
X148766392Y-113493186D01*
X148800500Y-113365892D01*
X148800500Y-113234108D01*
X148766392Y-113106814D01*
X148700500Y-112992686D01*
X148700498Y-112992684D01*
X148700495Y-112992680D01*
X148668806Y-112960991D01*
X148650500Y-112916797D01*
X148650500Y-92234109D01*
X149299500Y-92234109D01*
X149299500Y-92365890D01*
X149299501Y-92365898D01*
X149333606Y-92493182D01*
X149333607Y-92493185D01*
X149399501Y-92607315D01*
X149399504Y-92607319D01*
X149492680Y-92700495D01*
X149492684Y-92700498D01*
X149492686Y-92700500D01*
X149606814Y-92766392D01*
X149606816Y-92766392D01*
X149610596Y-92767958D01*
X149609601Y-92770359D01*
X149641108Y-92794504D01*
X149649500Y-92825787D01*
X149649500Y-113216797D01*
X149631194Y-113260991D01*
X149599504Y-113292680D01*
X149599501Y-113292684D01*
X149533607Y-113406814D01*
X149533606Y-113406817D01*
X149499501Y-113534101D01*
X149499500Y-113534109D01*
X149499500Y-113665890D01*
X149499501Y-113665898D01*
X149533606Y-113793182D01*
X149533607Y-113793185D01*
X149566554Y-113850250D01*
X149574905Y-113864715D01*
X149599501Y-113907315D01*
X149599504Y-113907319D01*
X149692680Y-114000495D01*
X149692684Y-114000498D01*
X149692686Y-114000500D01*
X149806814Y-114066392D01*
X149806817Y-114066393D01*
X149884712Y-114087264D01*
X149934108Y-114100500D01*
X149934109Y-114100500D01*
X150065891Y-114100500D01*
X150065892Y-114100500D01*
X150193186Y-114066392D01*
X150307314Y-114000500D01*
X150400500Y-113907314D01*
X150466392Y-113793186D01*
X150500500Y-113665892D01*
X150500500Y-113534108D01*
X150466392Y-113406814D01*
X150400500Y-113292686D01*
X150400498Y-113292684D01*
X150400495Y-113292680D01*
X150368806Y-113260991D01*
X150350500Y-113216797D01*
X150350500Y-92453857D01*
X150350498Y-92453849D01*
X150326614Y-92364712D01*
X150326613Y-92364710D01*
X150308874Y-92333986D01*
X150300500Y-92302735D01*
X150300500Y-92234109D01*
X150300498Y-92234101D01*
X150290362Y-92196274D01*
X150266392Y-92106814D01*
X150200500Y-91992686D01*
X150200498Y-91992684D01*
X150200495Y-91992680D01*
X150107319Y-91899504D01*
X150107315Y-91899501D01*
X150107314Y-91899500D01*
X150021337Y-91849861D01*
X149993185Y-91833607D01*
X149993182Y-91833606D01*
X149865898Y-91799501D01*
X149865893Y-91799500D01*
X149865892Y-91799500D01*
X149734108Y-91799500D01*
X149734107Y-91799500D01*
X149734101Y-91799501D01*
X149606817Y-91833606D01*
X149606814Y-91833607D01*
X149492684Y-91899501D01*
X149492680Y-91899504D01*
X149399504Y-91992680D01*
X149399501Y-91992684D01*
X149333607Y-92106814D01*
X149333606Y-92106817D01*
X149299501Y-92234101D01*
X149299500Y-92234109D01*
X148650500Y-92234109D01*
X148650500Y-89537458D01*
X148658875Y-89506206D01*
X148666390Y-89493189D01*
X148666392Y-89493185D01*
X148682221Y-89434109D01*
X148700500Y-89365892D01*
X148700500Y-89234108D01*
X148666392Y-89106814D01*
X148600500Y-88992686D01*
X148600498Y-88992684D01*
X148600495Y-88992680D01*
X148507319Y-88899504D01*
X148507315Y-88899501D01*
X148507314Y-88899500D01*
X148450250Y-88866554D01*
X148393185Y-88833607D01*
X148393182Y-88833606D01*
X148265898Y-88799501D01*
X148265893Y-88799500D01*
X148265892Y-88799500D01*
X148134108Y-88799500D01*
X148134107Y-88799500D01*
X148134101Y-88799501D01*
X148006817Y-88833606D01*
X148006814Y-88833607D01*
X147892684Y-88899501D01*
X147892680Y-88899504D01*
X147799504Y-88992680D01*
X147799501Y-88992684D01*
X147733607Y-89106814D01*
X147733606Y-89106817D01*
X147699501Y-89234101D01*
X147699500Y-89234109D01*
X146175500Y-89234109D01*
X146175500Y-87986107D01*
X146193806Y-87941913D01*
X146209626Y-87930419D01*
X146263342Y-87903050D01*
X146353050Y-87813342D01*
X146410646Y-87700304D01*
X146410647Y-87700298D01*
X146412165Y-87695627D01*
X146414395Y-87696351D01*
X146435175Y-87662438D01*
X146471914Y-87650500D01*
X161528930Y-87650500D01*
X161573124Y-87668806D01*
X163156194Y-89251876D01*
X163174500Y-89296070D01*
X163174500Y-98632000D01*
X163156194Y-98676194D01*
X163112000Y-98694500D01*
X162666740Y-98694500D01*
X162655121Y-98696192D01*
X162598609Y-98704426D01*
X162493515Y-98755803D01*
X162410803Y-98838515D01*
X162359426Y-98943609D01*
X162349500Y-99011740D01*
X162349500Y-99378259D01*
X162359426Y-99446390D01*
X162359426Y-99446391D01*
X162359427Y-99446393D01*
X162410802Y-99551483D01*
X162493517Y-99634198D01*
X162598607Y-99685573D01*
X162666740Y-99695500D01*
X162666741Y-99695500D01*
X164383259Y-99695500D01*
X164383260Y-99695500D01*
X164451393Y-99685573D01*
X164556483Y-99634198D01*
X164639198Y-99551483D01*
X164690573Y-99446393D01*
X164700500Y-99378260D01*
X164700500Y-99011740D01*
X164690573Y-98943607D01*
X164639198Y-98838517D01*
X164556483Y-98755802D01*
X164451393Y-98704427D01*
X164451391Y-98704426D01*
X164451390Y-98704426D01*
X164397267Y-98696540D01*
X164383260Y-98694500D01*
X164383259Y-98694500D01*
X163938000Y-98694500D01*
X163893806Y-98676194D01*
X163875500Y-98632000D01*
X163875500Y-97483403D01*
X166448001Y-97483403D01*
X166457968Y-97551824D01*
X166457969Y-97551825D01*
X166509565Y-97657368D01*
X166592631Y-97740434D01*
X166698175Y-97792031D01*
X166766588Y-97801998D01*
X166766602Y-97801999D01*
X166872599Y-97801999D01*
X167177400Y-97801999D01*
X167283404Y-97801999D01*
X167351824Y-97792031D01*
X167351825Y-97792030D01*
X167457368Y-97740434D01*
X167540434Y-97657368D01*
X167592031Y-97551824D01*
X167602000Y-97483404D01*
X167602000Y-97352400D01*
X167177400Y-97352400D01*
X167177400Y-97801999D01*
X166872599Y-97801999D01*
X166872600Y-97801998D01*
X166872600Y-97352400D01*
X166448001Y-97352400D01*
X166448001Y-97483403D01*
X163875500Y-97483403D01*
X163875500Y-96916595D01*
X166448000Y-96916595D01*
X166448000Y-97047600D01*
X166872600Y-97047600D01*
X167177400Y-97047600D01*
X167601999Y-97047600D01*
X167601999Y-96916596D01*
X167592031Y-96848175D01*
X167592030Y-96848174D01*
X167540434Y-96742631D01*
X167457368Y-96659565D01*
X167351824Y-96607968D01*
X167283404Y-96598000D01*
X167177400Y-96598000D01*
X167177400Y-97047600D01*
X166872600Y-97047600D01*
X166872600Y-96598000D01*
X166766596Y-96598000D01*
X166698175Y-96607968D01*
X166698174Y-96607969D01*
X166592631Y-96659565D01*
X166509565Y-96742631D01*
X166457968Y-96848175D01*
X166448000Y-96916595D01*
X163875500Y-96916595D01*
X163875500Y-95410777D01*
X166223001Y-95410777D01*
X166233676Y-95484056D01*
X166233678Y-95484060D01*
X166288936Y-95597095D01*
X166377904Y-95686063D01*
X166490941Y-95741322D01*
X166564214Y-95751998D01*
X166564228Y-95751999D01*
X166697599Y-95751999D01*
X167002400Y-95751999D01*
X167135778Y-95751999D01*
X167209056Y-95741323D01*
X167209060Y-95741321D01*
X167322095Y-95686063D01*
X167411063Y-95597095D01*
X167466322Y-95484058D01*
X167477000Y-95410778D01*
X167477000Y-95052400D01*
X167002400Y-95052400D01*
X167002400Y-95751999D01*
X166697599Y-95751999D01*
X166697600Y-95751998D01*
X166697600Y-95052400D01*
X166223001Y-95052400D01*
X166223001Y-95410777D01*
X163875500Y-95410777D01*
X163875500Y-94389221D01*
X166223000Y-94389221D01*
X166223000Y-94747600D01*
X166697600Y-94747600D01*
X167002400Y-94747600D01*
X167476999Y-94747600D01*
X167476999Y-94389222D01*
X167466323Y-94315943D01*
X167466321Y-94315939D01*
X167411063Y-94202904D01*
X167322095Y-94113936D01*
X167209058Y-94058677D01*
X167135778Y-94048000D01*
X167002400Y-94048000D01*
X167002400Y-94747600D01*
X166697600Y-94747600D01*
X166697600Y-94048000D01*
X166564222Y-94048000D01*
X166490942Y-94058677D01*
X166490939Y-94058678D01*
X166377904Y-94113936D01*
X166288936Y-94202904D01*
X166233677Y-94315941D01*
X166223000Y-94389221D01*
X163875500Y-94389221D01*
X163875500Y-89078857D01*
X163875498Y-89078849D01*
X163851615Y-88989715D01*
X163851613Y-88989710D01*
X163846706Y-88981212D01*
X163828398Y-88949501D01*
X163805470Y-88909788D01*
X162862475Y-87966793D01*
X161915217Y-87019534D01*
X161915213Y-87019531D01*
X161915212Y-87019530D01*
X161870092Y-86993480D01*
X161835287Y-86973385D01*
X161835284Y-86973384D01*
X161746150Y-86949501D01*
X161746145Y-86949500D01*
X161746144Y-86949500D01*
X161746143Y-86949500D01*
X146471914Y-86949500D01*
X146427720Y-86931194D01*
X146413786Y-86903846D01*
X146412165Y-86904373D01*
X146410645Y-86899694D01*
X146353049Y-86786657D01*
X146263342Y-86696950D01*
X146150305Y-86639354D01*
X146150298Y-86639352D01*
X146056532Y-86624501D01*
X146056520Y-86624500D01*
X146056519Y-86624500D01*
X146056516Y-86624500D01*
X145593485Y-86624500D01*
X145593480Y-86624501D01*
X145499695Y-86639354D01*
X145499694Y-86639354D01*
X145386657Y-86696950D01*
X145296950Y-86786657D01*
X145239354Y-86899694D01*
X145239352Y-86899701D01*
X145224501Y-86993467D01*
X145224500Y-86993483D01*
X145224500Y-87606514D01*
X145224501Y-87606519D01*
X145239354Y-87700304D01*
X145239354Y-87700305D01*
X145296950Y-87813342D01*
X145386658Y-87903050D01*
X145440374Y-87930419D01*
X145471441Y-87966793D01*
X145474500Y-87986107D01*
X145474500Y-89982000D01*
X145456194Y-90026194D01*
X145412000Y-90044500D01*
X145075000Y-90044500D01*
X145001916Y-90057934D01*
X145001914Y-90057935D01*
X144960126Y-90085794D01*
X144913200Y-90095077D01*
X144886490Y-90082656D01*
X144864163Y-90064851D01*
X144864161Y-90064850D01*
X144864162Y-90064850D01*
X144775000Y-90044500D01*
X144588000Y-90044500D01*
X144543806Y-90026194D01*
X144525500Y-89982000D01*
X144525500Y-87986107D01*
X144543806Y-87941913D01*
X144559626Y-87930419D01*
X144613342Y-87903050D01*
X144703050Y-87813342D01*
X144760646Y-87700304D01*
X144775500Y-87606519D01*
X144775499Y-86993482D01*
X144760646Y-86899696D01*
X144703050Y-86786658D01*
X144613342Y-86696950D01*
X144500305Y-86639354D01*
X144500298Y-86639352D01*
X144406532Y-86624501D01*
X144406520Y-86624500D01*
X144406519Y-86624500D01*
X144406516Y-86624500D01*
X143943485Y-86624500D01*
X143943480Y-86624501D01*
X143849695Y-86639354D01*
X143849694Y-86639354D01*
X143736657Y-86696950D01*
X143646950Y-86786657D01*
X143589354Y-86899694D01*
X143589352Y-86899701D01*
X143574501Y-86993467D01*
X143574500Y-86993483D01*
X143574500Y-87606514D01*
X143574501Y-87606519D01*
X143589354Y-87700304D01*
X143589354Y-87700305D01*
X143646950Y-87813342D01*
X143736658Y-87903050D01*
X143790374Y-87930419D01*
X143821441Y-87966793D01*
X143824500Y-87986107D01*
X143824500Y-89983069D01*
X143806194Y-90027263D01*
X143768997Y-90045176D01*
X143729271Y-90049651D01*
X143646872Y-90089333D01*
X143589852Y-90160834D01*
X143589851Y-90160836D01*
X143569500Y-90250000D01*
X143569500Y-91183929D01*
X143551194Y-91228123D01*
X143223793Y-91555523D01*
X143179599Y-91573829D01*
X143148350Y-91565456D01*
X143093188Y-91533609D01*
X143093182Y-91533606D01*
X142965898Y-91499501D01*
X142965893Y-91499500D01*
X142965892Y-91499500D01*
X142834108Y-91499500D01*
X142834107Y-91499500D01*
X142834101Y-91499501D01*
X142706817Y-91533606D01*
X142706814Y-91533607D01*
X142592684Y-91599501D01*
X142592680Y-91599504D01*
X142499504Y-91692680D01*
X142499501Y-91692684D01*
X142433607Y-91806814D01*
X142433606Y-91806817D01*
X142399501Y-91934101D01*
X142399500Y-91934109D01*
X142399500Y-92065890D01*
X142399501Y-92065898D01*
X142433606Y-92193182D01*
X142433607Y-92193185D01*
X142457230Y-92234101D01*
X142496856Y-92302735D01*
X142499501Y-92307315D01*
X142499504Y-92307319D01*
X142592680Y-92400495D01*
X142592684Y-92400498D01*
X142592686Y-92400500D01*
X142685089Y-92453849D01*
X142706814Y-92466392D01*
X142706817Y-92466393D01*
X142784712Y-92487264D01*
X142834108Y-92500500D01*
X142834109Y-92500500D01*
X142965891Y-92500500D01*
X142965892Y-92500500D01*
X143093186Y-92466392D01*
X143207314Y-92400500D01*
X143239008Y-92368805D01*
X143283201Y-92350500D01*
X143321143Y-92350500D01*
X143321144Y-92350500D01*
X143410288Y-92326614D01*
X143490212Y-92280470D01*
X143796876Y-91973806D01*
X143841070Y-91955500D01*
X144775011Y-91955500D01*
X144792480Y-91954756D01*
X144792483Y-91954755D01*
X144792487Y-91954755D01*
X144879595Y-91926890D01*
X144883960Y-91922754D01*
X144928627Y-91905647D01*
X144965914Y-91919261D01*
X144984532Y-91934109D01*
X144985837Y-91935149D01*
X145075000Y-91955500D01*
X145312000Y-91955500D01*
X145356194Y-91973806D01*
X145374500Y-92018000D01*
X145374500Y-94982000D01*
X145356194Y-95026194D01*
X145312000Y-95044500D01*
X145075000Y-95044500D01*
X145001916Y-95057934D01*
X145001914Y-95057935D01*
X144960126Y-95085794D01*
X144913200Y-95095077D01*
X144886490Y-95082656D01*
X144864163Y-95064851D01*
X144864161Y-95064850D01*
X144864162Y-95064850D01*
X144775000Y-95044500D01*
X143841071Y-95044500D01*
X143796877Y-95026194D01*
X143790217Y-95019534D01*
X143790213Y-95019531D01*
X143790212Y-95019530D01*
X143737346Y-94989008D01*
X143710287Y-94973385D01*
X143710284Y-94973384D01*
X143621150Y-94949501D01*
X143621145Y-94949500D01*
X143621144Y-94949500D01*
X143621143Y-94949500D01*
X143283202Y-94949500D01*
X143239008Y-94931194D01*
X143207314Y-94899500D01*
X143150250Y-94866554D01*
X143093185Y-94833607D01*
X143093182Y-94833606D01*
X142965898Y-94799501D01*
X142965893Y-94799500D01*
X142965892Y-94799500D01*
X142834108Y-94799500D01*
X142834107Y-94799500D01*
X142834101Y-94799501D01*
X142706817Y-94833606D01*
X142706814Y-94833607D01*
X142592684Y-94899501D01*
X142592680Y-94899504D01*
X142499504Y-94992680D01*
X142499501Y-94992684D01*
X142433607Y-95106814D01*
X142433606Y-95106817D01*
X142399501Y-95234101D01*
X142399500Y-95234109D01*
X142399500Y-95365890D01*
X142399501Y-95365898D01*
X142433606Y-95493182D01*
X142433607Y-95493185D01*
X142456945Y-95533607D01*
X142494989Y-95599501D01*
X142499501Y-95607315D01*
X142499504Y-95607319D01*
X142592680Y-95700495D01*
X142592684Y-95700498D01*
X142592686Y-95700500D01*
X142698175Y-95761404D01*
X142706814Y-95766392D01*
X142706817Y-95766393D01*
X142784712Y-95787264D01*
X142834108Y-95800500D01*
X142834109Y-95800500D01*
X142965891Y-95800500D01*
X142965892Y-95800500D01*
X143093186Y-95766392D01*
X143207314Y-95700500D01*
X143239008Y-95668805D01*
X143283201Y-95650500D01*
X143403930Y-95650500D01*
X143448124Y-95668806D01*
X143551194Y-95771876D01*
X143569500Y-95816070D01*
X143569500Y-96749997D01*
X143574651Y-96795728D01*
X143614333Y-96878127D01*
X143685834Y-96935147D01*
X143685837Y-96935149D01*
X143775000Y-96955500D01*
X144775011Y-96955500D01*
X144792480Y-96954756D01*
X144792483Y-96954755D01*
X144792487Y-96954755D01*
X144879595Y-96926890D01*
X144883960Y-96922754D01*
X144928627Y-96905647D01*
X144965914Y-96919261D01*
X144975480Y-96926890D01*
X144985837Y-96935149D01*
X145075000Y-96955500D01*
X145312000Y-96955500D01*
X145356194Y-96973806D01*
X145374500Y-97018000D01*
X145374500Y-99982000D01*
X145356194Y-100026194D01*
X145312000Y-100044500D01*
X145075000Y-100044500D01*
X145001916Y-100057934D01*
X145001914Y-100057935D01*
X144960126Y-100085794D01*
X144913200Y-100095077D01*
X144886490Y-100082656D01*
X144864163Y-100064851D01*
X144864161Y-100064850D01*
X144864162Y-100064850D01*
X144775000Y-100044500D01*
X143775000Y-100044500D01*
X143767300Y-100045367D01*
X143729271Y-100049651D01*
X143646872Y-100089333D01*
X143589852Y-100160834D01*
X143589851Y-100160836D01*
X143569500Y-100250000D01*
X143569500Y-100587000D01*
X143551194Y-100631194D01*
X143507000Y-100649500D01*
X143083202Y-100649500D01*
X143039008Y-100631194D01*
X143007314Y-100599500D01*
X142949100Y-100565890D01*
X142893185Y-100533607D01*
X142893182Y-100533606D01*
X142765898Y-100499501D01*
X142765893Y-100499500D01*
X142765892Y-100499500D01*
X142634108Y-100499500D01*
X142634107Y-100499500D01*
X142634101Y-100499501D01*
X142506817Y-100533606D01*
X142506814Y-100533607D01*
X142392684Y-100599501D01*
X142392680Y-100599504D01*
X142299504Y-100692680D01*
X142299501Y-100692684D01*
X142233607Y-100806814D01*
X142233606Y-100806817D01*
X142199501Y-100934101D01*
X142199500Y-100934109D01*
X136440930Y-100934109D01*
X136430500Y-100908930D01*
X136430500Y-100250002D01*
X136425348Y-100204271D01*
X136385666Y-100121872D01*
X136314165Y-100064852D01*
X136314163Y-100064851D01*
X136225000Y-100044500D01*
X136138000Y-100044500D01*
X136093806Y-100026194D01*
X136075500Y-99982000D01*
X136075500Y-97018000D01*
X136093806Y-96973806D01*
X136138000Y-96955500D01*
X136224998Y-96955500D01*
X136225000Y-96955500D01*
X136270728Y-96950348D01*
X136353127Y-96910666D01*
X136410149Y-96839163D01*
X136430500Y-96750000D01*
X136430500Y-95250000D01*
X136425348Y-95204272D01*
X136404431Y-95160837D01*
X136385666Y-95121872D01*
X136314165Y-95064852D01*
X136314163Y-95064851D01*
X136225000Y-95044500D01*
X136138000Y-95044500D01*
X136093806Y-95026194D01*
X136075500Y-94982000D01*
X136075500Y-92018000D01*
X136093806Y-91973806D01*
X136138000Y-91955500D01*
X136224998Y-91955500D01*
X136225000Y-91955500D01*
X136270728Y-91950348D01*
X136353127Y-91910666D01*
X136410149Y-91839163D01*
X136430500Y-91750000D01*
X136430500Y-90250000D01*
X136425348Y-90204272D01*
X136423051Y-90199501D01*
X136385666Y-90121872D01*
X136314165Y-90064852D01*
X136314163Y-90064851D01*
X136224092Y-90044292D01*
X136185079Y-90016610D01*
X136175500Y-89983359D01*
X136175500Y-87986107D01*
X136193806Y-87941913D01*
X136209626Y-87930419D01*
X136263342Y-87903050D01*
X136353050Y-87813342D01*
X136410646Y-87700304D01*
X136425500Y-87606519D01*
X136425499Y-86993482D01*
X136410646Y-86899696D01*
X136353050Y-86786658D01*
X136263342Y-86696950D01*
X136150305Y-86639354D01*
X136150298Y-86639352D01*
X136056532Y-86624501D01*
X136056520Y-86624500D01*
X136056519Y-86624500D01*
X136056516Y-86624500D01*
X135593485Y-86624500D01*
X135593480Y-86624501D01*
X135499695Y-86639354D01*
X135499694Y-86639354D01*
X135386657Y-86696950D01*
X135296950Y-86786657D01*
X135239354Y-86899694D01*
X135239352Y-86899701D01*
X135224501Y-86993467D01*
X135224500Y-86993483D01*
X135224500Y-87606514D01*
X135224501Y-87606519D01*
X135239354Y-87700304D01*
X135239354Y-87700305D01*
X135296950Y-87813342D01*
X135386658Y-87903050D01*
X135440374Y-87930419D01*
X135471441Y-87966793D01*
X135474500Y-87986107D01*
X135474500Y-89982000D01*
X135456194Y-90026194D01*
X135412000Y-90044500D01*
X135075000Y-90044500D01*
X135001916Y-90057934D01*
X135001914Y-90057935D01*
X134960126Y-90085794D01*
X134913200Y-90095077D01*
X134886490Y-90082656D01*
X134864163Y-90064851D01*
X134864161Y-90064850D01*
X134864162Y-90064850D01*
X134775000Y-90044500D01*
X134588000Y-90044500D01*
X134543806Y-90026194D01*
X134525500Y-89982000D01*
X134525500Y-87986107D01*
X134543806Y-87941913D01*
X134559626Y-87930419D01*
X134613342Y-87903050D01*
X134703050Y-87813342D01*
X134760646Y-87700304D01*
X134775500Y-87606519D01*
X134775499Y-86993482D01*
X134760646Y-86899696D01*
X134703050Y-86786658D01*
X134613342Y-86696950D01*
X134500305Y-86639354D01*
X134500298Y-86639352D01*
X134406532Y-86624501D01*
X134406520Y-86624500D01*
X134406519Y-86624500D01*
X134406516Y-86624500D01*
X133943485Y-86624500D01*
X133943480Y-86624501D01*
X133849695Y-86639354D01*
X133849694Y-86639354D01*
X133736657Y-86696950D01*
X133646950Y-86786657D01*
X133589354Y-86899694D01*
X133589352Y-86899701D01*
X133574501Y-86993467D01*
X133574500Y-86993483D01*
X133574500Y-87606514D01*
X133574501Y-87606519D01*
X133589354Y-87700304D01*
X133589354Y-87700305D01*
X133646950Y-87813342D01*
X133736658Y-87903050D01*
X133790374Y-87930419D01*
X133821441Y-87966793D01*
X133824500Y-87986107D01*
X133824500Y-89983069D01*
X133806194Y-90027263D01*
X133768997Y-90045176D01*
X133729271Y-90049651D01*
X133646874Y-90089332D01*
X133634155Y-90105280D01*
X133617657Y-90125968D01*
X133575792Y-90149107D01*
X133568794Y-90149500D01*
X133283202Y-90149500D01*
X133239008Y-90131194D01*
X133207314Y-90099500D01*
X133147299Y-90064850D01*
X133093185Y-90033607D01*
X133093182Y-90033606D01*
X132965898Y-89999501D01*
X132965893Y-89999500D01*
X132965892Y-89999500D01*
X132834108Y-89999500D01*
X132834107Y-89999500D01*
X132834101Y-89999501D01*
X132706817Y-90033606D01*
X132706814Y-90033607D01*
X132592684Y-90099501D01*
X132592680Y-90099504D01*
X132499504Y-90192680D01*
X132499501Y-90192684D01*
X132433607Y-90306814D01*
X132433606Y-90306817D01*
X132399501Y-90434101D01*
X132399500Y-90434109D01*
X132399500Y-90565890D01*
X132399501Y-90565898D01*
X132433606Y-90693182D01*
X132433607Y-90693185D01*
X132450893Y-90723124D01*
X132475588Y-90765898D01*
X132499501Y-90807315D01*
X132499504Y-90807319D01*
X132592680Y-90900495D01*
X132592684Y-90900498D01*
X132592686Y-90900500D01*
X132703904Y-90964712D01*
X132706814Y-90966392D01*
X132706817Y-90966393D01*
X132772932Y-90984108D01*
X132834108Y-91000500D01*
X132834109Y-91000500D01*
X132965891Y-91000500D01*
X132965892Y-91000500D01*
X133093186Y-90966392D01*
X133207314Y-90900500D01*
X133239008Y-90868805D01*
X133283201Y-90850500D01*
X133507000Y-90850500D01*
X133551194Y-90868806D01*
X133569500Y-90913000D01*
X133569500Y-91749997D01*
X133574651Y-91795728D01*
X133614333Y-91878127D01*
X133685834Y-91935147D01*
X133685837Y-91935149D01*
X133775000Y-91955500D01*
X134775011Y-91955500D01*
X134792480Y-91954756D01*
X134792483Y-91954755D01*
X134792487Y-91954755D01*
X134879595Y-91926890D01*
X134883960Y-91922754D01*
X134928627Y-91905647D01*
X134965914Y-91919261D01*
X134984532Y-91934109D01*
X134985837Y-91935149D01*
X135075000Y-91955500D01*
X135312000Y-91955500D01*
X135356194Y-91973806D01*
X135374500Y-92018000D01*
X135374500Y-94982000D01*
X135356194Y-95026194D01*
X135312000Y-95044500D01*
X135075000Y-95044500D01*
X135001916Y-95057934D01*
X135001914Y-95057935D01*
X134960126Y-95085794D01*
X134913200Y-95095077D01*
X134886490Y-95082656D01*
X134864163Y-95064851D01*
X134864161Y-95064850D01*
X134864162Y-95064850D01*
X134775000Y-95044500D01*
X133841070Y-95044500D01*
X133796876Y-95026194D01*
X133690217Y-94919534D01*
X133690213Y-94919531D01*
X133690212Y-94919530D01*
X133643706Y-94892680D01*
X133610287Y-94873385D01*
X133610284Y-94873384D01*
X133521150Y-94849501D01*
X133521145Y-94849500D01*
X133521144Y-94849500D01*
X133521143Y-94849500D01*
X133483202Y-94849500D01*
X133439008Y-94831194D01*
X133407314Y-94799500D01*
X133317421Y-94747600D01*
X133293185Y-94733607D01*
X133293182Y-94733606D01*
X133165898Y-94699501D01*
X133165893Y-94699500D01*
X133165892Y-94699500D01*
X133034108Y-94699500D01*
X133034107Y-94699500D01*
X133034101Y-94699501D01*
X132906817Y-94733606D01*
X132906814Y-94733607D01*
X132792684Y-94799501D01*
X132792680Y-94799504D01*
X132699504Y-94892680D01*
X132699501Y-94892684D01*
X132633607Y-95006814D01*
X132633606Y-95006817D01*
X132599501Y-95134101D01*
X132599500Y-95134109D01*
X132599500Y-95265890D01*
X132599501Y-95265898D01*
X132633606Y-95393182D01*
X132633607Y-95393185D01*
X132654439Y-95429266D01*
X132694989Y-95499501D01*
X132699501Y-95507315D01*
X132699504Y-95507319D01*
X132792680Y-95600495D01*
X132792684Y-95600498D01*
X132792686Y-95600500D01*
X132906812Y-95666391D01*
X132906814Y-95666392D01*
X132906817Y-95666393D01*
X132915823Y-95668806D01*
X133034108Y-95700500D01*
X133034109Y-95700500D01*
X133165891Y-95700500D01*
X133165892Y-95700500D01*
X133293186Y-95666392D01*
X133348350Y-95634542D01*
X133395774Y-95628298D01*
X133423793Y-95644475D01*
X133551194Y-95771876D01*
X133569500Y-95816070D01*
X133569500Y-96749997D01*
X133574651Y-96795728D01*
X133614333Y-96878127D01*
X133685834Y-96935147D01*
X133685837Y-96935149D01*
X133775000Y-96955500D01*
X134775011Y-96955500D01*
X134792480Y-96954756D01*
X134792483Y-96954755D01*
X134792487Y-96954755D01*
X134879595Y-96926890D01*
X134883960Y-96922754D01*
X134928627Y-96905647D01*
X134965914Y-96919261D01*
X134975480Y-96926890D01*
X134985837Y-96935149D01*
X135075000Y-96955500D01*
X135312000Y-96955500D01*
X135356194Y-96973806D01*
X135374500Y-97018000D01*
X135374500Y-99982000D01*
X135356194Y-100026194D01*
X135312000Y-100044500D01*
X135075000Y-100044500D01*
X135001916Y-100057934D01*
X135001914Y-100057935D01*
X134960126Y-100085794D01*
X134913200Y-100095077D01*
X134886490Y-100082656D01*
X134864163Y-100064851D01*
X134864161Y-100064850D01*
X134864162Y-100064850D01*
X134775000Y-100044500D01*
X133775000Y-100044500D01*
X133767300Y-100045367D01*
X133729271Y-100049651D01*
X133646872Y-100089333D01*
X133589852Y-100160834D01*
X133589851Y-100160836D01*
X133569500Y-100250000D01*
X133569500Y-101183930D01*
X133551194Y-101228124D01*
X133348124Y-101431194D01*
X133303930Y-101449500D01*
X130146144Y-101449500D01*
X130053856Y-101449500D01*
X130053855Y-101449500D01*
X130053849Y-101449501D01*
X129964712Y-101473385D01*
X129964709Y-101473386D01*
X129884788Y-101519530D01*
X129884782Y-101519535D01*
X129819535Y-101584782D01*
X129819530Y-101584788D01*
X129773386Y-101664709D01*
X129773385Y-101664712D01*
X129749501Y-101753849D01*
X129749500Y-101753857D01*
X129749500Y-112328929D01*
X129731197Y-112373120D01*
X129723127Y-112381191D01*
X129678934Y-112399500D01*
X129634108Y-112399500D01*
X129634107Y-112399500D01*
X129634101Y-112399501D01*
X129506817Y-112433606D01*
X129506814Y-112433607D01*
X129392684Y-112499501D01*
X129392680Y-112499504D01*
X129299504Y-112592680D01*
X129299501Y-112592684D01*
X129233607Y-112706814D01*
X129233606Y-112706817D01*
X129199501Y-112834101D01*
X129199500Y-112834109D01*
X128850500Y-112834109D01*
X128850500Y-101469386D01*
X128868806Y-101425192D01*
X128881750Y-101415259D01*
X128883316Y-101414355D01*
X128907314Y-101400500D01*
X129000500Y-101307314D01*
X129066392Y-101193186D01*
X129100500Y-101065892D01*
X129100500Y-100934108D01*
X129075018Y-100839007D01*
X129066393Y-100806817D01*
X129066392Y-100806814D01*
X129055727Y-100788342D01*
X129000500Y-100692686D01*
X129000498Y-100692684D01*
X129000495Y-100692680D01*
X128907319Y-100599504D01*
X128907315Y-100599501D01*
X128907314Y-100599500D01*
X128849100Y-100565890D01*
X128793185Y-100533607D01*
X128793182Y-100533606D01*
X128665898Y-100499501D01*
X128665893Y-100499500D01*
X128665892Y-100499500D01*
X128534108Y-100499500D01*
X128534107Y-100499500D01*
X128534101Y-100499501D01*
X128406817Y-100533606D01*
X128406814Y-100533607D01*
X128292684Y-100599501D01*
X128292680Y-100599504D01*
X128199504Y-100692680D01*
X128199501Y-100692684D01*
X128133607Y-100806814D01*
X128133606Y-100806817D01*
X128099501Y-100934101D01*
X128099500Y-100934109D01*
X128099500Y-101065890D01*
X128099501Y-101065898D01*
X128133607Y-101193185D01*
X128133609Y-101193189D01*
X128141125Y-101206206D01*
X128149500Y-101237458D01*
X128149500Y-110217508D01*
X128131194Y-110261702D01*
X128087000Y-110280008D01*
X128042806Y-110261702D01*
X128032874Y-110248758D01*
X128000502Y-110192689D01*
X128000495Y-110192680D01*
X127907319Y-110099504D01*
X127907315Y-110099501D01*
X127907314Y-110099500D01*
X127850250Y-110066554D01*
X127793185Y-110033607D01*
X127793182Y-110033606D01*
X127665898Y-109999501D01*
X127665893Y-109999500D01*
X127665892Y-109999500D01*
X127534108Y-109999500D01*
X127534107Y-109999500D01*
X127534101Y-109999501D01*
X127406817Y-110033606D01*
X127406814Y-110033607D01*
X127292684Y-110099501D01*
X127281194Y-110110992D01*
X127260991Y-110131194D01*
X127216799Y-110149500D01*
X124688000Y-110149500D01*
X124643806Y-110131194D01*
X124625500Y-110087000D01*
X124625500Y-102018000D01*
X124643806Y-101973806D01*
X124688000Y-101955500D01*
X124775011Y-101955500D01*
X124792480Y-101954756D01*
X124792483Y-101954755D01*
X124792487Y-101954755D01*
X124879595Y-101926890D01*
X124883960Y-101922754D01*
X124928627Y-101905647D01*
X124965914Y-101919261D01*
X124984532Y-101934109D01*
X124985837Y-101935149D01*
X125075000Y-101955500D01*
X125387000Y-101955500D01*
X125431194Y-101973806D01*
X125449500Y-102018000D01*
X125449500Y-102516797D01*
X125431194Y-102560991D01*
X125399504Y-102592680D01*
X125399501Y-102592684D01*
X125333607Y-102706814D01*
X125333606Y-102706817D01*
X125299501Y-102834101D01*
X125299500Y-102834109D01*
X125299500Y-102965890D01*
X125299501Y-102965898D01*
X125333606Y-103093182D01*
X125333607Y-103093185D01*
X125399501Y-103207315D01*
X125399504Y-103207319D01*
X125492680Y-103300495D01*
X125492684Y-103300498D01*
X125492686Y-103300500D01*
X125587949Y-103355500D01*
X125606814Y-103366392D01*
X125606817Y-103366393D01*
X125634487Y-103373807D01*
X125734108Y-103400500D01*
X125734109Y-103400500D01*
X125865891Y-103400500D01*
X125865892Y-103400500D01*
X125993186Y-103366392D01*
X126107314Y-103300500D01*
X126200500Y-103207314D01*
X126266392Y-103093186D01*
X126300500Y-102965892D01*
X126300500Y-102834108D01*
X126266392Y-102706814D01*
X126200500Y-102592686D01*
X126200498Y-102592684D01*
X126200495Y-102592680D01*
X126168806Y-102560991D01*
X126150500Y-102516797D01*
X126150500Y-102018000D01*
X126168806Y-101973806D01*
X126213000Y-101955500D01*
X126224998Y-101955500D01*
X126225000Y-101955500D01*
X126270728Y-101950348D01*
X126353127Y-101910666D01*
X126410149Y-101839163D01*
X126430500Y-101750000D01*
X126430500Y-100250000D01*
X126425348Y-100204272D01*
X126419769Y-100192686D01*
X126385666Y-100121872D01*
X126314165Y-100064852D01*
X126314163Y-100064851D01*
X126225000Y-100044500D01*
X126138000Y-100044500D01*
X126093806Y-100026194D01*
X126075500Y-99982000D01*
X126075500Y-97018000D01*
X126093806Y-96973806D01*
X126138000Y-96955500D01*
X126224998Y-96955500D01*
X126225000Y-96955500D01*
X126270728Y-96950348D01*
X126353127Y-96910666D01*
X126410149Y-96839163D01*
X126430500Y-96750000D01*
X126430500Y-95250000D01*
X126425348Y-95204272D01*
X126404431Y-95160837D01*
X126385666Y-95121872D01*
X126314165Y-95064852D01*
X126314163Y-95064851D01*
X126225000Y-95044500D01*
X126138000Y-95044500D01*
X126093806Y-95026194D01*
X126075500Y-94982000D01*
X126075500Y-92018000D01*
X126093806Y-91973806D01*
X126138000Y-91955500D01*
X126224998Y-91955500D01*
X126225000Y-91955500D01*
X126270728Y-91950348D01*
X126353127Y-91910666D01*
X126410149Y-91839163D01*
X126430500Y-91750000D01*
X126430500Y-90250000D01*
X126425348Y-90204272D01*
X126423051Y-90199501D01*
X126385666Y-90121872D01*
X126314165Y-90064852D01*
X126314163Y-90064851D01*
X126224092Y-90044292D01*
X126185079Y-90016610D01*
X126175500Y-89983359D01*
X126175500Y-87986107D01*
X126193806Y-87941913D01*
X126209626Y-87930419D01*
X126263342Y-87903050D01*
X126353050Y-87813342D01*
X126410646Y-87700304D01*
X126425500Y-87606519D01*
X126425499Y-86993482D01*
X126410646Y-86899696D01*
X126353050Y-86786658D01*
X126263342Y-86696950D01*
X126150305Y-86639354D01*
X126150298Y-86639352D01*
X126056532Y-86624501D01*
X126056520Y-86624500D01*
X126056519Y-86624500D01*
X126056516Y-86624500D01*
X125593485Y-86624500D01*
X125593480Y-86624501D01*
X125499695Y-86639354D01*
X125499694Y-86639354D01*
X125386657Y-86696950D01*
X125296950Y-86786657D01*
X125239354Y-86899694D01*
X125239352Y-86899701D01*
X125224501Y-86993467D01*
X125224500Y-86993483D01*
X125224500Y-87606514D01*
X125224501Y-87606519D01*
X125239354Y-87700304D01*
X125239354Y-87700305D01*
X125296950Y-87813342D01*
X125386658Y-87903050D01*
X125440374Y-87930419D01*
X125471441Y-87966793D01*
X125474500Y-87986107D01*
X125474500Y-89982000D01*
X125456194Y-90026194D01*
X125412000Y-90044500D01*
X125075000Y-90044500D01*
X125001916Y-90057934D01*
X125001914Y-90057935D01*
X124960126Y-90085794D01*
X124913200Y-90095077D01*
X124886490Y-90082656D01*
X124864163Y-90064851D01*
X124864161Y-90064850D01*
X124864162Y-90064850D01*
X124775000Y-90044500D01*
X124588000Y-90044500D01*
X124543806Y-90026194D01*
X124525500Y-89982000D01*
X124525500Y-89683202D01*
X124543806Y-89639008D01*
X124575500Y-89607314D01*
X124641392Y-89493186D01*
X124675500Y-89365892D01*
X124675500Y-89234108D01*
X124641392Y-89106814D01*
X124575500Y-88992686D01*
X124575498Y-88992684D01*
X124575495Y-88992680D01*
X124543806Y-88960991D01*
X124525500Y-88916797D01*
X124525500Y-87986107D01*
X124543806Y-87941913D01*
X124559626Y-87930419D01*
X124613342Y-87903050D01*
X124703050Y-87813342D01*
X124760646Y-87700304D01*
X124775500Y-87606519D01*
X124775499Y-86993482D01*
X124760646Y-86899696D01*
X124703050Y-86786658D01*
X124613342Y-86696950D01*
X124500305Y-86639354D01*
X124500298Y-86639352D01*
X124406532Y-86624501D01*
X124406520Y-86624500D01*
X124406519Y-86624500D01*
X124406516Y-86624500D01*
X123943485Y-86624500D01*
X123943480Y-86624501D01*
X123849695Y-86639354D01*
X123849694Y-86639354D01*
X123736657Y-86696950D01*
X123646950Y-86786657D01*
X123589354Y-86899694D01*
X123589352Y-86899701D01*
X123574501Y-86993467D01*
X123574500Y-86993483D01*
X123574500Y-87606514D01*
X123574501Y-87606519D01*
X123589354Y-87700304D01*
X123589354Y-87700305D01*
X123646950Y-87813342D01*
X123736658Y-87903050D01*
X123790374Y-87930419D01*
X123821441Y-87966793D01*
X123824500Y-87986107D01*
X123824500Y-88916797D01*
X123806194Y-88960991D01*
X123774504Y-88992680D01*
X123774501Y-88992684D01*
X123708607Y-89106814D01*
X123708606Y-89106817D01*
X123674501Y-89234101D01*
X123674500Y-89234109D01*
X123674500Y-89365890D01*
X123674501Y-89365898D01*
X123708606Y-89493182D01*
X123708607Y-89493185D01*
X123741554Y-89550250D01*
X123774500Y-89607314D01*
X123806194Y-89639008D01*
X123824500Y-89683201D01*
X123824500Y-89983069D01*
X123806194Y-90027263D01*
X123768997Y-90045176D01*
X123729271Y-90049651D01*
X123646872Y-90089333D01*
X123589852Y-90160834D01*
X123589851Y-90160836D01*
X123569500Y-90250000D01*
X123569500Y-91749997D01*
X123574651Y-91795728D01*
X123614333Y-91878127D01*
X123685834Y-91935147D01*
X123685837Y-91935149D01*
X123775000Y-91955500D01*
X124775011Y-91955500D01*
X124792480Y-91954756D01*
X124792483Y-91954755D01*
X124792487Y-91954755D01*
X124879595Y-91926890D01*
X124883960Y-91922754D01*
X124928627Y-91905647D01*
X124965914Y-91919261D01*
X124984532Y-91934109D01*
X124985837Y-91935149D01*
X125075000Y-91955500D01*
X125312000Y-91955500D01*
X125356194Y-91973806D01*
X125374500Y-92018000D01*
X125374500Y-94982000D01*
X125356194Y-95026194D01*
X125312000Y-95044500D01*
X125075000Y-95044500D01*
X125001916Y-95057934D01*
X125001914Y-95057935D01*
X124960126Y-95085794D01*
X124913200Y-95095077D01*
X124886490Y-95082656D01*
X124864163Y-95064851D01*
X124864161Y-95064850D01*
X124864162Y-95064850D01*
X124775000Y-95044500D01*
X123775000Y-95044500D01*
X123767300Y-95045367D01*
X123729271Y-95049651D01*
X123646872Y-95089333D01*
X123589852Y-95160834D01*
X123589851Y-95160836D01*
X123569500Y-95250000D01*
X123569500Y-95687000D01*
X123551194Y-95731194D01*
X123507000Y-95749500D01*
X123383202Y-95749500D01*
X123339008Y-95731194D01*
X123307314Y-95699500D01*
X123222444Y-95650500D01*
X123193185Y-95633607D01*
X123193182Y-95633606D01*
X123065898Y-95599501D01*
X123065893Y-95599500D01*
X123065892Y-95599500D01*
X122934108Y-95599500D01*
X122934107Y-95599500D01*
X122934101Y-95599501D01*
X122806817Y-95633606D01*
X122806814Y-95633607D01*
X122692684Y-95699501D01*
X122692680Y-95699504D01*
X122599504Y-95792680D01*
X122599501Y-95792684D01*
X122533607Y-95906814D01*
X122533606Y-95906817D01*
X122499501Y-96034101D01*
X122499500Y-96034109D01*
X122499500Y-96165890D01*
X122499501Y-96165898D01*
X122533606Y-96293182D01*
X122533607Y-96293185D01*
X122566554Y-96350250D01*
X122595565Y-96400499D01*
X122599501Y-96407315D01*
X122599504Y-96407319D01*
X122692680Y-96500495D01*
X122692684Y-96500498D01*
X122692686Y-96500500D01*
X122784975Y-96553783D01*
X122806814Y-96566392D01*
X122806817Y-96566393D01*
X122855734Y-96579500D01*
X122934108Y-96600500D01*
X122934109Y-96600500D01*
X123065891Y-96600500D01*
X123065892Y-96600500D01*
X123193186Y-96566392D01*
X123307314Y-96500500D01*
X123339008Y-96468805D01*
X123383201Y-96450500D01*
X123507000Y-96450500D01*
X123551194Y-96468806D01*
X123569500Y-96513000D01*
X123569500Y-96749997D01*
X123574651Y-96795728D01*
X123614333Y-96878127D01*
X123685834Y-96935147D01*
X123685837Y-96935149D01*
X123775000Y-96955500D01*
X124775011Y-96955500D01*
X124792480Y-96954756D01*
X124792483Y-96954755D01*
X124792487Y-96954755D01*
X124879595Y-96926890D01*
X124883960Y-96922754D01*
X124928627Y-96905647D01*
X124965914Y-96919261D01*
X124975480Y-96926890D01*
X124985837Y-96935149D01*
X125075000Y-96955500D01*
X125312000Y-96955500D01*
X125356194Y-96973806D01*
X125374500Y-97018000D01*
X125374500Y-99982000D01*
X125356194Y-100026194D01*
X125312000Y-100044500D01*
X125075000Y-100044500D01*
X125001916Y-100057934D01*
X125001914Y-100057935D01*
X124960126Y-100085794D01*
X124913200Y-100095077D01*
X124886490Y-100082656D01*
X124864163Y-100064851D01*
X124864161Y-100064850D01*
X124864162Y-100064850D01*
X124775000Y-100044500D01*
X123775000Y-100044500D01*
X123767300Y-100045367D01*
X123729271Y-100049651D01*
X123646872Y-100089333D01*
X123589852Y-100160834D01*
X123589851Y-100160836D01*
X123577806Y-100213609D01*
X123569500Y-100250000D01*
X123569500Y-101750000D01*
X123569935Y-101753857D01*
X123574651Y-101795728D01*
X123614333Y-101878127D01*
X123685834Y-101935147D01*
X123685837Y-101935149D01*
X123775000Y-101955500D01*
X123862000Y-101955500D01*
X123906194Y-101973806D01*
X123924500Y-102018000D01*
X123924500Y-110421149D01*
X123943803Y-110493183D01*
X123943804Y-110493187D01*
X123948384Y-110510285D01*
X123994531Y-110590213D01*
X123994534Y-110590217D01*
X124184782Y-110780465D01*
X124184786Y-110780468D01*
X124184788Y-110780470D01*
X124264712Y-110826614D01*
X124264715Y-110826615D01*
X124319264Y-110841231D01*
X124353856Y-110850500D01*
X124353857Y-110850500D01*
X124446144Y-110850500D01*
X127216798Y-110850500D01*
X127260992Y-110868806D01*
X127292686Y-110900500D01*
X127406814Y-110966392D01*
X127406817Y-110966393D01*
X127484712Y-110987264D01*
X127534108Y-111000500D01*
X127534109Y-111000500D01*
X127665891Y-111000500D01*
X127665892Y-111000500D01*
X127793186Y-110966392D01*
X127907314Y-110900500D01*
X128000500Y-110807314D01*
X128032874Y-110751239D01*
X128070824Y-110722121D01*
X128118250Y-110728364D01*
X128147370Y-110766315D01*
X128149500Y-110782491D01*
X128149500Y-115094378D01*
X128131194Y-115138572D01*
X128112860Y-115151277D01*
X128106277Y-115154268D01*
X128071769Y-115161133D01*
X128030497Y-115188710D01*
X128025860Y-115190818D01*
X128006653Y-115191469D01*
X127987807Y-115195218D01*
X127980867Y-115192343D01*
X127978052Y-115192439D01*
X127975627Y-115190173D01*
X127965277Y-115185886D01*
X127928232Y-115161133D01*
X127928230Y-115161132D01*
X127869748Y-115149500D01*
X127130252Y-115149500D01*
X127071769Y-115161132D01*
X127071767Y-115161133D01*
X127034723Y-115185886D01*
X126987807Y-115195218D01*
X126965277Y-115185886D01*
X126928232Y-115161133D01*
X126928230Y-115161132D01*
X126869748Y-115149500D01*
X126130252Y-115149500D01*
X126071769Y-115161132D01*
X126071767Y-115161133D01*
X126005446Y-115205448D01*
X126005445Y-115205449D01*
X125995971Y-115219628D01*
X125956197Y-115246203D01*
X125909283Y-115236870D01*
X125899553Y-115230369D01*
X125862507Y-115223000D01*
X125652400Y-115223000D01*
X125652400Y-119777000D01*
X125862507Y-119777000D01*
X125899553Y-119769630D01*
X125899555Y-119769629D01*
X125909281Y-119763131D01*
X125956197Y-119753796D01*
X125995971Y-119780371D01*
X125995972Y-119780372D01*
X126005446Y-119794551D01*
X126071767Y-119838866D01*
X126071769Y-119838867D01*
X126130252Y-119850500D01*
X126869748Y-119850500D01*
X126928231Y-119838867D01*
X126965276Y-119814114D01*
X127012192Y-119804781D01*
X127034724Y-119814114D01*
X127071766Y-119838865D01*
X127071769Y-119838867D01*
X127130252Y-119850500D01*
X127869748Y-119850500D01*
X127928231Y-119838867D01*
X127965276Y-119814114D01*
X128012192Y-119804781D01*
X128034724Y-119814114D01*
X128071766Y-119838865D01*
X128071769Y-119838867D01*
X128130252Y-119850500D01*
X128869748Y-119850500D01*
X128928231Y-119838867D01*
X128965276Y-119814114D01*
X129012192Y-119804781D01*
X129034724Y-119814114D01*
X129071766Y-119838865D01*
X129071769Y-119838867D01*
X129130252Y-119850500D01*
X129869748Y-119850500D01*
X129928231Y-119838867D01*
X129965276Y-119814114D01*
X130012192Y-119804781D01*
X130034724Y-119814114D01*
X130071766Y-119838865D01*
X130071769Y-119838867D01*
X130130252Y-119850500D01*
X130869748Y-119850500D01*
X130928231Y-119838867D01*
X130965276Y-119814114D01*
X131012192Y-119804781D01*
X131034724Y-119814114D01*
X131071766Y-119838865D01*
X131071769Y-119838867D01*
X131130252Y-119850500D01*
X131869748Y-119850500D01*
X131928231Y-119838867D01*
X131965276Y-119814114D01*
X132012192Y-119804781D01*
X132034724Y-119814114D01*
X132071766Y-119838865D01*
X132071769Y-119838867D01*
X132130252Y-119850500D01*
X132869748Y-119850500D01*
X132928231Y-119838867D01*
X132965276Y-119814114D01*
X133012192Y-119804781D01*
X133034724Y-119814114D01*
X133071766Y-119838865D01*
X133071769Y-119838867D01*
X133130252Y-119850500D01*
X133869748Y-119850500D01*
X133928231Y-119838867D01*
X133965276Y-119814114D01*
X134012192Y-119804781D01*
X134034724Y-119814114D01*
X134071766Y-119838865D01*
X134071769Y-119838867D01*
X134130252Y-119850500D01*
X134869748Y-119850500D01*
X134928231Y-119838867D01*
X134965276Y-119814114D01*
X135012192Y-119804781D01*
X135034724Y-119814114D01*
X135071766Y-119838865D01*
X135071769Y-119838867D01*
X135130252Y-119850500D01*
X135787000Y-119850500D01*
X135831194Y-119868806D01*
X135849500Y-119913000D01*
X135849500Y-120341062D01*
X135831194Y-120385256D01*
X135485256Y-120731194D01*
X135441062Y-120749500D01*
X125458938Y-120749500D01*
X125414744Y-120731194D01*
X125068806Y-120385256D01*
X125050500Y-120341062D01*
X125050500Y-119835852D01*
X125068806Y-119791658D01*
X125113000Y-119773352D01*
X125125196Y-119774553D01*
X125137495Y-119777000D01*
X125347600Y-119777000D01*
X125347600Y-115223000D01*
X125137488Y-115223000D01*
X125125192Y-115225446D01*
X125078276Y-115216113D01*
X125051701Y-115176339D01*
X125050500Y-115164147D01*
X125050500Y-112460120D01*
X125050500Y-112460118D01*
X125019976Y-112386426D01*
X124963574Y-112330024D01*
X124960930Y-112328929D01*
X124941987Y-112321082D01*
X124889882Y-112299500D01*
X124889881Y-112299500D01*
X115504910Y-112299500D01*
X115495133Y-112298730D01*
X115417229Y-112286391D01*
X115398631Y-112280349D01*
X115332776Y-112246794D01*
X115316957Y-112235300D01*
X115264699Y-112183042D01*
X115253205Y-112167223D01*
X115219649Y-112101365D01*
X115213610Y-112082780D01*
X115201268Y-112004855D01*
X115200500Y-111995090D01*
X115200500Y-72388538D01*
X116299500Y-72388538D01*
X116299500Y-72611461D01*
X116328596Y-72832466D01*
X116328596Y-72832467D01*
X116386286Y-73047769D01*
X116386288Y-73047774D01*
X116386290Y-73047781D01*
X116471595Y-73253726D01*
X116583052Y-73446774D01*
X116718753Y-73623624D01*
X116876376Y-73781247D01*
X117053226Y-73916948D01*
X117246274Y-74028405D01*
X117452219Y-74113710D01*
X117667537Y-74171404D01*
X117888543Y-74200500D01*
X117888549Y-74200500D01*
X118111451Y-74200500D01*
X118111457Y-74200500D01*
X118332463Y-74171404D01*
X118547781Y-74113710D01*
X118753726Y-74028405D01*
X118946774Y-73916948D01*
X119123624Y-73781247D01*
X119281247Y-73623624D01*
X119416948Y-73446774D01*
X119528405Y-73253726D01*
X119613710Y-73047781D01*
X119671404Y-72832463D01*
X119700500Y-72611457D01*
X119700500Y-72388543D01*
X119700499Y-72388538D01*
X180299500Y-72388538D01*
X180299500Y-72611461D01*
X180328596Y-72832466D01*
X180328596Y-72832467D01*
X180386286Y-73047769D01*
X180386288Y-73047774D01*
X180386290Y-73047781D01*
X180471595Y-73253726D01*
X180583052Y-73446774D01*
X180718753Y-73623624D01*
X180876376Y-73781247D01*
X181053226Y-73916948D01*
X181246274Y-74028405D01*
X181452219Y-74113710D01*
X181667537Y-74171404D01*
X181888543Y-74200500D01*
X181888549Y-74200500D01*
X182111451Y-74200500D01*
X182111457Y-74200500D01*
X182332463Y-74171404D01*
X182547781Y-74113710D01*
X182753726Y-74028405D01*
X182946774Y-73916948D01*
X183123624Y-73781247D01*
X183281247Y-73623624D01*
X183416948Y-73446774D01*
X183528405Y-73253726D01*
X183613710Y-73047781D01*
X183671404Y-72832463D01*
X183700500Y-72611457D01*
X183700500Y-72388543D01*
X183671404Y-72167537D01*
X183613710Y-71952219D01*
X183528405Y-71746274D01*
X183416948Y-71553226D01*
X183281247Y-71376376D01*
X183123624Y-71218753D01*
X183123620Y-71218750D01*
X183123618Y-71218748D01*
X182946771Y-71083050D01*
X182753732Y-70971598D01*
X182753729Y-70971596D01*
X182753726Y-70971595D01*
X182547781Y-70886290D01*
X182547774Y-70886288D01*
X182547769Y-70886286D01*
X182332466Y-70828596D01*
X182111461Y-70799500D01*
X182111457Y-70799500D01*
X181888543Y-70799500D01*
X181888538Y-70799500D01*
X181667533Y-70828596D01*
X181667532Y-70828596D01*
X181452230Y-70886286D01*
X181452222Y-70886288D01*
X181452219Y-70886290D01*
X181246274Y-70971595D01*
X181246267Y-70971598D01*
X181053228Y-71083050D01*
X180876381Y-71218748D01*
X180876371Y-71218757D01*
X180718757Y-71376371D01*
X180718748Y-71376381D01*
X180583050Y-71553228D01*
X180471598Y-71746267D01*
X180471595Y-71746273D01*
X180471595Y-71746274D01*
X180386290Y-71952219D01*
X180386288Y-71952222D01*
X180386286Y-71952230D01*
X180328596Y-72167532D01*
X180328596Y-72167533D01*
X180299500Y-72388538D01*
X119700499Y-72388538D01*
X119671404Y-72167537D01*
X119613710Y-71952219D01*
X119528405Y-71746274D01*
X119416948Y-71553226D01*
X119281247Y-71376376D01*
X119123624Y-71218753D01*
X119123620Y-71218750D01*
X119123618Y-71218748D01*
X118946771Y-71083050D01*
X118753732Y-70971598D01*
X118753729Y-70971596D01*
X118753726Y-70971595D01*
X118547781Y-70886290D01*
X118547774Y-70886288D01*
X118547769Y-70886286D01*
X118332466Y-70828596D01*
X118111461Y-70799500D01*
X118111457Y-70799500D01*
X117888543Y-70799500D01*
X117888538Y-70799500D01*
X117667533Y-70828596D01*
X117667532Y-70828596D01*
X117452230Y-70886286D01*
X117452222Y-70886288D01*
X117452219Y-70886290D01*
X117246274Y-70971595D01*
X117246267Y-70971598D01*
X117053228Y-71083050D01*
X116876381Y-71218748D01*
X116876371Y-71218757D01*
X116718757Y-71376371D01*
X116718748Y-71376381D01*
X116583050Y-71553228D01*
X116471598Y-71746267D01*
X116471595Y-71746273D01*
X116471595Y-71746274D01*
X116386290Y-71952219D01*
X116386288Y-71952222D01*
X116386286Y-71952230D01*
X116328596Y-72167532D01*
X116328596Y-72167533D01*
X116299500Y-72388538D01*
X115200500Y-72388538D01*
X115200500Y-70004901D01*
X115201267Y-69995137D01*
X115213609Y-69917216D01*
X115219647Y-69898635D01*
X115253207Y-69832770D01*
X115264697Y-69816958D01*
X115316959Y-69764695D01*
X115332770Y-69753207D01*
X115398635Y-69719647D01*
X115417216Y-69713609D01*
X115495136Y-69701268D01*
X115504902Y-69700500D01*
X184460118Y-69700500D01*
X184495083Y-69700500D01*
X184504848Y-69701268D01*
G37*
%TD.AperFunction*%
%TD*%
M02*
