%TF.GenerationSoftware,KiCad,Pcbnew,10.0.3-10.0.3~ubuntu24.04.1*%
%TF.CreationDate,2026-06-25T08:15:25+00:00*%
%TF.ProjectId,streamline_rs485,73747265-616d-46c6-996e-655f72733438,A*%
%TF.SameCoordinates,Original*%
%TF.FileFunction,Soldermask,Top*%
%TF.FilePolarity,Negative*%
%FSLAX46Y46*%
G04 Gerber Fmt 4.6, Leading zero omitted, Abs format (unit mm)*
G04 Created by KiCad (PCBNEW 10.0.3-10.0.3~ubuntu24.04.1) date 2026-06-25 08:15:25*
%MOMM*%
%LPD*%
G01*
G04 APERTURE LIST*
G04 Aperture macros list*
%AMRoundRect*
0 Rectangle with rounded corners*
0 $1 Rounding radius*
0 $2 $3 $4 $5 $6 $7 $8 $9 X,Y pos of 4 corners*
0 Add a 4 corners polygon primitive as box body*
4,1,4,$2,$3,$4,$5,$6,$7,$8,$9,$2,$3,0*
0 Add four circle primitives for the rounded corners*
1,1,$1+$1,$2,$3*
1,1,$1+$1,$4,$5*
1,1,$1+$1,$6,$7*
1,1,$1+$1,$8,$9*
0 Add four rect primitives between the rounded corners*
20,1,$1+$1,$2,$3,$4,$5,0*
20,1,$1+$1,$4,$5,$6,$7,0*
20,1,$1+$1,$6,$7,$8,$9,0*
20,1,$1+$1,$8,$9,$2,$3,0*%
%AMFreePoly0*
4,1,6,1.000000,0.000000,0.500000,-0.750000,-0.500000,-0.750000,-0.500000,0.750000,0.500000,0.750000,1.000000,0.000000,1.000000,0.000000,$1*%
%AMFreePoly1*
4,1,6,0.500000,-0.750000,-0.650000,-0.750000,-0.150000,0.000000,-0.650000,0.750000,0.500000,0.750000,0.500000,-0.750000,0.500000,-0.750000,$1*%
G04 Aperture macros list end*
%ADD10RoundRect,0.249999X1.550001X-0.790001X1.550001X0.790001X-1.550001X0.790001X-1.550001X-0.790001X0*%
%ADD11O,3.600000X2.080000*%
%ADD12FreePoly0,0.000000*%
%ADD13FreePoly1,0.000000*%
%ADD14RoundRect,0.250000X0.250000X0.475000X-0.250000X0.475000X-0.250000X-0.475000X0.250000X-0.475000X0*%
%ADD15C,3.000000*%
%ADD16R,0.700000X4.300000*%
%ADD17RoundRect,0.200000X-0.200000X-0.275000X0.200000X-0.275000X0.200000X0.275000X-0.200000X0.275000X0*%
%ADD18RoundRect,0.200000X-0.275000X0.200000X-0.275000X-0.200000X0.275000X-0.200000X0.275000X0.200000X0*%
%ADD19RoundRect,0.225000X-0.225000X-0.250000X0.225000X-0.250000X0.225000X0.250000X-0.225000X0.250000X0*%
%ADD20RoundRect,0.150000X-0.825000X-0.150000X0.825000X-0.150000X0.825000X0.150000X-0.825000X0.150000X0*%
G04 APERTURE END LIST*
%TO.C,JP6*%
G36*
X133775000Y-100250000D02*
G01*
X136225000Y-100250000D01*
X136225000Y-101750000D01*
X133775000Y-101750000D01*
X133775000Y-100250000D01*
G37*
%TO.C,JP3*%
G36*
X143775000Y-100250000D02*
G01*
X146225000Y-100250000D01*
X146225000Y-101750000D01*
X143775000Y-101750000D01*
X143775000Y-100250000D01*
G37*
%TO.C,JP5*%
G36*
X133775000Y-95250000D02*
G01*
X136225000Y-95250000D01*
X136225000Y-96750000D01*
X133775000Y-96750000D01*
X133775000Y-95250000D01*
G37*
%TO.C,JP8*%
G36*
X123775000Y-95250000D02*
G01*
X126225000Y-95250000D01*
X126225000Y-96750000D01*
X123775000Y-96750000D01*
X123775000Y-95250000D01*
G37*
%TO.C,JP7*%
G36*
X123775000Y-90250000D02*
G01*
X126225000Y-90250000D01*
X126225000Y-91750000D01*
X123775000Y-91750000D01*
X123775000Y-90250000D01*
G37*
%TO.C,JP9*%
G36*
X123775000Y-100250000D02*
G01*
X126225000Y-100250000D01*
X126225000Y-101750000D01*
X123775000Y-101750000D01*
X123775000Y-100250000D01*
G37*
%TO.C,JP2*%
G36*
X143775000Y-95250000D02*
G01*
X146225000Y-95250000D01*
X146225000Y-96750000D01*
X143775000Y-96750000D01*
X143775000Y-95250000D01*
G37*
%TO.C,JP4*%
G36*
X133775000Y-90250000D02*
G01*
X136225000Y-90250000D01*
X136225000Y-91750000D01*
X133775000Y-91750000D01*
X133775000Y-90250000D01*
G37*
%TO.C,JP1*%
G36*
X143775000Y-90250000D02*
G01*
X146225000Y-90250000D01*
X146225000Y-91750000D01*
X143775000Y-91750000D01*
X143775000Y-90250000D01*
G37*
%TD*%
D10*
%TO.C,J2*%
X174800000Y-102900000D03*
D11*
X174800000Y-97820000D03*
X174800000Y-92740000D03*
%TD*%
D12*
%TO.C,JP6*%
X134275000Y-101000000D03*
D13*
X135725000Y-101000000D03*
%TD*%
D14*
%TO.C,C1*%
X168750000Y-94900000D03*
X166850000Y-94900000D03*
%TD*%
D15*
%TO.C,J1*%
X118000000Y-72500000D03*
X182000000Y-72500000D03*
D16*
X125500000Y-117500000D03*
X126500000Y-117500000D03*
X127500000Y-117500000D03*
X128500000Y-117500000D03*
X129500000Y-117500000D03*
X130500000Y-117500000D03*
X131500000Y-117500000D03*
X132500000Y-117500000D03*
X133500000Y-117500000D03*
X134500000Y-117500000D03*
X135500000Y-117500000D03*
X138500000Y-117500000D03*
X139500000Y-117500000D03*
X140500000Y-117500000D03*
X141500000Y-117500000D03*
X142500000Y-117500000D03*
X143500000Y-117500000D03*
X144500000Y-117500000D03*
X145500000Y-117500000D03*
X146500000Y-117500000D03*
X147500000Y-117500000D03*
X148500000Y-117500000D03*
X149500000Y-117500000D03*
X150500000Y-117500000D03*
X151500000Y-117500000D03*
X152500000Y-117500000D03*
X153500000Y-117500000D03*
X154500000Y-117500000D03*
X155500000Y-117500000D03*
X156500000Y-117500000D03*
X157500000Y-117500000D03*
X158500000Y-117500000D03*
X159500000Y-117500000D03*
X160500000Y-117500000D03*
X161500000Y-117500000D03*
X162500000Y-117500000D03*
X163500000Y-117500000D03*
X164500000Y-117500000D03*
X165500000Y-117500000D03*
X166500000Y-117500000D03*
X167500000Y-117500000D03*
X168500000Y-117500000D03*
X169500000Y-117500000D03*
X170500000Y-117500000D03*
X171500000Y-117500000D03*
X172500000Y-117500000D03*
X173500000Y-117500000D03*
X174500000Y-117500000D03*
X175500000Y-117500000D03*
%TD*%
D12*
%TO.C,JP3*%
X144275000Y-101000000D03*
D13*
X145725000Y-101000000D03*
%TD*%
D17*
%TO.C,R1*%
X144175000Y-87300000D03*
X145825000Y-87300000D03*
%TD*%
D12*
%TO.C,JP5*%
X134275000Y-96000000D03*
D13*
X135725000Y-96000000D03*
%TD*%
D18*
%TO.C,R4*%
X160800000Y-100350000D03*
X160800000Y-102000000D03*
%TD*%
D12*
%TO.C,JP8*%
X124275000Y-96000000D03*
D13*
X125725000Y-96000000D03*
%TD*%
D17*
%TO.C,R3*%
X124175000Y-87300000D03*
X125825000Y-87300000D03*
%TD*%
%TO.C,R2*%
X134175000Y-87300000D03*
X135825000Y-87300000D03*
%TD*%
D19*
%TO.C,C2*%
X167025000Y-97200000D03*
X168575000Y-97200000D03*
%TD*%
D12*
%TO.C,JP7*%
X124275000Y-91000000D03*
D13*
X125725000Y-91000000D03*
%TD*%
D20*
%TO.C,U1*%
X163525000Y-99195000D03*
X163525000Y-100465000D03*
X163525000Y-101735000D03*
X163525000Y-103005000D03*
X168475000Y-103005000D03*
X168475000Y-101735000D03*
X168475000Y-100465000D03*
X168475000Y-99195000D03*
%TD*%
D12*
%TO.C,JP9*%
X124275000Y-101000000D03*
D13*
X125725000Y-101000000D03*
%TD*%
D12*
%TO.C,JP2*%
X144275000Y-96000000D03*
D13*
X145725000Y-96000000D03*
%TD*%
D12*
%TO.C,JP4*%
X134275000Y-91000000D03*
D13*
X135725000Y-91000000D03*
%TD*%
D12*
%TO.C,JP1*%
X144275000Y-91000000D03*
D13*
X145725000Y-91000000D03*
%TD*%
M02*
