%TF.GenerationSoftware,KiCad,Pcbnew,9.0.8-9.0.8~ubuntu24.04.1*%
%TF.CreationDate,2026-03-29T19:28:20+08:00*%
%TF.ProjectId,streamline_rs485,73747265-616d-46c6-996e-655f72733438,A*%
%TF.SameCoordinates,Original*%
%TF.FileFunction,Copper,L2,Bot*%
%TF.FilePolarity,Positive*%
%FSLAX46Y46*%
G04 Gerber Fmt 4.6, Leading zero omitted, Abs format (unit mm)*
G04 Created by KiCad (PCBNEW 9.0.8-9.0.8~ubuntu24.04.1) date 2026-03-29 19:28:20*
%MOMM*%
%LPD*%
G01*
G04 APERTURE LIST*
G04 Aperture macros list*
%AMRoundRect*
0 Rectangle with rounded corners*
0 $1 Rounding radius*
0 $2 $3 $4 $5 $6 $7 $8 $9 X,Y pos of 4 corners*
0 Add a 4 corners polygon primitive as box body*
4,1,4,$2,$3,$4,$5,$6,$7,$8,$9,$2,$3,0*
0 Add four circle primitives for the rounded corners*
1,1,$1+$1,$2,$3*
1,1,$1+$1,$4,$5*
1,1,$1+$1,$6,$7*
1,1,$1+$1,$8,$9*
0 Add four rect primitives between the rounded corners*
20,1,$1+$1,$2,$3,$4,$5,0*
20,1,$1+$1,$4,$5,$6,$7,0*
20,1,$1+$1,$6,$7,$8,$9,0*
20,1,$1+$1,$8,$9,$2,$3,0*%
%AMFreePoly0*
4,1,6,1.000000,0.000000,0.500000,-0.750000,-0.500000,-0.750000,-0.500000,0.750000,0.500000,0.750000,1.000000,0.000000,1.000000,0.000000,$1*%
%AMFreePoly1*
4,1,6,0.500000,-0.750000,-0.650000,-0.750000,-0.150000,0.000000,-0.650000,0.750000,0.500000,0.750000,0.500000,-0.750000,0.500000,-0.750000,$1*%
G04 Aperture macros list end*
%TA.AperFunction,ComponentPad*%
%ADD10RoundRect,0.249999X1.550001X-0.790001X1.550001X0.790001X-1.550001X0.790001X-1.550001X-0.790001X0*%
%TD*%
%TA.AperFunction,ComponentPad*%
%ADD11O,3.600000X2.080000*%
%TD*%
%TA.AperFunction,ConnectorPad*%
%ADD12R,0.700000X4.300000*%
%TD*%
%TA.AperFunction,SMDPad,CuDef*%
%ADD13FreePoly0,0.000000*%
%TD*%
%TA.AperFunction,SMDPad,CuDef*%
%ADD14FreePoly1,0.000000*%
%TD*%
%TA.AperFunction,ViaPad*%
%ADD15C,0.600000*%
%TD*%
%TA.AperFunction,Conductor*%
%ADD16C,0.300000*%
%TD*%
%TA.AperFunction,Conductor*%
%ADD17C,0.600000*%
%TD*%
G04 APERTURE END LIST*
D10*
%TO.P,J2,1,Pin_1*%
%TO.N,Net-(J2-Pin_1)*%
X174800000Y-102900000D03*
D11*
%TO.P,J2,2,Pin_2*%
%TO.N,Net-(J2-Pin_2)*%
X174800000Y-97820000D03*
%TO.P,J2,3,Pin_3*%
%TO.N,GND*%
X174800000Y-92740000D03*
%TD*%
D12*
%TO.P,J1,A1,GND*%
%TO.N,GND*%
X125500000Y-117500000D03*
%TO.P,J1,A2,NRST*%
%TO.N,unconnected-(J1-NRST-PadA2)*%
X126500000Y-117500000D03*
%TO.P,J1,A3,VBAT*%
%TO.N,unconnected-(J1-VBAT-PadA3)*%
X127500000Y-117500000D03*
%TO.P,J1,A4,PA2*%
%TO.N,PA2*%
X128500000Y-117500000D03*
%TO.P,J1,A5,PA1*%
%TO.N,PA1*%
X129500000Y-117500000D03*
%TO.P,J1,A6,PA0*%
%TO.N,unconnected-(J1-PA0-PadA6)*%
X130500000Y-117500000D03*
%TO.P,J1,A7,PC3*%
%TO.N,unconnected-(J1-PC3-PadA7)*%
X131500000Y-117500000D03*
%TO.P,J1,A8,PC2*%
%TO.N,unconnected-(J1-PC2-PadA8)*%
X132500000Y-117500000D03*
%TO.P,J1,A9,PC1*%
%TO.N,unconnected-(J1-PC1-PadA9)*%
X133500000Y-117500000D03*
%TO.P,J1,A10,PC0*%
%TO.N,unconnected-(J1-PC0-PadA10)*%
X134500000Y-117500000D03*
%TO.P,J1,A11,PC15*%
%TO.N,unconnected-(J1-PC15-PadA11)*%
X135500000Y-117500000D03*
%TO.P,J1,A12,PC14*%
%TO.N,unconnected-(J1-PC14-PadA12)*%
X138500000Y-117500000D03*
%TO.P,J1,A13,PC13*%
%TO.N,unconnected-(J1-PC13-PadA13)*%
X139500000Y-117500000D03*
%TO.P,J1,A14,PE6*%
%TO.N,unconnected-(J1-PE6-PadA14)*%
X140500000Y-117500000D03*
%TO.P,J1,A15,PE5*%
%TO.N,unconnected-(J1-PE5-PadA15)*%
X141500000Y-117500000D03*
%TO.P,J1,A16,PE4*%
%TO.N,unconnected-(J1-PE4-PadA16)*%
X142500000Y-117500000D03*
%TO.P,J1,A17,PE3*%
%TO.N,unconnected-(J1-PE3-PadA17)*%
X143500000Y-117500000D03*
%TO.P,J1,A18,PE2*%
%TO.N,unconnected-(J1-PE2-PadA18)*%
X144500000Y-117500000D03*
%TO.P,J1,A19,U1*%
%TO.N,unconnected-(J1-U1-PadA19)*%
X145500000Y-117500000D03*
%TO.P,J1,A20,PE1*%
%TO.N,unconnected-(J1-PE1-PadA20)*%
X146500000Y-117500000D03*
%TO.P,J1,A21,PE0*%
%TO.N,unconnected-(J1-PE0-PadA21)*%
X147500000Y-117500000D03*
%TO.P,J1,A22,PB9*%
%TO.N,PB9*%
X148500000Y-117500000D03*
%TO.P,J1,A23,PB8*%
%TO.N,PB8*%
X149500000Y-117500000D03*
%TO.P,J1,A24,PB7*%
%TO.N,unconnected-(J1-PB7-PadA24)*%
X150500000Y-117500000D03*
%TO.P,J1,A25,PB6*%
%TO.N,unconnected-(J1-PB6-PadA25)*%
X151500000Y-117500000D03*
%TO.P,J1,A26,PB5*%
%TO.N,unconnected-(J1-PB5-PadA26)*%
X152500000Y-117500000D03*
%TO.P,J1,A27,U3*%
%TO.N,unconnected-(J1-U3-PadA27)*%
X153500000Y-117500000D03*
%TO.P,J1,A28,PB4*%
%TO.N,unconnected-(J1-PB4-PadA28)*%
X154500000Y-117500000D03*
%TO.P,J1,A29,PB3*%
%TO.N,unconnected-(J1-PB3-PadA29)*%
X155500000Y-117500000D03*
%TO.P,J1,A30,PD7*%
%TO.N,unconnected-(J1-PD7-PadA30)*%
X156500000Y-117500000D03*
%TO.P,J1,A31,PD6*%
%TO.N,unconnected-(J1-PD6-PadA31)*%
X157500000Y-117500000D03*
%TO.P,J1,A32,PD5*%
%TO.N,unconnected-(J1-PD5-PadA32)*%
X158500000Y-117500000D03*
%TO.P,J1,A33,PD4*%
%TO.N,unconnected-(J1-PD4-PadA33)*%
X159500000Y-117500000D03*
%TO.P,J1,A34,PD3*%
%TO.N,unconnected-(J1-PD3-PadA34)*%
X160500000Y-117500000D03*
%TO.P,J1,A35,PD2*%
%TO.N,unconnected-(J1-PD2-PadA35)*%
X161500000Y-117500000D03*
%TO.P,J1,A36,PD1*%
%TO.N,unconnected-(J1-PD1-PadA36)*%
X162500000Y-117500000D03*
%TO.P,J1,A37,PD0*%
%TO.N,unconnected-(J1-PD0-PadA37)*%
X163500000Y-117500000D03*
%TO.P,J1,A38,U5*%
%TO.N,unconnected-(J1-U5-PadA38)*%
X164500000Y-117500000D03*
%TO.P,J1,A39,PC12*%
%TO.N,unconnected-(J1-PC12-PadA39)*%
X165500000Y-117500000D03*
%TO.P,J1,A40,PC11*%
%TO.N,unconnected-(J1-PC11-PadA40)*%
X166500000Y-117500000D03*
%TO.P,J1,A41,PC10*%
%TO.N,unconnected-(J1-PC10-PadA41)*%
X167500000Y-117500000D03*
%TO.P,J1,A42,PA15*%
%TO.N,unconnected-(J1-PA15-PadA42)*%
X168500000Y-117500000D03*
%TO.P,J1,A43,PA14*%
%TO.N,unconnected-(J1-PA14-PadA43)*%
X169500000Y-117500000D03*
%TO.P,J1,A44,PA11*%
%TO.N,unconnected-(J1-PA11-PadA44)*%
X170500000Y-117500000D03*
%TO.P,J1,A45,PA12*%
%TO.N,unconnected-(J1-PA12-PadA45)*%
X171500000Y-117500000D03*
%TO.P,J1,A46,PA13*%
%TO.N,unconnected-(J1-PA13-PadA46)*%
X172500000Y-117500000D03*
%TO.P,J1,A47,3V3*%
%TO.N,+3V3*%
X173500000Y-117500000D03*
%TO.P,J1,A48,5V*%
%TO.N,unconnected-(J1-5V-PadA48)*%
X174500000Y-117500000D03*
%TO.P,J1,A49,GND*%
%TO.N,GND*%
X175500000Y-117500000D03*
%TD*%
D13*
%TO.P,JP10,1,A*%
%TO.N,PB15*%
X158950000Y-100200000D03*
D14*
%TO.P,JP10,2,B*%
%TO.N,Net-(JP10-B)*%
X160400000Y-100200000D03*
%TD*%
D15*
%TO.N,PA2*%
X127600000Y-110500000D03*
%TO.N,PA1*%
X129700000Y-112900000D03*
%TO.N,+3V3*%
X173500000Y-113900000D03*
%TO.N,Net-(JP4-B)*%
X137000000Y-102000000D03*
X161800000Y-101750000D03*
%TO.N,Net-(JP7-B)*%
X161900000Y-103000000D03*
X125800000Y-102900000D03*
%TO.N,PA3*%
X142700000Y-101000000D03*
X128600000Y-101000000D03*
%TO.N,PB14*%
X155900000Y-90700000D03*
X132900000Y-90500000D03*
%TO.N,PD8*%
X157400000Y-96000000D03*
X123000000Y-96100000D03*
%TO.N,PD9*%
X142900000Y-95300000D03*
X158200000Y-95300000D03*
%TO.N,PB9*%
X124175000Y-89300000D03*
X148300000Y-113300000D03*
X148200000Y-89300000D03*
%TO.N,PB8*%
X142900000Y-92000000D03*
X149800000Y-92300000D03*
X150000000Y-113600000D03*
%TO.N,PD12*%
X133100000Y-95200000D03*
X159200000Y-94650000D03*
%TO.N,PB15*%
X156500000Y-100500000D03*
%TO.N,Net-(JP10-B)*%
X161900000Y-100350000D03*
%TD*%
D16*
%TO.N,PA2*%
X127600000Y-110500000D02*
X127800000Y-110500000D01*
X127800000Y-110500000D02*
X128500000Y-111200000D01*
X128500000Y-111200000D02*
X128500000Y-117500000D01*
%TO.N,PA1*%
X129500000Y-113100000D02*
X129700000Y-112900000D01*
X129500000Y-117500000D02*
X129500000Y-113100000D01*
D17*
%TO.N,+3V3*%
X173500000Y-117500000D02*
X173500000Y-113900000D01*
D16*
%TO.N,Net-(JP4-B)*%
X137250000Y-101750000D02*
X137000000Y-102000000D01*
X161800000Y-101750000D02*
X137250000Y-101750000D01*
%TO.N,Net-(JP7-B)*%
X161900000Y-103000000D02*
X125900000Y-103000000D01*
X125900000Y-103000000D02*
X125800000Y-102900000D01*
%TO.N,PA3*%
X128600000Y-101000000D02*
X142700000Y-101000000D01*
%TO.N,PB14*%
X155900000Y-90700000D02*
X133100000Y-90700000D01*
X133100000Y-90700000D02*
X132900000Y-90500000D01*
%TO.N,PD8*%
X157300000Y-96100000D02*
X123000000Y-96100000D01*
X157400000Y-96000000D02*
X157300000Y-96100000D01*
%TO.N,PD9*%
X158200000Y-95300000D02*
X142900000Y-95300000D01*
%TO.N,PB9*%
X148500000Y-117500000D02*
X148500000Y-113500000D01*
X148500000Y-113500000D02*
X148300000Y-113300000D01*
X148200000Y-89300000D02*
X124175000Y-89300000D01*
%TO.N,PB8*%
X149500000Y-114100000D02*
X150000000Y-113600000D01*
X149800000Y-92300000D02*
X143200000Y-92300000D01*
X143200000Y-92300000D02*
X142900000Y-92000000D01*
X149500000Y-117500000D02*
X149500000Y-114100000D01*
%TO.N,PD12*%
X159200000Y-94650000D02*
X133650000Y-94650000D01*
X133650000Y-94650000D02*
X133100000Y-95200000D01*
%TO.N,PB15*%
X158950000Y-100200000D02*
X156800000Y-100200000D01*
X156800000Y-100200000D02*
X156500000Y-100500000D01*
%TO.N,Net-(JP10-B)*%
X161900000Y-100350000D02*
X161750000Y-100200000D01*
X161750000Y-100200000D02*
X160400000Y-100200000D01*
%TD*%
%TA.AperFunction,Conductor*%
%TO.N,GND*%
G36*
X184504848Y-69701268D02*
G01*
X184582779Y-69713611D01*
X184601364Y-69719650D01*
X184667224Y-69753207D01*
X184683041Y-69764700D01*
X184735299Y-69816958D01*
X184746793Y-69832778D01*
X184780347Y-69898632D01*
X184786389Y-69917228D01*
X184798730Y-69995137D01*
X184799500Y-70004915D01*
X184799500Y-111995083D01*
X184798730Y-112004860D01*
X184786390Y-112082769D01*
X184780348Y-112101367D01*
X184746793Y-112167222D01*
X184735299Y-112183041D01*
X184683041Y-112235299D01*
X184667222Y-112246793D01*
X184601367Y-112280348D01*
X184582769Y-112286390D01*
X184504860Y-112298730D01*
X184495083Y-112299500D01*
X176110118Y-112299500D01*
X176036427Y-112330023D01*
X176036424Y-112330025D01*
X175980025Y-112386424D01*
X175980023Y-112386427D01*
X175949500Y-112460118D01*
X175949500Y-115164147D01*
X175931194Y-115208341D01*
X175887000Y-115226647D01*
X175874808Y-115225446D01*
X175862511Y-115223000D01*
X175652400Y-115223000D01*
X175652400Y-119777000D01*
X175862505Y-119777000D01*
X175874804Y-119774553D01*
X175921721Y-119783884D01*
X175948299Y-119823656D01*
X175949500Y-119835852D01*
X175949500Y-120341062D01*
X175931194Y-120385256D01*
X175585256Y-120731194D01*
X175541062Y-120749500D01*
X138558938Y-120749500D01*
X138514744Y-120731194D01*
X138168806Y-120385256D01*
X138150500Y-120341062D01*
X138150500Y-119913000D01*
X138168806Y-119868806D01*
X138213000Y-119850500D01*
X138869748Y-119850500D01*
X138928231Y-119838867D01*
X138965276Y-119814114D01*
X139012192Y-119804781D01*
X139034724Y-119814114D01*
X139071766Y-119838865D01*
X139071769Y-119838867D01*
X139130252Y-119850500D01*
X139869748Y-119850500D01*
X139928231Y-119838867D01*
X139965276Y-119814114D01*
X140012192Y-119804781D01*
X140034724Y-119814114D01*
X140071766Y-119838865D01*
X140071769Y-119838867D01*
X140130252Y-119850500D01*
X140869748Y-119850500D01*
X140928231Y-119838867D01*
X140965276Y-119814114D01*
X141012192Y-119804781D01*
X141034724Y-119814114D01*
X141071766Y-119838865D01*
X141071769Y-119838867D01*
X141130252Y-119850500D01*
X141869748Y-119850500D01*
X141928231Y-119838867D01*
X141965276Y-119814114D01*
X142012192Y-119804781D01*
X142034724Y-119814114D01*
X142071766Y-119838865D01*
X142071769Y-119838867D01*
X142130252Y-119850500D01*
X142869748Y-119850500D01*
X142928231Y-119838867D01*
X142965276Y-119814114D01*
X143012192Y-119804781D01*
X143034724Y-119814114D01*
X143071766Y-119838865D01*
X143071769Y-119838867D01*
X143130252Y-119850500D01*
X143869748Y-119850500D01*
X143928231Y-119838867D01*
X143965276Y-119814114D01*
X144012192Y-119804781D01*
X144034724Y-119814114D01*
X144071766Y-119838865D01*
X144071769Y-119838867D01*
X144130252Y-119850500D01*
X144869748Y-119850500D01*
X144928231Y-119838867D01*
X144965276Y-119814114D01*
X145012192Y-119804781D01*
X145034724Y-119814114D01*
X145071766Y-119838865D01*
X145071769Y-119838867D01*
X145130252Y-119850500D01*
X145869748Y-119850500D01*
X145928231Y-119838867D01*
X145965276Y-119814114D01*
X146012192Y-119804781D01*
X146034724Y-119814114D01*
X146071766Y-119838865D01*
X146071769Y-119838867D01*
X146130252Y-119850500D01*
X146869748Y-119850500D01*
X146928231Y-119838867D01*
X146965276Y-119814114D01*
X147012192Y-119804781D01*
X147034724Y-119814114D01*
X147071766Y-119838865D01*
X147071769Y-119838867D01*
X147130252Y-119850500D01*
X147869748Y-119850500D01*
X147928231Y-119838867D01*
X147965276Y-119814114D01*
X148012192Y-119804781D01*
X148034724Y-119814114D01*
X148071766Y-119838865D01*
X148071769Y-119838867D01*
X148130252Y-119850500D01*
X148869748Y-119850500D01*
X148928231Y-119838867D01*
X148965276Y-119814114D01*
X149012192Y-119804781D01*
X149034724Y-119814114D01*
X149071766Y-119838865D01*
X149071769Y-119838867D01*
X149130252Y-119850500D01*
X149869748Y-119850500D01*
X149928231Y-119838867D01*
X149965276Y-119814114D01*
X150012192Y-119804781D01*
X150034724Y-119814114D01*
X150071766Y-119838865D01*
X150071769Y-119838867D01*
X150130252Y-119850500D01*
X150869748Y-119850500D01*
X150928231Y-119838867D01*
X150965276Y-119814114D01*
X151012192Y-119804781D01*
X151034724Y-119814114D01*
X151071766Y-119838865D01*
X151071769Y-119838867D01*
X151130252Y-119850500D01*
X151869748Y-119850500D01*
X151928231Y-119838867D01*
X151965276Y-119814114D01*
X152012192Y-119804781D01*
X152034724Y-119814114D01*
X152071766Y-119838865D01*
X152071769Y-119838867D01*
X152130252Y-119850500D01*
X152869748Y-119850500D01*
X152928231Y-119838867D01*
X152965276Y-119814114D01*
X153012192Y-119804781D01*
X153034724Y-119814114D01*
X153071766Y-119838865D01*
X153071769Y-119838867D01*
X153130252Y-119850500D01*
X153869748Y-119850500D01*
X153928231Y-119838867D01*
X153965276Y-119814114D01*
X154012192Y-119804781D01*
X154034724Y-119814114D01*
X154071766Y-119838865D01*
X154071769Y-119838867D01*
X154130252Y-119850500D01*
X154869748Y-119850500D01*
X154928231Y-119838867D01*
X154965276Y-119814114D01*
X155012192Y-119804781D01*
X155034724Y-119814114D01*
X155071766Y-119838865D01*
X155071769Y-119838867D01*
X155130252Y-119850500D01*
X155869748Y-119850500D01*
X155928231Y-119838867D01*
X155965276Y-119814114D01*
X156012192Y-119804781D01*
X156034724Y-119814114D01*
X156071766Y-119838865D01*
X156071769Y-119838867D01*
X156130252Y-119850500D01*
X156869748Y-119850500D01*
X156928231Y-119838867D01*
X156965276Y-119814114D01*
X157012192Y-119804781D01*
X157034724Y-119814114D01*
X157071766Y-119838865D01*
X157071769Y-119838867D01*
X157130252Y-119850500D01*
X157869748Y-119850500D01*
X157928231Y-119838867D01*
X157965276Y-119814114D01*
X158012192Y-119804781D01*
X158034724Y-119814114D01*
X158071766Y-119838865D01*
X158071769Y-119838867D01*
X158130252Y-119850500D01*
X158869748Y-119850500D01*
X158928231Y-119838867D01*
X158965276Y-119814114D01*
X159012192Y-119804781D01*
X159034724Y-119814114D01*
X159071766Y-119838865D01*
X159071769Y-119838867D01*
X159130252Y-119850500D01*
X159869748Y-119850500D01*
X159928231Y-119838867D01*
X159965276Y-119814114D01*
X160012192Y-119804781D01*
X160034724Y-119814114D01*
X160071766Y-119838865D01*
X160071769Y-119838867D01*
X160130252Y-119850500D01*
X160869748Y-119850500D01*
X160928231Y-119838867D01*
X160965276Y-119814114D01*
X161012192Y-119804781D01*
X161034724Y-119814114D01*
X161071766Y-119838865D01*
X161071769Y-119838867D01*
X161130252Y-119850500D01*
X161869748Y-119850500D01*
X161928231Y-119838867D01*
X161965276Y-119814114D01*
X162012192Y-119804781D01*
X162034724Y-119814114D01*
X162071766Y-119838865D01*
X162071769Y-119838867D01*
X162130252Y-119850500D01*
X162869748Y-119850500D01*
X162928231Y-119838867D01*
X162965276Y-119814114D01*
X163012192Y-119804781D01*
X163034724Y-119814114D01*
X163071766Y-119838865D01*
X163071769Y-119838867D01*
X163130252Y-119850500D01*
X163869748Y-119850500D01*
X163928231Y-119838867D01*
X163965276Y-119814114D01*
X164012192Y-119804781D01*
X164034724Y-119814114D01*
X164071766Y-119838865D01*
X164071769Y-119838867D01*
X164130252Y-119850500D01*
X164869748Y-119850500D01*
X164928231Y-119838867D01*
X164965276Y-119814114D01*
X165012192Y-119804781D01*
X165034724Y-119814114D01*
X165071766Y-119838865D01*
X165071769Y-119838867D01*
X165130252Y-119850500D01*
X165869748Y-119850500D01*
X165928231Y-119838867D01*
X165965276Y-119814114D01*
X166012192Y-119804781D01*
X166034724Y-119814114D01*
X166071766Y-119838865D01*
X166071769Y-119838867D01*
X166130252Y-119850500D01*
X166869748Y-119850500D01*
X166928231Y-119838867D01*
X166965276Y-119814114D01*
X167012192Y-119804781D01*
X167034724Y-119814114D01*
X167071766Y-119838865D01*
X167071769Y-119838867D01*
X167130252Y-119850500D01*
X167869748Y-119850500D01*
X167928231Y-119838867D01*
X167965276Y-119814114D01*
X168012192Y-119804781D01*
X168034724Y-119814114D01*
X168071766Y-119838865D01*
X168071769Y-119838867D01*
X168130252Y-119850500D01*
X168869748Y-119850500D01*
X168928231Y-119838867D01*
X168965276Y-119814114D01*
X169012192Y-119804781D01*
X169034724Y-119814114D01*
X169071766Y-119838865D01*
X169071769Y-119838867D01*
X169130252Y-119850500D01*
X169869748Y-119850500D01*
X169928231Y-119838867D01*
X169965276Y-119814114D01*
X170012192Y-119804781D01*
X170034724Y-119814114D01*
X170071766Y-119838865D01*
X170071769Y-119838867D01*
X170130252Y-119850500D01*
X170869748Y-119850500D01*
X170928231Y-119838867D01*
X170965276Y-119814114D01*
X171012192Y-119804781D01*
X171034724Y-119814114D01*
X171071766Y-119838865D01*
X171071769Y-119838867D01*
X171130252Y-119850500D01*
X171869748Y-119850500D01*
X171928231Y-119838867D01*
X171965276Y-119814114D01*
X172012192Y-119804781D01*
X172034724Y-119814114D01*
X172071766Y-119838865D01*
X172071769Y-119838867D01*
X172130252Y-119850500D01*
X172869748Y-119850500D01*
X172928231Y-119838867D01*
X172965276Y-119814114D01*
X173012192Y-119804781D01*
X173034724Y-119814114D01*
X173071766Y-119838865D01*
X173071769Y-119838867D01*
X173130252Y-119850500D01*
X173869748Y-119850500D01*
X173928231Y-119838867D01*
X173965276Y-119814114D01*
X174012192Y-119804781D01*
X174034724Y-119814114D01*
X174071766Y-119838865D01*
X174071769Y-119838867D01*
X174130252Y-119850500D01*
X174869748Y-119850500D01*
X174928231Y-119838867D01*
X174994552Y-119794552D01*
X174996486Y-119791658D01*
X175004026Y-119780374D01*
X175043799Y-119753797D01*
X175090715Y-119763129D01*
X175090717Y-119763129D01*
X175100447Y-119769631D01*
X175137493Y-119777000D01*
X175347600Y-119777000D01*
X175347600Y-115223000D01*
X175137493Y-115223000D01*
X175100446Y-115230369D01*
X175100443Y-115230370D01*
X175090714Y-115236871D01*
X175043798Y-115246202D01*
X175004026Y-115219626D01*
X174994552Y-115205447D01*
X174928232Y-115161133D01*
X174928230Y-115161132D01*
X174869748Y-115149500D01*
X174130252Y-115149500D01*
X174130248Y-115149500D01*
X174075192Y-115160451D01*
X174028276Y-115151118D01*
X174001701Y-115111344D01*
X174000500Y-115099152D01*
X174000500Y-113834109D01*
X174000498Y-113834101D01*
X173966393Y-113706817D01*
X173966392Y-113706814D01*
X173942769Y-113665898D01*
X173900500Y-113592686D01*
X173900498Y-113592684D01*
X173900495Y-113592680D01*
X173807319Y-113499504D01*
X173807315Y-113499501D01*
X173807314Y-113499500D01*
X173728258Y-113453857D01*
X173693185Y-113433607D01*
X173693182Y-113433606D01*
X173565898Y-113399501D01*
X173565893Y-113399500D01*
X173565892Y-113399500D01*
X173434108Y-113399500D01*
X173434107Y-113399500D01*
X173434101Y-113399501D01*
X173306817Y-113433606D01*
X173306814Y-113433607D01*
X173192684Y-113499501D01*
X173192680Y-113499504D01*
X173099504Y-113592680D01*
X173099501Y-113592684D01*
X173033607Y-113706814D01*
X173033606Y-113706817D01*
X172999501Y-113834101D01*
X172999500Y-113834109D01*
X172999500Y-115099152D01*
X172981194Y-115143346D01*
X172937000Y-115161652D01*
X172924808Y-115160451D01*
X172869751Y-115149500D01*
X172869748Y-115149500D01*
X172130252Y-115149500D01*
X172071769Y-115161132D01*
X172071767Y-115161133D01*
X172034723Y-115185886D01*
X171987807Y-115195218D01*
X171965277Y-115185886D01*
X171928232Y-115161133D01*
X171928230Y-115161132D01*
X171869748Y-115149500D01*
X171130252Y-115149500D01*
X171071769Y-115161132D01*
X171071767Y-115161133D01*
X171034723Y-115185886D01*
X170987807Y-115195218D01*
X170965277Y-115185886D01*
X170928232Y-115161133D01*
X170928230Y-115161132D01*
X170869748Y-115149500D01*
X170130252Y-115149500D01*
X170071769Y-115161132D01*
X170071767Y-115161133D01*
X170034723Y-115185886D01*
X169987807Y-115195218D01*
X169965277Y-115185886D01*
X169928232Y-115161133D01*
X169928230Y-115161132D01*
X169869748Y-115149500D01*
X169130252Y-115149500D01*
X169071769Y-115161132D01*
X169071767Y-115161133D01*
X169034723Y-115185886D01*
X168987807Y-115195218D01*
X168965277Y-115185886D01*
X168928232Y-115161133D01*
X168928230Y-115161132D01*
X168869748Y-115149500D01*
X168130252Y-115149500D01*
X168071769Y-115161132D01*
X168071767Y-115161133D01*
X168034723Y-115185886D01*
X167987807Y-115195218D01*
X167965277Y-115185886D01*
X167928232Y-115161133D01*
X167928230Y-115161132D01*
X167869748Y-115149500D01*
X167130252Y-115149500D01*
X167071769Y-115161132D01*
X167071767Y-115161133D01*
X167034723Y-115185886D01*
X166987807Y-115195218D01*
X166965277Y-115185886D01*
X166928232Y-115161133D01*
X166928230Y-115161132D01*
X166869748Y-115149500D01*
X166130252Y-115149500D01*
X166071769Y-115161132D01*
X166071767Y-115161133D01*
X166034723Y-115185886D01*
X165987807Y-115195218D01*
X165965277Y-115185886D01*
X165928232Y-115161133D01*
X165928230Y-115161132D01*
X165869748Y-115149500D01*
X165130252Y-115149500D01*
X165071769Y-115161132D01*
X165071767Y-115161133D01*
X165034723Y-115185886D01*
X164987807Y-115195218D01*
X164965277Y-115185886D01*
X164928232Y-115161133D01*
X164928230Y-115161132D01*
X164869748Y-115149500D01*
X164130252Y-115149500D01*
X164071769Y-115161132D01*
X164071767Y-115161133D01*
X164034723Y-115185886D01*
X163987807Y-115195218D01*
X163965277Y-115185886D01*
X163928232Y-115161133D01*
X163928230Y-115161132D01*
X163869748Y-115149500D01*
X163130252Y-115149500D01*
X163071769Y-115161132D01*
X163071767Y-115161133D01*
X163034723Y-115185886D01*
X162987807Y-115195218D01*
X162965277Y-115185886D01*
X162928232Y-115161133D01*
X162928230Y-115161132D01*
X162869748Y-115149500D01*
X162130252Y-115149500D01*
X162071769Y-115161132D01*
X162071767Y-115161133D01*
X162034723Y-115185886D01*
X161987807Y-115195218D01*
X161965277Y-115185886D01*
X161928232Y-115161133D01*
X161928230Y-115161132D01*
X161869748Y-115149500D01*
X161130252Y-115149500D01*
X161071769Y-115161132D01*
X161071767Y-115161133D01*
X161034723Y-115185886D01*
X160987807Y-115195218D01*
X160965277Y-115185886D01*
X160928232Y-115161133D01*
X160928230Y-115161132D01*
X160869748Y-115149500D01*
X160130252Y-115149500D01*
X160071769Y-115161132D01*
X160071767Y-115161133D01*
X160034723Y-115185886D01*
X159987807Y-115195218D01*
X159965277Y-115185886D01*
X159928232Y-115161133D01*
X159928230Y-115161132D01*
X159869748Y-115149500D01*
X159130252Y-115149500D01*
X159071769Y-115161132D01*
X159071767Y-115161133D01*
X159034723Y-115185886D01*
X158987807Y-115195218D01*
X158965277Y-115185886D01*
X158928232Y-115161133D01*
X158928230Y-115161132D01*
X158869748Y-115149500D01*
X158130252Y-115149500D01*
X158071769Y-115161132D01*
X158071767Y-115161133D01*
X158034723Y-115185886D01*
X157987807Y-115195218D01*
X157965277Y-115185886D01*
X157928232Y-115161133D01*
X157928230Y-115161132D01*
X157869748Y-115149500D01*
X157130252Y-115149500D01*
X157071769Y-115161132D01*
X157071767Y-115161133D01*
X157034723Y-115185886D01*
X156987807Y-115195218D01*
X156965277Y-115185886D01*
X156928232Y-115161133D01*
X156928230Y-115161132D01*
X156869748Y-115149500D01*
X156130252Y-115149500D01*
X156071769Y-115161132D01*
X156071767Y-115161133D01*
X156034723Y-115185886D01*
X155987807Y-115195218D01*
X155965277Y-115185886D01*
X155928232Y-115161133D01*
X155928230Y-115161132D01*
X155869748Y-115149500D01*
X155130252Y-115149500D01*
X155071769Y-115161132D01*
X155071767Y-115161133D01*
X155034723Y-115185886D01*
X154987807Y-115195218D01*
X154965277Y-115185886D01*
X154928232Y-115161133D01*
X154928230Y-115161132D01*
X154869748Y-115149500D01*
X154130252Y-115149500D01*
X154071769Y-115161132D01*
X154071767Y-115161133D01*
X154034723Y-115185886D01*
X153987807Y-115195218D01*
X153965277Y-115185886D01*
X153928232Y-115161133D01*
X153928230Y-115161132D01*
X153869748Y-115149500D01*
X153130252Y-115149500D01*
X153071769Y-115161132D01*
X153071767Y-115161133D01*
X153034723Y-115185886D01*
X152987807Y-115195218D01*
X152965277Y-115185886D01*
X152928232Y-115161133D01*
X152928230Y-115161132D01*
X152869748Y-115149500D01*
X152130252Y-115149500D01*
X152071769Y-115161132D01*
X152071767Y-115161133D01*
X152034723Y-115185886D01*
X151987807Y-115195218D01*
X151965277Y-115185886D01*
X151928232Y-115161133D01*
X151928230Y-115161132D01*
X151869748Y-115149500D01*
X151130252Y-115149500D01*
X151071769Y-115161132D01*
X151071767Y-115161133D01*
X151034723Y-115185886D01*
X150987807Y-115195218D01*
X150965277Y-115185886D01*
X150928232Y-115161133D01*
X150928230Y-115161132D01*
X150869748Y-115149500D01*
X150130252Y-115149500D01*
X150071769Y-115161132D01*
X150071767Y-115161133D01*
X150034723Y-115185886D01*
X149987807Y-115195218D01*
X149974140Y-115190818D01*
X149969502Y-115188710D01*
X149928231Y-115161133D01*
X149893722Y-115154268D01*
X149887140Y-115151277D01*
X149875368Y-115138680D01*
X149861032Y-115129100D01*
X149858444Y-115120568D01*
X149854480Y-115116326D01*
X149854749Y-115108386D01*
X149850500Y-115094378D01*
X149850500Y-114271070D01*
X149868806Y-114226876D01*
X149976876Y-114118806D01*
X150021070Y-114100500D01*
X150065891Y-114100500D01*
X150065892Y-114100500D01*
X150193186Y-114066392D01*
X150307314Y-114000500D01*
X150400500Y-113907314D01*
X150466392Y-113793186D01*
X150500500Y-113665892D01*
X150500500Y-113534108D01*
X150466392Y-113406814D01*
X150400500Y-113292686D01*
X150400498Y-113292684D01*
X150400495Y-113292680D01*
X150307319Y-113199504D01*
X150307315Y-113199501D01*
X150307314Y-113199500D01*
X150250250Y-113166554D01*
X150193185Y-113133607D01*
X150193182Y-113133606D01*
X150065898Y-113099501D01*
X150065893Y-113099500D01*
X150065892Y-113099500D01*
X149934108Y-113099500D01*
X149934107Y-113099500D01*
X149934101Y-113099501D01*
X149806817Y-113133606D01*
X149806814Y-113133607D01*
X149692684Y-113199501D01*
X149692680Y-113199504D01*
X149599504Y-113292680D01*
X149599501Y-113292684D01*
X149533607Y-113406814D01*
X149533606Y-113406817D01*
X149499501Y-113534101D01*
X149499500Y-113534109D01*
X149499500Y-113578930D01*
X149481194Y-113623124D01*
X149219530Y-113884787D01*
X149214253Y-113893927D01*
X149206525Y-113907314D01*
X149195478Y-113926446D01*
X149173386Y-113964710D01*
X149173384Y-113964715D01*
X149149501Y-114053849D01*
X149149500Y-114053857D01*
X149149500Y-115094378D01*
X149131194Y-115138572D01*
X149112860Y-115151277D01*
X149106277Y-115154268D01*
X149071769Y-115161133D01*
X149030497Y-115188710D01*
X149025860Y-115190818D01*
X149006653Y-115191469D01*
X148987807Y-115195218D01*
X148980867Y-115192343D01*
X148978052Y-115192439D01*
X148975627Y-115190173D01*
X148965277Y-115185886D01*
X148928231Y-115161133D01*
X148900805Y-115155677D01*
X148861032Y-115129100D01*
X148850500Y-115094378D01*
X148850500Y-113453857D01*
X148850498Y-113453849D01*
X148826615Y-113364715D01*
X148826612Y-113364708D01*
X148808873Y-113333982D01*
X148800500Y-113302733D01*
X148800500Y-113234109D01*
X148800498Y-113234101D01*
X148766393Y-113106817D01*
X148766392Y-113106814D01*
X148758523Y-113093185D01*
X148700500Y-112992686D01*
X148700498Y-112992684D01*
X148700495Y-112992680D01*
X148607319Y-112899504D01*
X148607315Y-112899501D01*
X148607314Y-112899500D01*
X148523161Y-112850914D01*
X148493185Y-112833607D01*
X148493182Y-112833606D01*
X148365898Y-112799501D01*
X148365893Y-112799500D01*
X148365892Y-112799500D01*
X148234108Y-112799500D01*
X148234107Y-112799500D01*
X148234101Y-112799501D01*
X148106817Y-112833606D01*
X148106814Y-112833607D01*
X147992684Y-112899501D01*
X147992680Y-112899504D01*
X147899504Y-112992680D01*
X147899501Y-112992684D01*
X147833607Y-113106814D01*
X147833606Y-113106817D01*
X147799501Y-113234101D01*
X147799500Y-113234109D01*
X147799500Y-113365890D01*
X147799501Y-113365898D01*
X147833606Y-113493182D01*
X147833607Y-113493185D01*
X147837542Y-113500000D01*
X147891054Y-113592686D01*
X147899501Y-113607315D01*
X147899504Y-113607319D01*
X147992680Y-113700495D01*
X147992684Y-113700498D01*
X147992686Y-113700500D01*
X148106814Y-113766392D01*
X148106816Y-113766392D01*
X148110596Y-113767958D01*
X148109601Y-113770359D01*
X148141108Y-113794504D01*
X148149500Y-113825787D01*
X148149500Y-115094378D01*
X148131194Y-115138572D01*
X148112860Y-115151277D01*
X148106277Y-115154268D01*
X148071769Y-115161133D01*
X148030497Y-115188710D01*
X148025860Y-115190818D01*
X148006653Y-115191469D01*
X147987807Y-115195218D01*
X147980867Y-115192343D01*
X147978052Y-115192439D01*
X147975627Y-115190173D01*
X147965277Y-115185886D01*
X147928232Y-115161133D01*
X147928230Y-115161132D01*
X147869748Y-115149500D01*
X147130252Y-115149500D01*
X147071769Y-115161132D01*
X147071767Y-115161133D01*
X147034723Y-115185886D01*
X146987807Y-115195218D01*
X146965277Y-115185886D01*
X146928232Y-115161133D01*
X146928230Y-115161132D01*
X146869748Y-115149500D01*
X146130252Y-115149500D01*
X146071769Y-115161132D01*
X146071767Y-115161133D01*
X146034723Y-115185886D01*
X145987807Y-115195218D01*
X145965277Y-115185886D01*
X145928232Y-115161133D01*
X145928230Y-115161132D01*
X145869748Y-115149500D01*
X145130252Y-115149500D01*
X145071769Y-115161132D01*
X145071767Y-115161133D01*
X145034723Y-115185886D01*
X144987807Y-115195218D01*
X144965277Y-115185886D01*
X144928232Y-115161133D01*
X144928230Y-115161132D01*
X144869748Y-115149500D01*
X144130252Y-115149500D01*
X144071769Y-115161132D01*
X144071767Y-115161133D01*
X144034723Y-115185886D01*
X143987807Y-115195218D01*
X143965277Y-115185886D01*
X143928232Y-115161133D01*
X143928230Y-115161132D01*
X143869748Y-115149500D01*
X143130252Y-115149500D01*
X143071769Y-115161132D01*
X143071767Y-115161133D01*
X143034723Y-115185886D01*
X142987807Y-115195218D01*
X142965277Y-115185886D01*
X142928232Y-115161133D01*
X142928230Y-115161132D01*
X142869748Y-115149500D01*
X142130252Y-115149500D01*
X142071769Y-115161132D01*
X142071767Y-115161133D01*
X142034723Y-115185886D01*
X141987807Y-115195218D01*
X141965277Y-115185886D01*
X141928232Y-115161133D01*
X141928230Y-115161132D01*
X141869748Y-115149500D01*
X141130252Y-115149500D01*
X141071769Y-115161132D01*
X141071767Y-115161133D01*
X141034723Y-115185886D01*
X140987807Y-115195218D01*
X140965277Y-115185886D01*
X140928232Y-115161133D01*
X140928230Y-115161132D01*
X140869748Y-115149500D01*
X140130252Y-115149500D01*
X140071769Y-115161132D01*
X140071767Y-115161133D01*
X140034723Y-115185886D01*
X139987807Y-115195218D01*
X139965277Y-115185886D01*
X139928232Y-115161133D01*
X139928230Y-115161132D01*
X139869748Y-115149500D01*
X139130252Y-115149500D01*
X139071769Y-115161132D01*
X139071767Y-115161133D01*
X139034723Y-115185886D01*
X138987807Y-115195218D01*
X138965277Y-115185886D01*
X138928232Y-115161133D01*
X138928230Y-115161132D01*
X138869748Y-115149500D01*
X138213000Y-115149500D01*
X138168806Y-115131194D01*
X138150500Y-115087000D01*
X138150500Y-113399348D01*
X138150500Y-113399344D01*
X138115543Y-113201091D01*
X138046690Y-113011920D01*
X137946035Y-112837579D01*
X137946032Y-112837575D01*
X137816634Y-112683365D01*
X137662424Y-112553967D01*
X137645356Y-112544113D01*
X137488080Y-112453310D01*
X137298909Y-112384457D01*
X137100656Y-112349500D01*
X136899344Y-112349500D01*
X136701091Y-112384457D01*
X136511919Y-112453310D01*
X136337575Y-112553967D01*
X136183365Y-112683365D01*
X136053967Y-112837575D01*
X135953310Y-113011919D01*
X135923733Y-113093182D01*
X135884457Y-113201091D01*
X135849500Y-113399344D01*
X135849500Y-113399348D01*
X135849500Y-115087000D01*
X135831194Y-115131194D01*
X135787000Y-115149500D01*
X135130252Y-115149500D01*
X135071769Y-115161132D01*
X135071767Y-115161133D01*
X135034723Y-115185886D01*
X134987807Y-115195218D01*
X134965277Y-115185886D01*
X134928232Y-115161133D01*
X134928230Y-115161132D01*
X134869748Y-115149500D01*
X134130252Y-115149500D01*
X134071769Y-115161132D01*
X134071767Y-115161133D01*
X134034723Y-115185886D01*
X133987807Y-115195218D01*
X133965277Y-115185886D01*
X133928232Y-115161133D01*
X133928230Y-115161132D01*
X133869748Y-115149500D01*
X133130252Y-115149500D01*
X133071769Y-115161132D01*
X133071767Y-115161133D01*
X133034723Y-115185886D01*
X132987807Y-115195218D01*
X132965277Y-115185886D01*
X132928232Y-115161133D01*
X132928230Y-115161132D01*
X132869748Y-115149500D01*
X132130252Y-115149500D01*
X132071769Y-115161132D01*
X132071767Y-115161133D01*
X132034723Y-115185886D01*
X131987807Y-115195218D01*
X131965277Y-115185886D01*
X131928232Y-115161133D01*
X131928230Y-115161132D01*
X131869748Y-115149500D01*
X131130252Y-115149500D01*
X131071769Y-115161132D01*
X131071767Y-115161133D01*
X131034723Y-115185886D01*
X130987807Y-115195218D01*
X130965277Y-115185886D01*
X130928232Y-115161133D01*
X130928230Y-115161132D01*
X130869748Y-115149500D01*
X130130252Y-115149500D01*
X130071769Y-115161132D01*
X130071767Y-115161133D01*
X130034723Y-115185886D01*
X129987807Y-115195218D01*
X129974140Y-115190818D01*
X129969502Y-115188710D01*
X129928231Y-115161133D01*
X129893722Y-115154268D01*
X129887140Y-115151277D01*
X129875368Y-115138680D01*
X129861032Y-115129100D01*
X129858444Y-115120568D01*
X129854480Y-115116326D01*
X129854749Y-115108386D01*
X129850500Y-115094378D01*
X129850500Y-113425787D01*
X129868806Y-113381593D01*
X129889989Y-113369371D01*
X129889404Y-113367958D01*
X129893180Y-113366393D01*
X129893186Y-113366392D01*
X130007314Y-113300500D01*
X130100500Y-113207314D01*
X130166392Y-113093186D01*
X130200500Y-112965892D01*
X130200500Y-112834108D01*
X130166392Y-112706814D01*
X130100500Y-112592686D01*
X130100498Y-112592684D01*
X130100495Y-112592680D01*
X130007319Y-112499504D01*
X130007315Y-112499501D01*
X130007314Y-112499500D01*
X129915590Y-112446543D01*
X129893185Y-112433607D01*
X129893182Y-112433606D01*
X129765898Y-112399501D01*
X129765893Y-112399500D01*
X129765892Y-112399500D01*
X129634108Y-112399500D01*
X129634107Y-112399500D01*
X129634101Y-112399501D01*
X129506817Y-112433606D01*
X129506814Y-112433607D01*
X129392684Y-112499501D01*
X129392680Y-112499504D01*
X129299504Y-112592680D01*
X129299501Y-112592684D01*
X129233607Y-112706814D01*
X129233606Y-112706817D01*
X129199501Y-112834101D01*
X129199500Y-112834109D01*
X129199500Y-112902733D01*
X129191128Y-112933981D01*
X129185915Y-112943011D01*
X129185914Y-112943012D01*
X129173387Y-112964709D01*
X129173384Y-112964715D01*
X129149501Y-113053849D01*
X129149500Y-113053857D01*
X129149500Y-115094378D01*
X129131194Y-115138572D01*
X129112860Y-115151277D01*
X129106277Y-115154268D01*
X129071769Y-115161133D01*
X129030497Y-115188710D01*
X129025860Y-115190818D01*
X129006653Y-115191469D01*
X128987807Y-115195218D01*
X128980867Y-115192343D01*
X128978052Y-115192439D01*
X128975627Y-115190173D01*
X128965277Y-115185886D01*
X128928231Y-115161133D01*
X128900805Y-115155677D01*
X128861032Y-115129100D01*
X128850500Y-115094378D01*
X128850500Y-111153857D01*
X128850498Y-111153849D01*
X128826615Y-111064715D01*
X128826611Y-111064706D01*
X128780471Y-110984790D01*
X128780464Y-110984781D01*
X128022891Y-110227209D01*
X128012958Y-110214264D01*
X128000500Y-110192686D01*
X127907319Y-110099504D01*
X127907315Y-110099501D01*
X127907314Y-110099500D01*
X127850250Y-110066554D01*
X127793185Y-110033607D01*
X127793182Y-110033606D01*
X127665898Y-109999501D01*
X127665893Y-109999500D01*
X127665892Y-109999500D01*
X127534108Y-109999500D01*
X127534107Y-109999500D01*
X127534101Y-109999501D01*
X127406817Y-110033606D01*
X127406814Y-110033607D01*
X127292684Y-110099501D01*
X127292680Y-110099504D01*
X127199504Y-110192680D01*
X127199501Y-110192684D01*
X127133607Y-110306814D01*
X127133606Y-110306817D01*
X127099501Y-110434101D01*
X127099500Y-110434109D01*
X127099500Y-110565890D01*
X127099501Y-110565898D01*
X127133606Y-110693182D01*
X127133607Y-110693185D01*
X127199501Y-110807315D01*
X127199504Y-110807319D01*
X127292680Y-110900495D01*
X127292684Y-110900498D01*
X127292686Y-110900500D01*
X127406814Y-110966392D01*
X127406817Y-110966393D01*
X127475443Y-110984781D01*
X127534108Y-111000500D01*
X127534109Y-111000500D01*
X127665892Y-111000500D01*
X127740604Y-110980480D01*
X127788029Y-110986723D01*
X127800974Y-110996656D01*
X128131194Y-111326876D01*
X128149500Y-111371070D01*
X128149500Y-115094378D01*
X128131194Y-115138572D01*
X128112860Y-115151277D01*
X128106277Y-115154268D01*
X128071769Y-115161133D01*
X128030497Y-115188710D01*
X128025860Y-115190818D01*
X128006653Y-115191469D01*
X127987807Y-115195218D01*
X127980867Y-115192343D01*
X127978052Y-115192439D01*
X127975627Y-115190173D01*
X127965277Y-115185886D01*
X127928232Y-115161133D01*
X127928230Y-115161132D01*
X127869748Y-115149500D01*
X127130252Y-115149500D01*
X127071769Y-115161132D01*
X127071767Y-115161133D01*
X127034723Y-115185886D01*
X126987807Y-115195218D01*
X126965277Y-115185886D01*
X126928232Y-115161133D01*
X126928230Y-115161132D01*
X126869748Y-115149500D01*
X126130252Y-115149500D01*
X126071769Y-115161132D01*
X126071767Y-115161133D01*
X126005446Y-115205448D01*
X126005445Y-115205449D01*
X125995971Y-115219628D01*
X125956197Y-115246203D01*
X125909283Y-115236870D01*
X125899553Y-115230369D01*
X125862507Y-115223000D01*
X125652400Y-115223000D01*
X125652400Y-119777000D01*
X125862507Y-119777000D01*
X125899553Y-119769630D01*
X125899555Y-119769629D01*
X125909281Y-119763131D01*
X125956197Y-119753796D01*
X125995971Y-119780371D01*
X125995972Y-119780372D01*
X126005446Y-119794551D01*
X126071767Y-119838866D01*
X126071769Y-119838867D01*
X126130252Y-119850500D01*
X126869748Y-119850500D01*
X126928231Y-119838867D01*
X126965276Y-119814114D01*
X127012192Y-119804781D01*
X127034724Y-119814114D01*
X127071766Y-119838865D01*
X127071769Y-119838867D01*
X127130252Y-119850500D01*
X127869748Y-119850500D01*
X127928231Y-119838867D01*
X127965276Y-119814114D01*
X128012192Y-119804781D01*
X128034724Y-119814114D01*
X128071766Y-119838865D01*
X128071769Y-119838867D01*
X128130252Y-119850500D01*
X128869748Y-119850500D01*
X128928231Y-119838867D01*
X128965276Y-119814114D01*
X129012192Y-119804781D01*
X129034724Y-119814114D01*
X129071766Y-119838865D01*
X129071769Y-119838867D01*
X129130252Y-119850500D01*
X129869748Y-119850500D01*
X129928231Y-119838867D01*
X129965276Y-119814114D01*
X130012192Y-119804781D01*
X130034724Y-119814114D01*
X130071766Y-119838865D01*
X130071769Y-119838867D01*
X130130252Y-119850500D01*
X130869748Y-119850500D01*
X130928231Y-119838867D01*
X130965276Y-119814114D01*
X131012192Y-119804781D01*
X131034724Y-119814114D01*
X131071766Y-119838865D01*
X131071769Y-119838867D01*
X131130252Y-119850500D01*
X131869748Y-119850500D01*
X131928231Y-119838867D01*
X131965276Y-119814114D01*
X132012192Y-119804781D01*
X132034724Y-119814114D01*
X132071766Y-119838865D01*
X132071769Y-119838867D01*
X132130252Y-119850500D01*
X132869748Y-119850500D01*
X132928231Y-119838867D01*
X132965276Y-119814114D01*
X133012192Y-119804781D01*
X133034724Y-119814114D01*
X133071766Y-119838865D01*
X133071769Y-119838867D01*
X133130252Y-119850500D01*
X133869748Y-119850500D01*
X133928231Y-119838867D01*
X133965276Y-119814114D01*
X134012192Y-119804781D01*
X134034724Y-119814114D01*
X134071766Y-119838865D01*
X134071769Y-119838867D01*
X134130252Y-119850500D01*
X134869748Y-119850500D01*
X134928231Y-119838867D01*
X134965276Y-119814114D01*
X135012192Y-119804781D01*
X135034724Y-119814114D01*
X135071766Y-119838865D01*
X135071769Y-119838867D01*
X135130252Y-119850500D01*
X135787000Y-119850500D01*
X135831194Y-119868806D01*
X135849500Y-119913000D01*
X135849500Y-120341062D01*
X135831194Y-120385256D01*
X135485256Y-120731194D01*
X135441062Y-120749500D01*
X125458938Y-120749500D01*
X125414744Y-120731194D01*
X125068806Y-120385256D01*
X125050500Y-120341062D01*
X125050500Y-119835852D01*
X125068806Y-119791658D01*
X125113000Y-119773352D01*
X125125196Y-119774553D01*
X125137495Y-119777000D01*
X125347600Y-119777000D01*
X125347600Y-115223000D01*
X125137488Y-115223000D01*
X125125192Y-115225446D01*
X125078276Y-115216113D01*
X125051701Y-115176339D01*
X125050500Y-115164147D01*
X125050500Y-112460120D01*
X125050500Y-112460118D01*
X125019976Y-112386426D01*
X124963574Y-112330024D01*
X124889882Y-112299500D01*
X124889881Y-112299500D01*
X115504910Y-112299500D01*
X115495133Y-112298730D01*
X115417229Y-112286391D01*
X115398631Y-112280349D01*
X115332776Y-112246794D01*
X115316957Y-112235300D01*
X115264699Y-112183042D01*
X115253205Y-112167223D01*
X115219649Y-112101365D01*
X115213610Y-112082780D01*
X115201268Y-112004855D01*
X115200500Y-111995090D01*
X115200500Y-102834109D01*
X125299500Y-102834109D01*
X125299500Y-102965890D01*
X125299501Y-102965898D01*
X125333606Y-103093182D01*
X125333607Y-103093185D01*
X125399501Y-103207315D01*
X125399504Y-103207319D01*
X125492680Y-103300495D01*
X125492684Y-103300498D01*
X125492686Y-103300500D01*
X125593791Y-103358873D01*
X125606814Y-103366392D01*
X125606817Y-103366393D01*
X125615823Y-103368806D01*
X125734108Y-103400500D01*
X125734109Y-103400500D01*
X125865891Y-103400500D01*
X125865892Y-103400500D01*
X125993186Y-103366392D01*
X125998909Y-103363087D01*
X126006210Y-103358873D01*
X126037459Y-103350500D01*
X161516798Y-103350500D01*
X161560992Y-103368806D01*
X161592686Y-103400500D01*
X161706814Y-103466392D01*
X161706817Y-103466393D01*
X161784712Y-103487264D01*
X161834108Y-103500500D01*
X161834109Y-103500500D01*
X161965891Y-103500500D01*
X161965892Y-103500500D01*
X162093186Y-103466392D01*
X162207314Y-103400500D01*
X162300500Y-103307314D01*
X162366392Y-103193186D01*
X162400500Y-103065892D01*
X162400500Y-102934108D01*
X162373705Y-102834108D01*
X162366393Y-102806817D01*
X162366392Y-102806814D01*
X162300500Y-102692686D01*
X162300498Y-102692684D01*
X162300495Y-102692680D01*
X162207319Y-102599504D01*
X162207315Y-102599501D01*
X162207314Y-102599500D01*
X162150250Y-102566554D01*
X162093185Y-102533607D01*
X162093182Y-102533606D01*
X161965898Y-102499501D01*
X161965893Y-102499500D01*
X161965892Y-102499500D01*
X161834108Y-102499500D01*
X161834107Y-102499500D01*
X161834101Y-102499501D01*
X161706817Y-102533606D01*
X161706814Y-102533607D01*
X161592684Y-102599501D01*
X161576838Y-102615347D01*
X161560991Y-102631194D01*
X161516799Y-102649500D01*
X126269386Y-102649500D01*
X126225192Y-102631194D01*
X126215260Y-102618250D01*
X126200502Y-102592689D01*
X126200495Y-102592680D01*
X126107319Y-102499504D01*
X126107315Y-102499501D01*
X126107314Y-102499500D01*
X126049969Y-102466392D01*
X125993185Y-102433607D01*
X125993182Y-102433606D01*
X125865898Y-102399501D01*
X125865893Y-102399500D01*
X125865892Y-102399500D01*
X125734108Y-102399500D01*
X125734107Y-102399500D01*
X125734101Y-102399501D01*
X125606817Y-102433606D01*
X125606814Y-102433607D01*
X125492684Y-102499501D01*
X125492680Y-102499504D01*
X125399504Y-102592680D01*
X125399501Y-102592684D01*
X125333607Y-102706814D01*
X125333606Y-102706817D01*
X125299501Y-102834101D01*
X125299500Y-102834109D01*
X115200500Y-102834109D01*
X115200500Y-100934109D01*
X128099500Y-100934109D01*
X128099500Y-101065890D01*
X128099501Y-101065898D01*
X128133606Y-101193182D01*
X128133607Y-101193185D01*
X128166121Y-101249500D01*
X128185813Y-101283608D01*
X128199501Y-101307315D01*
X128199504Y-101307319D01*
X128292680Y-101400495D01*
X128292684Y-101400498D01*
X128292686Y-101400500D01*
X128390883Y-101457194D01*
X128406814Y-101466392D01*
X128406817Y-101466393D01*
X128476242Y-101484995D01*
X128534108Y-101500500D01*
X128534109Y-101500500D01*
X128665891Y-101500500D01*
X128665892Y-101500500D01*
X128793186Y-101466392D01*
X128907314Y-101400500D01*
X128939008Y-101368805D01*
X128983201Y-101350500D01*
X137007703Y-101350500D01*
X137051897Y-101368806D01*
X137070203Y-101413000D01*
X137051897Y-101457194D01*
X137047737Y-101460995D01*
X137043609Y-101464437D01*
X137034788Y-101469531D01*
X137021134Y-101483184D01*
X137018964Y-101484995D01*
X136998619Y-101491344D01*
X136978930Y-101499500D01*
X136934108Y-101499500D01*
X136934107Y-101499500D01*
X136934101Y-101499501D01*
X136806817Y-101533606D01*
X136806814Y-101533607D01*
X136692684Y-101599501D01*
X136692680Y-101599504D01*
X136599504Y-101692680D01*
X136599501Y-101692684D01*
X136533607Y-101806814D01*
X136533606Y-101806817D01*
X136499501Y-101934101D01*
X136499500Y-101934109D01*
X136499500Y-102065890D01*
X136499501Y-102065898D01*
X136533606Y-102193182D01*
X136533607Y-102193185D01*
X136599501Y-102307315D01*
X136599504Y-102307319D01*
X136692680Y-102400495D01*
X136692684Y-102400498D01*
X136692686Y-102400500D01*
X136750031Y-102433608D01*
X136806814Y-102466392D01*
X136806817Y-102466393D01*
X136884712Y-102487264D01*
X136934108Y-102500500D01*
X136934109Y-102500500D01*
X137065891Y-102500500D01*
X137065892Y-102500500D01*
X137193186Y-102466392D01*
X137307314Y-102400500D01*
X137400500Y-102307314D01*
X137466392Y-102193186D01*
X137477830Y-102150500D01*
X137478815Y-102146824D01*
X137507935Y-102108873D01*
X137539185Y-102100500D01*
X161416798Y-102100500D01*
X161460992Y-102118806D01*
X161492686Y-102150500D01*
X161606814Y-102216392D01*
X161606817Y-102216393D01*
X161684712Y-102237264D01*
X161734108Y-102250500D01*
X161734109Y-102250500D01*
X161865891Y-102250500D01*
X161865892Y-102250500D01*
X161993186Y-102216392D01*
X162107314Y-102150500D01*
X162200500Y-102057314D01*
X162201411Y-102055736D01*
X172799500Y-102055736D01*
X172799500Y-103744271D01*
X172802354Y-103774699D01*
X172847207Y-103902883D01*
X172847207Y-103902884D01*
X172887528Y-103957516D01*
X172927850Y-104012150D01*
X173037117Y-104092793D01*
X173165300Y-104137646D01*
X173195733Y-104140500D01*
X176404266Y-104140499D01*
X176404271Y-104140499D01*
X176413399Y-104139642D01*
X176434700Y-104137646D01*
X176562883Y-104092793D01*
X176672150Y-104012150D01*
X176752793Y-103902883D01*
X176797646Y-103774700D01*
X176800500Y-103744267D01*
X176800499Y-102055734D01*
X176800499Y-102055733D01*
X176800499Y-102055728D01*
X176799471Y-102044774D01*
X176797646Y-102025300D01*
X176752793Y-101897117D01*
X176672150Y-101787850D01*
X176562883Y-101707207D01*
X176434702Y-101662354D01*
X176434697Y-101662353D01*
X176414700Y-101660478D01*
X176404267Y-101659500D01*
X176404263Y-101659500D01*
X173195728Y-101659500D01*
X173165300Y-101662354D01*
X173037116Y-101707207D01*
X173037115Y-101707207D01*
X172927850Y-101787850D01*
X172847207Y-101897115D01*
X172847207Y-101897116D01*
X172802354Y-102025297D01*
X172802353Y-102025302D01*
X172800233Y-102047907D01*
X172799501Y-102055728D01*
X172799500Y-102055736D01*
X162201411Y-102055736D01*
X162266392Y-101943186D01*
X162300500Y-101815892D01*
X162300500Y-101684108D01*
X162266392Y-101556814D01*
X162200500Y-101442686D01*
X162200498Y-101442684D01*
X162200495Y-101442680D01*
X162107319Y-101349504D01*
X162107315Y-101349501D01*
X162107314Y-101349500D01*
X162031537Y-101305750D01*
X161993185Y-101283607D01*
X161993182Y-101283606D01*
X161865898Y-101249501D01*
X161865893Y-101249500D01*
X161865892Y-101249500D01*
X161734108Y-101249500D01*
X161734107Y-101249500D01*
X161734101Y-101249501D01*
X161606817Y-101283606D01*
X161606814Y-101283607D01*
X161492684Y-101349501D01*
X161476838Y-101365347D01*
X161460991Y-101381194D01*
X161416799Y-101399500D01*
X143155529Y-101399500D01*
X143111335Y-101381194D01*
X143093029Y-101337000D01*
X143101403Y-101305750D01*
X143166389Y-101193191D01*
X143166388Y-101193191D01*
X143166392Y-101193186D01*
X143200500Y-101065892D01*
X143200500Y-100934108D01*
X143168959Y-100816393D01*
X143166393Y-100806817D01*
X143166392Y-100806814D01*
X143133879Y-100750500D01*
X143100500Y-100692686D01*
X143100498Y-100692684D01*
X143100495Y-100692680D01*
X143007319Y-100599504D01*
X143007315Y-100599501D01*
X143007314Y-100599500D01*
X142909769Y-100543182D01*
X142893185Y-100533607D01*
X142893182Y-100533606D01*
X142765898Y-100499501D01*
X142765893Y-100499500D01*
X142765892Y-100499500D01*
X142634108Y-100499500D01*
X142634107Y-100499500D01*
X142634101Y-100499501D01*
X142506817Y-100533606D01*
X142506814Y-100533607D01*
X142392684Y-100599501D01*
X142379186Y-100613000D01*
X142360991Y-100631194D01*
X142316799Y-100649500D01*
X128983202Y-100649500D01*
X128939008Y-100631194D01*
X128907314Y-100599500D01*
X128809769Y-100543182D01*
X128793185Y-100533607D01*
X128793182Y-100533606D01*
X128665898Y-100499501D01*
X128665893Y-100499500D01*
X128665892Y-100499500D01*
X128534108Y-100499500D01*
X128534107Y-100499500D01*
X128534101Y-100499501D01*
X128406817Y-100533606D01*
X128406814Y-100533607D01*
X128292684Y-100599501D01*
X128292680Y-100599504D01*
X128199504Y-100692680D01*
X128199501Y-100692684D01*
X128133607Y-100806814D01*
X128133606Y-100806817D01*
X128099501Y-100934101D01*
X128099500Y-100934109D01*
X115200500Y-100934109D01*
X115200500Y-100434109D01*
X155999500Y-100434109D01*
X155999500Y-100565890D01*
X155999501Y-100565898D01*
X156033606Y-100693182D01*
X156033607Y-100693185D01*
X156033608Y-100693186D01*
X156099211Y-100806814D01*
X156099501Y-100807315D01*
X156099504Y-100807319D01*
X156192680Y-100900495D01*
X156192684Y-100900498D01*
X156192686Y-100900500D01*
X156306814Y-100966392D01*
X156306817Y-100966393D01*
X156384712Y-100987264D01*
X156434108Y-101000500D01*
X156434109Y-101000500D01*
X156565891Y-101000500D01*
X156565892Y-101000500D01*
X156693186Y-100966392D01*
X156807314Y-100900500D01*
X156900500Y-100807314D01*
X156966392Y-100693186D01*
X156992212Y-100596824D01*
X157021332Y-100558874D01*
X157052582Y-100550500D01*
X158182000Y-100550500D01*
X158226194Y-100568806D01*
X158244500Y-100613000D01*
X158244500Y-100949997D01*
X158249651Y-100995728D01*
X158289333Y-101078127D01*
X158360834Y-101135147D01*
X158360837Y-101135149D01*
X158450000Y-101155500D01*
X159450011Y-101155500D01*
X159467480Y-101154756D01*
X159467483Y-101154755D01*
X159467487Y-101154755D01*
X159554595Y-101126890D01*
X159558960Y-101122754D01*
X159603627Y-101105647D01*
X159640914Y-101119261D01*
X159650480Y-101126890D01*
X159660837Y-101135149D01*
X159750000Y-101155500D01*
X160899998Y-101155500D01*
X160900000Y-101155500D01*
X160945728Y-101150348D01*
X161028127Y-101110666D01*
X161085149Y-101039163D01*
X161105500Y-100950000D01*
X161105500Y-100613000D01*
X161123806Y-100568806D01*
X161168000Y-100550500D01*
X161401746Y-100550500D01*
X161445940Y-100568806D01*
X161455872Y-100581750D01*
X161499497Y-100657310D01*
X161499504Y-100657319D01*
X161592680Y-100750495D01*
X161592684Y-100750498D01*
X161592686Y-100750500D01*
X161691092Y-100807315D01*
X161706814Y-100816392D01*
X161706817Y-100816393D01*
X161784712Y-100837264D01*
X161834108Y-100850500D01*
X161834109Y-100850500D01*
X161965891Y-100850500D01*
X161965892Y-100850500D01*
X162093186Y-100816392D01*
X162207314Y-100750500D01*
X162300500Y-100657314D01*
X162366392Y-100543186D01*
X162400500Y-100415892D01*
X162400500Y-100284108D01*
X162366392Y-100156814D01*
X162300500Y-100042686D01*
X162300498Y-100042684D01*
X162300495Y-100042680D01*
X162207319Y-99949504D01*
X162207315Y-99949501D01*
X162207314Y-99949500D01*
X162150250Y-99916554D01*
X162093185Y-99883607D01*
X162093182Y-99883606D01*
X161965898Y-99849501D01*
X161965893Y-99849500D01*
X161965892Y-99849500D01*
X161834108Y-99849500D01*
X161834103Y-99849500D01*
X161831296Y-99850253D01*
X161798948Y-99850251D01*
X161796148Y-99849500D01*
X161796144Y-99849500D01*
X161168000Y-99849500D01*
X161123806Y-99831194D01*
X161105500Y-99787000D01*
X161105500Y-99450002D01*
X161100348Y-99404271D01*
X161060666Y-99321872D01*
X160989165Y-99264852D01*
X160989163Y-99264851D01*
X160900000Y-99244500D01*
X159750000Y-99244500D01*
X159676916Y-99257934D01*
X159676914Y-99257935D01*
X159635126Y-99285794D01*
X159588200Y-99295077D01*
X159561490Y-99282656D01*
X159539163Y-99264851D01*
X159539161Y-99264850D01*
X159539162Y-99264850D01*
X159450000Y-99244500D01*
X158450000Y-99244500D01*
X158442300Y-99245367D01*
X158404271Y-99249651D01*
X158321872Y-99289333D01*
X158264852Y-99360834D01*
X158264851Y-99360836D01*
X158244500Y-99450000D01*
X158244500Y-99787000D01*
X158226194Y-99831194D01*
X158182000Y-99849500D01*
X156753856Y-99849500D01*
X156753855Y-99849500D01*
X156753849Y-99849501D01*
X156664715Y-99873384D01*
X156664712Y-99873385D01*
X156584786Y-99919531D01*
X156554818Y-99949500D01*
X156523123Y-99981194D01*
X156478930Y-99999500D01*
X156434108Y-99999500D01*
X156434107Y-99999500D01*
X156434101Y-99999501D01*
X156306817Y-100033606D01*
X156306814Y-100033607D01*
X156192684Y-100099501D01*
X156192680Y-100099504D01*
X156099504Y-100192680D01*
X156099501Y-100192684D01*
X156033607Y-100306814D01*
X156033606Y-100306817D01*
X155999501Y-100434101D01*
X155999500Y-100434109D01*
X115200500Y-100434109D01*
X115200500Y-97722373D01*
X172799500Y-97722373D01*
X172799500Y-97917626D01*
X172799501Y-97917642D01*
X172830044Y-98110478D01*
X172830047Y-98110491D01*
X172890381Y-98296181D01*
X172890383Y-98296188D01*
X172979029Y-98470164D01*
X173093799Y-98628132D01*
X173093802Y-98628135D01*
X173093805Y-98628139D01*
X173231860Y-98766194D01*
X173231863Y-98766196D01*
X173231868Y-98766201D01*
X173389836Y-98880971D01*
X173563813Y-98969617D01*
X173749516Y-99029955D01*
X173900826Y-99053920D01*
X173942357Y-99060498D01*
X173942363Y-99060498D01*
X173942371Y-99060500D01*
X173942373Y-99060500D01*
X175657627Y-99060500D01*
X175657629Y-99060500D01*
X175850484Y-99029955D01*
X176036187Y-98969617D01*
X176210164Y-98880971D01*
X176368132Y-98766201D01*
X176506201Y-98628132D01*
X176620971Y-98470164D01*
X176709617Y-98296187D01*
X176769955Y-98110484D01*
X176800500Y-97917629D01*
X176800500Y-97722371D01*
X176769955Y-97529516D01*
X176709617Y-97343813D01*
X176620971Y-97169836D01*
X176506201Y-97011868D01*
X176506196Y-97011863D01*
X176506194Y-97011860D01*
X176368139Y-96873805D01*
X176368135Y-96873802D01*
X176368132Y-96873799D01*
X176210164Y-96759029D01*
X176036188Y-96670383D01*
X176036181Y-96670381D01*
X175850491Y-96610047D01*
X175850488Y-96610046D01*
X175850484Y-96610045D01*
X175850478Y-96610044D01*
X175657642Y-96579501D01*
X175657630Y-96579500D01*
X175657629Y-96579500D01*
X173942371Y-96579500D01*
X173942369Y-96579500D01*
X173942357Y-96579501D01*
X173749521Y-96610044D01*
X173749518Y-96610044D01*
X173749516Y-96610045D01*
X173749514Y-96610045D01*
X173749508Y-96610047D01*
X173563818Y-96670381D01*
X173563811Y-96670383D01*
X173389835Y-96759029D01*
X173231860Y-96873805D01*
X173093805Y-97011860D01*
X172979029Y-97169835D01*
X172890383Y-97343811D01*
X172890381Y-97343818D01*
X172830047Y-97529508D01*
X172830044Y-97529521D01*
X172799501Y-97722357D01*
X172799500Y-97722373D01*
X115200500Y-97722373D01*
X115200500Y-96034109D01*
X122499500Y-96034109D01*
X122499500Y-96165890D01*
X122499501Y-96165898D01*
X122533606Y-96293182D01*
X122533607Y-96293185D01*
X122599501Y-96407315D01*
X122599504Y-96407319D01*
X122692680Y-96500495D01*
X122692684Y-96500498D01*
X122692686Y-96500500D01*
X122806814Y-96566392D01*
X122806817Y-96566393D01*
X122855734Y-96579500D01*
X122934108Y-96600500D01*
X122934109Y-96600500D01*
X123065891Y-96600500D01*
X123065892Y-96600500D01*
X123193186Y-96566392D01*
X123307314Y-96500500D01*
X123339008Y-96468805D01*
X123383201Y-96450500D01*
X157162541Y-96450500D01*
X157193790Y-96458873D01*
X157206810Y-96466390D01*
X157206812Y-96466390D01*
X157206814Y-96466392D01*
X157206815Y-96466392D01*
X157206817Y-96466393D01*
X157215823Y-96468806D01*
X157334108Y-96500500D01*
X157334109Y-96500500D01*
X157465891Y-96500500D01*
X157465892Y-96500500D01*
X157593186Y-96466392D01*
X157707314Y-96400500D01*
X157800500Y-96307314D01*
X157866392Y-96193186D01*
X157900500Y-96065892D01*
X157900500Y-95934108D01*
X157866932Y-95808829D01*
X157873175Y-95761404D01*
X157911126Y-95732284D01*
X157958550Y-95738526D01*
X157958552Y-95738527D01*
X157958552Y-95738528D01*
X158006808Y-95766389D01*
X158006811Y-95766390D01*
X158006814Y-95766392D01*
X158006815Y-95766392D01*
X158006817Y-95766393D01*
X158084712Y-95787264D01*
X158134108Y-95800500D01*
X158134109Y-95800500D01*
X158265891Y-95800500D01*
X158265892Y-95800500D01*
X158393186Y-95766392D01*
X158507314Y-95700500D01*
X158600500Y-95607314D01*
X158666392Y-95493186D01*
X158700500Y-95365892D01*
X158700500Y-95234108D01*
X158673705Y-95134108D01*
X158666393Y-95106817D01*
X158666390Y-95106810D01*
X158659138Y-95094249D01*
X158657008Y-95078073D01*
X158650765Y-95063000D01*
X158653997Y-95055196D01*
X158652895Y-95046823D01*
X158662827Y-95033879D01*
X158669071Y-95018806D01*
X158676874Y-95015573D01*
X158682016Y-95008873D01*
X158713265Y-95000500D01*
X158816798Y-95000500D01*
X158860992Y-95018806D01*
X158892686Y-95050500D01*
X158990230Y-95106817D01*
X159006814Y-95116392D01*
X159006817Y-95116393D01*
X159072932Y-95134108D01*
X159134108Y-95150500D01*
X159134109Y-95150500D01*
X159265891Y-95150500D01*
X159265892Y-95150500D01*
X159393186Y-95116392D01*
X159507314Y-95050500D01*
X159600500Y-94957314D01*
X159666392Y-94843186D01*
X159700500Y-94715892D01*
X159700500Y-94584108D01*
X159666392Y-94456814D01*
X159600500Y-94342686D01*
X159600498Y-94342684D01*
X159600495Y-94342680D01*
X159507319Y-94249504D01*
X159507315Y-94249501D01*
X159507314Y-94249500D01*
X159450250Y-94216554D01*
X159393185Y-94183607D01*
X159393182Y-94183606D01*
X159265898Y-94149501D01*
X159265893Y-94149500D01*
X159265892Y-94149500D01*
X159134108Y-94149500D01*
X159134107Y-94149500D01*
X159134101Y-94149501D01*
X159006817Y-94183606D01*
X159006814Y-94183607D01*
X158892684Y-94249501D01*
X158876838Y-94265347D01*
X158860991Y-94281194D01*
X158816799Y-94299500D01*
X133603856Y-94299500D01*
X133603855Y-94299500D01*
X133603849Y-94299501D01*
X133514715Y-94323384D01*
X133514706Y-94323388D01*
X133434790Y-94369528D01*
X133434781Y-94369535D01*
X133123124Y-94681194D01*
X133078930Y-94699500D01*
X133034108Y-94699500D01*
X133034107Y-94699500D01*
X133034101Y-94699501D01*
X132906817Y-94733606D01*
X132906814Y-94733607D01*
X132792684Y-94799501D01*
X132792680Y-94799504D01*
X132699504Y-94892680D01*
X132699501Y-94892684D01*
X132633607Y-95006814D01*
X132633606Y-95006817D01*
X132599501Y-95134101D01*
X132599500Y-95134109D01*
X132599500Y-95265890D01*
X132599501Y-95265898D01*
X132633606Y-95393182D01*
X132633607Y-95393185D01*
X132699501Y-95507315D01*
X132699504Y-95507319D01*
X132792680Y-95600495D01*
X132792689Y-95600502D01*
X132848758Y-95632874D01*
X132877878Y-95670824D01*
X132871634Y-95718250D01*
X132833684Y-95747370D01*
X132817508Y-95749500D01*
X123383202Y-95749500D01*
X123339008Y-95731194D01*
X123307314Y-95699500D01*
X123222444Y-95650500D01*
X123193185Y-95633607D01*
X123193182Y-95633606D01*
X123065898Y-95599501D01*
X123065893Y-95599500D01*
X123065892Y-95599500D01*
X122934108Y-95599500D01*
X122934107Y-95599500D01*
X122934101Y-95599501D01*
X122806817Y-95633606D01*
X122806814Y-95633607D01*
X122692684Y-95699501D01*
X122692680Y-95699504D01*
X122599504Y-95792680D01*
X122599501Y-95792684D01*
X122533607Y-95906814D01*
X122533606Y-95906817D01*
X122499501Y-96034101D01*
X122499500Y-96034109D01*
X115200500Y-96034109D01*
X115200500Y-91934109D01*
X142399500Y-91934109D01*
X142399500Y-92065890D01*
X142399501Y-92065898D01*
X142433606Y-92193182D01*
X142433607Y-92193185D01*
X142499501Y-92307315D01*
X142499504Y-92307319D01*
X142592680Y-92400495D01*
X142592684Y-92400498D01*
X142592686Y-92400500D01*
X142706814Y-92466392D01*
X142706817Y-92466393D01*
X142784712Y-92487264D01*
X142834108Y-92500500D01*
X142878930Y-92500500D01*
X142923124Y-92518806D01*
X142984788Y-92580470D01*
X143064712Y-92626614D01*
X143064715Y-92626615D01*
X143119264Y-92641231D01*
X143153856Y-92650500D01*
X149416798Y-92650500D01*
X149460992Y-92668806D01*
X149492686Y-92700500D01*
X149606814Y-92766392D01*
X149606817Y-92766393D01*
X149684712Y-92787264D01*
X149734108Y-92800500D01*
X149734109Y-92800500D01*
X149865891Y-92800500D01*
X149865892Y-92800500D01*
X149993186Y-92766392D01*
X150107314Y-92700500D01*
X150200500Y-92607314D01*
X150211882Y-92587600D01*
X172882591Y-92587600D01*
X174116601Y-92587600D01*
X174100000Y-92671056D01*
X174100000Y-92808944D01*
X174116601Y-92892400D01*
X172882591Y-92892400D01*
X172901736Y-93013278D01*
X172958497Y-93187971D01*
X172958498Y-93187974D01*
X173041895Y-93351646D01*
X173149861Y-93500249D01*
X173149868Y-93500257D01*
X173279742Y-93630131D01*
X173279750Y-93630138D01*
X173428353Y-93738104D01*
X173592025Y-93821501D01*
X173592028Y-93821502D01*
X173766723Y-93878263D01*
X173766732Y-93878265D01*
X173948141Y-93906998D01*
X173948157Y-93907000D01*
X174647600Y-93907000D01*
X174647600Y-93423399D01*
X174731056Y-93440000D01*
X174868944Y-93440000D01*
X174952400Y-93423399D01*
X174952400Y-93907000D01*
X175651843Y-93907000D01*
X175651858Y-93906998D01*
X175833267Y-93878265D01*
X175833276Y-93878263D01*
X176007971Y-93821502D01*
X176007974Y-93821501D01*
X176171646Y-93738104D01*
X176320249Y-93630138D01*
X176320257Y-93630131D01*
X176450131Y-93500257D01*
X176450138Y-93500249D01*
X176558104Y-93351646D01*
X176641501Y-93187974D01*
X176641502Y-93187971D01*
X176698263Y-93013278D01*
X176717409Y-92892400D01*
X175483399Y-92892400D01*
X175500000Y-92808944D01*
X175500000Y-92671056D01*
X175483399Y-92587600D01*
X176717408Y-92587600D01*
X176698263Y-92466721D01*
X176641502Y-92292028D01*
X176641501Y-92292025D01*
X176558104Y-92128353D01*
X176450138Y-91979750D01*
X176450131Y-91979742D01*
X176320257Y-91849868D01*
X176320249Y-91849861D01*
X176171646Y-91741895D01*
X176007974Y-91658498D01*
X176007971Y-91658497D01*
X175833276Y-91601736D01*
X175833267Y-91601734D01*
X175651858Y-91573001D01*
X175651843Y-91573000D01*
X174952400Y-91573000D01*
X174952400Y-92056600D01*
X174868944Y-92040000D01*
X174731056Y-92040000D01*
X174647600Y-92056600D01*
X174647600Y-91573000D01*
X173948157Y-91573000D01*
X173948141Y-91573001D01*
X173766732Y-91601734D01*
X173766723Y-91601736D01*
X173592028Y-91658497D01*
X173592025Y-91658498D01*
X173428353Y-91741895D01*
X173279750Y-91849861D01*
X173279742Y-91849868D01*
X173149868Y-91979742D01*
X173149861Y-91979750D01*
X173041895Y-92128353D01*
X172958498Y-92292025D01*
X172958497Y-92292028D01*
X172901736Y-92466721D01*
X172882591Y-92587600D01*
X150211882Y-92587600D01*
X150266392Y-92493186D01*
X150300500Y-92365892D01*
X150300500Y-92234108D01*
X150266392Y-92106814D01*
X150200500Y-91992686D01*
X150200498Y-91992684D01*
X150200495Y-91992680D01*
X150107319Y-91899504D01*
X150107315Y-91899501D01*
X150107314Y-91899500D01*
X150021337Y-91849861D01*
X149993185Y-91833607D01*
X149993182Y-91833606D01*
X149865898Y-91799501D01*
X149865893Y-91799500D01*
X149865892Y-91799500D01*
X149734108Y-91799500D01*
X149734107Y-91799500D01*
X149734101Y-91799501D01*
X149606817Y-91833606D01*
X149606814Y-91833607D01*
X149492684Y-91899501D01*
X149476838Y-91915347D01*
X149460991Y-91931194D01*
X149416799Y-91949500D01*
X143452582Y-91949500D01*
X143408388Y-91931194D01*
X143392212Y-91903176D01*
X143366393Y-91806817D01*
X143366392Y-91806814D01*
X143362169Y-91799500D01*
X143300500Y-91692686D01*
X143300498Y-91692684D01*
X143300495Y-91692680D01*
X143207319Y-91599504D01*
X143207315Y-91599501D01*
X143207314Y-91599500D01*
X143150250Y-91566554D01*
X143093185Y-91533607D01*
X143093182Y-91533606D01*
X142965898Y-91499501D01*
X142965893Y-91499500D01*
X142965892Y-91499500D01*
X142834108Y-91499500D01*
X142834107Y-91499500D01*
X142834101Y-91499501D01*
X142706817Y-91533606D01*
X142706814Y-91533607D01*
X142592684Y-91599501D01*
X142592680Y-91599504D01*
X142499504Y-91692680D01*
X142499501Y-91692684D01*
X142433607Y-91806814D01*
X142433606Y-91806817D01*
X142399501Y-91934101D01*
X142399500Y-91934109D01*
X115200500Y-91934109D01*
X115200500Y-90434109D01*
X132399500Y-90434109D01*
X132399500Y-90565890D01*
X132399501Y-90565898D01*
X132433606Y-90693182D01*
X132433607Y-90693185D01*
X132433608Y-90693186D01*
X132475588Y-90765898D01*
X132499501Y-90807315D01*
X132499504Y-90807319D01*
X132592680Y-90900495D01*
X132592684Y-90900498D01*
X132592686Y-90900500D01*
X132706814Y-90966392D01*
X132706817Y-90966393D01*
X132784712Y-90987264D01*
X132834108Y-91000500D01*
X132902734Y-91000500D01*
X132933984Y-91008873D01*
X132964712Y-91026614D01*
X132964715Y-91026615D01*
X133019264Y-91041231D01*
X133053856Y-91050500D01*
X133053857Y-91050500D01*
X133146144Y-91050500D01*
X155516798Y-91050500D01*
X155560992Y-91068806D01*
X155592686Y-91100500D01*
X155706814Y-91166392D01*
X155706817Y-91166393D01*
X155784712Y-91187264D01*
X155834108Y-91200500D01*
X155834109Y-91200500D01*
X155965891Y-91200500D01*
X155965892Y-91200500D01*
X156093186Y-91166392D01*
X156207314Y-91100500D01*
X156300500Y-91007314D01*
X156366392Y-90893186D01*
X156400500Y-90765892D01*
X156400500Y-90634108D01*
X156366392Y-90506814D01*
X156300500Y-90392686D01*
X156300498Y-90392684D01*
X156300495Y-90392680D01*
X156207319Y-90299504D01*
X156207315Y-90299501D01*
X156207314Y-90299500D01*
X156150250Y-90266554D01*
X156093185Y-90233607D01*
X156093182Y-90233606D01*
X155965898Y-90199501D01*
X155965893Y-90199500D01*
X155965892Y-90199500D01*
X155834108Y-90199500D01*
X155834107Y-90199500D01*
X155834101Y-90199501D01*
X155706817Y-90233606D01*
X155706814Y-90233607D01*
X155592684Y-90299501D01*
X155582178Y-90310008D01*
X155560991Y-90331194D01*
X155516799Y-90349500D01*
X133425787Y-90349500D01*
X133381593Y-90331194D01*
X133369381Y-90310008D01*
X133367959Y-90310598D01*
X133366392Y-90306814D01*
X133324126Y-90233608D01*
X133300500Y-90192686D01*
X133300498Y-90192684D01*
X133300495Y-90192680D01*
X133207319Y-90099504D01*
X133207315Y-90099501D01*
X133207314Y-90099500D01*
X133150250Y-90066554D01*
X133093185Y-90033607D01*
X133093182Y-90033606D01*
X132965898Y-89999501D01*
X132965893Y-89999500D01*
X132965892Y-89999500D01*
X132834108Y-89999500D01*
X132834107Y-89999500D01*
X132834101Y-89999501D01*
X132706817Y-90033606D01*
X132706814Y-90033607D01*
X132592684Y-90099501D01*
X132592680Y-90099504D01*
X132499504Y-90192680D01*
X132499501Y-90192684D01*
X132433607Y-90306814D01*
X132433606Y-90306817D01*
X132399501Y-90434101D01*
X132399500Y-90434109D01*
X115200500Y-90434109D01*
X115200500Y-89234109D01*
X123674500Y-89234109D01*
X123674500Y-89365890D01*
X123674501Y-89365898D01*
X123708606Y-89493182D01*
X123708607Y-89493185D01*
X123774501Y-89607315D01*
X123774504Y-89607319D01*
X123867680Y-89700495D01*
X123867684Y-89700498D01*
X123867686Y-89700500D01*
X123981814Y-89766392D01*
X123981817Y-89766393D01*
X124059712Y-89787264D01*
X124109108Y-89800500D01*
X124109109Y-89800500D01*
X124240891Y-89800500D01*
X124240892Y-89800500D01*
X124368186Y-89766392D01*
X124482314Y-89700500D01*
X124514008Y-89668805D01*
X124558201Y-89650500D01*
X147816798Y-89650500D01*
X147860992Y-89668806D01*
X147892686Y-89700500D01*
X148006814Y-89766392D01*
X148006817Y-89766393D01*
X148084712Y-89787264D01*
X148134108Y-89800500D01*
X148134109Y-89800500D01*
X148265891Y-89800500D01*
X148265892Y-89800500D01*
X148393186Y-89766392D01*
X148507314Y-89700500D01*
X148600500Y-89607314D01*
X148666392Y-89493186D01*
X148700500Y-89365892D01*
X148700500Y-89234108D01*
X148666392Y-89106814D01*
X148600500Y-88992686D01*
X148600498Y-88992684D01*
X148600495Y-88992680D01*
X148507319Y-88899504D01*
X148507315Y-88899501D01*
X148507314Y-88899500D01*
X148450250Y-88866554D01*
X148393185Y-88833607D01*
X148393182Y-88833606D01*
X148265898Y-88799501D01*
X148265893Y-88799500D01*
X148265892Y-88799500D01*
X148134108Y-88799500D01*
X148134107Y-88799500D01*
X148134101Y-88799501D01*
X148006817Y-88833606D01*
X148006814Y-88833607D01*
X147892684Y-88899501D01*
X147876838Y-88915347D01*
X147860991Y-88931194D01*
X147816799Y-88949500D01*
X124558202Y-88949500D01*
X124514008Y-88931194D01*
X124482314Y-88899500D01*
X124425250Y-88866554D01*
X124368185Y-88833607D01*
X124368182Y-88833606D01*
X124240898Y-88799501D01*
X124240893Y-88799500D01*
X124240892Y-88799500D01*
X124109108Y-88799500D01*
X124109107Y-88799500D01*
X124109101Y-88799501D01*
X123981817Y-88833606D01*
X123981814Y-88833607D01*
X123867684Y-88899501D01*
X123867680Y-88899504D01*
X123774504Y-88992680D01*
X123774501Y-88992684D01*
X123708607Y-89106814D01*
X123708606Y-89106817D01*
X123674501Y-89234101D01*
X123674500Y-89234109D01*
X115200500Y-89234109D01*
X115200500Y-72388538D01*
X116299500Y-72388538D01*
X116299500Y-72611461D01*
X116328596Y-72832466D01*
X116328596Y-72832467D01*
X116386286Y-73047769D01*
X116386288Y-73047774D01*
X116386290Y-73047781D01*
X116471595Y-73253726D01*
X116583052Y-73446774D01*
X116718753Y-73623624D01*
X116876376Y-73781247D01*
X117053226Y-73916948D01*
X117246274Y-74028405D01*
X117452219Y-74113710D01*
X117667537Y-74171404D01*
X117888543Y-74200500D01*
X117888549Y-74200500D01*
X118111451Y-74200500D01*
X118111457Y-74200500D01*
X118332463Y-74171404D01*
X118547781Y-74113710D01*
X118753726Y-74028405D01*
X118946774Y-73916948D01*
X119123624Y-73781247D01*
X119281247Y-73623624D01*
X119416948Y-73446774D01*
X119528405Y-73253726D01*
X119613710Y-73047781D01*
X119671404Y-72832463D01*
X119700500Y-72611457D01*
X119700500Y-72388543D01*
X119700499Y-72388538D01*
X180299500Y-72388538D01*
X180299500Y-72611461D01*
X180328596Y-72832466D01*
X180328596Y-72832467D01*
X180386286Y-73047769D01*
X180386288Y-73047774D01*
X180386290Y-73047781D01*
X180471595Y-73253726D01*
X180583052Y-73446774D01*
X180718753Y-73623624D01*
X180876376Y-73781247D01*
X181053226Y-73916948D01*
X181246274Y-74028405D01*
X181452219Y-74113710D01*
X181667537Y-74171404D01*
X181888543Y-74200500D01*
X181888549Y-74200500D01*
X182111451Y-74200500D01*
X182111457Y-74200500D01*
X182332463Y-74171404D01*
X182547781Y-74113710D01*
X182753726Y-74028405D01*
X182946774Y-73916948D01*
X183123624Y-73781247D01*
X183281247Y-73623624D01*
X183416948Y-73446774D01*
X183528405Y-73253726D01*
X183613710Y-73047781D01*
X183671404Y-72832463D01*
X183700500Y-72611457D01*
X183700500Y-72388543D01*
X183671404Y-72167537D01*
X183613710Y-71952219D01*
X183528405Y-71746274D01*
X183416948Y-71553226D01*
X183281247Y-71376376D01*
X183123624Y-71218753D01*
X183123620Y-71218750D01*
X183123618Y-71218748D01*
X182946771Y-71083050D01*
X182753732Y-70971598D01*
X182753729Y-70971596D01*
X182753726Y-70971595D01*
X182547781Y-70886290D01*
X182547774Y-70886288D01*
X182547769Y-70886286D01*
X182332466Y-70828596D01*
X182111461Y-70799500D01*
X182111457Y-70799500D01*
X181888543Y-70799500D01*
X181888538Y-70799500D01*
X181667533Y-70828596D01*
X181667532Y-70828596D01*
X181452230Y-70886286D01*
X181452222Y-70886288D01*
X181452219Y-70886290D01*
X181246274Y-70971595D01*
X181246267Y-70971598D01*
X181053228Y-71083050D01*
X180876381Y-71218748D01*
X180876371Y-71218757D01*
X180718757Y-71376371D01*
X180718748Y-71376381D01*
X180583050Y-71553228D01*
X180471598Y-71746267D01*
X180471595Y-71746273D01*
X180471595Y-71746274D01*
X180386290Y-71952219D01*
X180386288Y-71952222D01*
X180386286Y-71952230D01*
X180328596Y-72167532D01*
X180328596Y-72167533D01*
X180299500Y-72388538D01*
X119700499Y-72388538D01*
X119671404Y-72167537D01*
X119613710Y-71952219D01*
X119528405Y-71746274D01*
X119416948Y-71553226D01*
X119281247Y-71376376D01*
X119123624Y-71218753D01*
X119123620Y-71218750D01*
X119123618Y-71218748D01*
X118946771Y-71083050D01*
X118753732Y-70971598D01*
X118753729Y-70971596D01*
X118753726Y-70971595D01*
X118547781Y-70886290D01*
X118547774Y-70886288D01*
X118547769Y-70886286D01*
X118332466Y-70828596D01*
X118111461Y-70799500D01*
X118111457Y-70799500D01*
X117888543Y-70799500D01*
X117888538Y-70799500D01*
X117667533Y-70828596D01*
X117667532Y-70828596D01*
X117452230Y-70886286D01*
X117452222Y-70886288D01*
X117452219Y-70886290D01*
X117246274Y-70971595D01*
X117246267Y-70971598D01*
X117053228Y-71083050D01*
X116876381Y-71218748D01*
X116876371Y-71218757D01*
X116718757Y-71376371D01*
X116718748Y-71376381D01*
X116583050Y-71553228D01*
X116471598Y-71746267D01*
X116471595Y-71746273D01*
X116471595Y-71746274D01*
X116386290Y-71952219D01*
X116386288Y-71952222D01*
X116386286Y-71952230D01*
X116328596Y-72167532D01*
X116328596Y-72167533D01*
X116299500Y-72388538D01*
X115200500Y-72388538D01*
X115200500Y-70004901D01*
X115201267Y-69995137D01*
X115213609Y-69917216D01*
X115219647Y-69898635D01*
X115253207Y-69832770D01*
X115264697Y-69816958D01*
X115316959Y-69764695D01*
X115332770Y-69753207D01*
X115398635Y-69719647D01*
X115417216Y-69713609D01*
X115495136Y-69701268D01*
X115504902Y-69700500D01*
X184460118Y-69700500D01*
X184495083Y-69700500D01*
X184504848Y-69701268D01*
G37*
%TD.AperFunction*%
%TD*%
M02*
