%TF.GenerationSoftware,KiCad,Pcbnew,10.0.3-10.0.3~ubuntu24.04.1*%
%TF.CreationDate,2026-06-25T08:15:25+00:00*%
%TF.ProjectId,streamline_rs485,73747265-616d-46c6-996e-655f72733438,A*%
%TF.SameCoordinates,Original*%
%TF.FileFunction,Legend,Top*%
%TF.FilePolarity,Positive*%
%FSLAX46Y46*%
G04 Gerber Fmt 4.6, Leading zero omitted, Abs format (unit mm)*
G04 Created by KiCad (PCBNEW 10.0.3-10.0.3~ubuntu24.04.1) date 2026-06-25 08:15:25*
%MOMM*%
%LPD*%
G01*
G04 APERTURE LIST*
%ADD10C,0.200000*%
%ADD11C,0.120000*%
%ADD12C,0.150000*%
%ADD13C,0.000000*%
G04 APERTURE END LIST*
D10*
X120600000Y-83400000D02*
X155200000Y-83400000D01*
X155200000Y-103600000D01*
X120600000Y-103600000D01*
X120600000Y-83400000D01*
D11*
X130000000Y-83400000D02*
X130000000Y-103500000D01*
X140000000Y-83400000D02*
X140000000Y-103500000D01*
X155200000Y-93000000D02*
X120600000Y-93000000D01*
X155200000Y-98000000D02*
X120600000Y-98000000D01*
D10*
X148102393Y-95296265D02*
X148102393Y-96267694D01*
X148102393Y-96267694D02*
X148159536Y-96381980D01*
X148159536Y-96381980D02*
X148216679Y-96439123D01*
X148216679Y-96439123D02*
X148330964Y-96496265D01*
X148330964Y-96496265D02*
X148559536Y-96496265D01*
X148559536Y-96496265D02*
X148673821Y-96439123D01*
X148673821Y-96439123D02*
X148730964Y-96381980D01*
X148730964Y-96381980D02*
X148788107Y-96267694D01*
X148788107Y-96267694D02*
X148788107Y-95296265D01*
X149302393Y-96439123D02*
X149473822Y-96496265D01*
X149473822Y-96496265D02*
X149759536Y-96496265D01*
X149759536Y-96496265D02*
X149873822Y-96439123D01*
X149873822Y-96439123D02*
X149930964Y-96381980D01*
X149930964Y-96381980D02*
X149988107Y-96267694D01*
X149988107Y-96267694D02*
X149988107Y-96153408D01*
X149988107Y-96153408D02*
X149930964Y-96039123D01*
X149930964Y-96039123D02*
X149873822Y-95981980D01*
X149873822Y-95981980D02*
X149759536Y-95924837D01*
X149759536Y-95924837D02*
X149530964Y-95867694D01*
X149530964Y-95867694D02*
X149416679Y-95810551D01*
X149416679Y-95810551D02*
X149359536Y-95753408D01*
X149359536Y-95753408D02*
X149302393Y-95639123D01*
X149302393Y-95639123D02*
X149302393Y-95524837D01*
X149302393Y-95524837D02*
X149359536Y-95410551D01*
X149359536Y-95410551D02*
X149416679Y-95353408D01*
X149416679Y-95353408D02*
X149530964Y-95296265D01*
X149530964Y-95296265D02*
X149816679Y-95296265D01*
X149816679Y-95296265D02*
X149988107Y-95353408D01*
X150445250Y-96153408D02*
X151016679Y-96153408D01*
X150330964Y-96496265D02*
X150730964Y-95296265D01*
X150730964Y-95296265D02*
X151130964Y-96496265D01*
X152216678Y-96496265D02*
X151816678Y-95924837D01*
X151530964Y-96496265D02*
X151530964Y-95296265D01*
X151530964Y-95296265D02*
X151988107Y-95296265D01*
X151988107Y-95296265D02*
X152102392Y-95353408D01*
X152102392Y-95353408D02*
X152159535Y-95410551D01*
X152159535Y-95410551D02*
X152216678Y-95524837D01*
X152216678Y-95524837D02*
X152216678Y-95696265D01*
X152216678Y-95696265D02*
X152159535Y-95810551D01*
X152159535Y-95810551D02*
X152102392Y-95867694D01*
X152102392Y-95867694D02*
X151988107Y-95924837D01*
X151988107Y-95924837D02*
X151530964Y-95924837D01*
X152559535Y-95296265D02*
X153245250Y-95296265D01*
X152902392Y-96496265D02*
X152902392Y-95296265D01*
X153530964Y-95296265D02*
X154273821Y-95296265D01*
X154273821Y-95296265D02*
X153873821Y-95753408D01*
X153873821Y-95753408D02*
X154045250Y-95753408D01*
X154045250Y-95753408D02*
X154159536Y-95810551D01*
X154159536Y-95810551D02*
X154216678Y-95867694D01*
X154216678Y-95867694D02*
X154273821Y-95981980D01*
X154273821Y-95981980D02*
X154273821Y-96267694D01*
X154273821Y-96267694D02*
X154216678Y-96381980D01*
X154216678Y-96381980D02*
X154159536Y-96439123D01*
X154159536Y-96439123D02*
X154045250Y-96496265D01*
X154045250Y-96496265D02*
X153702393Y-96496265D01*
X153702393Y-96496265D02*
X153588107Y-96439123D01*
X153588107Y-96439123D02*
X153530964Y-96381980D01*
X148102393Y-100296265D02*
X148102393Y-101267694D01*
X148102393Y-101267694D02*
X148159536Y-101381980D01*
X148159536Y-101381980D02*
X148216679Y-101439123D01*
X148216679Y-101439123D02*
X148330964Y-101496265D01*
X148330964Y-101496265D02*
X148559536Y-101496265D01*
X148559536Y-101496265D02*
X148673821Y-101439123D01*
X148673821Y-101439123D02*
X148730964Y-101381980D01*
X148730964Y-101381980D02*
X148788107Y-101267694D01*
X148788107Y-101267694D02*
X148788107Y-100296265D01*
X149302393Y-101439123D02*
X149473822Y-101496265D01*
X149473822Y-101496265D02*
X149759536Y-101496265D01*
X149759536Y-101496265D02*
X149873822Y-101439123D01*
X149873822Y-101439123D02*
X149930964Y-101381980D01*
X149930964Y-101381980D02*
X149988107Y-101267694D01*
X149988107Y-101267694D02*
X149988107Y-101153408D01*
X149988107Y-101153408D02*
X149930964Y-101039123D01*
X149930964Y-101039123D02*
X149873822Y-100981980D01*
X149873822Y-100981980D02*
X149759536Y-100924837D01*
X149759536Y-100924837D02*
X149530964Y-100867694D01*
X149530964Y-100867694D02*
X149416679Y-100810551D01*
X149416679Y-100810551D02*
X149359536Y-100753408D01*
X149359536Y-100753408D02*
X149302393Y-100639123D01*
X149302393Y-100639123D02*
X149302393Y-100524837D01*
X149302393Y-100524837D02*
X149359536Y-100410551D01*
X149359536Y-100410551D02*
X149416679Y-100353408D01*
X149416679Y-100353408D02*
X149530964Y-100296265D01*
X149530964Y-100296265D02*
X149816679Y-100296265D01*
X149816679Y-100296265D02*
X149988107Y-100353408D01*
X150445250Y-101153408D02*
X151016679Y-101153408D01*
X150330964Y-101496265D02*
X150730964Y-100296265D01*
X150730964Y-100296265D02*
X151130964Y-101496265D01*
X152216678Y-101496265D02*
X151816678Y-100924837D01*
X151530964Y-101496265D02*
X151530964Y-100296265D01*
X151530964Y-100296265D02*
X151988107Y-100296265D01*
X151988107Y-100296265D02*
X152102392Y-100353408D01*
X152102392Y-100353408D02*
X152159535Y-100410551D01*
X152159535Y-100410551D02*
X152216678Y-100524837D01*
X152216678Y-100524837D02*
X152216678Y-100696265D01*
X152216678Y-100696265D02*
X152159535Y-100810551D01*
X152159535Y-100810551D02*
X152102392Y-100867694D01*
X152102392Y-100867694D02*
X151988107Y-100924837D01*
X151988107Y-100924837D02*
X151530964Y-100924837D01*
X152559535Y-100296265D02*
X153245250Y-100296265D01*
X152902392Y-101496265D02*
X152902392Y-100296265D01*
X153588107Y-100410551D02*
X153645250Y-100353408D01*
X153645250Y-100353408D02*
X153759536Y-100296265D01*
X153759536Y-100296265D02*
X154045250Y-100296265D01*
X154045250Y-100296265D02*
X154159536Y-100353408D01*
X154159536Y-100353408D02*
X154216678Y-100410551D01*
X154216678Y-100410551D02*
X154273821Y-100524837D01*
X154273821Y-100524837D02*
X154273821Y-100639123D01*
X154273821Y-100639123D02*
X154216678Y-100810551D01*
X154216678Y-100810551D02*
X153530964Y-101496265D01*
X153530964Y-101496265D02*
X154273821Y-101496265D01*
X148117292Y-90342742D02*
X148117292Y-91314171D01*
X148117292Y-91314171D02*
X148174435Y-91428457D01*
X148174435Y-91428457D02*
X148231578Y-91485600D01*
X148231578Y-91485600D02*
X148345863Y-91542742D01*
X148345863Y-91542742D02*
X148574435Y-91542742D01*
X148574435Y-91542742D02*
X148688720Y-91485600D01*
X148688720Y-91485600D02*
X148745863Y-91428457D01*
X148745863Y-91428457D02*
X148803006Y-91314171D01*
X148803006Y-91314171D02*
X148803006Y-90342742D01*
X149317292Y-91199885D02*
X149888721Y-91199885D01*
X149203006Y-91542742D02*
X149603006Y-90342742D01*
X149603006Y-90342742D02*
X150003006Y-91542742D01*
X151088720Y-91542742D02*
X150688720Y-90971314D01*
X150403006Y-91542742D02*
X150403006Y-90342742D01*
X150403006Y-90342742D02*
X150860149Y-90342742D01*
X150860149Y-90342742D02*
X150974434Y-90399885D01*
X150974434Y-90399885D02*
X151031577Y-90457028D01*
X151031577Y-90457028D02*
X151088720Y-90571314D01*
X151088720Y-90571314D02*
X151088720Y-90742742D01*
X151088720Y-90742742D02*
X151031577Y-90857028D01*
X151031577Y-90857028D02*
X150974434Y-90914171D01*
X150974434Y-90914171D02*
X150860149Y-90971314D01*
X150860149Y-90971314D02*
X150403006Y-90971314D01*
X151431577Y-90342742D02*
X152117292Y-90342742D01*
X151774434Y-91542742D02*
X151774434Y-90342742D01*
X153031578Y-90742742D02*
X153031578Y-91542742D01*
X152745863Y-90285600D02*
X152460149Y-91142742D01*
X152460149Y-91142742D02*
X153203006Y-91142742D01*
X123485714Y-84442742D02*
X124171429Y-84442742D01*
X123828571Y-85642742D02*
X123828571Y-84442742D01*
X124457143Y-84442742D02*
X125257143Y-85642742D01*
X125257143Y-84442742D02*
X124457143Y-85642742D01*
X125714286Y-85642742D02*
X125714286Y-84442742D01*
X125714286Y-84442742D02*
X126000000Y-84442742D01*
X126000000Y-84442742D02*
X126171429Y-84499885D01*
X126171429Y-84499885D02*
X126285714Y-84614171D01*
X126285714Y-84614171D02*
X126342857Y-84728457D01*
X126342857Y-84728457D02*
X126400000Y-84957028D01*
X126400000Y-84957028D02*
X126400000Y-85128457D01*
X126400000Y-85128457D02*
X126342857Y-85357028D01*
X126342857Y-85357028D02*
X126285714Y-85471314D01*
X126285714Y-85471314D02*
X126171429Y-85585600D01*
X126171429Y-85585600D02*
X126000000Y-85642742D01*
X126000000Y-85642742D02*
X125714286Y-85642742D01*
X134342857Y-85642742D02*
X133942857Y-85071314D01*
X133657143Y-85642742D02*
X133657143Y-84442742D01*
X133657143Y-84442742D02*
X134114286Y-84442742D01*
X134114286Y-84442742D02*
X134228571Y-84499885D01*
X134228571Y-84499885D02*
X134285714Y-84557028D01*
X134285714Y-84557028D02*
X134342857Y-84671314D01*
X134342857Y-84671314D02*
X134342857Y-84842742D01*
X134342857Y-84842742D02*
X134285714Y-84957028D01*
X134285714Y-84957028D02*
X134228571Y-85014171D01*
X134228571Y-85014171D02*
X134114286Y-85071314D01*
X134114286Y-85071314D02*
X133657143Y-85071314D01*
X134685714Y-84442742D02*
X135371429Y-84442742D01*
X135028571Y-85642742D02*
X135028571Y-84442742D01*
X135714286Y-85585600D02*
X135885715Y-85642742D01*
X135885715Y-85642742D02*
X136171429Y-85642742D01*
X136171429Y-85642742D02*
X136285715Y-85585600D01*
X136285715Y-85585600D02*
X136342857Y-85528457D01*
X136342857Y-85528457D02*
X136400000Y-85414171D01*
X136400000Y-85414171D02*
X136400000Y-85299885D01*
X136400000Y-85299885D02*
X136342857Y-85185600D01*
X136342857Y-85185600D02*
X136285715Y-85128457D01*
X136285715Y-85128457D02*
X136171429Y-85071314D01*
X136171429Y-85071314D02*
X135942857Y-85014171D01*
X135942857Y-85014171D02*
X135828572Y-84957028D01*
X135828572Y-84957028D02*
X135771429Y-84899885D01*
X135771429Y-84899885D02*
X135714286Y-84785600D01*
X135714286Y-84785600D02*
X135714286Y-84671314D01*
X135714286Y-84671314D02*
X135771429Y-84557028D01*
X135771429Y-84557028D02*
X135828572Y-84499885D01*
X135828572Y-84499885D02*
X135942857Y-84442742D01*
X135942857Y-84442742D02*
X136228572Y-84442742D01*
X136228572Y-84442742D02*
X136400000Y-84499885D01*
X144200000Y-85642742D02*
X143800000Y-85071314D01*
X143514286Y-85642742D02*
X143514286Y-84442742D01*
X143514286Y-84442742D02*
X143971429Y-84442742D01*
X143971429Y-84442742D02*
X144085714Y-84499885D01*
X144085714Y-84499885D02*
X144142857Y-84557028D01*
X144142857Y-84557028D02*
X144200000Y-84671314D01*
X144200000Y-84671314D02*
X144200000Y-84842742D01*
X144200000Y-84842742D02*
X144142857Y-84957028D01*
X144142857Y-84957028D02*
X144085714Y-85014171D01*
X144085714Y-85014171D02*
X143971429Y-85071314D01*
X143971429Y-85071314D02*
X143514286Y-85071314D01*
X144600000Y-84442742D02*
X145400000Y-85642742D01*
X145400000Y-84442742D02*
X144600000Y-85642742D01*
X145857143Y-85642742D02*
X145857143Y-84442742D01*
X145857143Y-84442742D02*
X146142857Y-84442742D01*
X146142857Y-84442742D02*
X146314286Y-84499885D01*
X146314286Y-84499885D02*
X146428571Y-84614171D01*
X146428571Y-84614171D02*
X146485714Y-84728457D01*
X146485714Y-84728457D02*
X146542857Y-84957028D01*
X146542857Y-84957028D02*
X146542857Y-85128457D01*
X146542857Y-85128457D02*
X146485714Y-85357028D01*
X146485714Y-85357028D02*
X146428571Y-85471314D01*
X146428571Y-85471314D02*
X146314286Y-85585600D01*
X146314286Y-85585600D02*
X146142857Y-85642742D01*
X146142857Y-85642742D02*
X145857143Y-85642742D01*
D12*
X173166666Y-106954819D02*
X173166666Y-107669104D01*
X173166666Y-107669104D02*
X173119047Y-107811961D01*
X173119047Y-107811961D02*
X173023809Y-107907200D01*
X173023809Y-107907200D02*
X172880952Y-107954819D01*
X172880952Y-107954819D02*
X172785714Y-107954819D01*
X173595238Y-107050057D02*
X173642857Y-107002438D01*
X173642857Y-107002438D02*
X173738095Y-106954819D01*
X173738095Y-106954819D02*
X173976190Y-106954819D01*
X173976190Y-106954819D02*
X174071428Y-107002438D01*
X174071428Y-107002438D02*
X174119047Y-107050057D01*
X174119047Y-107050057D02*
X174166666Y-107145295D01*
X174166666Y-107145295D02*
X174166666Y-107240533D01*
X174166666Y-107240533D02*
X174119047Y-107383390D01*
X174119047Y-107383390D02*
X173547619Y-107954819D01*
X173547619Y-107954819D02*
X174166666Y-107954819D01*
X134166666Y-98454819D02*
X134166666Y-99169104D01*
X134166666Y-99169104D02*
X134119047Y-99311961D01*
X134119047Y-99311961D02*
X134023809Y-99407200D01*
X134023809Y-99407200D02*
X133880952Y-99454819D01*
X133880952Y-99454819D02*
X133785714Y-99454819D01*
X134642857Y-99454819D02*
X134642857Y-98454819D01*
X134642857Y-98454819D02*
X135023809Y-98454819D01*
X135023809Y-98454819D02*
X135119047Y-98502438D01*
X135119047Y-98502438D02*
X135166666Y-98550057D01*
X135166666Y-98550057D02*
X135214285Y-98645295D01*
X135214285Y-98645295D02*
X135214285Y-98788152D01*
X135214285Y-98788152D02*
X135166666Y-98883390D01*
X135166666Y-98883390D02*
X135119047Y-98931009D01*
X135119047Y-98931009D02*
X135023809Y-98978628D01*
X135023809Y-98978628D02*
X134642857Y-98978628D01*
X136071428Y-98454819D02*
X135880952Y-98454819D01*
X135880952Y-98454819D02*
X135785714Y-98502438D01*
X135785714Y-98502438D02*
X135738095Y-98550057D01*
X135738095Y-98550057D02*
X135642857Y-98692914D01*
X135642857Y-98692914D02*
X135595238Y-98883390D01*
X135595238Y-98883390D02*
X135595238Y-99264342D01*
X135595238Y-99264342D02*
X135642857Y-99359580D01*
X135642857Y-99359580D02*
X135690476Y-99407200D01*
X135690476Y-99407200D02*
X135785714Y-99454819D01*
X135785714Y-99454819D02*
X135976190Y-99454819D01*
X135976190Y-99454819D02*
X136071428Y-99407200D01*
X136071428Y-99407200D02*
X136119047Y-99359580D01*
X136119047Y-99359580D02*
X136166666Y-99264342D01*
X136166666Y-99264342D02*
X136166666Y-99026247D01*
X136166666Y-99026247D02*
X136119047Y-98931009D01*
X136119047Y-98931009D02*
X136071428Y-98883390D01*
X136071428Y-98883390D02*
X135976190Y-98835771D01*
X135976190Y-98835771D02*
X135785714Y-98835771D01*
X135785714Y-98835771D02*
X135690476Y-98883390D01*
X135690476Y-98883390D02*
X135642857Y-98931009D01*
X135642857Y-98931009D02*
X135595238Y-99026247D01*
X165133333Y-95259580D02*
X165085714Y-95307200D01*
X165085714Y-95307200D02*
X164942857Y-95354819D01*
X164942857Y-95354819D02*
X164847619Y-95354819D01*
X164847619Y-95354819D02*
X164704762Y-95307200D01*
X164704762Y-95307200D02*
X164609524Y-95211961D01*
X164609524Y-95211961D02*
X164561905Y-95116723D01*
X164561905Y-95116723D02*
X164514286Y-94926247D01*
X164514286Y-94926247D02*
X164514286Y-94783390D01*
X164514286Y-94783390D02*
X164561905Y-94592914D01*
X164561905Y-94592914D02*
X164609524Y-94497676D01*
X164609524Y-94497676D02*
X164704762Y-94402438D01*
X164704762Y-94402438D02*
X164847619Y-94354819D01*
X164847619Y-94354819D02*
X164942857Y-94354819D01*
X164942857Y-94354819D02*
X165085714Y-94402438D01*
X165085714Y-94402438D02*
X165133333Y-94450057D01*
X166085714Y-95354819D02*
X165514286Y-95354819D01*
X165800000Y-95354819D02*
X165800000Y-94354819D01*
X165800000Y-94354819D02*
X165704762Y-94497676D01*
X165704762Y-94497676D02*
X165609524Y-94592914D01*
X165609524Y-94592914D02*
X165514286Y-94640533D01*
X117067200Y-111495839D02*
X117114819Y-111352982D01*
X117114819Y-111352982D02*
X117114819Y-111114887D01*
X117114819Y-111114887D02*
X117067200Y-111019649D01*
X117067200Y-111019649D02*
X117019580Y-110972030D01*
X117019580Y-110972030D02*
X116924342Y-110924411D01*
X116924342Y-110924411D02*
X116829104Y-110924411D01*
X116829104Y-110924411D02*
X116733866Y-110972030D01*
X116733866Y-110972030D02*
X116686247Y-111019649D01*
X116686247Y-111019649D02*
X116638628Y-111114887D01*
X116638628Y-111114887D02*
X116591009Y-111305363D01*
X116591009Y-111305363D02*
X116543390Y-111400601D01*
X116543390Y-111400601D02*
X116495771Y-111448220D01*
X116495771Y-111448220D02*
X116400533Y-111495839D01*
X116400533Y-111495839D02*
X116305295Y-111495839D01*
X116305295Y-111495839D02*
X116210057Y-111448220D01*
X116210057Y-111448220D02*
X116162438Y-111400601D01*
X116162438Y-111400601D02*
X116114819Y-111305363D01*
X116114819Y-111305363D02*
X116114819Y-111067268D01*
X116114819Y-111067268D02*
X116162438Y-110924411D01*
X116448152Y-110638696D02*
X116448152Y-110257744D01*
X116114819Y-110495839D02*
X116971961Y-110495839D01*
X116971961Y-110495839D02*
X117067200Y-110448220D01*
X117067200Y-110448220D02*
X117114819Y-110352982D01*
X117114819Y-110352982D02*
X117114819Y-110257744D01*
X117114819Y-109924410D02*
X116448152Y-109924410D01*
X116638628Y-109924410D02*
X116543390Y-109876791D01*
X116543390Y-109876791D02*
X116495771Y-109829172D01*
X116495771Y-109829172D02*
X116448152Y-109733934D01*
X116448152Y-109733934D02*
X116448152Y-109638696D01*
X117067200Y-108924410D02*
X117114819Y-109019648D01*
X117114819Y-109019648D02*
X117114819Y-109210124D01*
X117114819Y-109210124D02*
X117067200Y-109305362D01*
X117067200Y-109305362D02*
X116971961Y-109352981D01*
X116971961Y-109352981D02*
X116591009Y-109352981D01*
X116591009Y-109352981D02*
X116495771Y-109305362D01*
X116495771Y-109305362D02*
X116448152Y-109210124D01*
X116448152Y-109210124D02*
X116448152Y-109019648D01*
X116448152Y-109019648D02*
X116495771Y-108924410D01*
X116495771Y-108924410D02*
X116591009Y-108876791D01*
X116591009Y-108876791D02*
X116686247Y-108876791D01*
X116686247Y-108876791D02*
X116781485Y-109352981D01*
X117114819Y-108019648D02*
X116591009Y-108019648D01*
X116591009Y-108019648D02*
X116495771Y-108067267D01*
X116495771Y-108067267D02*
X116448152Y-108162505D01*
X116448152Y-108162505D02*
X116448152Y-108352981D01*
X116448152Y-108352981D02*
X116495771Y-108448219D01*
X117067200Y-108019648D02*
X117114819Y-108114886D01*
X117114819Y-108114886D02*
X117114819Y-108352981D01*
X117114819Y-108352981D02*
X117067200Y-108448219D01*
X117067200Y-108448219D02*
X116971961Y-108495838D01*
X116971961Y-108495838D02*
X116876723Y-108495838D01*
X116876723Y-108495838D02*
X116781485Y-108448219D01*
X116781485Y-108448219D02*
X116733866Y-108352981D01*
X116733866Y-108352981D02*
X116733866Y-108114886D01*
X116733866Y-108114886D02*
X116686247Y-108019648D01*
X117114819Y-107543457D02*
X116448152Y-107543457D01*
X116543390Y-107543457D02*
X116495771Y-107495838D01*
X116495771Y-107495838D02*
X116448152Y-107400600D01*
X116448152Y-107400600D02*
X116448152Y-107257743D01*
X116448152Y-107257743D02*
X116495771Y-107162505D01*
X116495771Y-107162505D02*
X116591009Y-107114886D01*
X116591009Y-107114886D02*
X117114819Y-107114886D01*
X116591009Y-107114886D02*
X116495771Y-107067267D01*
X116495771Y-107067267D02*
X116448152Y-106972029D01*
X116448152Y-106972029D02*
X116448152Y-106829172D01*
X116448152Y-106829172D02*
X116495771Y-106733933D01*
X116495771Y-106733933D02*
X116591009Y-106686314D01*
X116591009Y-106686314D02*
X117114819Y-106686314D01*
X117114819Y-106067267D02*
X117067200Y-106162505D01*
X117067200Y-106162505D02*
X116971961Y-106210124D01*
X116971961Y-106210124D02*
X116114819Y-106210124D01*
X117114819Y-105686314D02*
X116448152Y-105686314D01*
X116114819Y-105686314D02*
X116162438Y-105733933D01*
X116162438Y-105733933D02*
X116210057Y-105686314D01*
X116210057Y-105686314D02*
X116162438Y-105638695D01*
X116162438Y-105638695D02*
X116114819Y-105686314D01*
X116114819Y-105686314D02*
X116210057Y-105686314D01*
X116448152Y-105210124D02*
X117114819Y-105210124D01*
X116543390Y-105210124D02*
X116495771Y-105162505D01*
X116495771Y-105162505D02*
X116448152Y-105067267D01*
X116448152Y-105067267D02*
X116448152Y-104924410D01*
X116448152Y-104924410D02*
X116495771Y-104829172D01*
X116495771Y-104829172D02*
X116591009Y-104781553D01*
X116591009Y-104781553D02*
X117114819Y-104781553D01*
X117067200Y-103924410D02*
X117114819Y-104019648D01*
X117114819Y-104019648D02*
X117114819Y-104210124D01*
X117114819Y-104210124D02*
X117067200Y-104305362D01*
X117067200Y-104305362D02*
X116971961Y-104352981D01*
X116971961Y-104352981D02*
X116591009Y-104352981D01*
X116591009Y-104352981D02*
X116495771Y-104305362D01*
X116495771Y-104305362D02*
X116448152Y-104210124D01*
X116448152Y-104210124D02*
X116448152Y-104019648D01*
X116448152Y-104019648D02*
X116495771Y-103924410D01*
X116495771Y-103924410D02*
X116591009Y-103876791D01*
X116591009Y-103876791D02*
X116686247Y-103876791D01*
X116686247Y-103876791D02*
X116781485Y-104352981D01*
X117114819Y-102114886D02*
X116638628Y-102448219D01*
X117114819Y-102686314D02*
X116114819Y-102686314D01*
X116114819Y-102686314D02*
X116114819Y-102305362D01*
X116114819Y-102305362D02*
X116162438Y-102210124D01*
X116162438Y-102210124D02*
X116210057Y-102162505D01*
X116210057Y-102162505D02*
X116305295Y-102114886D01*
X116305295Y-102114886D02*
X116448152Y-102114886D01*
X116448152Y-102114886D02*
X116543390Y-102162505D01*
X116543390Y-102162505D02*
X116591009Y-102210124D01*
X116591009Y-102210124D02*
X116638628Y-102305362D01*
X116638628Y-102305362D02*
X116638628Y-102686314D01*
X117067200Y-101733933D02*
X117114819Y-101591076D01*
X117114819Y-101591076D02*
X117114819Y-101352981D01*
X117114819Y-101352981D02*
X117067200Y-101257743D01*
X117067200Y-101257743D02*
X117019580Y-101210124D01*
X117019580Y-101210124D02*
X116924342Y-101162505D01*
X116924342Y-101162505D02*
X116829104Y-101162505D01*
X116829104Y-101162505D02*
X116733866Y-101210124D01*
X116733866Y-101210124D02*
X116686247Y-101257743D01*
X116686247Y-101257743D02*
X116638628Y-101352981D01*
X116638628Y-101352981D02*
X116591009Y-101543457D01*
X116591009Y-101543457D02*
X116543390Y-101638695D01*
X116543390Y-101638695D02*
X116495771Y-101686314D01*
X116495771Y-101686314D02*
X116400533Y-101733933D01*
X116400533Y-101733933D02*
X116305295Y-101733933D01*
X116305295Y-101733933D02*
X116210057Y-101686314D01*
X116210057Y-101686314D02*
X116162438Y-101638695D01*
X116162438Y-101638695D02*
X116114819Y-101543457D01*
X116114819Y-101543457D02*
X116114819Y-101305362D01*
X116114819Y-101305362D02*
X116162438Y-101162505D01*
X116733866Y-100733933D02*
X116733866Y-99972029D01*
X116448152Y-99067267D02*
X117114819Y-99067267D01*
X116067200Y-99305362D02*
X116781485Y-99543457D01*
X116781485Y-99543457D02*
X116781485Y-98924410D01*
X116543390Y-98400600D02*
X116495771Y-98495838D01*
X116495771Y-98495838D02*
X116448152Y-98543457D01*
X116448152Y-98543457D02*
X116352914Y-98591076D01*
X116352914Y-98591076D02*
X116305295Y-98591076D01*
X116305295Y-98591076D02*
X116210057Y-98543457D01*
X116210057Y-98543457D02*
X116162438Y-98495838D01*
X116162438Y-98495838D02*
X116114819Y-98400600D01*
X116114819Y-98400600D02*
X116114819Y-98210124D01*
X116114819Y-98210124D02*
X116162438Y-98114886D01*
X116162438Y-98114886D02*
X116210057Y-98067267D01*
X116210057Y-98067267D02*
X116305295Y-98019648D01*
X116305295Y-98019648D02*
X116352914Y-98019648D01*
X116352914Y-98019648D02*
X116448152Y-98067267D01*
X116448152Y-98067267D02*
X116495771Y-98114886D01*
X116495771Y-98114886D02*
X116543390Y-98210124D01*
X116543390Y-98210124D02*
X116543390Y-98400600D01*
X116543390Y-98400600D02*
X116591009Y-98495838D01*
X116591009Y-98495838D02*
X116638628Y-98543457D01*
X116638628Y-98543457D02*
X116733866Y-98591076D01*
X116733866Y-98591076D02*
X116924342Y-98591076D01*
X116924342Y-98591076D02*
X117019580Y-98543457D01*
X117019580Y-98543457D02*
X117067200Y-98495838D01*
X117067200Y-98495838D02*
X117114819Y-98400600D01*
X117114819Y-98400600D02*
X117114819Y-98210124D01*
X117114819Y-98210124D02*
X117067200Y-98114886D01*
X117067200Y-98114886D02*
X117019580Y-98067267D01*
X117019580Y-98067267D02*
X116924342Y-98019648D01*
X116924342Y-98019648D02*
X116733866Y-98019648D01*
X116733866Y-98019648D02*
X116638628Y-98067267D01*
X116638628Y-98067267D02*
X116591009Y-98114886D01*
X116591009Y-98114886D02*
X116543390Y-98210124D01*
X116114819Y-97114886D02*
X116114819Y-97591076D01*
X116114819Y-97591076D02*
X116591009Y-97638695D01*
X116591009Y-97638695D02*
X116543390Y-97591076D01*
X116543390Y-97591076D02*
X116495771Y-97495838D01*
X116495771Y-97495838D02*
X116495771Y-97257743D01*
X116495771Y-97257743D02*
X116543390Y-97162505D01*
X116543390Y-97162505D02*
X116591009Y-97114886D01*
X116591009Y-97114886D02*
X116686247Y-97067267D01*
X116686247Y-97067267D02*
X116924342Y-97067267D01*
X116924342Y-97067267D02*
X117019580Y-97114886D01*
X117019580Y-97114886D02*
X117067200Y-97162505D01*
X117067200Y-97162505D02*
X117114819Y-97257743D01*
X117114819Y-97257743D02*
X117114819Y-97495838D01*
X117114819Y-97495838D02*
X117067200Y-97591076D01*
X117067200Y-97591076D02*
X117019580Y-97638695D01*
X117067200Y-96591076D02*
X117114819Y-96591076D01*
X117114819Y-96591076D02*
X117210057Y-96638695D01*
X117210057Y-96638695D02*
X117257676Y-96686314D01*
X117114819Y-95400600D02*
X116448152Y-95400600D01*
X116638628Y-95400600D02*
X116543390Y-95352981D01*
X116543390Y-95352981D02*
X116495771Y-95305362D01*
X116495771Y-95305362D02*
X116448152Y-95210124D01*
X116448152Y-95210124D02*
X116448152Y-95114886D01*
X117067200Y-94400600D02*
X117114819Y-94495838D01*
X117114819Y-94495838D02*
X117114819Y-94686314D01*
X117114819Y-94686314D02*
X117067200Y-94781552D01*
X117067200Y-94781552D02*
X116971961Y-94829171D01*
X116971961Y-94829171D02*
X116591009Y-94829171D01*
X116591009Y-94829171D02*
X116495771Y-94781552D01*
X116495771Y-94781552D02*
X116448152Y-94686314D01*
X116448152Y-94686314D02*
X116448152Y-94495838D01*
X116448152Y-94495838D02*
X116495771Y-94400600D01*
X116495771Y-94400600D02*
X116591009Y-94352981D01*
X116591009Y-94352981D02*
X116686247Y-94352981D01*
X116686247Y-94352981D02*
X116781485Y-94829171D01*
X116448152Y-94019647D02*
X117114819Y-93781552D01*
X117114819Y-93781552D02*
X116448152Y-93543457D01*
X117019580Y-93162504D02*
X117067200Y-93114885D01*
X117067200Y-93114885D02*
X117114819Y-93162504D01*
X117114819Y-93162504D02*
X117067200Y-93210123D01*
X117067200Y-93210123D02*
X117019580Y-93162504D01*
X117019580Y-93162504D02*
X117114819Y-93162504D01*
X116829104Y-91972028D02*
X116829104Y-91495838D01*
X117114819Y-92067266D02*
X116114819Y-91733933D01*
X116114819Y-91733933D02*
X117114819Y-91400600D01*
X144166666Y-98454819D02*
X144166666Y-99169104D01*
X144166666Y-99169104D02*
X144119047Y-99311961D01*
X144119047Y-99311961D02*
X144023809Y-99407200D01*
X144023809Y-99407200D02*
X143880952Y-99454819D01*
X143880952Y-99454819D02*
X143785714Y-99454819D01*
X144642857Y-99454819D02*
X144642857Y-98454819D01*
X144642857Y-98454819D02*
X145023809Y-98454819D01*
X145023809Y-98454819D02*
X145119047Y-98502438D01*
X145119047Y-98502438D02*
X145166666Y-98550057D01*
X145166666Y-98550057D02*
X145214285Y-98645295D01*
X145214285Y-98645295D02*
X145214285Y-98788152D01*
X145214285Y-98788152D02*
X145166666Y-98883390D01*
X145166666Y-98883390D02*
X145119047Y-98931009D01*
X145119047Y-98931009D02*
X145023809Y-98978628D01*
X145023809Y-98978628D02*
X144642857Y-98978628D01*
X145547619Y-98454819D02*
X146166666Y-98454819D01*
X146166666Y-98454819D02*
X145833333Y-98835771D01*
X145833333Y-98835771D02*
X145976190Y-98835771D01*
X145976190Y-98835771D02*
X146071428Y-98883390D01*
X146071428Y-98883390D02*
X146119047Y-98931009D01*
X146119047Y-98931009D02*
X146166666Y-99026247D01*
X146166666Y-99026247D02*
X146166666Y-99264342D01*
X146166666Y-99264342D02*
X146119047Y-99359580D01*
X146119047Y-99359580D02*
X146071428Y-99407200D01*
X146071428Y-99407200D02*
X145976190Y-99454819D01*
X145976190Y-99454819D02*
X145690476Y-99454819D01*
X145690476Y-99454819D02*
X145595238Y-99407200D01*
X145595238Y-99407200D02*
X145547619Y-99359580D01*
X142488333Y-87714819D02*
X142155000Y-87238628D01*
X141916905Y-87714819D02*
X141916905Y-86714819D01*
X141916905Y-86714819D02*
X142297857Y-86714819D01*
X142297857Y-86714819D02*
X142393095Y-86762438D01*
X142393095Y-86762438D02*
X142440714Y-86810057D01*
X142440714Y-86810057D02*
X142488333Y-86905295D01*
X142488333Y-86905295D02*
X142488333Y-87048152D01*
X142488333Y-87048152D02*
X142440714Y-87143390D01*
X142440714Y-87143390D02*
X142393095Y-87191009D01*
X142393095Y-87191009D02*
X142297857Y-87238628D01*
X142297857Y-87238628D02*
X141916905Y-87238628D01*
X143440714Y-87714819D02*
X142869286Y-87714819D01*
X143155000Y-87714819D02*
X143155000Y-86714819D01*
X143155000Y-86714819D02*
X143059762Y-86857676D01*
X143059762Y-86857676D02*
X142964524Y-86952914D01*
X142964524Y-86952914D02*
X142869286Y-87000533D01*
X134166666Y-93454819D02*
X134166666Y-94169104D01*
X134166666Y-94169104D02*
X134119047Y-94311961D01*
X134119047Y-94311961D02*
X134023809Y-94407200D01*
X134023809Y-94407200D02*
X133880952Y-94454819D01*
X133880952Y-94454819D02*
X133785714Y-94454819D01*
X134642857Y-94454819D02*
X134642857Y-93454819D01*
X134642857Y-93454819D02*
X135023809Y-93454819D01*
X135023809Y-93454819D02*
X135119047Y-93502438D01*
X135119047Y-93502438D02*
X135166666Y-93550057D01*
X135166666Y-93550057D02*
X135214285Y-93645295D01*
X135214285Y-93645295D02*
X135214285Y-93788152D01*
X135214285Y-93788152D02*
X135166666Y-93883390D01*
X135166666Y-93883390D02*
X135119047Y-93931009D01*
X135119047Y-93931009D02*
X135023809Y-93978628D01*
X135023809Y-93978628D02*
X134642857Y-93978628D01*
X136119047Y-93454819D02*
X135642857Y-93454819D01*
X135642857Y-93454819D02*
X135595238Y-93931009D01*
X135595238Y-93931009D02*
X135642857Y-93883390D01*
X135642857Y-93883390D02*
X135738095Y-93835771D01*
X135738095Y-93835771D02*
X135976190Y-93835771D01*
X135976190Y-93835771D02*
X136071428Y-93883390D01*
X136071428Y-93883390D02*
X136119047Y-93931009D01*
X136119047Y-93931009D02*
X136166666Y-94026247D01*
X136166666Y-94026247D02*
X136166666Y-94264342D01*
X136166666Y-94264342D02*
X136119047Y-94359580D01*
X136119047Y-94359580D02*
X136071428Y-94407200D01*
X136071428Y-94407200D02*
X135976190Y-94454819D01*
X135976190Y-94454819D02*
X135738095Y-94454819D01*
X135738095Y-94454819D02*
X135642857Y-94407200D01*
X135642857Y-94407200D02*
X135595238Y-94359580D01*
X160633333Y-103704819D02*
X160300000Y-103228628D01*
X160061905Y-103704819D02*
X160061905Y-102704819D01*
X160061905Y-102704819D02*
X160442857Y-102704819D01*
X160442857Y-102704819D02*
X160538095Y-102752438D01*
X160538095Y-102752438D02*
X160585714Y-102800057D01*
X160585714Y-102800057D02*
X160633333Y-102895295D01*
X160633333Y-102895295D02*
X160633333Y-103038152D01*
X160633333Y-103038152D02*
X160585714Y-103133390D01*
X160585714Y-103133390D02*
X160538095Y-103181009D01*
X160538095Y-103181009D02*
X160442857Y-103228628D01*
X160442857Y-103228628D02*
X160061905Y-103228628D01*
X161490476Y-103038152D02*
X161490476Y-103704819D01*
X161252381Y-102657200D02*
X161014286Y-103371485D01*
X161014286Y-103371485D02*
X161633333Y-103371485D01*
X124166666Y-93454819D02*
X124166666Y-94169104D01*
X124166666Y-94169104D02*
X124119047Y-94311961D01*
X124119047Y-94311961D02*
X124023809Y-94407200D01*
X124023809Y-94407200D02*
X123880952Y-94454819D01*
X123880952Y-94454819D02*
X123785714Y-94454819D01*
X124642857Y-94454819D02*
X124642857Y-93454819D01*
X124642857Y-93454819D02*
X125023809Y-93454819D01*
X125023809Y-93454819D02*
X125119047Y-93502438D01*
X125119047Y-93502438D02*
X125166666Y-93550057D01*
X125166666Y-93550057D02*
X125214285Y-93645295D01*
X125214285Y-93645295D02*
X125214285Y-93788152D01*
X125214285Y-93788152D02*
X125166666Y-93883390D01*
X125166666Y-93883390D02*
X125119047Y-93931009D01*
X125119047Y-93931009D02*
X125023809Y-93978628D01*
X125023809Y-93978628D02*
X124642857Y-93978628D01*
X125785714Y-93883390D02*
X125690476Y-93835771D01*
X125690476Y-93835771D02*
X125642857Y-93788152D01*
X125642857Y-93788152D02*
X125595238Y-93692914D01*
X125595238Y-93692914D02*
X125595238Y-93645295D01*
X125595238Y-93645295D02*
X125642857Y-93550057D01*
X125642857Y-93550057D02*
X125690476Y-93502438D01*
X125690476Y-93502438D02*
X125785714Y-93454819D01*
X125785714Y-93454819D02*
X125976190Y-93454819D01*
X125976190Y-93454819D02*
X126071428Y-93502438D01*
X126071428Y-93502438D02*
X126119047Y-93550057D01*
X126119047Y-93550057D02*
X126166666Y-93645295D01*
X126166666Y-93645295D02*
X126166666Y-93692914D01*
X126166666Y-93692914D02*
X126119047Y-93788152D01*
X126119047Y-93788152D02*
X126071428Y-93835771D01*
X126071428Y-93835771D02*
X125976190Y-93883390D01*
X125976190Y-93883390D02*
X125785714Y-93883390D01*
X125785714Y-93883390D02*
X125690476Y-93931009D01*
X125690476Y-93931009D02*
X125642857Y-93978628D01*
X125642857Y-93978628D02*
X125595238Y-94073866D01*
X125595238Y-94073866D02*
X125595238Y-94264342D01*
X125595238Y-94264342D02*
X125642857Y-94359580D01*
X125642857Y-94359580D02*
X125690476Y-94407200D01*
X125690476Y-94407200D02*
X125785714Y-94454819D01*
X125785714Y-94454819D02*
X125976190Y-94454819D01*
X125976190Y-94454819D02*
X126071428Y-94407200D01*
X126071428Y-94407200D02*
X126119047Y-94359580D01*
X126119047Y-94359580D02*
X126166666Y-94264342D01*
X126166666Y-94264342D02*
X126166666Y-94073866D01*
X126166666Y-94073866D02*
X126119047Y-93978628D01*
X126119047Y-93978628D02*
X126071428Y-93931009D01*
X126071428Y-93931009D02*
X125976190Y-93883390D01*
X122333333Y-87754819D02*
X122000000Y-87278628D01*
X121761905Y-87754819D02*
X121761905Y-86754819D01*
X121761905Y-86754819D02*
X122142857Y-86754819D01*
X122142857Y-86754819D02*
X122238095Y-86802438D01*
X122238095Y-86802438D02*
X122285714Y-86850057D01*
X122285714Y-86850057D02*
X122333333Y-86945295D01*
X122333333Y-86945295D02*
X122333333Y-87088152D01*
X122333333Y-87088152D02*
X122285714Y-87183390D01*
X122285714Y-87183390D02*
X122238095Y-87231009D01*
X122238095Y-87231009D02*
X122142857Y-87278628D01*
X122142857Y-87278628D02*
X121761905Y-87278628D01*
X122666667Y-86754819D02*
X123285714Y-86754819D01*
X123285714Y-86754819D02*
X122952381Y-87135771D01*
X122952381Y-87135771D02*
X123095238Y-87135771D01*
X123095238Y-87135771D02*
X123190476Y-87183390D01*
X123190476Y-87183390D02*
X123238095Y-87231009D01*
X123238095Y-87231009D02*
X123285714Y-87326247D01*
X123285714Y-87326247D02*
X123285714Y-87564342D01*
X123285714Y-87564342D02*
X123238095Y-87659580D01*
X123238095Y-87659580D02*
X123190476Y-87707200D01*
X123190476Y-87707200D02*
X123095238Y-87754819D01*
X123095238Y-87754819D02*
X122809524Y-87754819D01*
X122809524Y-87754819D02*
X122714286Y-87707200D01*
X122714286Y-87707200D02*
X122666667Y-87659580D01*
X132373333Y-87794819D02*
X132040000Y-87318628D01*
X131801905Y-87794819D02*
X131801905Y-86794819D01*
X131801905Y-86794819D02*
X132182857Y-86794819D01*
X132182857Y-86794819D02*
X132278095Y-86842438D01*
X132278095Y-86842438D02*
X132325714Y-86890057D01*
X132325714Y-86890057D02*
X132373333Y-86985295D01*
X132373333Y-86985295D02*
X132373333Y-87128152D01*
X132373333Y-87128152D02*
X132325714Y-87223390D01*
X132325714Y-87223390D02*
X132278095Y-87271009D01*
X132278095Y-87271009D02*
X132182857Y-87318628D01*
X132182857Y-87318628D02*
X131801905Y-87318628D01*
X132754286Y-86890057D02*
X132801905Y-86842438D01*
X132801905Y-86842438D02*
X132897143Y-86794819D01*
X132897143Y-86794819D02*
X133135238Y-86794819D01*
X133135238Y-86794819D02*
X133230476Y-86842438D01*
X133230476Y-86842438D02*
X133278095Y-86890057D01*
X133278095Y-86890057D02*
X133325714Y-86985295D01*
X133325714Y-86985295D02*
X133325714Y-87080533D01*
X133325714Y-87080533D02*
X133278095Y-87223390D01*
X133278095Y-87223390D02*
X132706667Y-87794819D01*
X132706667Y-87794819D02*
X133325714Y-87794819D01*
X169933333Y-97559580D02*
X169885714Y-97607200D01*
X169885714Y-97607200D02*
X169742857Y-97654819D01*
X169742857Y-97654819D02*
X169647619Y-97654819D01*
X169647619Y-97654819D02*
X169504762Y-97607200D01*
X169504762Y-97607200D02*
X169409524Y-97511961D01*
X169409524Y-97511961D02*
X169361905Y-97416723D01*
X169361905Y-97416723D02*
X169314286Y-97226247D01*
X169314286Y-97226247D02*
X169314286Y-97083390D01*
X169314286Y-97083390D02*
X169361905Y-96892914D01*
X169361905Y-96892914D02*
X169409524Y-96797676D01*
X169409524Y-96797676D02*
X169504762Y-96702438D01*
X169504762Y-96702438D02*
X169647619Y-96654819D01*
X169647619Y-96654819D02*
X169742857Y-96654819D01*
X169742857Y-96654819D02*
X169885714Y-96702438D01*
X169885714Y-96702438D02*
X169933333Y-96750057D01*
X170314286Y-96750057D02*
X170361905Y-96702438D01*
X170361905Y-96702438D02*
X170457143Y-96654819D01*
X170457143Y-96654819D02*
X170695238Y-96654819D01*
X170695238Y-96654819D02*
X170790476Y-96702438D01*
X170790476Y-96702438D02*
X170838095Y-96750057D01*
X170838095Y-96750057D02*
X170885714Y-96845295D01*
X170885714Y-96845295D02*
X170885714Y-96940533D01*
X170885714Y-96940533D02*
X170838095Y-97083390D01*
X170838095Y-97083390D02*
X170266667Y-97654819D01*
X170266667Y-97654819D02*
X170885714Y-97654819D01*
X124166666Y-88454819D02*
X124166666Y-89169104D01*
X124166666Y-89169104D02*
X124119047Y-89311961D01*
X124119047Y-89311961D02*
X124023809Y-89407200D01*
X124023809Y-89407200D02*
X123880952Y-89454819D01*
X123880952Y-89454819D02*
X123785714Y-89454819D01*
X124642857Y-89454819D02*
X124642857Y-88454819D01*
X124642857Y-88454819D02*
X125023809Y-88454819D01*
X125023809Y-88454819D02*
X125119047Y-88502438D01*
X125119047Y-88502438D02*
X125166666Y-88550057D01*
X125166666Y-88550057D02*
X125214285Y-88645295D01*
X125214285Y-88645295D02*
X125214285Y-88788152D01*
X125214285Y-88788152D02*
X125166666Y-88883390D01*
X125166666Y-88883390D02*
X125119047Y-88931009D01*
X125119047Y-88931009D02*
X125023809Y-88978628D01*
X125023809Y-88978628D02*
X124642857Y-88978628D01*
X125547619Y-88454819D02*
X126214285Y-88454819D01*
X126214285Y-88454819D02*
X125785714Y-89454819D01*
X163938095Y-97254819D02*
X163938095Y-98064342D01*
X163938095Y-98064342D02*
X163985714Y-98159580D01*
X163985714Y-98159580D02*
X164033333Y-98207200D01*
X164033333Y-98207200D02*
X164128571Y-98254819D01*
X164128571Y-98254819D02*
X164319047Y-98254819D01*
X164319047Y-98254819D02*
X164414285Y-98207200D01*
X164414285Y-98207200D02*
X164461904Y-98159580D01*
X164461904Y-98159580D02*
X164509523Y-98064342D01*
X164509523Y-98064342D02*
X164509523Y-97254819D01*
X165509523Y-98254819D02*
X164938095Y-98254819D01*
X165223809Y-98254819D02*
X165223809Y-97254819D01*
X165223809Y-97254819D02*
X165128571Y-97397676D01*
X165128571Y-97397676D02*
X165033333Y-97492914D01*
X165033333Y-97492914D02*
X164938095Y-97540533D01*
X124166666Y-98454819D02*
X124166666Y-99169104D01*
X124166666Y-99169104D02*
X124119047Y-99311961D01*
X124119047Y-99311961D02*
X124023809Y-99407200D01*
X124023809Y-99407200D02*
X123880952Y-99454819D01*
X123880952Y-99454819D02*
X123785714Y-99454819D01*
X124642857Y-99454819D02*
X124642857Y-98454819D01*
X124642857Y-98454819D02*
X125023809Y-98454819D01*
X125023809Y-98454819D02*
X125119047Y-98502438D01*
X125119047Y-98502438D02*
X125166666Y-98550057D01*
X125166666Y-98550057D02*
X125214285Y-98645295D01*
X125214285Y-98645295D02*
X125214285Y-98788152D01*
X125214285Y-98788152D02*
X125166666Y-98883390D01*
X125166666Y-98883390D02*
X125119047Y-98931009D01*
X125119047Y-98931009D02*
X125023809Y-98978628D01*
X125023809Y-98978628D02*
X124642857Y-98978628D01*
X125690476Y-99454819D02*
X125880952Y-99454819D01*
X125880952Y-99454819D02*
X125976190Y-99407200D01*
X125976190Y-99407200D02*
X126023809Y-99359580D01*
X126023809Y-99359580D02*
X126119047Y-99216723D01*
X126119047Y-99216723D02*
X126166666Y-99026247D01*
X126166666Y-99026247D02*
X126166666Y-98645295D01*
X126166666Y-98645295D02*
X126119047Y-98550057D01*
X126119047Y-98550057D02*
X126071428Y-98502438D01*
X126071428Y-98502438D02*
X125976190Y-98454819D01*
X125976190Y-98454819D02*
X125785714Y-98454819D01*
X125785714Y-98454819D02*
X125690476Y-98502438D01*
X125690476Y-98502438D02*
X125642857Y-98550057D01*
X125642857Y-98550057D02*
X125595238Y-98645295D01*
X125595238Y-98645295D02*
X125595238Y-98883390D01*
X125595238Y-98883390D02*
X125642857Y-98978628D01*
X125642857Y-98978628D02*
X125690476Y-99026247D01*
X125690476Y-99026247D02*
X125785714Y-99073866D01*
X125785714Y-99073866D02*
X125976190Y-99073866D01*
X125976190Y-99073866D02*
X126071428Y-99026247D01*
X126071428Y-99026247D02*
X126119047Y-98978628D01*
X126119047Y-98978628D02*
X126166666Y-98883390D01*
X144166666Y-93454819D02*
X144166666Y-94169104D01*
X144166666Y-94169104D02*
X144119047Y-94311961D01*
X144119047Y-94311961D02*
X144023809Y-94407200D01*
X144023809Y-94407200D02*
X143880952Y-94454819D01*
X143880952Y-94454819D02*
X143785714Y-94454819D01*
X144642857Y-94454819D02*
X144642857Y-93454819D01*
X144642857Y-93454819D02*
X145023809Y-93454819D01*
X145023809Y-93454819D02*
X145119047Y-93502438D01*
X145119047Y-93502438D02*
X145166666Y-93550057D01*
X145166666Y-93550057D02*
X145214285Y-93645295D01*
X145214285Y-93645295D02*
X145214285Y-93788152D01*
X145214285Y-93788152D02*
X145166666Y-93883390D01*
X145166666Y-93883390D02*
X145119047Y-93931009D01*
X145119047Y-93931009D02*
X145023809Y-93978628D01*
X145023809Y-93978628D02*
X144642857Y-93978628D01*
X145595238Y-93550057D02*
X145642857Y-93502438D01*
X145642857Y-93502438D02*
X145738095Y-93454819D01*
X145738095Y-93454819D02*
X145976190Y-93454819D01*
X145976190Y-93454819D02*
X146071428Y-93502438D01*
X146071428Y-93502438D02*
X146119047Y-93550057D01*
X146119047Y-93550057D02*
X146166666Y-93645295D01*
X146166666Y-93645295D02*
X146166666Y-93740533D01*
X146166666Y-93740533D02*
X146119047Y-93883390D01*
X146119047Y-93883390D02*
X145547619Y-94454819D01*
X145547619Y-94454819D02*
X146166666Y-94454819D01*
X134166666Y-88454819D02*
X134166666Y-89169104D01*
X134166666Y-89169104D02*
X134119047Y-89311961D01*
X134119047Y-89311961D02*
X134023809Y-89407200D01*
X134023809Y-89407200D02*
X133880952Y-89454819D01*
X133880952Y-89454819D02*
X133785714Y-89454819D01*
X134642857Y-89454819D02*
X134642857Y-88454819D01*
X134642857Y-88454819D02*
X135023809Y-88454819D01*
X135023809Y-88454819D02*
X135119047Y-88502438D01*
X135119047Y-88502438D02*
X135166666Y-88550057D01*
X135166666Y-88550057D02*
X135214285Y-88645295D01*
X135214285Y-88645295D02*
X135214285Y-88788152D01*
X135214285Y-88788152D02*
X135166666Y-88883390D01*
X135166666Y-88883390D02*
X135119047Y-88931009D01*
X135119047Y-88931009D02*
X135023809Y-88978628D01*
X135023809Y-88978628D02*
X134642857Y-88978628D01*
X136071428Y-88788152D02*
X136071428Y-89454819D01*
X135833333Y-88407200D02*
X135595238Y-89121485D01*
X135595238Y-89121485D02*
X136214285Y-89121485D01*
X144166666Y-88454819D02*
X144166666Y-89169104D01*
X144166666Y-89169104D02*
X144119047Y-89311961D01*
X144119047Y-89311961D02*
X144023809Y-89407200D01*
X144023809Y-89407200D02*
X143880952Y-89454819D01*
X143880952Y-89454819D02*
X143785714Y-89454819D01*
X144642857Y-89454819D02*
X144642857Y-88454819D01*
X144642857Y-88454819D02*
X145023809Y-88454819D01*
X145023809Y-88454819D02*
X145119047Y-88502438D01*
X145119047Y-88502438D02*
X145166666Y-88550057D01*
X145166666Y-88550057D02*
X145214285Y-88645295D01*
X145214285Y-88645295D02*
X145214285Y-88788152D01*
X145214285Y-88788152D02*
X145166666Y-88883390D01*
X145166666Y-88883390D02*
X145119047Y-88931009D01*
X145119047Y-88931009D02*
X145023809Y-88978628D01*
X145023809Y-88978628D02*
X144642857Y-88978628D01*
X146166666Y-89454819D02*
X145595238Y-89454819D01*
X145880952Y-89454819D02*
X145880952Y-88454819D01*
X145880952Y-88454819D02*
X145785714Y-88597676D01*
X145785714Y-88597676D02*
X145690476Y-88692914D01*
X145690476Y-88692914D02*
X145595238Y-88740533D01*
%TO.C,J2*%
D11*
X171890000Y-102600000D02*
X172490000Y-102900000D01*
X171890000Y-103200000D02*
X171890000Y-102600000D01*
X172490000Y-102900000D02*
X171890000Y-103200000D01*
X183410000Y-91990000D02*
X183410000Y-93490000D01*
X183410000Y-93490000D02*
X184910000Y-93740000D01*
X183410000Y-97070000D02*
X183410000Y-98570000D01*
X183410000Y-98570000D02*
X184910000Y-98820000D01*
X183410000Y-102150000D02*
X183410000Y-103650000D01*
X183410000Y-103650000D02*
X184910000Y-103900000D01*
X184910000Y-91740000D02*
X183410000Y-91990000D01*
X184910000Y-93740000D02*
X184910000Y-91740000D01*
X184910000Y-96820000D02*
X183410000Y-97070000D01*
X184910000Y-98820000D02*
X184910000Y-96820000D01*
X184910000Y-101900000D02*
X183410000Y-102150000D01*
X184910000Y-103900000D02*
X184910000Y-101900000D01*
X172690000Y-89090000D02*
X184910000Y-89090000D01*
X184910000Y-106550000D01*
X172690000Y-106550000D01*
X172690000Y-89090000D01*
X181610000Y-89090000D02*
X183410000Y-89090000D01*
X183410000Y-106550000D01*
X181610000Y-106550000D01*
X181610000Y-89090000D01*
%TO.C,JP6*%
X133600000Y-100000000D02*
X136400000Y-100000000D01*
X133600000Y-102000000D02*
X133600000Y-100000000D01*
X136400000Y-100000000D02*
X136400000Y-102000000D01*
X136400000Y-102000000D02*
X133600000Y-102000000D01*
%TO.C,C1*%
X168061252Y-94165000D02*
X167538748Y-94165000D01*
X168061252Y-95635000D02*
X167538748Y-95635000D01*
%TO.C,JP3*%
X143600000Y-100000000D02*
X146400000Y-100000000D01*
X143600000Y-102000000D02*
X143600000Y-100000000D01*
X146400000Y-100000000D02*
X146400000Y-102000000D01*
X146400000Y-102000000D02*
X143600000Y-102000000D01*
%TO.C,R1*%
X144762742Y-86777500D02*
X145237258Y-86777500D01*
X144762742Y-87822500D02*
X145237258Y-87822500D01*
%TO.C,JP5*%
X133600000Y-95000000D02*
X136400000Y-95000000D01*
X133600000Y-97000000D02*
X133600000Y-95000000D01*
X136400000Y-95000000D02*
X136400000Y-97000000D01*
X136400000Y-97000000D02*
X133600000Y-97000000D01*
%TO.C,R4*%
X160277500Y-100937742D02*
X160277500Y-101412258D01*
X161322500Y-100937742D02*
X161322500Y-101412258D01*
%TO.C,JP8*%
X123600000Y-95000000D02*
X126400000Y-95000000D01*
X123600000Y-97000000D02*
X123600000Y-95000000D01*
X126400000Y-95000000D02*
X126400000Y-97000000D01*
X126400000Y-97000000D02*
X123600000Y-97000000D01*
%TO.C,R3*%
X124762742Y-86777500D02*
X125237258Y-86777500D01*
X124762742Y-87822500D02*
X125237258Y-87822500D01*
%TO.C,R2*%
X134762742Y-86777500D02*
X135237258Y-86777500D01*
X134762742Y-87822500D02*
X135237258Y-87822500D01*
D13*
%TO.C,L1*%
G36*
X124215944Y-79160142D02*
G01*
X124317463Y-79165249D01*
X124389325Y-79176699D01*
X124410935Y-79187025D01*
X124414613Y-79243924D01*
X124377942Y-79296616D01*
X124328900Y-79315601D01*
X124274304Y-79335872D01*
X124243009Y-79401981D01*
X124231650Y-79521872D01*
X124231457Y-79545623D01*
X124227397Y-79627823D01*
X124205627Y-79663936D01*
X124151760Y-79672748D01*
X124134015Y-79672890D01*
X124036572Y-79672890D01*
X124036572Y-79415710D01*
X124036572Y-79158531D01*
X124215944Y-79160142D01*
G37*
G36*
X130030011Y-79160142D02*
G01*
X130131529Y-79165249D01*
X130203391Y-79176699D01*
X130225001Y-79187025D01*
X130228680Y-79243924D01*
X130192008Y-79296616D01*
X130142966Y-79315601D01*
X130088370Y-79335872D01*
X130057075Y-79401981D01*
X130045716Y-79521872D01*
X130045524Y-79545623D01*
X130041464Y-79627823D01*
X130019693Y-79663936D01*
X129965827Y-79672748D01*
X129948081Y-79672890D01*
X129850639Y-79672890D01*
X129850639Y-79415710D01*
X129850639Y-79158531D01*
X130030011Y-79160142D01*
G37*
G36*
X124873968Y-79171266D02*
G01*
X124896958Y-79213295D01*
X124892337Y-79235657D01*
X124848126Y-79287264D01*
X124795442Y-79317285D01*
X124748970Y-79343725D01*
X124726085Y-79389881D01*
X124718927Y-79475457D01*
X124718670Y-79509682D01*
X124718670Y-79672890D01*
X124603620Y-79672890D01*
X124488571Y-79672890D01*
X124498058Y-79421163D01*
X124503805Y-79294642D01*
X124512763Y-79219030D01*
X124530220Y-79180305D01*
X124561464Y-79164449D01*
X124596867Y-79159159D01*
X124661281Y-79162534D01*
X124686189Y-79183795D01*
X124705467Y-79200382D01*
X124746848Y-79180826D01*
X124817074Y-79157859D01*
X124873968Y-79171266D01*
G37*
G36*
X126050232Y-79176980D02*
G01*
X126111019Y-79257789D01*
X126143231Y-79392224D01*
X126147826Y-79485232D01*
X126147826Y-79672890D01*
X126034143Y-79672890D01*
X125920460Y-79672890D01*
X125920460Y-79494245D01*
X125915397Y-79383861D01*
X125898539Y-79327875D01*
X125875214Y-79315601D01*
X125826045Y-79341656D01*
X125798332Y-79422444D01*
X125790537Y-79545623D01*
X125786477Y-79627823D01*
X125764706Y-79663936D01*
X125710839Y-79672748D01*
X125693094Y-79672890D01*
X125595652Y-79672890D01*
X125595652Y-79413043D01*
X125595652Y-79153196D01*
X125693094Y-79153196D01*
X125761507Y-79162934D01*
X125790529Y-79186396D01*
X125790537Y-79186820D01*
X125810420Y-79203853D01*
X125853363Y-79186820D01*
X125963476Y-79152443D01*
X126050232Y-79176980D01*
G37*
G36*
X123540105Y-79156196D02*
G01*
X123569100Y-79175855D01*
X123580104Y-79228163D01*
X123581841Y-79329109D01*
X123581841Y-79331841D01*
X123584661Y-79435079D01*
X123596852Y-79488861D01*
X123624012Y-79508580D01*
X123646803Y-79510485D01*
X123684344Y-79502731D01*
X123703901Y-79469206D01*
X123711071Y-79394514D01*
X123711764Y-79331841D01*
X123713400Y-79229713D01*
X123724124Y-79176556D01*
X123752655Y-79156380D01*
X123807717Y-79153197D01*
X123809207Y-79153196D01*
X123906649Y-79153196D01*
X123906649Y-79410776D01*
X123906649Y-79668356D01*
X123684216Y-79669059D01*
X123562799Y-79664149D01*
X123469250Y-79650421D01*
X123424369Y-79632349D01*
X123405014Y-79581861D01*
X123391591Y-79486384D01*
X123386956Y-79374066D01*
X123386956Y-79153196D01*
X123484399Y-79153196D01*
X123540105Y-79156196D01*
G37*
G36*
X128736144Y-78961117D02*
G01*
X128765314Y-78979961D01*
X128777085Y-79030483D01*
X128779704Y-79128323D01*
X128779801Y-79145076D01*
X128780830Y-79331841D01*
X128847472Y-79242519D01*
X128922187Y-79173556D01*
X129020254Y-79153222D01*
X129025087Y-79153196D01*
X129106496Y-79159103D01*
X129130449Y-79183044D01*
X129099926Y-79234355D01*
X129063839Y-79274607D01*
X128991618Y-79351483D01*
X129081953Y-79512186D01*
X129172289Y-79672890D01*
X129056036Y-79672890D01*
X128968669Y-79662233D01*
X128918721Y-79621247D01*
X128902402Y-79590846D01*
X128857634Y-79529986D01*
X128815040Y-79530490D01*
X128786526Y-79591196D01*
X128784633Y-79602352D01*
X128759820Y-79655225D01*
X128695089Y-79672584D01*
X128679070Y-79672890D01*
X128583887Y-79672890D01*
X128583887Y-79315601D01*
X128583887Y-78958312D01*
X128681329Y-78958312D01*
X128736144Y-78961117D01*
G37*
G36*
X123084428Y-78975516D02*
G01*
X123175073Y-79035746D01*
X123202690Y-79062208D01*
X123305754Y-79166105D01*
X123202040Y-79196300D01*
X123117418Y-79210297D01*
X123059908Y-79186795D01*
X123045436Y-79173605D01*
X122995776Y-79130195D01*
X122954166Y-79127322D01*
X122897608Y-79154339D01*
X122853649Y-79210390D01*
X122833398Y-79303768D01*
X122840306Y-79410082D01*
X122854498Y-79459108D01*
X122899791Y-79501561D01*
X122971109Y-79506288D01*
X123042847Y-79474991D01*
X123072104Y-79444639D01*
X123117550Y-79400011D01*
X123175862Y-79401702D01*
X123203869Y-79411354D01*
X123271817Y-79447944D01*
X123283046Y-79493613D01*
X123240185Y-79563051D01*
X123232672Y-79572297D01*
X123135834Y-79642931D01*
X122999456Y-79679049D01*
X122876616Y-79679546D01*
X122761691Y-79637741D01*
X122670918Y-79547736D01*
X122616918Y-79425265D01*
X122607416Y-79343976D01*
X122631923Y-79179687D01*
X122703888Y-79059062D01*
X122820982Y-78984481D01*
X122980874Y-78958325D01*
X122984973Y-78958312D01*
X123084428Y-78975516D01*
G37*
G36*
X126497803Y-79018489D02*
G01*
X126505115Y-79068519D01*
X126523257Y-79135879D01*
X126553836Y-79164942D01*
X126593958Y-79209002D01*
X126602557Y-79249620D01*
X126582486Y-79303324D01*
X126553836Y-79315601D01*
X126517801Y-79340253D01*
X126505203Y-79418930D01*
X126505115Y-79429283D01*
X126515680Y-79513365D01*
X126549399Y-79542761D01*
X126553836Y-79542966D01*
X126593514Y-79570045D01*
X126602557Y-79607928D01*
X126591552Y-79650575D01*
X126547168Y-79669320D01*
X126473777Y-79672890D01*
X126374238Y-79661423D01*
X126319074Y-79622589D01*
X126311373Y-79610063D01*
X126288167Y-79534504D01*
X126277787Y-79437053D01*
X126277749Y-79431419D01*
X126269731Y-79355434D01*
X126249969Y-79316819D01*
X126245268Y-79315601D01*
X126220851Y-79287804D01*
X126212787Y-79234399D01*
X126223906Y-79173357D01*
X126245268Y-79153196D01*
X126274956Y-79127290D01*
X126277749Y-79109689D01*
X126304607Y-79068415D01*
X126367735Y-79025064D01*
X126440960Y-78995478D01*
X126474162Y-78990792D01*
X126497803Y-79018489D01*
G37*
G36*
X125342110Y-79180625D02*
G01*
X125435309Y-79250074D01*
X125495111Y-79342288D01*
X125504545Y-79380562D01*
X125505867Y-79426461D01*
X125485740Y-79451929D01*
X125429480Y-79464519D01*
X125327685Y-79471505D01*
X125211257Y-79483774D01*
X125150086Y-79504238D01*
X125147573Y-79530744D01*
X125193758Y-79556292D01*
X125261387Y-79556240D01*
X125288094Y-79542128D01*
X125348455Y-79523626D01*
X125415406Y-79529226D01*
X125473961Y-79548423D01*
X125476438Y-79574876D01*
X125445959Y-79611827D01*
X125372163Y-79654070D01*
X125264254Y-79674152D01*
X125147902Y-79671829D01*
X125048777Y-79646856D01*
X125003633Y-79616048D01*
X124935739Y-79499574D01*
X124925512Y-79383269D01*
X124942705Y-79339961D01*
X125149040Y-79339961D01*
X125165029Y-79371547D01*
X125222122Y-79380562D01*
X125285362Y-79368132D01*
X125295204Y-79339961D01*
X125255621Y-79305524D01*
X125222122Y-79299360D01*
X125165227Y-79318522D01*
X125149040Y-79339961D01*
X124942705Y-79339961D01*
X124966778Y-79279321D01*
X125053362Y-79199918D01*
X125179092Y-79157249D01*
X125238080Y-79153196D01*
X125342110Y-79180625D01*
G37*
G36*
X127162732Y-78964564D02*
G01*
X127242760Y-78973167D01*
X127288816Y-78995124D01*
X127317671Y-79046944D01*
X127346076Y-79145076D01*
X127374953Y-79239271D01*
X127401204Y-79301202D01*
X127414108Y-79315601D01*
X127432857Y-79286729D01*
X127457764Y-79212131D01*
X127476700Y-79136956D01*
X127516679Y-78958312D01*
X127660513Y-78958312D01*
X127804347Y-78958312D01*
X127804347Y-79315601D01*
X127804347Y-79672890D01*
X127706905Y-79672890D01*
X127609462Y-79672890D01*
X127605824Y-79469884D01*
X127602186Y-79266879D01*
X127551455Y-79469884D01*
X127521542Y-79580163D01*
X127495068Y-79641193D01*
X127462209Y-79667320D01*
X127413141Y-79672889D01*
X127412428Y-79672890D01*
X127366050Y-79668235D01*
X127333779Y-79645406D01*
X127307222Y-79591103D01*
X127277985Y-79492028D01*
X127263792Y-79437404D01*
X127203452Y-79201918D01*
X127193909Y-79437404D01*
X127187712Y-79558842D01*
X127177897Y-79629221D01*
X127159200Y-79662424D01*
X127126353Y-79672332D01*
X127104587Y-79672890D01*
X127024808Y-79672890D01*
X127024808Y-79313733D01*
X127024808Y-78954576D01*
X127162732Y-78964564D01*
G37*
G36*
X129577277Y-79174594D02*
G01*
X129674127Y-79230964D01*
X129737464Y-79316525D01*
X129753196Y-79395326D01*
X129749441Y-79440530D01*
X129728167Y-79465276D01*
X129674365Y-79475712D01*
X129573025Y-79477987D01*
X129551351Y-79478005D01*
X129443033Y-79479437D01*
X129389059Y-79486178D01*
X129378833Y-79501895D01*
X129401398Y-79529897D01*
X129459726Y-79563914D01*
X129517118Y-79547629D01*
X129600670Y-79529748D01*
X129673387Y-79538193D01*
X129765829Y-79562916D01*
X129687324Y-79617903D01*
X129579128Y-79663317D01*
X129451393Y-79674368D01*
X129329644Y-79652204D01*
X129239411Y-79597975D01*
X129239165Y-79597714D01*
X129178513Y-79490464D01*
X129173998Y-79371052D01*
X129192699Y-79330124D01*
X129384821Y-79330124D01*
X129385934Y-79366251D01*
X129435267Y-79379798D01*
X129464595Y-79380562D01*
X129536529Y-79369480D01*
X129550354Y-79339961D01*
X129509996Y-79300050D01*
X129446967Y-79290949D01*
X129394334Y-79314624D01*
X129384821Y-79330124D01*
X129192699Y-79330124D01*
X129225128Y-79259152D01*
X129248267Y-79232922D01*
X129348087Y-79170342D01*
X129463177Y-79152643D01*
X129577277Y-79174594D01*
G37*
G36*
X130666105Y-79177844D02*
G01*
X130732143Y-79215745D01*
X130782276Y-79260650D01*
X130783868Y-79284358D01*
X130747192Y-79302260D01*
X130672889Y-79308652D01*
X130593048Y-79291307D01*
X130521780Y-79274759D01*
X130482827Y-79285042D01*
X130497105Y-79311093D01*
X130555768Y-79333137D01*
X130681527Y-79366414D01*
X130754623Y-79405300D01*
X130787264Y-79458841D01*
X130792583Y-79508646D01*
X130769812Y-79601298D01*
X130729756Y-79639266D01*
X130644973Y-79663033D01*
X130529901Y-79670835D01*
X130415274Y-79662784D01*
X130331827Y-79638992D01*
X130329731Y-79637807D01*
X130282529Y-79589372D01*
X130272890Y-79557593D01*
X130299656Y-79524187D01*
X130362557Y-79510649D01*
X130435499Y-79518211D01*
X130491576Y-79547279D01*
X130549473Y-79567953D01*
X130586484Y-79561772D01*
X130625048Y-79539434D01*
X130603880Y-79513830D01*
X130596787Y-79509236D01*
X130525666Y-79484120D01*
X130475895Y-79478502D01*
X130404138Y-79456839D01*
X130331070Y-79405898D01*
X130281350Y-79345465D01*
X130272890Y-79315601D01*
X130293855Y-79270791D01*
X130337851Y-79218158D01*
X130429812Y-79167040D01*
X130548133Y-79153547D01*
X130666105Y-79177844D01*
G37*
G36*
X128331804Y-79167188D02*
G01*
X128408963Y-79215483D01*
X128446442Y-79307562D01*
X128453964Y-79412707D01*
X128457608Y-79515958D01*
X128466830Y-79596340D01*
X128472367Y-79618092D01*
X128454168Y-79643478D01*
X128388331Y-79660954D01*
X128291714Y-79670373D01*
X128181176Y-79671584D01*
X128073576Y-79664437D01*
X127985771Y-79648784D01*
X127934620Y-79624476D01*
X127933195Y-79622872D01*
X127910436Y-79557108D01*
X127911231Y-79544596D01*
X128113922Y-79544596D01*
X128162555Y-79574165D01*
X128220077Y-79559977D01*
X128247870Y-79525325D01*
X128255662Y-79472438D01*
X128249633Y-79457732D01*
X128210958Y-79455234D01*
X128158124Y-79481270D01*
X128118258Y-79518476D01*
X128113922Y-79544596D01*
X127911231Y-79544596D01*
X127914196Y-79497956D01*
X127941141Y-79445367D01*
X128000967Y-79408760D01*
X128096468Y-79380612D01*
X128188444Y-79353385D01*
X128247393Y-79326020D01*
X128259079Y-79312361D01*
X128233490Y-79288895D01*
X128178715Y-79284514D01*
X128127739Y-79299476D01*
X128115607Y-79311245D01*
X128072940Y-79329226D01*
X128007870Y-79320544D01*
X127951723Y-79293319D01*
X127934271Y-79264236D01*
X127964429Y-79209144D01*
X128048130Y-79170929D01*
X128175214Y-79153745D01*
X128205902Y-79153196D01*
X128331804Y-79167188D01*
G37*
G36*
X130792583Y-71187044D02*
G01*
X131052550Y-71326824D01*
X131283506Y-71517894D01*
X131474275Y-71749077D01*
X131612955Y-72007416D01*
X131685805Y-72186061D01*
X131685805Y-76100000D01*
X131685805Y-80013938D01*
X131612955Y-80192583D01*
X131473175Y-80452550D01*
X131282105Y-80683506D01*
X131050922Y-80874275D01*
X130792583Y-81012955D01*
X130613938Y-81085805D01*
X126764961Y-81092118D01*
X126173458Y-81093001D01*
X125643445Y-81093583D01*
X125171452Y-81093826D01*
X124754010Y-81093696D01*
X124387648Y-81093155D01*
X124068895Y-81092168D01*
X123794280Y-81090699D01*
X123560335Y-81088712D01*
X123363588Y-81086170D01*
X123200569Y-81083038D01*
X123067808Y-81079280D01*
X122961835Y-81074860D01*
X122879178Y-81069741D01*
X122816368Y-81063888D01*
X122769934Y-81057264D01*
X122738127Y-81050306D01*
X122469721Y-80945044D01*
X122225855Y-80784925D01*
X122018101Y-80578748D01*
X121902169Y-80414754D01*
X121871877Y-80365146D01*
X121844705Y-80319984D01*
X121820493Y-80275654D01*
X121799079Y-80228544D01*
X121780300Y-80175044D01*
X121763996Y-80111540D01*
X121750005Y-80034420D01*
X121738166Y-79940074D01*
X121728317Y-79824888D01*
X121720296Y-79685252D01*
X121713942Y-79517552D01*
X121709093Y-79318177D01*
X121705588Y-79083515D01*
X121703266Y-78809954D01*
X121701964Y-78493882D01*
X121701521Y-78131688D01*
X121701776Y-77719758D01*
X121702568Y-77254482D01*
X121703733Y-76732247D01*
X121705112Y-76149441D01*
X121705226Y-76100000D01*
X121974040Y-76100000D01*
X121974040Y-79948977D01*
X122059633Y-80131519D01*
X122204575Y-80370055D01*
X122392909Y-80566782D01*
X122616587Y-80714760D01*
X122832487Y-80798121D01*
X122870361Y-80804577D01*
X122935731Y-80810309D01*
X123031537Y-80815343D01*
X123160721Y-80819704D01*
X123326225Y-80823418D01*
X123530990Y-80826511D01*
X123777957Y-80829007D01*
X124070068Y-80830932D01*
X124410264Y-80832313D01*
X124801488Y-80833173D01*
X125246679Y-80833540D01*
X125748780Y-80833438D01*
X126310731Y-80832892D01*
X126764961Y-80832222D01*
X130548977Y-80825959D01*
X130733310Y-80739546D01*
X130974269Y-80591800D01*
X131172882Y-80396224D01*
X131320398Y-80164766D01*
X131425959Y-79950342D01*
X131425959Y-76100000D01*
X131425959Y-72249657D01*
X131320398Y-72035233D01*
X131168435Y-71798295D01*
X130968684Y-71603859D01*
X130733310Y-71460453D01*
X130548977Y-71374040D01*
X126699317Y-71374040D01*
X122849657Y-71374040D01*
X122635233Y-71479601D01*
X122398295Y-71631564D01*
X122203859Y-71831315D01*
X122060453Y-72066689D01*
X121974040Y-72251023D01*
X121974040Y-76100000D01*
X121705226Y-76100000D01*
X121705422Y-76015465D01*
X121714045Y-72251023D01*
X121714194Y-72186061D01*
X121787044Y-72007416D01*
X121926824Y-71747449D01*
X122117894Y-71516493D01*
X122349077Y-71325725D01*
X122607416Y-71187044D01*
X122786061Y-71114194D01*
X126700000Y-71114194D01*
X130613938Y-71114194D01*
X130792583Y-71187044D01*
G37*
G36*
X126796068Y-73021657D02*
G01*
X127157325Y-73070575D01*
X127497452Y-73177314D01*
X127810840Y-73336892D01*
X128091878Y-73544330D01*
X128334956Y-73794647D01*
X128534466Y-74082860D01*
X128684797Y-74403991D01*
X128780339Y-74753057D01*
X128786619Y-74789040D01*
X128820562Y-74993879D01*
X129259035Y-75002886D01*
X129439655Y-75007646D01*
X129566034Y-75014236D01*
X129648891Y-75024146D01*
X129698944Y-75038864D01*
X129726914Y-75059877D01*
X129733306Y-75068734D01*
X129751729Y-75138669D01*
X129733306Y-75182416D01*
X129710385Y-75205933D01*
X129669007Y-75222635D01*
X129598443Y-75234015D01*
X129487964Y-75241566D01*
X129326840Y-75246779D01*
X129259832Y-75248259D01*
X128822157Y-75257260D01*
X128781962Y-75475625D01*
X128683429Y-75839645D01*
X128529536Y-76172399D01*
X128324011Y-76469456D01*
X128070578Y-76726385D01*
X127772965Y-76938753D01*
X127434898Y-77102130D01*
X127404675Y-77113520D01*
X127264708Y-77161236D01*
X127140403Y-77192159D01*
X127007344Y-77210569D01*
X126841111Y-77220749D01*
X126781202Y-77222836D01*
X126619369Y-77224816D01*
X126467055Y-77221332D01*
X126344830Y-77213124D01*
X126288753Y-77205085D01*
X126188037Y-77177822D01*
X126056900Y-77134756D01*
X125931464Y-77088187D01*
X125598943Y-76922800D01*
X125306717Y-76708246D01*
X125058395Y-76448967D01*
X124857588Y-76149409D01*
X124707907Y-75814015D01*
X124617087Y-75470248D01*
X124577842Y-75257260D01*
X124140167Y-75248259D01*
X123959723Y-75243495D01*
X123833510Y-75236891D01*
X123750799Y-75226957D01*
X123700860Y-75212199D01*
X123672964Y-75191127D01*
X123666693Y-75182416D01*
X123648270Y-75112481D01*
X123666693Y-75068734D01*
X123689448Y-75045351D01*
X123728739Y-75029422D01*
X124920621Y-75029422D01*
X124931613Y-75341322D01*
X124999850Y-75648288D01*
X125125331Y-75943193D01*
X125308057Y-76218907D01*
X125449093Y-76376086D01*
X125713994Y-76597874D01*
X126003196Y-76760694D01*
X126312210Y-76863193D01*
X126636551Y-76904018D01*
X126971729Y-76881813D01*
X127066606Y-76864181D01*
X127380981Y-76765424D01*
X127668567Y-76611551D01*
X127922721Y-76409203D01*
X128136801Y-76165021D01*
X128304167Y-75885648D01*
X128418177Y-75577725D01*
X128438605Y-75492181D01*
X128478831Y-75154224D01*
X128455654Y-74826271D01*
X128370386Y-74512674D01*
X128224338Y-74217784D01*
X128018823Y-73945952D01*
X127950906Y-73874669D01*
X127690099Y-73656615D01*
X127405851Y-73495906D01*
X127105240Y-73392541D01*
X126795344Y-73346519D01*
X126483241Y-73357838D01*
X126176010Y-73426499D01*
X125880729Y-73552498D01*
X125604475Y-73735837D01*
X125449093Y-73875063D01*
X125231109Y-74135410D01*
X125070368Y-74419337D01*
X124966872Y-74719717D01*
X124920621Y-75029422D01*
X123728739Y-75029422D01*
X123730508Y-75028705D01*
X123800534Y-75017330D01*
X123910184Y-75009757D01*
X124070120Y-75004523D01*
X124145619Y-75002855D01*
X124323646Y-74998524D01*
X124446689Y-74993029D01*
X124524729Y-74984843D01*
X124567741Y-74972435D01*
X124585705Y-74954279D01*
X124588746Y-74934969D01*
X124599638Y-74847582D01*
X124628626Y-74718820D01*
X124670175Y-74567817D01*
X124718752Y-74413710D01*
X124768824Y-74275636D01*
X124801365Y-74199689D01*
X124977245Y-73901742D01*
X125202425Y-73639109D01*
X125468894Y-73416520D01*
X125768641Y-73238708D01*
X126093653Y-73110404D01*
X126435917Y-73036340D01*
X126787423Y-73021248D01*
X126796068Y-73021657D01*
G37*
%TO.C,C2*%
D11*
X167659420Y-96690000D02*
X167940580Y-96690000D01*
X167659420Y-97710000D02*
X167940580Y-97710000D01*
%TO.C,JP7*%
X123600000Y-90000000D02*
X126400000Y-90000000D01*
X123600000Y-92000000D02*
X123600000Y-90000000D01*
X126400000Y-90000000D02*
X126400000Y-92000000D01*
X126400000Y-92000000D02*
X123600000Y-92000000D01*
%TO.C,U1*%
X163940000Y-98540000D02*
X168060000Y-98540000D01*
X163940000Y-98635000D02*
X163940000Y-98540000D01*
X163940000Y-103660000D02*
X163940000Y-103565000D01*
X168060000Y-98540000D02*
X168060000Y-98635000D01*
X168060000Y-103565000D02*
X168060000Y-103660000D01*
X168060000Y-103660000D02*
X163940000Y-103660000D01*
X163400000Y-98630000D02*
X163160000Y-98300000D01*
X163640000Y-98300000D01*
X163400000Y-98630000D01*
G36*
X163400000Y-98630000D02*
G01*
X163160000Y-98300000D01*
X163640000Y-98300000D01*
X163400000Y-98630000D01*
G37*
%TO.C,JP9*%
X123600000Y-100000000D02*
X126400000Y-100000000D01*
X123600000Y-102000000D02*
X123600000Y-100000000D01*
X126400000Y-100000000D02*
X126400000Y-102000000D01*
X126400000Y-102000000D02*
X123600000Y-102000000D01*
%TO.C,JP2*%
X143600000Y-95000000D02*
X146400000Y-95000000D01*
X143600000Y-97000000D02*
X143600000Y-95000000D01*
X146400000Y-95000000D02*
X146400000Y-97000000D01*
X146400000Y-97000000D02*
X143600000Y-97000000D01*
%TO.C,JP4*%
X133600000Y-90000000D02*
X136400000Y-90000000D01*
X133600000Y-92000000D02*
X133600000Y-90000000D01*
X136400000Y-90000000D02*
X136400000Y-92000000D01*
X136400000Y-92000000D02*
X133600000Y-92000000D01*
%TO.C,JP1*%
X143600000Y-90000000D02*
X146400000Y-90000000D01*
X143600000Y-92000000D02*
X143600000Y-90000000D01*
X146400000Y-90000000D02*
X146400000Y-92000000D01*
X146400000Y-92000000D02*
X143600000Y-92000000D01*
%TD*%
M02*
