%TF.GenerationSoftware,KiCad,Pcbnew,10.0.3-10.0.3~ubuntu24.04.1*%
%TF.CreationDate,2026-06-25T08:12:37+00:00*%
%TF.ProjectId,streamline_rs485,73747265-616d-46c6-996e-655f72733438,A*%
%TF.SameCoordinates,Original*%
%TF.FileFunction,Profile,NP*%
%FSLAX46Y46*%
G04 Gerber Fmt 4.6, Leading zero omitted, Abs format (unit mm)*
G04 Created by KiCad (PCBNEW 10.0.3-10.0.3~ubuntu24.04.1) date 2026-06-25 08:12:37*
%MOMM*%
%LPD*%
G01*
G04 APERTURE LIST*
%TA.AperFunction,Profile*%
%ADD10C,0.050000*%
%TD*%
G04 APERTURE END LIST*
%TO.C,J1*%
D10*
X115000000Y-112000000D02*
X115000000Y-69999999D01*
X115500000Y-69500000D02*
X184500000Y-69500000D01*
X124850000Y-112500000D02*
X115500000Y-112500000D01*
X124850000Y-112500000D02*
X124850000Y-120450000D01*
X124850000Y-120450000D02*
X125350000Y-120950000D01*
X125350000Y-120950000D02*
X135550000Y-120950000D01*
X136050000Y-113500000D02*
X136050000Y-120450000D01*
X136050000Y-120450000D02*
X135550000Y-120950000D01*
X137950000Y-113500000D02*
X137950000Y-120450000D01*
X137950000Y-120450000D02*
X138450000Y-120950000D01*
X138450000Y-120950000D02*
X175650000Y-120950000D01*
X176150000Y-112500000D02*
X176150000Y-120450000D01*
X176150000Y-112500000D02*
X184500000Y-112500000D01*
X176150000Y-120450000D02*
X175650000Y-120950000D01*
X185000000Y-70000000D02*
X185000000Y-112000000D01*
X114999998Y-69999998D02*
G75*
G02*
X115499998Y-69499998I500001J-1D01*
G01*
X115499999Y-112500001D02*
G75*
G02*
X114999999Y-112000001I1J500001D01*
G01*
X136050000Y-113500000D02*
G75*
G02*
X137950000Y-113500000I950000J0D01*
G01*
X184500000Y-69500000D02*
G75*
G02*
X185000000Y-70000000I0J-500000D01*
G01*
X185000000Y-112000000D02*
G75*
G02*
X184500000Y-112500000I-500000J0D01*
G01*
%TD*%
M02*
